<svg width="148" height="148" viewBox="0 0 148 148" fill="none" xmlns="http://www.w3.org/2000/svg">
<path d="M132 27.2335C132 24.8306 131 22.4277 129.2 20.8258C127.4 19.0236 125.2 18.2227 122.6 18.2227C120.2 18.2227 117.8 19.2239 116 20.8258C115.2 21.6267 111.6 25.2311 108 28.8354C106.2 30.6375 104.6 32.2395 103.2 33.6411C102.8 34.0416 102.2 34.6423 102 35.0428C101.8 35.2431 101.6 35.4433 101.6 35.4433C101.4 35.6435 101.4 35.6435 101.4 35.6435C94 42.6519 86.8 49.2598 76.6 51.6627C74.6 52.0632 72.8 53.0644 71.4 54.6663L23.2 102.724C19.8 106.128 18 110.333 18 114.939C18 119.544 19.8 123.749 23 126.953L23.6 126.152L23 126.753C26.2 129.957 30.4 131.759 35 131.759C39.6 131.759 43.8 129.957 47 126.753L66.8 106.929L66.2 106.328L67 107.129C67.8 106.328 67.8 105.127 67 104.326C66.6 104.126 66.2 103.725 65.6 103.725C65 103.725 64.6 103.925 64.2 104.326L51.4 117.141L32.8 98.7191L74 57.4697C75 56.4685 76.2 55.8678 77.4 55.4673C88.2 52.8642 96 46.056 102.4 40.0488L102.6 39.8486L110.2 47.2574L110 47.4577C104 53.8654 97.2 61.6747 94.4 72.4877C94 73.6891 93.4 74.8906 92.4 75.8918L78.4 89.9086L79.2 90.7095L78.4 90.1088C78.2 90.5093 77.8 90.9098 77.8 91.5105C77.8 92.1112 78 92.5117 78.4 92.9122C78.8 93.1124 79.2 93.5129 79.8 93.5129C80.4 93.5129 80.8 93.3126 81.2 92.9122L95.2 78.8954C96.6 77.4937 97.6 75.6915 98.2 73.6891C100.8 63.4769 107.2 56.2682 114.2 48.8594L129.2 33.8414C131 32.0392 132 29.6363 132 27.2335ZM119 23.6291C120 22.4277 121.2 22.0272 122.6 22.0272C124 22.0272 125.4 22.6279 126.4 23.6291C127.4 24.4301 128 25.8318 128 27.2335C128 28.6351 127.4 30.0368 126.4 31.038L112.8 44.6543L105.4 37.2455L119 23.6291ZM25.8 105.728L30 101.322L48.4 119.744L44.2 124.15C41.8 126.552 38.4 127.954 35 127.954C31.4 127.954 28.2 126.552 25.8 124.15C23.2 121.747 22 118.343 22 114.939C22 111.334 23.2 108.13 25.8 105.728Z" fill="#98A782"/>
<path d="M64.6 92.7119L63.8 93.5129C64.2 93.7131 64.6 94.1136 65.2 94.1136C65.6 94.1136 66.2 93.9134 66.6 93.5129L87.4 72.6879C87.6 72.2874 88 71.887 88 71.2862C88 70.6855 87.8 70.285 87.4 69.8846L80 62.4757C79.6 62.0752 79.2 61.875 78.6 61.875C78 61.875 77.6 62.0752 77.2 62.4757L56.6 83.3006C56.2 83.5009 56 84.1016 56 84.7023C56 85.303 56.2 85.7035 56.6 86.104L64 93.5129L64.6 92.7119ZM60.8 84.7023L78.8 66.6807L83.4 71.2862L65.4 89.3078L60.8 84.7023Z" fill="#98A782"/>
<path d="M46.4 103.725C47.8 105.127 49.4 105.728 51.4 105.728C53.2 105.728 55 104.927 56.4 103.725C57.8 102.323 58.4 100.722 58.4 98.7191C58.4 96.917 57.6 95.1148 56.4 93.7131H56C54.6 92.3114 53 91.7107 51 91.7107C49.2 91.7107 47.4 92.5117 46 93.7131C44.6 95.1148 44 96.7167 44 98.7191C44.2 100.521 44.8 102.323 46.4 103.725ZM49 100.722C48.4 100.121 48 99.5201 48 98.5189C48 97.7179 48.4 96.917 48.8 96.3162C49.4 95.7155 50.2 95.5153 51 95.5153C51.8 95.5153 52.6 95.9158 53.2 96.3162L53.4 96.5165C54 97.1172 54.4 97.9182 54.4 98.7191C54.4 99.5201 54 100.321 53.6 100.922C53 101.522 52.2 101.723 51.4 101.723C50.4 101.923 49.6 101.522 49 100.722Z" fill="#98A782"/>
<path d="M74.4 97.9182C74 97.1172 73.4 96.7167 72.6 96.7167C71.8 96.7167 71 97.3174 70.8 98.1184C70.6 98.9194 70.8 99.7203 71.4 100.321C71.8 100.521 72.2 100.722 72.6 100.722C72.8 100.722 73.2 100.722 73.6 100.321C73.6 100.321 73.6 100.321 73.8 100.121C74.4 99.5201 74.6 98.7191 74.4 97.9182Z" fill="#98A782"/>
</svg>
