<svg width="148" height="148" viewBox="0 0 148 148" fill="none" xmlns="http://www.w3.org/2000/svg">
<g clip-path="url(#clip0)">
<path d="M64.8006 122C64.2006 122 56.2006 122 55.8006 122C55.2006 122 54.6006 121.8 54.6006 121.2C54.6006 120.6 55.2006 120.4 55.8006 120.4C57.2006 120.4 66.2006 120.4 67.6006 120.4C69.0006 120.4 75.4006 120.4 76.8006 120.4C77.0006 120.4 78.0006 120.4 78.0006 121.2C78.0006 122 77.0006 122 76.8006 122C76.6006 122 75.2006 122 73.8006 122C72.2006 122 70.4006 122 70.2006 122H64.8006Z" fill="#98A782"/>
<path d="M69.8004 123H64.8004C62.2004 123 56.0004 123 55.6004 123C54.4004 123 53.4004 122.2 53.4004 121.2C53.4004 120.2 54.2004 119.4 55.6004 119.4C57.0004 119.4 66.0004 119.4 67.4004 119.4C68.8004 119.4 75.2004 119.4 76.6004 119.4C77.8004 119.4 78.6004 120.2 78.6004 121.2C78.6004 121.6 78.4004 122 78.2004 122.4C77.6004 123 76.6004 123 76.4004 123H69.8004Z" fill="#98A782"/>
<path d="M80 121.2C80 121.6 80.4 122 80.8 122C81 122 81.2 122 81.4 121.8C81.6 121.6 81.6 121.4 81.6 121.2C81.6 120.8 81.2 120.4 80.8 120.4C80.4 120.4 80 120.8 80 121.2Z" fill="#98A782"/>
<path d="M80.8 123C79.8 123 79 122.2 79 121.2C79 120.2 79.8 119.4 80.8 119.4C81.8 119.4 82.6 120.2 82.6 121.2C82.6 121.8 82.4 122.2 82.2 122.4C81.8 122.8 81.2 123 80.8 123ZM81 121.2H80.6C80.6 121.4 81 121.6 81 121.2ZM81 121H80.8H81Z" fill="#98A782"/>
<path fill-rule="evenodd" clip-rule="evenodd" d="M90 64.8C90.4 64.6 91 64.6 91.2 65C94 70 95.4 75.4 95.6 80.8C95.6 95.8 95.6 111.2 95.6 125.4C95.6 128.8 93.4 131 90 131C84 131 78 131 72.2 131C66.4 131 60.4 131 54.6 131C51.4 131 49 128.8 49 125.4V122.4C49 108.8 49 94.8 49 81C49 74 51.2 67.6 55.4 61.8C59.6 56 61.8 50.4 62.2 44.4C62.4 41.4 62.4 38.4 62.4 35.4C62.4 35 62.4 34.4 62.4 34C62.4 33 62.4 32 62.4 31.2V29.8C62.4 29.8 60.2 29.8 59.8 29.8C58 29.6 58 29.2 58 28.8C58 28.4 58 28 60 28C60.4 28 62.6 28 62.6 28C62.6 28 62.6 25.2 62.6 24.6V20.6C62.6 19.2 62.8 19 64.2 19C67 19 69.8 19 72.6 19H80.8C82 19 82.2 19.2 82.2 20.4C82.2 21.4 82.2 22.2 82.2 23.2C82.2 23.6 82.2 24 82.2 24.6V26.4V28H85.4C86.2 28 86.6 28.4 86.6 29C86.6 29.2 86.6 29.8 85.6 29.8H85.4C85.2 29.8 85.2 29.8 85 29.8H82.4V31.2C82.4 31.6 82.4 31.8 82.4 32.2C82.4 32.6 82.4 32.8 82.4 33.2C82.2 41.6 82.2 44.6 84.2 53.2C84.2 53.6 84.2 53.8 84 54.2L83.2 55.2L80 59C79.4 59.6 79 60.2 78.4 61C77 62.6 75.6 64.4 74.2 66C73.6 66.8 73.6 67.6 73.6 68.2C73.6 68.8 73.6 69.6 73.6 70.4C73.6 72 73.6 73.6 73.8 75.4C74.2 79 73.2 81.6 70.2 83.6C69.6 84 69.2 84.6 68.8 85C68.8 85 67.6 86 66.6 87C65.6 88 64.4 89 64 89.4C63.8 89.6 63.8 89.8 64 90C63.4 90 63.6 90 63.8 90C65.6 89.4 69.4 87.8 72.6 86.6C74.2 86 75.6 85.4 76.4 85C76.8 84.8 77 84.8 77.4 84.6C77.8 84.4 78 84.4 78.4 84.2C80.2 83.6 80.4 82.2 80.4 81.2C80.4 79.8 80.4 78.2 80.4 76.6C80.4 74.8 80.4 73 80.4 71.2C80.4 70.2 80.6 69.8 81.6 69.4C82.8 68.8 84.2 68 85.4 67.4C85.6 67.2 86 67.2 86.2 67C86.8 66.6 87.6 66.2 88.2 65.8L89.6 65L90 64.8ZM64.2 31.2V34C64.2 34.6 64.2 35 64.2 35.4C64.2 36.8 64.2 38.2 64.2 39.6C64.4 48 62 55.8 57 62.4C52.8 68.2 50.6 74.8 50.6 82.4V124.6C50.6 128 52 129.2 55.2 129.4H89C92.4 129.4 93.8 128 93.8 124.6V83C93.8 80 93.6 77.4 93 75C92.4 72.6 91.8 70.2 90.6 68L90 66.8L88.8 67.4C88.6 67.6 88.4 67.6 88.2 67.8C88 68 87.6 68.2 87.4 68.2L87 68.4C86 69 85.2 69.4 84.2 69.8C82.8 70.4 82.2 71.4 82.2 73C82.2 75.4 82.2 77.8 82.2 80V82.6C82.2 83 82.2 84 82 84.2C81.8 84.4 81 84.8 80.6 85C78.6 85.8 76.6 86.6 74.6 87.4C72.6 88.2 70.6 89 68.6 89.8C65.8 91 59.8 93.2 59.8 93.2H59.6C59.4 93.2 59.2 93.4 59 93.4H58.8C58.6 93.4 58.4 93.2 58.2 93C58 93.2 58 93 58 92.8C58 92.6 58.4 92.2 58.8 91.8L62 88.6C64.8 85.8 67.4 83.2 70.2 80.4C71 79.6 71.4 78.6 71.4 77.4C71.4 75.8 71.4 74.4 71.4 72.8C71.4 71 71.4 69.2 71.4 67.2C71.4 66.2 71.6 65.6 72.2 64.8C73.2 63.6 74.2 62.6 75.2 61.4C75.8 60.6 76.6 59.8 77.2 59.2C78 58.2 79 57.2 79.8 56.2C80.2 55.6 80.6 55.2 81.2 54.6C81.8 54 82.6 52.8 82 51.2C81.4 49.6 81.2 47.8 81 46.6C80.6 43.6 80.6 40.6 80.6 37.4V37C80.6 36.6 80.6 36 80.6 35.6C80.6 34.6 80.6 33.6 80.6 32.8V32.4C80.6 32 80.6 29.8 80.6 29.8H64.2V31.2ZM64.2 27.8H80.2V20.8H64.2V27.8Z" fill="#98A782"/>
<path d="M72.2 132C66.2 132 60.4 132 54.6 132C50.8 132 48 129.2 48 125.4V122.4C48 107 48 93.4 48 81C48 73.8 50.2 67.2 54.6 61.2C58.6 55.6 60.8 50 61.2 44.4C61.4 41.4 61.4 38.4 61.4 35.4V34C61.4 33 61.4 32 61.4 31.2V30.8C60.8 30.8 60 30.8 59.8 30.8C59 30.8 57.2 30.8 57.2 29C57.2 27.4 58.6 27.2 60 27C60.2 27 61 27 61.6 27C61.6 26.2 61.6 25 61.6 24.6V20.6C61.4 18.6 62 18 64 18C66.8 18 69.6 18 72.4 18H80.6C82.4 18 83 18.6 83 20.4C83 21.2 83 22.2 83 23.2V26.8H85.2C86.8 26.8 87.4 27.8 87.4 28.6C87.4 29.8 86.6 30.4 85.4 30.4L85.2 29.4V30.4C85 30.4 84.8 30.4 84.8 30.4H83.2V32.8C83 41 83 44 85 52.6C85.2 53.2 85 54 84.6 54.4L83.8 55.4L78.8 61.4C77.4 63 76 64.6 74.6 66.2C74.2 66.8 74.2 67.2 74.2 67.8C74.2 68.6 74.2 69.2 74.2 70C74.2 71.6 74.2 73.2 74.4 74.8C75 78.6 73.6 81.6 70.4 84C69.8 84.4 69.4 84.8 69.2 85.2C69.2 85.2 69 85.4 67 87.2C66.4 87.6 66.2 87.8 66 88C67.8 87.2 70.2 86.4 72.2 85.6L72.4 85.4C74 84.8 75.2 84.2 76 84L78 83.2C79.2 82.8 79.4 82.2 79.4 81.2C79.4 79.8 79.4 78.2 79.4 76.6C79.4 74.8 79.4 73 79.4 71.2C79.4 69.8 79.8 69 81 68.4C82.2 67.8 83.4 67.2 84.8 66.4L85.6 66C86.2 65.6 87 65.2 87.6 64.8L89.4 63.8C89.8 63.6 90.4 63.4 90.8 63.6C91.2 63.8 91.8 64 92 64.4C95 69.6 96.4 75 96.4 80.6C96.4 95.6 96.4 110.6 96.4 125C96.4 129 93.8 131.6 89.8 131.8C84 132 78 132 72.2 132ZM65.2 32.2V35.4C65.2 36.8 65.2 38.2 65.2 39.6C65.4 48.2 62.8 56.2 57.8 63C53.8 68.6 51.6 75 51.6 82.4V124.6C51.6 127.4 52.4 128.2 55.2 128.4H89C91.8 128.4 92.8 127.6 92.8 124.6V83C92.8 80.2 92.6 77.6 92 75.2C91.4 72.6 90.8 70.6 89.6 68.6L89.4 68.2L88.4 68.8C88 69 87.8 69.2 87.6 69.2L87.2 69.4C86.2 70 85.2 70.4 84.2 71C83.2 71.4 82.8 72.2 82.8 73.2C82.8 75.6 82.8 78 82.8 80.4V83C82.8 84 82.8 84.8 82.4 85.2C82.2 85.6 81.6 86 80.6 86.4L59.8 94.4C59.6 94.4 59.4 94.6 59.2 94.6H58.8C58.2 94.6 57.8 94.4 57.4 94C57 93.6 57 93 57 92.4C57.2 92 57.6 91.4 58 91L61.6 87.4C64.2 84.8 66.8 82.2 69.4 79.8C70 79.2 70.4 78.4 70.4 77.6C70.4 76 70.4 74.6 70.4 73C70.4 71.2 70.4 69.4 70.4 67.4C70.4 66.2 70.8 65.2 71.6 64.4C72.6 63.2 73.6 62.2 74.6 61L80.6 54C81.4 53.2 81.4 52.4 81.2 51.6C80.8 50.2 80.4 48.6 80 46.8C79.6 43.8 79.6 40.6 79.6 37.4V35.6C79.6 34.6 79.6 33.8 79.6 32.8V32.4C79.6 32.2 79.6 31.4 79.6 30.8H65.2V32.2ZM59.2 92.8L59.8 93.6L59.2 92.8C59.4 92.6 59.2 92.6 59.2 92.8ZM62.2 89.8L59.4 92.6L63.4 91C63 91 62.8 90.8 62.4 90.4C62.4 90.2 62.2 90 62.2 89.8ZM81 83.2C80.8 83.6 80.6 84 80.4 84.2C80.8 84 81 84 81 84C81 83.8 81 83.6 81 83.2ZM82 70.4C81.6 70.6 81.4 70.8 81.4 71.4C81.6 71 81.6 70.6 82 70.4ZM83 53.2C83 53.4 83 53.4 83 53.2C83 53.4 83 53.4 83 53.2ZM65.2 26.8H79.2V21.8H65.2V26.8Z" fill="#98A782"/>
</g>
<defs>
<clipPath id="clip0">
<rect width="48.4" height="114" fill="white" transform="translate(48 18)"/>
</clipPath>
</defs>
</svg>
