<svg width="148" height="148" viewBox="0 0 148 148" fill="none" xmlns="http://www.w3.org/2000/svg">
<mask id="path-1-outside-1" maskUnits="userSpaceOnUse" x="21" y="21" width="106" height="106" fill="black">
<rect fill="white" x="21" y="21" width="106" height="106"/>
<path fill-rule="evenodd" clip-rule="evenodd" d="M97.291 22.0041C104.976 22.1329 112.188 25.2306 117.599 30.7265C123.016 36.2292 125.999 43.5013 125.999 51.204V72.3715C125.999 74.1094 124.585 75.5232 122.847 75.5232H121.114V83.7695C121.114 84.6108 120.432 85.2929 119.591 85.2929C118.749 85.2929 118.067 84.6108 118.067 83.7695V75.5232H116.334C114.596 75.5232 113.182 74.1094 113.182 72.3715V58.3276C113.182 57.4863 113.864 56.8042 114.706 56.8042C115.547 56.8042 116.229 57.4863 116.229 58.3276V72.3715C116.229 72.4294 116.276 72.4763 116.334 72.4763H122.847C122.905 72.4763 122.952 72.4294 122.952 72.3715V51.2042C122.952 44.3065 120.28 37.7933 115.427 32.8642C110.581 27.9409 104.121 25.166 97.2396 25.0508C90.3917 24.9377 83.8504 27.6004 78.8143 32.5528C73.618 37.6627 70.6377 44.728 70.6377 51.9371V57.822H77.3608V51.204C77.3608 45.7523 79.6803 40.5143 83.7243 36.8329C87.8215 33.1033 93.1265 31.3365 98.6648 31.8577C103.508 32.3136 107.976 34.631 111.243 38.3831C114.459 42.076 116.23 46.8155 116.23 51.7287C116.23 52.57 115.548 53.2521 114.706 53.2521C113.865 53.2521 113.183 52.57 113.183 51.7287C113.183 43.0684 106.68 35.6724 98.3792 34.891C93.7071 34.4517 89.2304 35.941 85.7755 39.086C82.3642 42.1911 80.4079 46.6081 80.4079 51.204V57.822H85.3974C88.033 57.822 90.1774 59.9662 90.1774 62.602V85.3975C90.1774 88.0331 88.0332 90.1775 85.3974 90.1775H80.4079V96.0624C80.4079 104.083 77.0959 111.94 71.3209 117.619C65.8145 123.034 58.68 125.999 51.1846 125.999C51.0258 125.999 50.8676 125.998 50.7083 125.995C43.0231 125.867 35.8109 122.769 30.4002 117.273C24.9833 111.77 22 104.498 22 96.7953V75.628C22 73.8901 23.4138 72.4763 25.1517 72.4763H26.8848V64.23C26.8848 63.3887 27.5669 62.7066 28.4082 62.7066C29.2495 62.7066 29.9316 63.3887 29.9316 64.23V72.4763H31.6649C33.4028 72.4763 34.8166 73.8901 34.8166 75.628V89.6719C34.8166 90.5132 34.1345 91.1953 33.2932 91.1953C32.4518 91.1953 31.7697 90.5132 31.7697 89.6719V75.628C31.7697 75.5701 31.7228 75.5232 31.6649 75.5232H25.1519C25.094 75.5232 25.0471 75.5701 25.0471 75.628V96.7953C25.0471 103.693 27.7192 110.206 32.5717 115.135C37.4182 120.059 43.8776 122.834 50.7593 122.949C57.6081 123.063 64.1485 120.399 69.1846 115.447C74.3809 110.337 77.3612 103.272 77.3612 96.0624V90.1775H70.6383V96.7955C70.6383 102.247 68.3189 107.485 64.2748 111.167C60.6482 114.468 56.0743 116.231 51.2316 116.231C50.6031 116.231 49.9706 116.202 49.3344 116.142C44.4906 115.686 40.0235 113.368 36.756 109.616C33.5404 105.924 31.7693 101.184 31.7693 96.2708C31.7693 95.4295 32.4514 94.7474 33.2928 94.7474C34.1341 94.7474 34.8162 95.4295 34.8162 96.2708C34.8162 104.931 41.3186 112.327 49.62 113.108C54.2918 113.548 58.7687 112.059 62.2237 108.914C65.635 105.808 67.5913 101.391 67.5913 96.7955V90.1775H62.6017C59.9661 90.1775 57.8218 88.0333 57.8218 85.3975V62.6018C57.8218 59.9662 59.9659 57.8218 62.6017 57.8218H67.5913V51.9369C67.5913 43.9165 70.9032 36.0592 76.6783 30.3802C82.3014 24.8505 89.6222 21.8733 97.291 22.0041ZM87.1305 62.602C87.1305 61.6465 86.3529 60.8689 85.3974 60.8689H62.6017C61.6462 60.8689 60.8686 61.6463 60.8686 62.602V85.3977C60.8686 86.3532 61.646 87.1308 62.6017 87.1308H85.3974C86.3529 87.1308 87.1305 86.3534 87.1305 85.3977V62.602ZM77.2567 72.4767C77.7623 72.4767 78.2347 72.7274 78.5181 73.1462C78.8017 73.5647 78.8587 74.0967 78.6711 74.5661L75.4146 82.7076C75.1763 83.3031 74.6043 83.6655 73.9996 83.6655C73.8113 83.6655 73.6199 83.6304 73.4343 83.556C72.6531 83.2436 72.273 82.357 72.5856 81.5757L75.0065 75.5236H70.7435C70.2381 75.5236 69.7654 75.2729 69.4821 74.8543C69.1985 74.4359 69.1414 73.9039 69.3291 73.4345L72.5856 65.293C72.898 64.5118 73.7845 64.1311 74.5659 64.4443C75.3471 64.7567 75.7272 65.6434 75.4146 66.4246L72.9937 72.4767H77.2567ZM26.5149 58.6647L24.8867 55.4082C24.5105 54.6556 23.5954 54.3503 22.8428 54.7269C22.0902 55.1031 21.7851 56.0181 22.1615 56.7707L23.7898 60.0272C24.0567 60.561 24.5946 60.8696 25.1536 60.8696C25.3825 60.8696 25.6149 60.8178 25.8336 60.7085C26.5862 60.3323 26.8913 59.4172 26.5149 58.6647ZM31.931 55.4081C32.3072 54.6557 33.2222 54.3502 33.9748 54.7268C34.7274 55.103 35.0325 56.0181 34.6561 56.7707L33.0279 60.0272C32.7609 60.5608 32.2229 60.8696 31.6641 60.8696C31.4351 60.8696 31.2028 60.818 30.984 60.7085C30.2314 60.3323 29.9265 59.4172 30.3027 58.6646L31.931 55.4081ZM125.843 91.23L124.214 87.9735C123.838 87.2209 122.923 86.9156 122.171 87.2922C121.418 87.6684 121.113 88.5834 121.489 89.336L123.118 92.5925C123.384 93.1263 123.922 93.4349 124.481 93.4349C124.71 93.4349 124.943 93.3831 125.161 93.2738C125.914 92.8976 126.219 91.9825 125.843 91.23ZM114.969 87.9734C115.345 87.221 116.26 86.9156 117.013 87.2921C117.765 87.6683 118.071 88.5834 117.694 89.336L116.066 92.5925C115.799 93.1261 115.261 93.4349 114.702 93.4349C114.473 93.4349 114.241 93.3833 114.022 93.2738C113.27 92.8976 112.964 91.9825 113.341 91.2299L114.969 87.9734Z"/>
</mask>
<path fill-rule="evenodd" clip-rule="evenodd" d="M97.291 22.0041C104.976 22.1329 112.188 25.2306 117.599 30.7265C123.016 36.2292 125.999 43.5013 125.999 51.204V72.3715C125.999 74.1094 124.585 75.5232 122.847 75.5232H121.114V83.7695C121.114 84.6108 120.432 85.2929 119.591 85.2929C118.749 85.2929 118.067 84.6108 118.067 83.7695V75.5232H116.334C114.596 75.5232 113.182 74.1094 113.182 72.3715V58.3276C113.182 57.4863 113.864 56.8042 114.706 56.8042C115.547 56.8042 116.229 57.4863 116.229 58.3276V72.3715C116.229 72.4294 116.276 72.4763 116.334 72.4763H122.847C122.905 72.4763 122.952 72.4294 122.952 72.3715V51.2042C122.952 44.3065 120.28 37.7933 115.427 32.8642C110.581 27.9409 104.121 25.166 97.2396 25.0508C90.3917 24.9377 83.8504 27.6004 78.8143 32.5528C73.618 37.6627 70.6377 44.728 70.6377 51.9371V57.822H77.3608V51.204C77.3608 45.7523 79.6803 40.5143 83.7243 36.8329C87.8215 33.1033 93.1265 31.3365 98.6648 31.8577C103.508 32.3136 107.976 34.631 111.243 38.3831C114.459 42.076 116.23 46.8155 116.23 51.7287C116.23 52.57 115.548 53.2521 114.706 53.2521C113.865 53.2521 113.183 52.57 113.183 51.7287C113.183 43.0684 106.68 35.6724 98.3792 34.891C93.7071 34.4517 89.2304 35.941 85.7755 39.086C82.3642 42.1911 80.4079 46.6081 80.4079 51.204V57.822H85.3974C88.033 57.822 90.1774 59.9662 90.1774 62.602V85.3975C90.1774 88.0331 88.0332 90.1775 85.3974 90.1775H80.4079V96.0624C80.4079 104.083 77.0959 111.94 71.3209 117.619C65.8145 123.034 58.68 125.999 51.1846 125.999C51.0258 125.999 50.8676 125.998 50.7083 125.995C43.0231 125.867 35.8109 122.769 30.4002 117.273C24.9833 111.77 22 104.498 22 96.7953V75.628C22 73.8901 23.4138 72.4763 25.1517 72.4763H26.8848V64.23C26.8848 63.3887 27.5669 62.7066 28.4082 62.7066C29.2495 62.7066 29.9316 63.3887 29.9316 64.23V72.4763H31.6649C33.4028 72.4763 34.8166 73.8901 34.8166 75.628V89.6719C34.8166 90.5132 34.1345 91.1953 33.2932 91.1953C32.4518 91.1953 31.7697 90.5132 31.7697 89.6719V75.628C31.7697 75.5701 31.7228 75.5232 31.6649 75.5232H25.1519C25.094 75.5232 25.0471 75.5701 25.0471 75.628V96.7953C25.0471 103.693 27.7192 110.206 32.5717 115.135C37.4182 120.059 43.8776 122.834 50.7593 122.949C57.6081 123.063 64.1485 120.399 69.1846 115.447C74.3809 110.337 77.3612 103.272 77.3612 96.0624V90.1775H70.6383V96.7955C70.6383 102.247 68.3189 107.485 64.2748 111.167C60.6482 114.468 56.0743 116.231 51.2316 116.231C50.6031 116.231 49.9706 116.202 49.3344 116.142C44.4906 115.686 40.0235 113.368 36.756 109.616C33.5404 105.924 31.7693 101.184 31.7693 96.2708C31.7693 95.4295 32.4514 94.7474 33.2928 94.7474C34.1341 94.7474 34.8162 95.4295 34.8162 96.2708C34.8162 104.931 41.3186 112.327 49.62 113.108C54.2918 113.548 58.7687 112.059 62.2237 108.914C65.635 105.808 67.5913 101.391 67.5913 96.7955V90.1775H62.6017C59.9661 90.1775 57.8218 88.0333 57.8218 85.3975V62.6018C57.8218 59.9662 59.9659 57.8218 62.6017 57.8218H67.5913V51.9369C67.5913 43.9165 70.9032 36.0592 76.6783 30.3802C82.3014 24.8505 89.6222 21.8733 97.291 22.0041ZM87.1305 62.602C87.1305 61.6465 86.3529 60.8689 85.3974 60.8689H62.6017C61.6462 60.8689 60.8686 61.6463 60.8686 62.602V85.3977C60.8686 86.3532 61.646 87.1308 62.6017 87.1308H85.3974C86.3529 87.1308 87.1305 86.3534 87.1305 85.3977V62.602ZM77.2567 72.4767C77.7623 72.4767 78.2347 72.7274 78.5181 73.1462C78.8017 73.5647 78.8587 74.0967 78.6711 74.5661L75.4146 82.7076C75.1763 83.3031 74.6043 83.6655 73.9996 83.6655C73.8113 83.6655 73.6199 83.6304 73.4343 83.556C72.6531 83.2436 72.273 82.357 72.5856 81.5757L75.0065 75.5236H70.7435C70.2381 75.5236 69.7654 75.2729 69.4821 74.8543C69.1985 74.4359 69.1414 73.9039 69.3291 73.4345L72.5856 65.293C72.898 64.5118 73.7845 64.1311 74.5659 64.4443C75.3471 64.7567 75.7272 65.6434 75.4146 66.4246L72.9937 72.4767H77.2567ZM26.5149 58.6647L24.8867 55.4082C24.5105 54.6556 23.5954 54.3503 22.8428 54.7269C22.0902 55.1031 21.7851 56.0181 22.1615 56.7707L23.7898 60.0272C24.0567 60.561 24.5946 60.8696 25.1536 60.8696C25.3825 60.8696 25.6149 60.8178 25.8336 60.7085C26.5862 60.3323 26.8913 59.4172 26.5149 58.6647ZM31.931 55.4081C32.3072 54.6557 33.2222 54.3502 33.9748 54.7268C34.7274 55.103 35.0325 56.0181 34.6561 56.7707L33.0279 60.0272C32.7609 60.5608 32.2229 60.8696 31.6641 60.8696C31.4351 60.8696 31.2028 60.818 30.984 60.7085C30.2314 60.3323 29.9265 59.4172 30.3027 58.6646L31.931 55.4081ZM125.843 91.23L124.214 87.9735C123.838 87.2209 122.923 86.9156 122.171 87.2922C121.418 87.6684 121.113 88.5834 121.489 89.336L123.118 92.5925C123.384 93.1263 123.922 93.4349 124.481 93.4349C124.71 93.4349 124.943 93.3831 125.161 93.2738C125.914 92.8976 126.219 91.9825 125.843 91.23ZM114.969 87.9734C115.345 87.221 116.26 86.9156 117.013 87.2921C117.765 87.6683 118.071 88.5834 117.694 89.336L116.066 92.5925C115.799 93.1261 115.261 93.4349 114.702 93.4349C114.473 93.4349 114.241 93.3833 114.022 93.2738C113.27 92.8976 112.964 91.9825 113.341 91.2299L114.969 87.9734Z" fill="#98A782"/>
<path d="M117.599 30.7265L117.67 30.6564L117.67 30.6564L117.599 30.7265ZM97.291 22.0041L97.2893 22.1041L97.2893 22.1041L97.291 22.0041ZM125.999 51.204L125.899 51.204V51.204H125.999ZM121.114 75.5232V75.4232H121.014V75.5232H121.114ZM118.067 75.5232H118.167V75.4232H118.067V75.5232ZM115.427 32.8642L115.356 32.9344L115.356 32.9344L115.427 32.8642ZM97.2396 25.0508L97.2413 24.9508L97.2413 24.9508L97.2396 25.0508ZM78.8143 32.5528L78.8845 32.6241V32.6241L78.8143 32.5528ZM70.6377 57.822H70.5377V57.922H70.6377V57.822ZM77.3608 57.822V57.922H77.4608V57.822H77.3608ZM83.7243 36.8329L83.657 36.7589L83.657 36.7589L83.7243 36.8329ZM98.6648 31.8577L98.6554 31.9573L98.6648 31.8577ZM111.243 38.3831L111.319 38.3175V38.3175L111.243 38.3831ZM98.3792 34.891L98.3885 34.7915L98.3885 34.7915L98.3792 34.891ZM85.7755 39.086L85.8428 39.1599V39.1599L85.7755 39.086ZM80.4079 57.822H80.3079V57.922H80.4079V57.822ZM80.4079 90.1775V90.0775H80.3079V90.1775H80.4079ZM71.3209 117.619L71.2507 117.548L71.2507 117.548L71.3209 117.619ZM50.7083 125.995L50.7066 126.095H50.7066L50.7083 125.995ZM30.4002 117.273L30.4715 117.203L30.4002 117.273ZM26.8848 72.4763V72.5763H26.9848V72.4763H26.8848ZM29.9316 72.4763H29.8316V72.5763H29.9316V72.4763ZM32.5717 115.135L32.6429 115.065H32.6429L32.5717 115.135ZM50.7593 122.949L50.761 122.849H50.761L50.7593 122.949ZM69.1846 115.447L69.1145 115.375V115.375L69.1846 115.447ZM77.3612 90.1775H77.4612V90.0775H77.3612V90.1775ZM70.6383 90.1775V90.0775H70.5383V90.1775H70.6383ZM64.2748 111.167L64.3422 111.241H64.3422L64.2748 111.167ZM49.3344 116.142L49.3437 116.042L49.3437 116.042L49.3344 116.142ZM36.756 109.616L36.6806 109.682H36.6806L36.756 109.616ZM49.62 113.108L49.6106 113.208H49.6106L49.62 113.108ZM62.2237 108.914L62.1564 108.84L62.2237 108.914ZM67.5913 90.1775H67.6913V90.0775H67.5913V90.1775ZM67.5913 57.8218V57.9218H67.6913V57.8218H67.5913ZM76.6783 30.3802L76.7484 30.4515V30.4515L76.6783 30.3802ZM78.5181 73.1462L78.4353 73.2023L78.4353 73.2023L78.5181 73.1462ZM78.6711 74.5661L78.7639 74.6032L78.7639 74.6032L78.6711 74.5661ZM75.4146 82.7076L75.5074 82.7447L75.5074 82.7447L75.4146 82.7076ZM73.4343 83.556L73.4714 83.4632L73.4714 83.4632L73.4343 83.556ZM72.5856 81.5757L72.6785 81.6129L72.6785 81.6129L72.5856 81.5757ZM75.0065 75.5236L75.0993 75.5608L75.1542 75.4236H75.0065V75.5236ZM69.4821 74.8543L69.5649 74.7983L69.5648 74.7982L69.4821 74.8543ZM69.3291 73.4345L69.2363 73.3973L69.2362 73.3973L69.3291 73.4345ZM72.5856 65.293L72.6785 65.3301V65.3301L72.5856 65.293ZM74.5659 64.4443L74.5287 64.5372L74.5288 64.5372L74.5659 64.4443ZM75.4146 66.4246L75.3217 66.3875L75.3217 66.3875L75.4146 66.4246ZM72.9937 72.4767L72.9008 72.4396L72.846 72.5767H72.9937V72.4767ZM24.8867 55.4082L24.7972 55.4529L24.7972 55.4529L24.8867 55.4082ZM26.5149 58.6647L26.4255 58.7094L26.4255 58.7094L26.5149 58.6647ZM22.8428 54.7269L22.8875 54.8163L22.8876 54.8163L22.8428 54.7269ZM22.1615 56.7707L22.251 56.726L22.251 56.726L22.1615 56.7707ZM23.7898 60.0272L23.7004 60.072L23.7898 60.0272ZM25.8336 60.7085L25.8783 60.798L25.8784 60.798L25.8336 60.7085ZM33.9748 54.7268L33.9301 54.8163L33.9301 54.8163L33.9748 54.7268ZM31.931 55.4081L32.0204 55.4529V55.4528L31.931 55.4081ZM34.6561 56.7707L34.5667 56.726L34.5667 56.726L34.6561 56.7707ZM33.0279 60.0272L33.1173 60.0719L33.1173 60.0719L33.0279 60.0272ZM30.984 60.7085L31.0288 60.6191L31.0287 60.619L30.984 60.7085ZM30.3027 58.6646L30.2133 58.6199L30.2133 58.6199L30.3027 58.6646ZM124.214 87.9735L124.125 88.0182L124.125 88.0182L124.214 87.9735ZM125.843 91.23L125.753 91.2747V91.2747L125.843 91.23ZM122.171 87.2922L122.215 87.3816L122.215 87.3816L122.171 87.2922ZM121.489 89.336L121.579 89.2913V89.2913L121.489 89.336ZM123.118 92.5925L123.028 92.6373L123.118 92.5925ZM125.161 93.2738L125.206 93.3633L125.206 93.3633L125.161 93.2738ZM117.013 87.2921L116.968 87.3816L116.968 87.3816L117.013 87.2921ZM114.969 87.9734L114.88 87.9287L114.88 87.9287L114.969 87.9734ZM117.694 89.336L117.605 89.2913V89.2913L117.694 89.336ZM116.066 92.5925L116.155 92.6372V92.6372L116.066 92.5925ZM114.022 93.2738L114.067 93.1844L114.067 93.1843L114.022 93.2738ZM113.341 91.2299L113.43 91.2747V91.2747L113.341 91.2299ZM117.67 30.6564C112.241 25.1418 105.004 22.0334 97.2927 21.9041L97.2893 22.1041C104.948 22.2325 112.136 25.3193 117.528 30.7967L117.67 30.6564ZM126.099 51.204C126.099 43.475 123.106 36.1777 117.67 30.6564L117.528 30.7967C122.926 36.2807 125.899 43.5276 125.899 51.204L126.099 51.204ZM126.099 72.3715V51.204H125.899V72.3715H126.099ZM122.847 75.6232C124.64 75.6232 126.099 74.1647 126.099 72.3715H125.899C125.899 74.0542 124.53 75.4232 122.847 75.4232V75.6232ZM121.114 75.6232H122.847V75.4232H121.114V75.6232ZM121.214 83.7695V75.5232H121.014V83.7695H121.214ZM119.591 85.3929C120.487 85.3929 121.214 84.666 121.214 83.7695H121.014C121.014 84.5556 120.377 85.1929 119.591 85.1929V85.3929ZM117.967 83.7695C117.967 84.666 118.694 85.3929 119.591 85.3929V85.1929C118.804 85.1929 118.167 84.5556 118.167 83.7695H117.967ZM117.967 75.5232V83.7695H118.167V75.5232H117.967ZM116.334 75.6232H118.067V75.4232H116.334V75.6232ZM113.082 72.3715C113.082 74.1647 114.541 75.6232 116.334 75.6232V75.4232C114.651 75.4232 113.282 74.0542 113.282 72.3715H113.082ZM113.082 58.3276V72.3715H113.282V58.3276H113.082ZM114.706 56.7042C113.809 56.7042 113.082 57.431 113.082 58.3276H113.282C113.282 57.5415 113.92 56.9042 114.706 56.9042V56.7042ZM116.329 58.3276C116.329 57.431 115.602 56.7042 114.706 56.7042V56.9042C115.492 56.9042 116.129 57.5415 116.129 58.3276H116.329ZM116.329 72.3715V58.3276H116.129V72.3715H116.329ZM116.334 72.3763C116.331 72.3763 116.329 72.3742 116.329 72.3715H116.129C116.129 72.4846 116.221 72.5763 116.334 72.5763V72.3763ZM122.847 72.3763H116.334V72.5763H122.847V72.3763ZM122.852 72.3715C122.852 72.3742 122.85 72.3763 122.847 72.3763V72.5763C122.96 72.5763 123.052 72.4846 123.052 72.3715H122.852ZM122.852 51.2042V72.3715H123.052V51.2042H122.852ZM115.356 32.9344C120.19 37.8448 122.852 44.3328 122.852 51.2042H123.052C123.052 44.2802 120.369 37.7418 115.499 32.7941L115.356 32.9344ZM97.238 25.1508C104.093 25.2655 110.528 28.0296 115.356 32.9344L115.499 32.7941C110.634 27.8521 104.149 25.0664 97.2413 24.9508L97.238 25.1508ZM78.8845 32.6241C83.9021 27.6899 90.4177 25.0381 97.238 25.1508L97.2413 24.9508C90.3656 24.8372 83.7988 27.511 78.7442 32.4815L78.8845 32.6241ZM70.7377 51.9371C70.7377 44.7551 73.707 37.7154 78.8845 32.6241L78.7442 32.4815C73.529 37.6099 70.5377 44.7008 70.5377 51.9371H70.7377ZM70.7377 57.822V51.9371H70.5377V57.822H70.7377ZM77.3608 57.722H70.6377V57.922H77.3608V57.722ZM77.2608 51.204V57.822H77.4608V51.204H77.2608ZM83.657 36.7589C79.5922 40.4593 77.2608 45.7241 77.2608 51.204H77.4608C77.4608 45.7806 79.7683 40.5694 83.7916 36.9068L83.657 36.7589ZM98.6741 31.7582C93.108 31.2343 87.7751 33.0103 83.657 36.7589L83.7916 36.9068C87.8679 33.1963 93.1451 31.4387 98.6554 31.9573L98.6741 31.7582ZM111.319 38.3175C108.035 34.5465 103.544 32.2165 98.6741 31.7582L98.6554 31.9573C103.473 32.4107 107.917 34.7155 111.168 38.4488L111.319 38.3175ZM116.33 51.7287C116.33 46.7914 114.55 42.0286 111.319 38.3175L111.168 38.4488C114.367 42.1234 116.13 46.8395 116.13 51.7287H116.33ZM114.706 53.3521C115.603 53.3521 116.33 52.6253 116.33 51.7287H116.13C116.13 52.5148 115.493 53.1521 114.706 53.1521V53.3521ZM113.083 51.7287C113.083 52.6253 113.81 53.3521 114.706 53.3521V53.1521C113.92 53.1521 113.283 52.5148 113.283 51.7287H113.083ZM98.3698 34.9906C106.617 35.7669 113.083 43.1169 113.083 51.7287H113.283C113.283 43.02 106.744 35.578 98.3885 34.7915L98.3698 34.9906ZM85.8428 39.1599C89.2768 36.034 93.7256 34.5538 98.3698 34.9906L98.3885 34.7915C93.6886 34.3495 89.184 35.848 85.7081 39.012L85.8428 39.1599ZM80.5079 51.204C80.5079 46.6364 82.4522 42.2462 85.8428 39.1599L85.7081 39.012C82.2761 42.1361 80.3079 46.5798 80.3079 51.204H80.5079ZM80.5079 57.822V51.204H80.3079V57.822H80.5079ZM85.3974 57.722H80.4079V57.922H85.3974V57.722ZM90.2774 62.602C90.2774 59.911 88.0882 57.722 85.3974 57.722V57.922C87.9778 57.922 90.0774 60.0215 90.0774 62.602H90.2774ZM90.2774 85.3975V62.602H90.0774V85.3975H90.2774ZM85.3974 90.2775C88.0884 90.2775 90.2774 88.0883 90.2774 85.3975H90.0774C90.0774 87.9778 87.978 90.0775 85.3974 90.0775V90.2775ZM80.4079 90.2775H85.3974V90.0775H80.4079V90.2775ZM80.5079 96.0624V90.1775H80.3079V96.0624H80.5079ZM71.391 117.69C77.1849 111.993 80.5079 104.11 80.5079 96.0624H80.3079C80.3079 104.056 77.0069 111.887 71.2507 117.548L71.391 117.69ZM51.1846 126.099C58.707 126.099 65.8665 123.123 71.391 117.69L71.2507 117.548C65.7625 122.945 58.6529 125.899 51.1846 125.899V126.099ZM50.7066 126.095C50.8664 126.098 51.0252 126.099 51.1846 126.099V125.899C51.0264 125.899 50.8687 125.898 50.71 125.895L50.7066 126.095ZM30.329 117.343C35.758 122.857 42.9951 125.966 50.7066 126.095L50.71 125.895C43.051 125.767 35.8638 122.68 30.4715 117.203L30.329 117.343ZM21.9 96.7953C21.9 104.524 24.8937 111.822 30.329 117.343L30.4715 117.203C25.0729 111.719 22.1 104.472 22.1 96.7953H21.9ZM21.9 75.628V96.7953H22.1V75.628H21.9ZM25.1517 72.3763C23.3585 72.3763 21.9 73.8348 21.9 75.628H22.1C22.1 73.9453 23.469 72.5763 25.1517 72.5763V72.3763ZM26.8848 72.3763H25.1517V72.5763H26.8848V72.3763ZM26.7848 64.23V72.4763H26.9848V64.23H26.7848ZM28.4082 62.6066C27.5116 62.6066 26.7848 63.3335 26.7848 64.23H26.9848C26.9848 63.4439 27.6221 62.8066 28.4082 62.8066V62.6066ZM30.0316 64.23C30.0316 63.3335 29.3048 62.6066 28.4082 62.6066V62.8066C29.1943 62.8066 29.8316 63.4439 29.8316 64.23H30.0316ZM30.0316 72.4763V64.23H29.8316V72.4763H30.0316ZM31.6649 72.3763H29.9316V72.5763H31.6649V72.3763ZM34.9166 75.628C34.9166 73.8348 33.4581 72.3763 31.6649 72.3763V72.5763C33.3476 72.5763 34.7166 73.9453 34.7166 75.628H34.9166ZM34.9166 89.6719V75.628H34.7166V89.6719H34.9166ZM33.2932 91.2953C34.1897 91.2953 34.9166 90.5685 34.9166 89.6719H34.7166C34.7166 90.458 34.0793 91.0953 33.2932 91.0953V91.2953ZM31.6697 89.6719C31.6697 90.5685 32.3966 91.2953 33.2932 91.2953V91.0953C32.507 91.0953 31.8697 90.458 31.8697 89.6719H31.6697ZM31.6697 75.628V89.6719H31.8697V75.628H31.6697ZM31.6649 75.6232C31.6676 75.6232 31.6697 75.6253 31.6697 75.628H31.8697C31.8697 75.5149 31.778 75.4232 31.6649 75.4232V75.6232ZM25.1519 75.6232H31.6649V75.4232H25.1519V75.6232ZM25.1471 75.628C25.1471 75.6253 25.1492 75.6232 25.1519 75.6232V75.4232C25.0388 75.4232 24.9471 75.5149 24.9471 75.628H25.1471ZM25.1471 96.7953V75.628H24.9471V96.7953H25.1471ZM32.6429 115.065C27.8088 110.155 25.1471 103.667 25.1471 96.7953H24.9471C24.9471 103.719 27.6296 110.258 32.5004 115.205L32.6429 115.065ZM50.761 122.849C43.9056 122.734 37.4712 119.97 32.6429 115.065L32.5004 115.205C37.3653 120.147 43.8496 122.933 50.7576 123.049L50.761 122.849ZM69.1145 115.375C64.0968 120.31 57.582 122.963 50.761 122.849L50.7576 123.049C57.6341 123.164 64.2002 120.488 69.2547 115.518L69.1145 115.375ZM77.2612 96.0624C77.2612 103.244 74.2919 110.284 69.1145 115.375L69.2547 115.518C74.4699 110.39 77.4612 103.299 77.4612 96.0624H77.2612ZM77.2612 90.1775V96.0624H77.4612V90.1775H77.2612ZM70.6383 90.2775H77.3612V90.0775H70.6383V90.2775ZM70.7383 96.7955V90.1775H70.5383V96.7955H70.7383ZM64.3422 111.241C68.4069 107.54 70.7383 102.275 70.7383 96.7955H70.5383C70.5383 102.219 68.2308 107.43 64.2075 111.093L64.3422 111.241ZM51.2316 116.331C56.0992 116.331 60.6972 114.558 64.3422 111.241L64.2075 111.093C60.5993 114.377 56.0493 116.131 51.2316 116.131V116.331ZM49.325 116.241C49.9643 116.302 50.5999 116.331 51.2316 116.331V116.131C50.6062 116.131 49.9768 116.102 49.3437 116.042L49.325 116.241ZM36.6806 109.682C39.9645 113.453 44.4551 115.783 49.325 116.241L49.3437 116.042C44.5262 115.589 40.0825 113.284 36.8315 109.551L36.6806 109.682ZM31.6693 96.2708C31.6693 101.208 33.449 105.971 36.6806 109.682L36.8315 109.551C33.6317 105.876 31.8693 101.16 31.8693 96.2708H31.6693ZM33.2928 94.6474C32.3962 94.6474 31.6693 95.3742 31.6693 96.2708H31.8693C31.8693 95.4847 32.5066 94.8474 33.2928 94.8474V94.6474ZM34.9162 96.2708C34.9162 95.3742 34.1893 94.6474 33.2928 94.6474V94.8474C34.0789 94.8474 34.7162 95.4847 34.7162 96.2708H34.9162ZM49.6293 113.009C41.3824 112.233 34.9162 104.883 34.9162 96.2708H34.7162C34.7162 104.98 41.2548 112.421 49.6106 113.208L49.6293 113.009ZM62.1564 108.84C58.7223 111.966 54.2733 113.446 49.6293 113.009L49.6106 113.208C54.3103 113.65 58.8151 112.152 62.291 108.987L62.1564 108.84ZM67.4913 96.7955C67.4913 101.363 65.5469 105.753 62.1564 108.84L62.291 108.987C65.723 105.863 67.6913 101.42 67.6913 96.7955H67.4913ZM67.4913 90.1775V96.7955H67.6913V90.1775H67.4913ZM62.6017 90.2775H67.5913V90.0775H62.6017V90.2775ZM57.7218 85.3975C57.7218 88.0885 59.9109 90.2775 62.6017 90.2775V90.0775C60.0214 90.0775 57.9217 87.978 57.9217 85.3975H57.7218ZM57.7218 62.6018V85.3975H57.9217V62.6018H57.7218ZM62.6017 57.7218C59.9107 57.7218 57.7218 59.911 57.7218 62.6018H57.9217C57.9217 60.0214 60.0212 57.9218 62.6017 57.9218V57.7218ZM67.5913 57.7218H62.6017V57.9218H67.5913V57.7218ZM67.4913 51.9369V57.8218H67.6913V51.9369H67.4913ZM76.6082 30.3089C70.8142 36.0065 67.4913 43.8894 67.4913 51.9369H67.6913C67.6913 43.9436 70.9922 36.1119 76.7484 30.4515L76.6082 30.3089ZM97.2927 21.9041C89.5962 21.7729 82.2498 24.761 76.6082 30.3089L76.7484 30.4515C82.353 24.94 89.6482 21.9738 97.2893 22.1041L97.2927 21.9041ZM85.3974 60.9689C86.2977 60.9689 87.0305 61.7017 87.0305 62.602H87.2305C87.2305 61.5912 86.4082 60.7689 85.3974 60.7689V60.9689ZM62.6017 60.9689H85.3974V60.7689H62.6017V60.9689ZM60.9686 62.602C60.9686 61.7015 61.7014 60.9689 62.6017 60.9689V60.7689C61.591 60.7689 60.7686 61.591 60.7686 62.602H60.9686ZM60.9686 85.3977V62.602H60.7686V85.3977H60.9686ZM62.6017 87.0308C61.7012 87.0308 60.9686 86.298 60.9686 85.3977H60.7686C60.7686 86.4084 61.5908 87.2308 62.6017 87.2308V87.0308ZM85.3974 87.0308H62.6017V87.2308H85.3974V87.0308ZM87.0305 85.3977C87.0305 86.2982 86.2977 87.0308 85.3974 87.0308V87.2308C86.4082 87.2308 87.2305 86.4087 87.2305 85.3977H87.0305ZM87.0305 62.602V85.3977H87.2305V62.602H87.0305ZM78.6009 73.0902C78.299 72.6438 77.7955 72.3767 77.2567 72.3767V72.5767C77.7291 72.5767 78.1705 72.8109 78.4353 73.2023L78.6009 73.0902ZM78.7639 74.6032C78.9639 74.103 78.9031 73.5361 78.6009 73.0901L78.4353 73.2023C78.7002 73.5932 78.7536 74.0903 78.5782 74.529L78.7639 74.6032ZM75.5074 82.7447L78.7639 74.6032L78.5782 74.5289L75.3217 82.6704L75.5074 82.7447ZM73.9996 83.7655C74.6438 83.7655 75.2534 83.3795 75.5074 82.7447L75.3217 82.6704C75.0991 83.2267 74.5648 83.5655 73.9996 83.5655V83.7655ZM73.3971 83.6488C73.5948 83.728 73.7988 83.7655 73.9996 83.7655V83.5655C73.8238 83.5655 73.6451 83.5327 73.4714 83.4632L73.3971 83.6488ZM72.4928 81.5386C72.1596 82.3711 72.5646 83.3159 73.3971 83.6489L73.4714 83.4632C72.7415 83.1713 72.3864 82.3428 72.6785 81.6129L72.4928 81.5386ZM74.9136 75.4865L72.4928 81.5386L72.6785 81.6129L75.0993 75.5608L74.9136 75.4865ZM70.7435 75.6236H75.0065V75.4236H70.7435V75.6236ZM69.3992 74.9104C69.7012 75.3565 70.2049 75.6236 70.7435 75.6236V75.4236C70.2713 75.4236 69.8296 75.1894 69.5649 74.7983L69.3992 74.9104ZM69.2362 73.3973C69.0363 73.8975 69.0971 74.4644 69.3993 74.9104L69.5648 74.7982C69.2999 74.4073 69.2466 73.9103 69.422 73.4716L69.2362 73.3973ZM72.4928 65.2559L69.2363 73.3973L69.422 73.4716L72.6785 65.3301L72.4928 65.2559ZM74.6031 64.3515C73.7703 64.0177 72.8257 64.4234 72.4928 65.2559L72.6785 65.3301C72.9704 64.6001 73.7986 64.2445 74.5287 64.5372L74.6031 64.3515ZM75.5074 66.4618C75.8405 65.6292 75.4355 64.6844 74.603 64.3515L74.5288 64.5372C75.2587 64.8291 75.6138 65.6575 75.3217 66.3875L75.5074 66.4618ZM73.0865 72.5139L75.5074 66.4617L75.3217 66.3875L72.9008 72.4396L73.0865 72.5139ZM77.2567 72.3767H72.9937V72.5767H77.2567V72.3767ZM24.7972 55.4529L26.4255 58.7094L26.6044 58.6199L24.9761 55.3634L24.7972 55.4529ZM22.8876 54.8163C23.5907 54.4645 24.4457 54.7497 24.7972 55.4529L24.9761 55.3634C24.5752 54.5615 23.6001 54.2361 22.7981 54.6375L22.8876 54.8163ZM22.251 56.726C21.8993 56.0228 22.1844 55.1678 22.8875 54.8163L22.7981 54.6374C21.9961 55.0383 21.671 56.0135 22.0721 56.8155L22.251 56.726ZM23.8792 59.9825L22.251 56.726L22.0721 56.8154L23.7004 60.072L23.8792 59.9825ZM25.1536 60.7696C24.631 60.7696 24.1286 60.4811 23.8792 59.9825L23.7004 60.072C23.9848 60.6409 24.5582 60.9696 25.1536 60.9696V60.7696ZM25.789 60.6191C25.5844 60.7213 25.3673 60.7696 25.1536 60.7696V60.9696C25.3977 60.9696 25.6454 60.9143 25.8783 60.798L25.789 60.6191ZM26.4255 58.7094C26.7772 59.4126 26.4921 60.2676 25.7889 60.6191L25.8784 60.798C26.6803 60.3971 27.0055 59.4219 26.6044 58.6199L26.4255 58.7094ZM34.0196 54.6374C33.2175 54.2361 32.2424 54.5617 31.8415 55.3634L32.0204 55.4528C32.3719 54.7498 33.2269 54.4644 33.9301 54.8163L34.0196 54.6374ZM34.7455 56.8154C35.1466 56.0134 34.8215 55.0383 34.0195 54.6374L33.9301 54.8163C34.6333 55.1678 34.9183 56.0228 34.5667 56.726L34.7455 56.8154ZM33.1173 60.0719L34.7455 56.8154L34.5667 56.726L32.9384 59.9825L33.1173 60.0719ZM31.6641 60.9696C32.2593 60.9696 32.8328 60.6407 33.1173 60.0719L32.9384 59.9825C32.6891 60.4809 32.1865 60.7696 31.6641 60.7696V60.9696ZM30.9392 60.7979C31.1723 60.9145 31.42 60.9696 31.6641 60.9696V60.7696C31.4503 60.7696 31.2333 60.7214 31.0288 60.6191L30.9392 60.7979ZM30.2133 58.6199C29.8124 59.4219 30.1373 60.397 30.9393 60.7979L31.0287 60.619C30.3256 60.2676 30.0407 59.4126 30.3922 58.7093L30.2133 58.6199ZM31.8415 55.3634L30.2133 58.6199L30.3922 58.7094L32.0204 55.4529L31.8415 55.3634ZM124.125 88.0182L125.753 91.2747L125.932 91.1852L124.304 87.9287L124.125 88.0182ZM122.215 87.3816C122.919 87.0297 123.773 87.315 124.125 88.0182L124.304 87.9287C123.903 87.1268 122.928 86.8014 122.126 87.2027L122.215 87.3816ZM121.579 89.2913C121.227 88.5881 121.512 87.7331 122.215 87.3816L122.126 87.2027C121.324 87.6036 120.999 88.5788 121.4 89.3808L121.579 89.2913ZM123.207 92.5478L121.579 89.2913L121.4 89.3807L123.028 92.6373L123.207 92.5478ZM124.481 93.3349C123.959 93.3349 123.456 93.0464 123.207 92.5478L123.028 92.6373C123.313 93.2062 123.886 93.5349 124.481 93.5349V93.3349ZM125.117 93.1843C124.912 93.2866 124.695 93.3349 124.481 93.3349V93.5349C124.725 93.5349 124.973 93.4796 125.206 93.3633L125.117 93.1843ZM125.753 91.2747C126.105 91.9779 125.82 92.8329 125.117 93.1844L125.206 93.3633C126.008 92.9624 126.333 91.9872 125.932 91.1852L125.753 91.2747ZM117.058 87.2027C116.256 86.8014 115.281 87.127 114.88 87.9287L115.058 88.0182C115.41 87.3151 116.265 87.0297 116.968 87.3816L117.058 87.2027ZM117.784 89.3807C118.185 88.5787 117.86 87.6036 117.058 87.2027L116.968 87.3816C117.671 87.7331 117.956 88.5881 117.605 89.2913L117.784 89.3807ZM116.155 92.6372L117.784 89.3807L117.605 89.2913L115.976 92.5478L116.155 92.6372ZM114.702 93.5349C115.297 93.5349 115.871 93.206 116.155 92.6372L115.976 92.5478C115.727 93.0462 115.225 93.3349 114.702 93.3349V93.5349ZM113.977 93.3632C114.21 93.4798 114.458 93.5349 114.702 93.5349V93.3349C114.488 93.3349 114.271 93.2867 114.067 93.1844L113.977 93.3632ZM113.251 91.1852C112.85 91.9872 113.175 92.9623 113.977 93.3632L114.067 93.1843C113.364 92.8328 113.079 91.9778 113.43 91.2747L113.251 91.1852ZM114.88 87.9287L113.251 91.1852L113.43 91.2747L115.059 88.0181L114.88 87.9287Z" fill="#98A782" mask="url(#path-1-outside-1)"/>
</svg>
