<svg width="148" height="148" viewBox="0 0 148 148" fill="none" xmlns="http://www.w3.org/2000/svg">
<path d="M80.9997 76.4L76.1997 68.2C75.9997 68 75.7997 67.8 75.5997 67.6C75.3997 67.4 74.9997 67.4 74.7997 67.4C74.3997 67.4 74.1997 67.4 73.9997 67.6C73.7997 67.8 73.5997 68 73.3997 68.2L68.5997 76.4C67.9997 77.6 67.5997 78.8 67.5997 80.2C67.5997 81.6 67.9997 82.8 68.5997 84C69.1997 85.2 70.1997 86 71.3997 86.8C72.5997 87.4 73.7997 87.8 75.1997 87.8C76.5997 87.8 77.7997 87.4 78.9997 86.8C80.1997 86.2 80.9997 85.2 81.7997 84C82.3997 82.8 82.7997 81.6 82.7997 80.2C81.9997 78.8 81.7997 77.6 80.9997 76.4ZM77.9997 82C77.5997 82.6 77.1997 83 76.5997 83.4C75.9997 83.8 75.3997 84 74.5997 84C73.9997 84 73.1997 83.8 72.5997 83.4C71.9997 83 71.5997 82.6 71.1997 82C70.7997 81.4 70.5997 80.8 70.5997 80C70.5997 79.4 70.7997 78.6 71.1997 78L74.3997 72.4L77.5997 78C77.9997 78.6 78.1997 79.2 78.1997 80C78.5997 80.8 78.3997 81.4 77.9997 82Z" fill="#98A782"/>
<path d="M106 81C106.8 80 107.4 78.6 107.4 77.2C107.4 75.8 107 74.4 106 73.4C105.2 72.4 104.2 71.8 103 71.4V41C104.2 40.6 105.4 39.8 106.2 38.8C107 37.6 107.6 36.2 107.4 34.6C107.2 33.2 106.6 31.8 105.4 30.8C104.2 29.8 102.8 29.2 101.4 29.2H66.3997V26.6C66.3997 26 66.1997 25.2 65.5997 24.8C65.1997 24.2 64.5997 24 63.7997 24H52.7997C51.9997 24 51.3997 24.2 50.9997 24.8C50.3997 25.2 50.1997 26 50.1997 26.6V29.2H48.1997C44.9997 29.2 42.1997 31.8 41.9997 35C41.9997 36.4 42.3997 37.8 43.3997 39C44.1997 40 45.1997 40.6 46.3997 41V71.4C45.1997 71.8 44.1997 72.4 43.3997 73.4C42.3997 74.4 41.9997 75.8 41.9997 77.2C41.9997 78.6 42.3997 80 43.3997 81C44.1997 82 45.1997 82.6 46.3997 83V113.4C45.1997 113.8 43.9997 114.6 43.1997 115.6C42.3997 116.8 41.7997 118.2 41.9997 119.8C42.1997 121.2 42.7997 122.6 43.9997 123.6C45.1997 124.6 46.5997 125.2 47.9997 125.2H101.4C103 125.2 104.4 124.6 105.4 123.6C106.6 122.6 107.2 121.2 107.4 119.8C107.6 118.4 107.2 116.8 106.2 115.6C105.4 114.6 104.2 113.8 103 113.4V83C104.2 82.6 105.2 82 106 81ZM62.7997 29.2H53.7997V27.6H62.7997V29.2ZM103.2 117.4C103.6 117.8 104 118.4 104 119.2C104 119.8 103.8 120.4 103.2 121C102.8 121.4 102.2 121.8 101.4 121.8H47.9997C47.5997 121.8 47.3997 121.8 46.9997 121.6C46.7997 121.4 46.3997 121.2 46.1997 121C45.9997 120.8 45.7997 120.6 45.5997 120.2C45.3997 120 45.3997 119.6 45.3997 119.2C45.3997 118.8 45.3997 118.6 45.5997 118.2C45.7997 118 45.9997 117.6 46.1997 117.4C46.3997 117.2 46.7997 117 46.9997 116.8C47.1997 116.6 47.5997 116.6 47.9997 116.6H101.4C102 116.8 102.6 117 103.2 117.4ZM47.9997 74.8H58.9997C58.7997 76.4 58.7997 78 58.9997 79.6H47.9997C47.3997 79.6 46.7997 79.4 46.1997 78.8C45.7997 78.4 45.3997 77.8 45.3997 77C45.3997 76.4 45.5997 75.8 46.1997 75.2C46.7997 75 47.3997 74.8 47.9997 74.8ZM45.7997 34.4C45.7997 34 45.9997 33.8 46.1997 33.6C46.3997 33.4 46.7997 33.2 46.9997 33C47.3997 32.8 47.7997 32.8 47.9997 32.8H101.2C101.8 32.8 102.4 33 103 33.4C103.4 33.8 103.8 34.4 103.8 35C103.8 35.4 103.8 35.6 103.6 36C103.4 36.4 103.4 36.6 103 36.8C102.8 37 102.4 37.2 102.2 37.4C102 37.6 101.6 37.6 101.2 37.6H61.5997C61.1997 37.6 60.5997 37.8 60.3997 38.2C59.9997 38.6 59.7997 39 59.7997 39.4C59.7997 39.8 59.9997 40.4 60.3997 40.8C60.7997 41.2 61.1997 41.4 61.5997 41.4H99.3997V71.4H89.3997C88.1997 68.6 86.1997 66.2 83.7997 64.4C81.1997 62.6 77.9997 61.6 74.7997 61.6C71.5997 61.6 68.3997 62.6 65.7997 64.4C63.1997 66.2 61.1997 68.6 60.1997 71.4H49.9997V41.4H51.3997C51.7997 41.4 52.3997 41.2 52.5997 40.8C52.9997 40.4 53.1997 40 53.1997 39.4C53.1997 39 52.9997 38.4 52.5997 38.2C52.1997 37.8 51.7997 37.6 51.3997 37.6H48.1997C47.5997 37.6 46.9997 37.4 46.3997 37C45.9997 36.6 45.5997 36 45.5997 35.4C45.5997 35 45.5997 34.6 45.7997 34.4ZM103.8 77.2C103.8 77.6 103.8 77.8 103.6 78.2C103.4 78.4 103.2 78.8 103 79C102.8 79.2 102.4 79.4 102.2 79.6C102 79.8 101.6 79.8 101.2 79.8H90.3997C90.5997 78.2 90.5997 76.6 90.3997 75H101.4C101.8 75 102 75 102.4 75.2C102.6 75.4 103 75.6 103.2 75.8C103.4 76 103.6 76.2 103.8 76.6C103.8 76.6 103.8 76.8 103.8 77.2ZM86.1997 82.2C85.1997 84.4 83.5997 86.4 81.5997 87.8C79.5997 89.2 77.1997 89.8 74.7997 89.8C71.5997 89.8 68.3997 88.4 65.9997 86.2C63.5997 83.8 62.3997 80.8 62.3997 77.4C62.3997 75 63.1997 72.6 64.3997 70.6C65.7997 68.6 67.7997 67 69.9997 66C72.1997 65 74.7997 64.8 77.1997 65.2C79.5997 65.6 81.7997 66.8 83.5997 68.6C85.3997 70.4 86.5997 72.6 86.9997 75C87.3997 77.4 87.1997 79.8 86.1997 82.2ZM49.9997 83.2H59.7997C60.9997 86.2 62.9997 88.6 65.3997 90.4C67.9997 92.2 71.3997 93.4 74.5997 93.4C77.7997 93.4 81.1997 92.4 83.7997 90.4C86.3997 88.6 88.3997 86 89.3997 83.2H99.1997V113.2H49.9997V83.2Z" fill="#98A782"/>
<path d="M52.7997 45.4C52.7997 45.8 52.9997 46.4 53.3997 46.6C53.7997 47 54.1997 47.2 54.5997 47.2C54.9997 47.2 55.5997 47 55.7997 46.6C56.1997 46.2 56.3997 45.8 56.3997 45.4V44.8C56.3997 44.4 56.1997 43.8 55.7997 43.6C55.5997 43.2 55.1997 43 54.5997 43C54.1997 43 53.5997 43.2 53.3997 43.6C52.9997 44 52.7997 44.4 52.7997 44.8V45.4Z" fill="#98A782"/>
<path d="M54.5997 47.4C54.1997 47.4 53.5997 47.6 53.3997 48C52.9997 48.4 52.7997 48.8 52.7997 49.2V64.8C52.7997 65.2 52.9997 65.8 53.3997 66C53.7997 66.4 54.1997 66.6 54.5997 66.6C54.9997 66.6 55.5997 66.4 55.7997 66C56.1997 65.6 56.3997 65.2 56.3997 64.8V49.2C56.3997 48.8 56.1997 48.2 55.7997 48C55.5997 47.6 55.1997 47.4 54.5997 47.4Z" fill="#98A782"/>
</svg>
