<svg width="141" height="141" viewBox="0 0 141 141" fill="none" xmlns="http://www.w3.org/2000/svg">
<circle cx="70" cy="71" r="69" fill="white"/>
<path d="M43.5408 64.8244C43.5408 64.0408 44.1761 63.4055 44.9597 63.4055H79.0138C79.7974 63.4055 80.4327 64.0408 80.4327 64.8244C80.4327 65.6081 79.7974 66.2433 79.0138 66.2433H44.9598C44.1761 66.2433 43.5408 65.6081 43.5408 64.8244Z" fill="#8F9C64"/>
<path d="M44.9597 54.892C44.1761 54.892 43.5408 55.5273 43.5408 56.3109C43.5408 57.0946 44.1761 57.7298 44.9597 57.7298H63.4057C64.1893 57.7298 64.8246 57.0946 64.8246 56.3109C64.8246 55.5273 64.1893 54.892 63.4057 54.892H44.9597Z" fill="#8F9C64"/>
<path d="M43.5408 84.6893C43.5408 83.9056 44.1761 83.2704 44.9597 83.2704H79.0138C79.7974 83.2704 80.4327 83.9056 80.4327 84.6893C80.4327 85.4729 79.7974 86.1082 79.0138 86.1082H44.9598C44.1761 86.1082 43.5408 85.4729 43.5408 84.6893Z" fill="#8F9C64"/>
<path d="M44.9597 74.7569C44.1761 74.7569 43.5408 75.3921 43.5408 76.1758C43.5408 76.9594 44.1761 77.5947 44.9597 77.5947H63.4057C64.1893 77.5947 64.8246 76.9594 64.8246 76.1758C64.8246 75.3921 64.1893 74.7569 63.4057 74.7569H44.9597Z" fill="#8F9C64"/>
<path fill-rule="evenodd" clip-rule="evenodd" d="M99.7064 41.3413H98.1692V39.7907C98.1639 35.5109 94.7263 32.0434 90.4834 32.0381H41.2942C37.0513 32.0434 33.6137 35.5109 33.6084 39.7907V91.3859C33.6137 95.6658 37.0513 99.1332 41.2942 99.1385H42.8314V100.689C42.8366 104.969 46.2742 108.436 50.5172 108.442H99.7064C103.949 108.436 107.387 104.969 107.392 100.689V49.0939C107.387 44.814 103.949 41.3466 99.7064 41.3413ZM85.8719 35.1391V42.2498L83.8844 40.245C83.284 39.6401 82.3112 39.6401 81.7108 40.245L79.7233 42.2498V35.1391H85.8719ZM36.6827 91.3859V39.7907C36.6827 37.2219 38.7475 35.1391 41.2942 35.1391H76.6489V45.9928C76.6489 46.6197 77.0235 47.1853 77.5977 47.4253C78.1718 47.6653 78.8331 47.532 79.2729 47.0891L82.7976 43.5338L86.3222 47.0891C86.7621 47.532 87.4233 47.6653 87.9975 47.4253C88.5717 47.1853 88.9462 46.6197 88.9462 45.9928V35.1391H90.4834C93.0301 35.1391 95.0949 37.2219 95.0949 39.7907V91.3859C95.0949 93.9547 93.0301 96.0375 90.4834 96.0375H41.2942C38.7475 96.0375 36.6827 93.9547 36.6827 91.3859ZM104.318 100.689C104.318 103.258 102.253 105.341 99.7064 105.341H50.5172C47.9705 105.341 45.9057 103.258 45.9057 100.689V99.1385H90.4834C94.7263 99.1332 98.1639 95.6658 98.1692 91.3859V44.4423H99.7064C102.253 44.4423 104.318 46.5251 104.318 49.0939V100.689Z" fill="#8F9C64"/>
</svg>
