<svg width="24" height="24" viewBox="0 0 24 24" fill="none" xmlns="http://www.w3.org/2000/svg">
<path fill-rule="evenodd" clip-rule="evenodd" d="M13.414 20.8997L17.657 16.6567C18.7758 15.5379 19.5377 14.1124 19.8463 12.5606C20.155 11.0087 19.9965 9.40022 19.391 7.93844C18.7855 6.47665 17.7601 5.22725 16.4445 4.34821C15.1289 3.46918 13.5822 3 12 3C10.4178 3 8.87107 3.46918 7.55548 4.34821C6.2399 5.22725 5.21452 6.47665 4.60901 7.93844C4.00349 9.40022 3.84504 11.0087 4.15369 12.5606C4.46234 14.1124 5.22422 15.5379 6.343 16.6567L10.587 20.8997C10.962 21.2743 11.4704 21.4848 12.0005 21.4848C12.5306 21.4848 13.039 21.2743 13.414 20.8997ZM15 11C15 12.6569 13.6569 14 12 14C10.3431 14 9 12.6569 9 11C9 9.34315 10.3431 8 12 8C13.6569 8 15 9.34315 15 11Z" fill="#98A782"/>
</svg>
