<svg width="24" height="25" viewBox="0 0 24 25" fill="none" xmlns="http://www.w3.org/2000/svg">
<path fill-rule="evenodd" clip-rule="evenodd" d="M5 5.5H19C19.9333 5.5 20.7172 6.13924 20.938 7.00376C20.8633 7.01304 20.7895 7.03938 20.7227 7.08397L12 12.8991L3.27735 7.08397C3.21046 7.03938 3.13674 7.01303 3.06205 7.00375C3.28276 6.13924 4.06673 5.5 5 5.5ZM3 8.10093V17.5C3 18.6046 3.89543 19.5 5 19.5H19C20.1046 19.5 21 18.6046 21 17.5V8.10092L12.2774 13.916C12.1094 14.028 11.8906 14.028 11.7226 13.916L3 8.10093Z" fill="#98A782"/>
</svg>
