<svg width="74" height="74" viewBox="0 0 74 74" fill="none" xmlns="http://www.w3.org/2000/svg">
<path d="M45 10.5C44.1716 10.5 43.5 11.1716 43.5 12C43.5 12.8284 44.1716 13.5 45 13.5C49.1109 13.5 53.0533 15.133 55.9602 18.0398C58.867 20.9467 60.5 24.8891 60.5 29C60.5 29.8284 61.1716 30.5 62 30.5C62.8284 30.5 63.5 29.8284 63.5 29C63.5 24.0935 61.5509 19.3879 58.0815 15.9185C54.6121 12.4491 49.9065 10.5 45 10.5Z" fill="#98A782"/>
<path fill-rule="evenodd" clip-rule="evenodd" d="M17.5294 13.5C15.6651 13.5 13.8771 14.2406 12.5589 15.5589C11.2406 16.8771 10.5 18.6651 10.5 20.5294C10.5 20.5598 10.5009 20.5901 10.5028 20.6204C11.1804 31.7705 15.9153 42.2871 23.8141 50.1859C31.7129 58.0847 42.2295 62.8196 53.3796 63.4972C53.397 63.4983 53.4144 63.499 53.4318 63.4995C53.4447 63.4998 53.4577 63.5 53.4706 63.5C55.3349 63.5 57.1229 62.7594 58.4411 61.4411C59.7594 60.1229 60.5 58.3349 60.5 56.4706V45.4118C60.5 44.7984 60.1266 44.2468 59.5571 44.0191L45.7336 38.4896C45.05 38.2162 44.269 38.4793 43.8902 39.1106L40.4709 44.8095C35.7275 42.1819 31.8181 38.2725 29.1905 33.5291L34.8894 30.1098C35.5207 29.731 35.7838 28.95 35.5104 28.2664L29.981 14.4429C29.7532 13.8734 29.2016 13.5 28.5882 13.5H17.5294ZM17.5294 16.5C16.4607 16.5 15.4358 16.9245 14.6802 17.6802C13.9345 18.4259 13.5113 19.4337 13.5002 20.4871C14.1442 30.8877 18.5662 40.6954 25.9354 48.0646C33.3047 55.4338 43.1123 59.8558 53.5129 60.4998C54.5663 60.4887 55.5741 60.0655 56.3198 59.3198C57.0755 58.5641 57.5 57.5393 57.5 56.4706V46.4273L45.8055 41.7495L42.3157 47.5659C41.914 48.2353 41.0661 48.4847 40.3659 48.1394C34.0662 45.0325 28.9675 39.9338 25.8606 33.6341C25.5153 32.9339 25.7647 32.086 26.4341 31.6843L32.2505 28.1945L27.5727 16.5H17.5294Z" fill="#98A782"/>
<path d="M43.5 23C43.5 22.1716 44.1716 21.5 45 21.5C46.9891 21.5 48.8968 22.2902 50.3033 23.6967C51.7098 25.1032 52.5 27.0109 52.5 29C52.5 29.8284 51.8284 30.5 51 30.5C50.1716 30.5 49.5 29.8284 49.5 29C49.5 27.8065 49.0259 26.6619 48.182 25.818C47.3381 24.9741 46.1935 24.5 45 24.5C44.1716 24.5 43.5 23.8284 43.5 23Z" fill="#98A782"/>
</svg>
