<svg width="74" height="74" viewBox="0 0 74 74" fill="none" xmlns="http://www.w3.org/2000/svg">
<path fill-rule="evenodd" clip-rule="evenodd" d="M35.6664 6.04759C26.0035 6.72728 18.3375 14.6051 18.0108 24.3518H7.44088C6.50183 24.3518 5.60226 24.5464 4.90041 24.917C4.23654 25.2677 3.51367 25.9215 3.51367 26.9037V55.5365H3.42358C1.52896 55.5365 0 57.039 0 58.9025C0 60.7746 1.57005 62.2685 3.42358 62.2685H34.0576C34.6099 62.2685 35.0576 61.8208 35.0576 61.2685C35.0576 60.7162 34.6099 60.2685 34.0576 60.2685H3.42358C2.62733 60.2685 2 59.6233 2 58.9025C2 58.1731 2.60379 57.5365 3.42358 57.5365H67.1527C67.2336 57.5576 67.3185 57.5689 67.406 57.5689C67.4935 57.5689 67.5784 57.5576 67.6593 57.5365H69.8943C70.6814 57.5365 71.2927 58.1432 71.3178 58.8824C71.3111 59.6066 70.7095 60.2361 69.8943 60.2361H37.9677C37.4154 60.2361 36.9677 60.6838 36.9677 61.2361C36.9677 61.7884 37.4154 62.2361 37.9677 62.2361H69.8943C71.7889 62.2361 73.3179 60.7336 73.3179 58.8701L73.3179 58.8629L73.3176 58.8452C73.2715 56.9972 71.7526 55.5365 69.8943 55.5365H68.406V47.7207C68.406 47.1684 67.9583 46.7207 67.406 46.7207C66.8537 46.7207 66.406 47.1684 66.406 47.7207V55.5365H46.3223V40.4607C46.3223 39.6507 45.8307 39.0353 45.2782 38.6679C44.7189 38.296 44.0024 38.0995 43.2541 38.0995H29.0681C28.3316 38.0995 27.6184 38.298 27.0603 38.6651C26.5141 39.0245 26 39.6377 26 40.4607V55.5365H5.51367V26.9344C5.53109 26.9028 5.6 26.8094 5.83447 26.6855C6.18967 26.4979 6.7537 26.3518 7.44088 26.3518H64.5865C65.2736 26.3518 65.8377 26.4979 66.1929 26.6855C66.4274 26.8094 66.4962 26.9028 66.5137 26.9344V42.3469C66.5137 42.8992 66.9614 43.3469 67.5137 43.3469C68.066 43.3469 68.5137 42.8992 68.5137 42.3469V26.9037C68.5137 25.9215 67.7908 25.2677 67.1269 24.917C66.4251 24.5464 65.5255 24.3518 64.5865 24.3518H55.9891C55.6478 14.2026 47.3217 6 37.0243 6C36.9158 6 36.8076 6.0009 36.6996 6.00271C36.6333 6.00091 36.5667 6 36.5 6C36.2186 6 35.9406 6.01611 35.6664 6.04759ZM29.6679 9.66276C24.1304 12.314 20.2552 17.8669 20.0121 24.3518H25.0065C25.1037 19.4874 26.2921 15.0559 28.2112 11.7663C28.6535 11.0082 29.1405 10.3023 29.6679 9.66276ZM35.8717 8.03828C36.141 8.02033 36.4121 8.00863 36.6847 8.00331C39.0176 8.08686 41.2976 9.75114 43.0612 12.7741C44.7764 15.7141 45.8959 19.7861 45.9931 24.3518H27.0069C27.1041 19.7861 28.2236 15.7141 29.9388 12.7741C31.5904 9.94308 33.695 8.30368 35.8717 8.03828ZM47.9935 24.3518C47.8963 19.4874 46.7079 15.0559 44.7887 11.7663C44.1842 10.7301 43.4961 9.79133 42.7355 8.98639C49.1192 11.2714 53.7218 17.2763 53.9878 24.3518H47.9935ZM35 40.0995H29.0681C28.6736 40.0995 28.3528 40.2089 28.1595 40.336C28.0491 40.4087 28.0113 40.4618 28 40.4831V55.5365H35V40.0995ZM37 55.5365V40.0995H43.2541C43.6692 40.0995 43.9867 40.2109 44.1707 40.3333C44.2781 40.4047 44.3126 40.4566 44.3223 40.4768V55.5365H37ZM66.5176 26.9423C66.5183 26.9448 66.5188 26.946 66.5189 26.946L66.5176 26.9423ZM44.3255 40.486C44.3253 40.4861 44.3245 40.4842 44.3238 40.4802L44.3248 40.4827L44.3255 40.486Z" fill="#98A782"/>
<path fill-rule="evenodd" clip-rule="evenodd" d="M54.7031 33.4223C54.9106 33.2135 55.241 33 55.6783 33H60.3217C60.759 33 61.0894 33.2135 61.2969 33.4223C61.4994 33.6263 61.6345 33.8703 61.7261 34.0908C61.9111 34.5358 62 35.0807 62 35.6318V48C62 49.1046 61.1046 50 60 50H56C54.8954 50 54 49.1046 54 48V35.6318C54 35.0807 54.0889 34.5358 54.2739 34.0908C54.3655 33.8703 54.5006 33.6263 54.7031 33.4223ZM56.0738 35C56.0328 35.153 56 35.3688 56 35.6318V48H60V35.6318C60 35.3688 59.9672 35.153 59.9262 35H56.0738Z" fill="#98A782"/>
<path fill-rule="evenodd" clip-rule="evenodd" d="M11.6783 33C11.241 33 10.9106 33.2135 10.7031 33.4223C10.5006 33.6263 10.3655 33.8703 10.2739 34.0908C10.0889 34.5358 10 35.0807 10 35.6318V48C10 49.1046 10.8954 50 12 50H16C17.1046 50 18 49.1046 18 48V35.6318C18 35.0807 17.9111 34.5358 17.7261 34.0908C17.6345 33.8703 17.4994 33.6263 17.2969 33.4223C17.0894 33.2135 16.759 33 16.3217 33H11.6783ZM12 35.6318C12 35.3688 12.0328 35.153 12.0738 35H15.9262C15.9672 35.153 16 35.3688 16 35.6318V48H12V35.6318Z" fill="#98A782"/>
</svg>
