<svg width="74" height="74" viewBox="0 0 74 74" fill="none" xmlns="http://www.w3.org/2000/svg">
<path fill-rule="evenodd" clip-rule="evenodd" d="M29.9445 28.9501H29.9418C29.4019 28.9501 28.8941 28.7403 28.5115 28.3586C28.1285 27.9766 27.9173 27.4682 27.9168 26.9272L27.9136 24.1785C27.9129 23.6376 28.1229 23.1287 28.505 22.7457C28.887 22.3627 29.3954 22.1515 29.9363 22.151L33.5533 22.1468L33.5491 18.5296C33.5486 17.9888 33.7586 17.4798 34.1406 17.097C34.5227 16.714 35.031 16.5027 35.5719 16.5021L38.3208 16.4989H38.3234C38.8633 16.4989 39.3711 16.7089 39.7536 17.0905C40.1366 17.4726 40.3477 17.9809 40.3483 18.5218L40.3525 22.1388L43.9696 22.1346H43.9723C44.5123 22.1346 45.02 22.3445 45.4024 22.726C45.7854 23.1082 45.9968 23.6164 45.9973 24.1574L46.0005 26.9062C46.0017 28.0231 45.0942 28.9326 43.9776 28.9338L40.3606 28.938L40.3648 32.5551C40.3655 33.0961 40.1555 33.6051 39.7734 33.9879C39.3914 34.3709 38.883 34.5821 38.342 34.5827L35.5933 34.5858H35.5907C34.4754 34.5858 33.5671 33.679 33.5658 32.5631L33.5616 28.9459L29.9445 28.9501ZM35.7245 23.2291C35.7252 23.8282 35.2401 24.3145 34.641 24.3152L30.0833 24.3205L30.0862 26.7804L34.6436 26.7751H34.6449C35.2436 26.7751 35.729 27.2599 35.7297 27.8585L35.7351 32.4161L38.1951 32.4132L38.1897 27.8558C38.189 27.2567 38.6741 26.7704 39.2732 26.7697L43.8308 26.7644L43.8279 24.3045L39.2705 24.3098H39.2692C38.708 24.3098 38.2463 23.8837 38.1902 23.3371C38.1864 23.3007 38.1844 23.2638 38.1844 23.2263L38.179 18.6688L35.7192 18.6717L35.7245 23.2291Z" fill="#98A782"/>
<path fill-rule="evenodd" clip-rule="evenodd" d="M72.914 61.3203H72.9154C73.5139 61.3203 73.9993 61.8053 74 62.4038C74.0007 63.0029 73.5156 63.4892 72.9165 63.4899L1.08609 63.5731H1.08479C0.486133 63.5731 0.000724808 63.0882 8.05729e-07 62.4896C-0.000721581 61.8905 0.484397 61.4042 1.08364 61.4035L5.20411 61.3987V31.0843C5.20411 31.0075 5.2121 30.9325 5.2273 30.8602C5.21201 30.7876 5.20396 30.7124 5.20396 30.6353V27.3873L3.05651 27.3898H3.05275C2.25579 27.3898 1.50627 27.0799 0.942035 26.517C0.377075 25.9533 0.0652337 25.2031 0.0643659 24.4047L0.0611839 21.5589C0.0601714 20.7607 0.369988 20.0096 0.933501 19.4442C1.49745 18.8783 2.24783 18.5662 3.04639 18.5653L23.5803 18.5415L23.5744 13.4477C23.5734 12.6479 23.8841 11.8956 24.4489 11.3293C25.0137 10.7631 25.7654 10.4507 26.5652 10.4498L47.3138 10.4258H47.3173C48.1159 10.4258 48.8668 10.7362 49.4322 11.3003C49.9985 11.8651 50.3109 12.6168 50.3118 13.4166L50.3177 18.5102L58.3805 18.5007C58.4193 18.4964 58.4588 18.4942 58.4988 18.4942L70.8544 18.4869C72.5008 18.4869 73.8418 19.8259 73.8439 21.4737L73.8468 24.3191C73.849 25.9665 72.5099 27.309 70.8616 27.3114L68.7265 27.3138L68.7555 52.9084C68.7563 53.5075 68.2711 53.9936 67.6719 53.9943H67.6706C67.0719 53.9943 66.5865 53.5095 66.5858 52.9107L66.5567 27.3163L50.3278 27.3348L50.333 31.8209L61.565 31.808H61.5677C62.1399 31.808 62.6778 32.0305 63.0828 32.4345C63.4884 32.839 63.7121 33.3777 63.7128 33.9507L63.7259 45.2845C63.7266 45.8575 63.5041 46.3966 63.0994 46.8022C62.6947 47.2077 62.1562 47.4315 61.583 47.4321L50.3513 47.4451L50.3673 61.3463L66.5962 61.3275L66.5917 57.8287C66.591 57.2296 67.076 56.7434 67.6752 56.7426H67.6765C68.275 56.7426 68.7606 57.2275 68.7613 57.8261L68.7658 61.3251L72.914 61.3203ZM59.1012 20.6634C59.0635 20.6674 59.0252 20.6695 58.9865 20.6695L50.3202 20.6798L50.3254 25.1651L70.8589 25.1418C71.3106 25.1412 71.6778 24.7732 71.6772 24.3217L71.6744 21.4763C71.6738 21.0242 71.3058 20.6565 70.854 20.6565L59.1012 20.6634ZM7.35036 30.8595C7.36565 30.932 7.37369 31.0072 7.37369 31.0843V61.3961L23.6298 61.3773L23.6137 47.476L12.3824 47.4889H12.3796C11.8075 47.4889 11.2695 47.2665 10.8646 46.8625C10.459 46.4579 10.2352 45.9193 10.2345 45.3462L10.2215 34.0125C10.2208 33.4393 10.4432 32.9002 10.8479 32.4946C11.2526 32.0891 11.7911 31.8653 12.3643 31.8647L23.5955 31.8517L23.5903 27.3659L7.37355 27.3847V30.6353C7.37355 30.7122 7.36556 30.7871 7.35036 30.8595ZM61.5561 45.2626L61.5431 33.9776L50.3356 33.9906L50.3486 45.2757L61.5561 45.2626ZM3.05304 25.2203H3.05405L23.588 25.1966L23.5828 20.7112L3.04899 20.7349C2.8303 20.7352 2.62476 20.8207 2.47029 20.9757C2.31553 21.1311 2.23048 21.3372 2.23077 21.5565L2.23395 24.4022C2.23424 24.6212 2.31972 24.8268 2.47448 24.9812C2.6291 25.1354 2.83449 25.2203 3.05304 25.2203ZM12.3912 34.0346L12.4042 45.3196L23.6111 45.3066L23.5981 34.0216L12.3912 34.0346ZM25.9848 12.8618C25.8292 13.0177 25.7436 13.225 25.7438 13.4453L25.7992 61.3753L28.5109 61.3721L28.4888 42.2417C28.4876 41.327 28.8368 40.466 29.4718 39.8168C30.1124 39.1619 30.9666 38.8006 31.877 38.7996L42.0681 38.7877H42.0721C42.981 38.7877 43.8344 39.1469 44.4757 39.7993C45.1121 40.447 45.4633 41.3073 45.4643 42.2219L45.4865 61.3523L48.1976 61.3491L48.1422 13.4194C48.1416 12.9649 47.7716 12.5955 47.3173 12.5955H47.3163L26.5677 12.6195C26.3474 12.6198 26.1404 12.7059 25.9848 12.8618ZM31.0227 41.3337C30.7874 41.5742 30.6579 41.8957 30.6584 42.2388L30.6805 61.369L43.3169 61.3544L43.2948 42.2241C43.2943 41.881 43.1641 41.5599 42.9282 41.3198C42.6984 41.0859 42.3944 40.957 42.0721 40.957H42.0707L31.8796 40.9689C31.5567 40.9692 31.2524 41.0988 31.0227 41.3337Z" fill="#98A782"/>
</svg>
