<svg width="88" height="88" viewBox="0 0 88 88" fill="none" xmlns="http://www.w3.org/2000/svg">
<path fill-rule="evenodd" clip-rule="evenodd" d="M35.5626 31.4657C31.3226 31.4657 27.8853 34.9029 27.8853 39.143C27.8853 43.383 31.3226 46.8202 35.5626 46.8202C39.8026 46.8202 43.2399 43.383 43.2399 39.143C43.2399 34.9029 39.8026 31.4657 35.5626 31.4657ZM30.2637 39.143C30.2637 36.2165 32.6361 33.8441 35.5626 33.8441C38.4891 33.8441 40.8615 36.2165 40.8615 39.143C40.8615 42.0694 38.4891 44.4418 35.5626 44.4418C32.6361 44.4418 30.2637 42.0694 30.2637 39.143Z" fill="#98A782"/>
<path fill-rule="evenodd" clip-rule="evenodd" d="M48.7322 22.4406L40.838 16.0156L40.8245 16.0052C37.7995 13.6847 33.5847 13.7332 30.5762 16.0823L30.5687 16.0882L2.70186 38.2115L2.69525 38.2168C0.999838 39.5825 0.717619 42.0059 1.93299 43.7123V43.784L2.23968 44.1235C3.65154 45.6867 6.0141 45.8828 7.66931 44.6289L7.67394 44.6253L8.53325 43.9677C8.52938 44.0609 8.52742 44.1545 8.52742 44.2483V70.1624H4.75507C4.0983 70.1624 3.56588 70.6948 3.56588 71.3516C3.56588 72.0084 4.0983 72.5408 4.75507 72.5408H85.6199C86.2767 72.5408 86.8091 72.0084 86.8091 71.3516C86.8091 70.6948 86.2767 70.1624 85.6199 70.1624H83.1206L83.1207 56.4043C83.1207 55.3758 82.4693 54.5582 81.6382 54.2172L81.6153 54.2079L62.1013 47.1348V44.2837C62.1013 44.1355 62.0963 43.9878 62.0863 43.8408L62.7928 44.3969L62.7969 44.4001C64.514 45.7702 66.9703 45.4721 68.3516 43.8284C68.3805 43.8042 68.4072 43.7796 68.4316 43.7552C68.508 43.6788 68.5862 43.58 68.651 43.4606C69.8571 41.7483 69.5262 39.3716 67.9051 38.0452L58.2297 30.1705C58.2574 30.0697 58.2723 29.9636 58.2723 29.854V16.2042C58.2723 15.0179 57.2761 14.2705 56.2676 14.2705H50.7368C49.7283 14.2705 48.7322 15.0179 48.7322 16.2042V22.4406ZM51.1106 24.3763V16.6489H55.8939V28.2694L51.1106 24.3763ZM62.1013 49.6646V70.1624H80.7422L80.7423 56.4212L62.1013 49.6646ZM10.9058 70.1624V44.2483C10.9058 43.0737 11.3783 41.968 12.1845 41.1734L32.0031 26.0061L32.0107 26C33.8103 24.5754 36.2701 24.3356 38.2895 25.2965L58.0204 40.8624L58.028 40.8682C59.083 41.6734 59.7229 42.956 59.7229 44.2837V70.1624H46.3596V53.6081C46.3596 52.6786 45.7941 51.9793 45.1717 51.5666C44.541 51.1484 43.737 50.9298 42.9014 50.9298H27.3726C26.5495 50.9298 25.7494 51.1509 25.1205 51.5634C24.506 51.9664 23.9143 52.6632 23.9143 53.6081V70.1624H10.9058ZM43.9813 53.6537V70.1624H36.7518V53.3082H42.9014C43.3421 53.3082 43.6727 53.4264 43.8574 53.5489C43.9295 53.5967 43.9651 53.633 43.9813 53.6537ZM34.3734 53.3082V70.1624H26.2927V53.6622C26.3106 53.64 26.3489 53.602 26.4249 53.5521C26.6203 53.424 26.9548 53.3082 27.3726 53.3082H34.3734ZM39.5576 23.2708C39.9851 23.492 40.3974 23.7528 40.789 24.0532L40.8007 24.0622L64.2786 42.5396C64.9827 43.1029 66.0265 42.9751 66.5907 42.2229L66.7936 41.9523C67.1707 41.277 67.0173 40.3931 66.4004 39.8871L66.399 39.886L39.3639 17.8823C37.2145 16.2429 34.2067 16.2676 32.0436 17.9541L4.18728 40.069L4.18445 40.0712C3.44241 40.6716 3.36063 41.7686 3.97842 42.4687L4.17889 42.6959C4.75999 43.175 5.61192 43.2023 6.23125 42.7345L6.2331 42.7331L10.6338 39.3652C10.7746 39.2332 10.9217 39.1069 11.0748 38.9869L11.0849 38.979L31.4302 23.3834C33.806 21.5209 37.1119 21.4528 39.5576 23.2708ZM26.2787 53.6839C26.2785 53.6839 26.279 53.6821 26.281 53.6787L26.2804 53.6815C26.2796 53.6832 26.2789 53.684 26.2787 53.6839ZM43.9932 53.6734C43.993 53.6734 43.9925 53.6727 43.9917 53.6712C43.9909 53.6697 43.9899 53.6674 43.9888 53.6643C43.9926 53.6702 43.9936 53.6733 43.9932 53.6734Z" fill="#98A782"/>
</svg>
