<svg width="67" height="56" viewBox="0 0 67 56" fill="none" xmlns="http://www.w3.org/2000/svg">
<path fill-rule="evenodd" clip-rule="evenodd" d="M43.6493 5.72244L42.5909 19.1865L37.9636 20.5641L36.3898 7.22518C36.274 6.0956 35.3013 5.27937 34.2066 5.27937H30.5524C29.3927 5.27937 28.4437 6.16229 28.3386 7.29841L28.3377 7.30821L28.134 10.1102L27.0852 23.8027L21.9275 25.3381L20.3518 11.9832C20.236 10.8536 19.2632 10.0374 18.1686 10.0374H14.5144C13.3547 10.0374 12.4057 10.9203 12.3006 12.0564L12.2997 12.0662L12.096 14.8682L11.7192 19.8514C11.6775 20.4021 12.0902 20.8823 12.6409 20.9239C13.1916 20.9656 13.6718 20.5529 13.7135 20.0022L13.9775 16.5106H18.8721L19.9819 25.9173L13.0989 27.9664L13.4235 23.7357C13.4658 23.1851 13.0536 22.7044 12.503 22.6622C11.9523 22.6199 11.4717 23.0321 11.4294 23.5827L11.0462 28.5776L5.57512 30.2063L5.53551 30.2219C4.77633 30.5202 4.14722 31.2519 4.14722 32.2068V49.7547H3.1751C1.4394 49.7547 0 51.1086 0 52.8346C0 54.569 1.47726 55.9145 3.1751 55.9145H30.6683C31.2206 55.9145 31.6683 55.4667 31.6683 54.9145C31.6683 54.3622 31.2206 53.9145 30.6683 53.9145H3.1751C2.49483 53.9145 2 53.3794 2 52.8346C2 52.2812 2.47468 51.7547 3.1751 51.7547H4.90864C4.98509 51.7734 5.065 51.7833 5.14722 51.7833C5.22944 51.7833 5.30934 51.7734 5.3858 51.7547H14.4217C14.4979 51.7733 14.5775 51.7831 14.6594 51.7831C14.7414 51.7831 14.821 51.7733 14.8972 51.7547H62.8308C63.5006 51.7547 63.9844 52.2542 64.0058 52.8188C63.9986 53.3675 63.5258 53.886 62.8308 53.886H34.1485C33.5962 53.886 33.1485 54.3337 33.1485 54.886C33.1485 55.4382 33.5962 55.886 34.1485 55.886H62.8308C64.5665 55.886 66.0059 54.532 66.0059 52.8061C66.0059 52.7976 66.0058 52.7891 66.0056 52.7806C65.9621 51.0711 64.5341 49.7547 62.8308 49.7547H60.0605V35.8821C60.0605 35.3298 59.6128 34.8821 59.0605 34.8821C58.5083 34.8821 58.0605 35.3298 58.0605 35.8821V49.7547H29V38.1613C29 36.7662 27.8685 35.6798 26.492 35.6798H16.1675C14.791 35.6798 13.6594 36.7662 13.6594 38.1613V49.7547H6.14722V32.2068C6.14722 32.191 6.15076 32.1762 6.16553 32.1562C6.17988 32.1368 6.20517 32.1133 6.24208 32.0945L57.8912 16.7183L57.915 16.7099C57.9785 16.6874 58.0606 16.7308 58.0606 16.8213V30.8107C58.0606 31.363 58.5084 31.8107 59.0606 31.8107C59.6129 31.8107 60.0606 31.363 60.0606 30.8107V16.8213C60.0606 15.3828 58.6535 14.3477 57.2756 14.8148L53.4526 15.953L51.9051 2.83741C51.7894 1.70782 50.8166 0.891602 49.7219 0.891602H46.0677C44.908 0.891602 43.9591 1.77452 43.8539 2.91063L43.853 2.92044L43.6493 5.72244ZM45.8461 3.08893L45.6806 5.36481H50.1894L49.9166 3.05263L49.9156 3.04228C49.9126 3.01114 49.8976 2.97607 49.8614 2.9441C49.8243 2.91139 49.775 2.8916 49.7219 2.8916H46.0677C45.9534 2.8916 45.8596 2.9745 45.8461 3.08893ZM44.6451 18.575L45.5264 7.36481H50.4254L51.507 16.5322L44.6451 18.575ZM15.6594 49.7547H27V38.1613C27 37.904 26.7975 37.6798 26.492 37.6798H16.1675C15.8619 37.6798 15.6594 37.904 15.6594 38.1613V49.7547ZM14.2927 12.2347L14.1272 14.5106H18.6361L18.3633 12.1984L18.3623 12.1881C18.3593 12.1569 18.3442 12.1218 18.308 12.0899C18.271 12.0572 18.2216 12.0374 18.1686 12.0374H14.5144C14.4 12.0374 14.3062 12.1203 14.2927 12.2347ZM30.1653 9.75246L30.3307 7.4767C30.3442 7.36227 30.438 7.27937 30.5524 7.27937H34.2066C34.2597 7.27937 34.309 7.29916 34.346 7.33187C34.3823 7.36384 34.3973 7.39891 34.4003 7.43005L34.4013 7.44041L34.6741 9.75246H30.1653ZM30.0141 11.7525L29.1379 23.1916L36.0181 21.1433L34.9101 11.7525H30.0141Z" fill="#98A782"/>
</svg>
