<svg width="88" height="88" viewBox="0 0 88 88" fill="none" xmlns="http://www.w3.org/2000/svg">
<path fill-rule="evenodd" clip-rule="evenodd" d="M68.2829 23.3825V22.367H69.8174C70.4742 22.367 71.0066 21.8346 71.0066 21.1778C71.0066 20.5211 70.4742 19.9886 69.8174 19.9886H68.2829V14.3505C68.2829 12.662 66.6515 11.2962 64.9336 11.9224L10.4255 31.0288L10.3968 31.0406C9.47801 31.4175 8.76237 32.319 8.76237 33.4494V68.4417H7.57246C5.45978 68.4417 3.79688 70.149 3.79688 72.2131C3.79688 74.2876 5.50459 75.9845 7.57246 75.9845H40.2645C40.9213 75.9845 41.4537 75.4521 41.4537 74.7953C41.4537 74.1386 40.9213 73.6061 40.2645 73.6061H7.57246C6.81253 73.6061 6.17525 72.9685 6.17525 72.2131C6.17525 71.4474 6.78837 70.8201 7.57246 70.8201H9.66162C9.75442 70.8433 9.85155 70.8557 9.95156 70.8557C10.0516 70.8557 10.1487 70.8433 10.2415 70.8201H15.5933C15.686 70.8433 15.7829 70.8556 15.8828 70.8556C15.9826 70.8556 16.0796 70.8433 16.1723 70.8201H37.0092C37.1017 70.8432 37.1986 70.8555 37.2984 70.8555C37.3981 70.8555 37.495 70.8432 37.5876 70.8201H46.8712C46.964 70.8433 47.0612 70.8557 47.1612 70.8557C47.2612 70.8557 47.3583 70.8433 47.4511 70.8201H57.0098C57.1026 70.8433 57.1997 70.8557 57.2997 70.8557C57.3997 70.8557 57.4968 70.8433 57.5897 70.8201H76.4604C76.5529 70.8432 76.6497 70.8554 76.7494 70.8554C76.849 70.8554 76.9458 70.8432 77.0383 70.8201H78.5087C79.2591 70.8201 79.8794 71.4162 79.9058 72.1921C79.8982 72.9513 79.2878 73.5708 78.5087 73.5708H44.4027C43.746 73.5708 43.2135 74.1032 43.2135 74.76C43.2135 75.4167 43.746 75.9491 44.4027 75.9491H78.5087C80.6213 75.9491 82.2843 74.2419 82.2843 72.1777L82.2839 72.1488C82.234 70.1019 80.5813 68.4417 78.5087 68.4417H77.9385V57.1459C77.9385 56.4891 77.4061 55.9567 76.7494 55.9567C76.0926 55.9567 75.5602 56.4891 75.5602 57.1459V68.4417H67.869V52.3714C67.869 51.457 67.3256 50.7585 66.7106 50.3403C66.0897 49.918 65.297 49.6967 64.4728 49.6967H49.3682C48.556 49.6967 47.7672 49.9206 47.1483 50.3369C46.5408 50.7456 45.972 51.4417 45.972 52.3714V68.4417H38.4875V33.259H75.5603V52.6895C75.5603 53.3463 76.0928 53.8787 76.7495 53.8787C77.4063 53.8787 77.9387 53.3463 77.9387 52.6895V30.8806H68.2829V25.7608H69.8174C70.4742 25.7608 71.0066 25.2284 71.0066 24.5716C71.0066 23.9149 70.4742 23.3825 69.8174 23.3825H68.2829ZM65.7838 14.1518C65.7782 14.1509 65.7678 14.1497 65.7468 14.1575L65.7376 14.1609L11.2819 33.2489C11.2359 33.2712 11.2 33.303 11.1767 33.3359C11.1531 33.3694 11.1407 33.4053 11.1407 33.4494V68.4417H14.6936V48.304C14.6936 46.65 15.991 45.2756 17.676 45.2756H29.9528C31.6378 45.2756 32.9352 46.65 32.9352 48.304V68.4417H36.1092V30.8806H65.9045V25.7608H56.575C55.9183 25.7608 55.3858 25.2284 55.3858 24.5716C55.3858 23.9149 55.9183 23.3825 56.575 23.3825H65.9045V22.367H56.575C55.9183 22.367 55.3858 21.8346 55.3858 21.1778C55.3858 20.5211 55.9183 19.9886 56.575 19.9886H65.9045V14.3505C65.9045 14.2562 65.8638 14.1998 65.8266 14.172C65.8076 14.1578 65.7922 14.1531 65.7838 14.1518ZM56.1105 52.0751H49.3682C48.9735 52.0751 48.6587 52.1873 48.4759 52.3103C48.4024 52.3597 48.3665 52.3972 48.3504 52.4183V68.4417H56.1105V52.0751ZM58.4889 68.4417V52.0751H64.4728C64.89 52.0751 65.2009 52.1898 65.3732 52.307C65.4431 52.3545 65.4762 52.3902 65.4907 52.4099V68.4417H58.4889ZM17.072 68.4417H30.5568V48.304C30.5568 47.9065 30.2679 47.654 29.9528 47.654H17.676C17.3609 47.654 17.072 47.9065 17.072 48.304V68.4417ZM48.3386 52.4378C48.3386 52.4378 48.3393 52.4348 48.3426 52.4294C48.3406 52.4351 48.3386 52.4378 48.3386 52.4378ZM65.5005 52.4274C65.5005 52.4274 65.4985 52.4247 65.4966 52.4188C65.5 52.4243 65.5005 52.4274 65.5005 52.4274Z" fill="#98A782"/>
</svg>
