<svg width="68" height="68" viewBox="0 0 68 68" fill="none" xmlns="http://www.w3.org/2000/svg">
<path fill-rule="evenodd" clip-rule="evenodd" d="M52.6608 38.2026C53.299 37.5004 53.5825 36.5463 53.4311 35.6099C52.9585 32.9303 49.1403 31.5031 46.572 30.8294C46.7128 29.8691 46.698 28.8926 46.5288 27.9369L46.1747 25.93C46.6533 26.1226 47.1639 26.2247 47.6796 26.2308C48.2538 26.2328 48.8203 26.0987 49.3324 25.8391C50.6641 25.1323 51.3678 23.63 51.0583 22.154C50.6554 20.0516 48.8411 18.5141 46.7006 18.4618H29.4971C28.893 18.4557 28.3173 18.7179 27.9256 19.1777C27.5359 19.6507 27.3764 20.2721 27.4902 20.8747L28.86 28.6437C29.0078 29.454 29.2558 30.2426 29.5992 30.9915C26.06 32.1092 24.2375 33.9002 24.6048 35.995C25.2704 39.7461 32.9657 41.7663 39.8735 41.7663C45.8236 41.7698 50.8429 40.369 52.6608 38.2026ZM48.8716 22.5396C49.0123 23.0579 48.7837 23.6061 48.3168 23.8713C48.1196 23.9688 47.9017 24.0181 47.6817 24.0156C47.2351 24.0049 46.8032 23.854 46.4465 23.5847L46.3744 23.536C45.9318 23.194 45.6255 22.7053 45.5107 22.1576L45.249 20.6816H46.7006C47.763 20.7344 48.6551 21.4981 48.8716 22.5396ZM42.9891 20.6816L43.3224 22.5381L44.3411 28.3185C44.6972 30.0475 44.2847 31.8456 43.2111 33.2468C42.2427 34.4154 40.8079 35.0972 39.2898 35.1105C35.2815 35.0271 31.8622 32.1855 31.0467 28.2601L29.71 20.6816H42.9891ZM26.7845 35.6099C26.6559 34.8849 27.8621 33.7661 30.75 32.9547C32.6995 35.6312 35.783 37.2484 39.0931 37.3302H39.3543C41.5182 37.3038 43.5596 36.3237 44.934 34.6517C45.346 34.14 45.6885 33.5756 45.9527 32.9735C49.3598 33.8525 51.0939 35.1389 51.2448 35.9981C51.2794 36.2877 51.1742 36.5763 50.9608 36.7749C49.8384 38.1071 45.8927 39.55 39.8817 39.55C32.2011 39.55 27.0842 37.2545 26.7931 35.6099H26.7845Z" fill="#98A782"/>
<path d="M30.2232 13.9364C30.2872 13.7769 30.1841 13.4746 29.8513 13.2297C28.6288 12.4381 28.2224 10.8387 28.919 9.56033L29.9178 7.89536C30.2389 7.38221 30.9116 7.22115 31.4304 7.5326C31.9491 7.84456 32.1224 8.5142 31.8201 9.03854L30.8212 10.7035C30.7104 10.891 30.8669 11.2151 31.1774 11.4458C32.2667 12.1678 32.7219 13.5406 32.2784 14.7701L31.9634 15.547C31.7931 15.9651 31.3862 16.239 30.9345 16.2385C30.7912 16.239 30.649 16.2111 30.5158 16.1562C29.9503 15.925 29.678 15.2803 29.9067 14.7132L30.2232 13.9364Z" fill="#98A782"/>
<path d="M34.2908 13.2297C34.6236 13.4746 34.7272 13.7769 34.6627 13.9364L34.3461 14.7132C34.1175 15.2803 34.3898 15.925 34.9558 16.1562C35.0884 16.2111 35.2307 16.239 35.374 16.2385C35.8257 16.239 36.2326 15.9651 36.4028 15.547L36.7183 14.7701C37.1614 13.5406 36.7067 12.1678 35.6173 11.4458C35.3064 11.2151 35.1499 10.891 35.2607 10.7035L36.2596 9.03854C36.5619 8.5142 36.3886 7.84456 35.8699 7.5326C35.3511 7.22115 34.6784 7.38221 34.3573 7.89536L33.3584 9.56033C32.6624 10.8387 33.0683 12.4381 34.2908 13.2297Z" fill="#98A782"/>
<path d="M39.1024 13.9364C39.1669 13.7769 39.0638 13.4746 38.7305 13.2297C37.508 12.4381 37.1021 10.8387 37.7982 9.56033L38.797 7.89536C39.1181 7.38221 39.7908 7.22115 40.3096 7.5326C40.8283 7.84456 41.0016 8.5142 40.6998 9.03854L39.7004 10.7035C39.5896 10.891 39.7461 11.2151 40.0571 11.4458C41.1464 12.1678 41.6011 13.5406 41.1581 14.7701L40.8425 15.547C40.6723 15.9651 40.2654 16.239 39.8137 16.2385C39.6704 16.239 39.5282 16.2111 39.3955 16.1562C38.8296 15.925 38.5572 15.2803 38.7859 14.7132L39.1024 13.9364Z" fill="#98A782"/>
<path d="M55.0875 43.9898H28.4495C27.8363 43.9898 27.3394 44.4867 27.3394 45.0994C27.3394 45.7127 27.8363 46.2096 28.4495 46.2096H55.0875C55.7002 46.2096 56.1971 45.7127 56.1971 45.0994C56.1971 44.4867 55.7002 43.9898 55.0875 43.9898Z" fill="#98A782"/>
<path d="M35.8913 48.4292H49.2106C49.8233 48.4292 50.3202 48.9261 50.3202 49.5389C50.3202 50.1521 49.8233 50.649 49.2106 50.649H35.8913C35.2786 50.649 34.7817 50.1521 34.7817 49.5389C34.7817 48.9261 35.2786 48.4292 35.8913 48.4292Z" fill="#98A782"/>
<path fill-rule="evenodd" clip-rule="evenodd" d="M58.6752 2.61756C58.5187 1.52265 57.5828 0.70719 56.4767 0.703125H12.7761C12.2365 0.703125 11.7751 1.0913 11.6827 1.62325L0.735658 64.6918C0.623881 65.3386 0.803232 66.0021 1.22595 66.5046C1.64918 67.0076 2.27208 67.2977 2.92902 67.2977H12.9417C14.0493 67.2937 14.9857 66.4767 15.1401 65.3797L16.0979 58.4186H19.6219L20.5852 65.3807C20.7402 66.4792 21.6796 67.2962 22.7887 67.2977H33.9044C34.5466 67.2987 35.1578 67.0218 35.5806 66.5381C36.0028 66.0545 36.1953 65.4112 36.1074 64.7751L35.2285 58.4186H52.0224L52.9827 65.3797C53.1376 66.4767 54.0745 67.2937 55.1821 67.2977H65.0759C65.7181 67.2977 66.3283 67.0198 66.7495 66.5361C67.1712 66.0519 67.3628 65.4097 67.2749 64.7736L58.6752 2.61756ZM16.0979 56.1988C14.9903 56.2023 14.0534 57.0193 13.8994 58.1168L12.9417 65.0779L2.9214 65.0703L12.7273 8.58339L19.3145 56.1988H16.0979ZM55.1821 65.0779L54.2224 58.1153C54.0659 57.0193 53.1295 56.2034 52.0224 56.1988H35.2285C34.5857 56.1978 33.9745 56.4757 33.5523 56.9604C33.1301 57.4446 32.9386 58.0883 33.0275 58.7249L33.9044 65.0779H22.7887L14.1844 2.92291H56.4722L65.0759 65.0779H55.1821Z" fill="#98A782"/>
</svg>
