<svg width="27" height="33" viewBox="0 0 27 33" fill="none" xmlns="http://www.w3.org/2000/svg">
<g clip-path="url(#clip0)">
<path d="M11.1949 24.6188L8.01287 28.3033C6.69366 29.8308 4.5573 29.8308 3.23919 28.3036C1.92083 26.777 1.92083 24.3031 3.23893 22.7769L9.60413 15.4067C10.9222 13.8804 13.0588 13.8804 14.3769 15.4067C14.8163 15.9154 15.5288 15.9154 15.9682 15.4067C16.4076 14.8979 16.4076 14.0729 15.9682 13.5641C13.7712 11.0203 10.2098 11.0203 8.01287 13.5641L1.64772 20.9343C-0.549241 23.4782 -0.549241 27.6019 1.64772 30.1457C3.84442 32.6909 7.40606 32.6909 9.60418 30.1457L12.7862 26.4612C13.2256 25.9525 13.2256 25.1275 12.7862 24.6187C12.3468 24.1099 11.6343 24.11 11.1949 24.6188Z" fill="#98A782"/>
<path d="M25.3522 2.695C23.1552 0.151146 19.5927 0.151146 17.3957 2.695L13.578 7.11556C13.1385 7.62434 13.1385 8.44929 13.578 8.95807C14.0174 9.46686 14.7298 9.46686 15.1692 8.95807L18.987 4.53751C20.3051 3.01122 22.4428 3.01122 23.7609 4.53751C25.079 6.06374 25.079 8.53766 23.7609 10.0639L16.76 18.1703C15.4418 19.6966 13.3053 19.6966 11.9872 18.1703C11.5478 17.6615 10.8354 17.6615 10.396 18.1703C9.95656 18.6791 9.95656 19.504 10.396 20.0128C12.5929 22.5566 16.1543 22.5566 18.3513 20.0128L25.3522 11.9065C27.5491 9.36261 27.5491 5.23885 25.3522 2.695Z" fill="#98A782"/>
</g>
<defs>
<clipPath id="clip0">
<rect width="27" height="31.2632" fill="white" transform="translate(0 0.789062)"/>
</clipPath>
</defs>
</svg>
