<svg width="28" height="28" viewBox="0 0 28 28" fill="none" xmlns="http://www.w3.org/2000/svg">
<g clip-path="url(#clip0)">
<path d="M8.48697 17.8711C8.48697 17.4227 8.1824 17.1553 7.64501 17.1553C7.42557 17.1553 7.27695 17.1774 7.19922 17.1986V18.6372C7.29126 18.6584 7.40441 18.6654 7.56037 18.6654C8.13317 18.6654 8.48697 18.3698 8.48697 17.8711Z" fill="#98A782"/>
<path d="M11.8124 17.1699C11.5717 17.1699 11.4162 17.1911 11.3242 17.2132V20.3993C11.4163 20.4214 11.5649 20.4214 11.6992 20.4214C12.6755 20.4285 13.3122 19.8795 13.3122 18.7163C13.3191 17.7047 12.7389 17.1699 11.8124 17.1699Z" fill="#98A782"/>
<path d="M17.9931 0.5H7.37759C5.82676 0.5 4.56455 1.7903 4.56455 3.37366V13.9999H4.2898C3.66387 13.9999 3.15625 14.518 3.15625 15.158V22.1806C3.15625 22.8206 3.66382 23.3386 4.2898 23.3386H4.56455V24.6263C4.56455 26.2114 5.82676 27.4999 7.37759 27.4999H21.8621C23.4119 27.4999 24.6743 26.2113 24.6743 24.6263V7.30118L17.9931 0.5ZM6.13002 16.4253C6.46222 16.368 6.92917 16.3247 7.58706 16.3247C8.2519 16.3247 8.72576 16.4544 9.04415 16.7148C9.34828 16.9602 9.55353 17.3652 9.55353 17.8419C9.55353 18.3185 9.398 18.7236 9.11503 18.9981C8.74697 19.352 8.20267 19.5109 7.56595 19.5109C7.42424 19.5109 7.29723 19.5037 7.1979 19.4897V21.231H6.13002V16.4253ZM21.8621 25.7401H7.37759C6.7771 25.7401 6.28812 25.2406 6.28812 24.6263V23.3386H19.7906C20.4166 23.3386 20.9242 22.8206 20.9242 22.1806V15.158C20.9242 14.518 20.4166 13.9999 19.7906 13.9999H6.28812V3.37366C6.28812 2.76113 6.77716 2.2616 7.37759 2.2616L17.3486 2.25096V6.01603C17.3486 7.11577 18.2221 8.00892 19.2995 8.00892L22.91 7.99833L22.9506 24.6262C22.9506 25.2406 22.4625 25.7401 21.8621 25.7401ZM10.2421 21.209V16.4253C10.6382 16.3609 11.1544 16.3247 11.6992 16.3247C12.6046 16.3247 13.1917 16.4907 13.6517 16.8445C14.1468 17.2205 14.4578 17.8198 14.4578 18.6803C14.4578 19.6123 14.1256 20.2557 13.6655 20.6528C13.1635 21.0791 12.3994 21.2813 11.4659 21.2813C10.9068 21.2813 10.5108 21.2451 10.2421 21.209ZM17.9621 18.3768V19.2725H16.2501V21.231H15.168V16.3609H18.0822V17.2638H16.2501V18.3768H17.9621Z" fill="#98A782"/>
</g>
<defs>
<clipPath id="clip0">
<rect width="26.4305" height="27" fill="white" transform="translate(0.703125 0.5)"/>
</clipPath>
</defs>
</svg>
