<svg width="24" height="26" viewBox="0 0 24 26" fill="none" xmlns="http://www.w3.org/2000/svg">
<g clip-path="url(#clip0)">
<path fill-rule="evenodd" clip-rule="evenodd" d="M17.7969 1.7002C17.7969 1.14791 17.3492 0.700195 16.7969 0.700195C16.2446 0.700195 15.7969 1.14791 15.7969 1.7002V3.1002H8.19844V1.7002C8.19844 1.14791 7.75072 0.700195 7.19844 0.700195C6.64615 0.700195 6.19844 1.14791 6.19844 1.7002V3.1002H4.79844C2.92067 3.1002 1.39844 4.62243 1.39844 6.5002V11.3002V20.9002C1.39844 22.778 2.92067 24.3002 4.79844 24.3002H19.1984C21.0762 24.3002 22.5984 22.778 22.5984 20.9002V11.3002V6.5002C22.5984 4.62243 21.0762 3.1002 19.1984 3.1002H17.7969V1.7002ZM20.5984 10.3002V6.5002C20.5984 5.727 19.9716 5.10019 19.1984 5.10019H17.7969V6.5002C17.7969 7.05248 17.3492 7.5002 16.7969 7.5002C16.2446 7.5002 15.7969 7.05248 15.7969 6.5002V5.10019H8.19844V6.5002C8.19844 7.05248 7.75072 7.5002 7.19844 7.5002C6.64615 7.5002 6.19844 7.05248 6.19844 6.5002V5.10019H4.79844C4.02524 5.10019 3.39844 5.727 3.39844 6.5002V10.3002H20.5984ZM3.39844 12.3002H20.5984V20.9002C20.5984 21.6734 19.9716 22.3002 19.1984 22.3002H4.79844C4.02524 22.3002 3.39844 21.6734 3.39844 20.9002V12.3002ZM12.9541 15.8003C12.9839 15.8951 13 15.996 13 16.1006V19.7006C13 20.2529 12.5523 20.7006 12 20.7006C11.4477 20.7006 11 20.2529 11 19.7006V16.5C10.4477 16.5 10 16.0523 10 15.5C10 14.9477 10.4477 14.5 11 14.5H12C12.5523 14.5 13 14.9477 13 15.5C13 15.6046 12.9839 15.7055 12.9541 15.8003Z" fill="#859299"/>
</g>
<defs>
<clipPath id="clip0">
<rect width="24" height="25" fill="white" transform="translate(0 0.5)"/>
</clipPath>
</defs>
</svg>
