<svg width="27" height="26" viewBox="0 0 27 26" fill="none" xmlns="http://www.w3.org/2000/svg">
<path d="M18.7628 10.3243C19.136 9.91716 19.7686 9.88965 20.1757 10.2628C20.5828 10.636 20.6103 11.2686 20.2372 11.6757L18.7628 10.3243ZM14 17L14.7372 17.6757C14.5477 17.8824 14.2803 18 14 18C13.7197 18 13.4523 17.8824 13.2628 17.6757L14 17ZM7.76285 11.6757C7.38965 11.2686 7.41716 10.636 7.82428 10.2628C8.23139 9.88965 8.86396 9.91716 9.23715 10.3243L7.76285 11.6757ZM20.2372 11.6757L14.7372 17.6757L13.2628 16.3243L18.7628 10.3243L20.2372 11.6757ZM13.2628 17.6757L7.76285 11.6757L9.23715 10.3243L14.7372 16.3243L13.2628 17.6757Z" fill="#859299"/>
</svg>
