<svg width="14" height="18" viewBox="0 0 14 18" fill="none" xmlns="http://www.w3.org/2000/svg">
    <path d="M6.75 0C3.02783 0 0 3.02818 0 6.75C0 11.7297 6.22779 17.6484 6.49294 17.8982C6.56543 17.9659 6.65771 18 6.75 18C6.84229 18 6.93457 17.9659 7.0071 17.8982C7.27221 17.6484 13.5 11.7297 13.5 6.75C13.5 3.02818 10.4722 0 6.75 0ZM6.75 10.5C4.68236 10.5 2.99999 8.81764 2.99999 6.75C2.99999 4.68236 4.68239 2.99999 6.75 2.99999C8.81761 2.99999 10.5 4.68239 10.5 6.75C10.5 8.81761 8.81764 10.5 6.75 10.5Z" fill="#556A3B"/>
</svg>