<svg width="94" height="74" viewBox="0 0 94 74" fill="none" xmlns="http://www.w3.org/2000/svg">
<g clip-path="url(#clip0)">
<path fill-rule="evenodd" clip-rule="evenodd" d="M29.1921 13.5372C29.1921 13.5372 25.397 8.16337 28.3747 3.43559C31.3523 -1.26282 31.4107 0.234799 31.4107 0.234799L29.1921 13.5372Z" fill="#5F9737"/>
<path fill-rule="evenodd" clip-rule="evenodd" d="M29.1914 13.5373C29.1914 13.5373 34.2417 9.66108 32.9572 4.22854C31.6436 -1.20399 31.1181 0.205529 31.1181 0.205529L29.1914 13.5373Z" fill="#85BD37"/>
<path fill-rule="evenodd" clip-rule="evenodd" d="M27.6756 13.9786C27.7923 13.2738 28.0259 10.954 26.07 9.39763C24.0265 7.78255 20.3482 8.45795 19.5308 8.63414L27.6756 13.9786ZM19.4141 8.89843L27.5296 14.2135C26.829 14.3603 23.3259 15.0064 21.7495 14.008C20.2023 13.0683 19.56 9.77938 19.4141 8.89843Z" fill="#5F9737"/>
<path fill-rule="evenodd" clip-rule="evenodd" d="M46.9694 12.627C53.8297 12.627 60.0769 15.123 64.8353 19.2635C64.4849 19.9095 63.9887 20.4968 63.3756 20.7023C61.8284 21.2603 62.4123 21.9944 62.4123 21.9944C62.4123 21.9944 62.8502 22.2 63.2297 22.2881C63.6092 22.3762 65.5359 22.5817 65.9738 22.5817C66.4117 22.5817 65.8862 21.3484 66.2365 21.2309C66.2657 21.2309 66.4992 21.4658 66.9371 20.6143C67.0831 20.35 67.1999 21.5833 67.2582 21.642C67.0539 24.5198 68.2216 23.2277 64.3682 23.1103C63.2881 23.0809 62.1203 23.4627 62.0912 23.6976C62.0328 24.2555 62.4707 24.3143 61.6241 24.7254C60.7775 25.1365 59.7849 24.7254 59.9017 25.6063C59.9893 26.4873 60.544 26.8984 59.4346 27.1039C58.3253 27.3095 57.2452 26.9865 57.2452 28.3666C57.2452 29.7468 55.9023 31.5968 57.6831 31.9492C59.493 32.3016 61.3321 30.9214 61.3321 29.7762C61.3321 28.4547 61.3905 27.2801 63.0253 27.2801C63.5216 27.2801 65.3899 25.6944 66.4408 26.6341C66.9955 27.1039 67.2582 28.6016 67.5502 28.8071C67.8421 29.0127 68.4259 29.365 68.6887 28.5722C68.9514 27.7793 69.3601 27.3389 69.2725 27.9262C69.1849 28.5135 69.3893 29.0714 69.8856 29.0127C70.3526 28.9539 69.652 29.277 70.2943 29.7468C70.9365 30.2166 71.5787 30.8039 72.3669 30.8333C72.4253 30.8333 72.5129 30.8333 72.5713 30.8333C73.0676 32.3309 73.4179 33.9166 73.6514 35.5317C70.4986 37.7341 65.9446 41.5515 64.6309 45.7801C63.4048 49.8325 65.1564 54.0317 66.7328 56.7039C61.8284 61.9016 54.7638 65.1611 46.9402 65.1611C33.57 65.1611 22.4769 55.6468 20.375 43.1373L29.7166 40.6412L37.1899 33.1825L38.6787 30.9508C38.6787 30.9508 39.321 29.6587 39.7297 29.0714C40.1384 28.4841 40.7222 28.0436 41.2769 27.6031C41.8607 27.1627 42.7073 25.9881 43.3495 25.665C43.9918 25.3127 44.6048 24.5198 44.8092 24.5492C44.8967 24.5785 44.8967 25.3127 45.393 25.6944C45.9185 26.1349 46.911 26.2817 46.911 26.2817C47.8744 25.9 48.9253 24.7547 48.575 24.0793C48.2247 23.4039 47.2905 23.2571 46.8235 22.6111C46.3564 21.965 46.152 22.2881 45.393 22.3174C45.3054 21.9063 45.2471 21.4658 44.6924 20.9666C44.1085 20.4674 42.8533 19.8214 42.7365 20.4968C42.6197 21.1722 42.8825 21.642 42.6781 22.2587C42.4738 22.8754 42.6197 22.6992 41.8899 22.9635C41.1893 23.2277 41.2769 23.4039 41.0141 23.8738C40.7514 24.3436 40.9266 24.6666 40.3719 24.4317C39.8172 24.1968 39.5545 23.7563 39.5837 23.4333C39.6129 23.1397 39.934 23.0516 39.6129 22.9928C39.321 22.9341 38.1533 23.3452 38.0657 22.2881C37.9781 21.2309 38.1241 20.8198 38.416 20.6436C38.6787 20.4674 39.029 21.1722 39.321 20.4087C39.6421 19.5277 41.0141 19.8801 42.0359 19.8214C42.0359 19.8214 42.9117 19.6452 43.3787 18.7936C43.9042 17.8539 45.4222 18.2944 46.2396 18.823C46.2396 18.823 45.5682 18.4119 45.4222 19.4103C45.2762 20.4087 45.3638 20.5555 45.8309 20.6143C46.298 20.6436 47.962 20.3206 48.0203 19.2928C48.0787 18.265 46.9986 17.2373 46.4148 17.0904C45.8309 16.9143 45.0135 16.092 43.9626 16.7381C42.9117 17.3841 42.8533 17.942 42.8825 18.2063C42.9116 18.4706 42.3862 18.5881 41.3644 18.5587C40.3427 18.5293 41.598 18.177 41.7439 17.5897C41.8899 17.0023 40.8974 16.4444 40.7222 17.1492C40.5471 17.8539 40.7806 18.4706 40.3427 18.4706C39.9048 18.4706 39.6421 19.2341 39.6421 19.2341C37.2191 19.8508 37.4526 19.6158 37.6862 17.4135C37.7154 17.0611 37.4526 17.0317 37.0148 17.0317C35.1464 17.0317 35.6719 17.0611 35.5551 18.9404C35.6427 18.5293 36.0806 19.146 36.3725 18.9111C36.5185 18.7936 36.5477 18.265 36.6061 18.265C36.9564 18.177 36.898 18.177 36.898 18.2944C36.898 19.4103 36.3725 20.4087 34.9713 19.6158C34.6794 19.4397 34.9421 18.5 34.621 18.4706C34.2707 18.4412 33.6868 18.3238 33.4241 19.0873C33.1613 19.8508 33.1321 20.9666 32.811 21.642C32.4607 22.3174 31.9061 22.1412 32.1104 20.7611C33.0446 13.6254 40.6346 12.627 46.9694 12.627ZM37.5402 37.2055C37.5402 37.2055 34.4166 42.0801 34.9713 44.5762C35.5259 47.0722 36.4017 48.1881 38.0949 49.1571C39.788 50.1262 40.1967 52.9452 39.321 54.6777C38.4452 56.4103 39.0582 58.3777 40.8098 60.4627C42.5613 62.5476 42.8241 63.1936 43.9334 63.869C45.0427 64.5444 44.5464 63.3992 44.1961 61.1381C43.8458 58.8769 42.7073 58.6127 44.1961 57.673C45.6849 56.7039 46.298 57.0563 46.9694 55.4119C47.6408 53.7674 47.1738 52.6809 47.9912 52.0643C48.8085 51.4476 50.1514 51.8 50.852 50.3611C51.5235 48.9222 51.6694 41.7277 51.6694 41.7277L37.5402 37.2055Z" fill="white"/>
<path fill-rule="evenodd" clip-rule="evenodd" d="M36.1098 26.3413C36.1098 26.3413 35.6135 25.196 36.8104 25.196C38.0073 25.1667 39.7589 26.0476 38.5912 26.3413C37.4527 26.6055 36.1098 26.3413 36.1098 26.3413Z" fill="#002647"/>
<path fill-rule="evenodd" clip-rule="evenodd" d="M35.2649 22.6399C35.8488 22.7867 35.7028 23.2859 35.4985 23.9907C34.8562 26.0169 34.0972 22.3462 35.2649 22.6399Z" fill="#002647"/>
<path fill-rule="evenodd" clip-rule="evenodd" d="M70.2081 28.0433C70.2081 27.9259 69.9454 27.0449 70.3541 27.0449C70.792 27.0743 70.9379 28.2195 70.6752 28.6306C70.4125 29.0417 70.2081 28.0433 70.2081 28.0433Z" fill="#002647"/>
<path fill-rule="evenodd" clip-rule="evenodd" d="M33.9804 65.8652C33.9804 65.8652 33.163 69.4184 30.1562 69.9176C27.1493 70.4168 27.7332 69.8295 27.7332 69.8295L33.9804 65.8652Z" fill="#5F9737"/>
<path fill-rule="evenodd" clip-rule="evenodd" d="M33.981 65.8659C33.981 65.8659 30.5363 65.1906 28.7847 67.7453C27.0332 70.2707 27.8214 70.0064 27.8214 70.0064L33.981 65.8659Z" fill="#85BD37"/>
<path fill-rule="evenodd" clip-rule="evenodd" d="M34.7389 66.336C34.4177 66.5416 33.3668 67.3051 33.4544 68.6852C33.542 70.1241 35.1767 71.3868 35.5562 71.6804L34.7389 66.336ZM35.7022 71.6217L34.8848 66.3066C35.2059 66.5416 36.7531 67.7455 36.9283 68.7733C37.1035 69.7717 35.9941 71.2693 35.7022 71.6217Z" fill="#5F9737"/>
<path fill-rule="evenodd" clip-rule="evenodd" d="M47.2043 6.04883C60.7204 6.04883 72.3391 14.183 77.4478 25.8115H75.8714C70.8794 15.0052 59.903 7.48772 47.2043 7.48772C44.7229 7.48772 42.3291 7.78137 40.0229 8.30994C38.5633 8.63295 37.9211 7.31153 39.7894 6.87105C42.1832 6.34248 44.6645 6.04883 47.2043 6.04883ZM78.6447 49.098C74.3825 62.4004 61.9173 72.0322 47.2043 72.0322C46.1242 72.0322 45.0732 71.9734 44.0223 71.8853V70.4464C45.0732 70.5639 46.1242 70.5933 47.2043 70.5933C61.0999 70.5933 72.8645 61.6369 77.0975 49.1861C77.7397 47.2774 79.2869 47.0425 78.6447 49.098ZM19.88 23.2274C17.1943 27.8964 15.6471 33.2996 15.6471 39.0552C15.6471 48.5401 19.8509 57.056 26.4776 62.8409C27.5577 63.7806 26.3316 64.6322 25.4266 63.8393C18.5372 57.7901 14.1875 48.9218 14.1875 39.0552C14.1875 32.9766 15.8223 27.2798 18.7123 22.3758L19.88 23.2274Z" fill="white"/>
<path fill-rule="evenodd" clip-rule="evenodd" d="M73.3594 25.4304L78.6724 23.4629L77.855 30.1581L73.3594 25.4304Z" fill="#002647"/>
<path fill-rule="evenodd" clip-rule="evenodd" d="M46.181 68.8906L46.1519 69.1255L45.4512 74.0295L40.5469 69.8303L46.0351 68.92C46.0643 68.8906 46.1227 68.8906 46.181 68.8906Z" fill="#002647"/>
<path fill-rule="evenodd" clip-rule="evenodd" d="M15.6484 22.7868L20.8447 25.782L21.6621 19.5566L15.6484 22.7868Z" fill="#002647"/>
<path fill-rule="evenodd" clip-rule="evenodd" d="M8.6118 29.7754H85.4174C90.1466 29.7754 94.0292 33.6809 94.0292 38.4381C94.0292 43.1952 90.1466 47.1008 85.4174 47.1008H8.6118C3.88261 47.0714 0 43.1952 0 38.4381C0 33.6516 3.88261 29.7754 8.6118 29.7754Z" fill="#85BD37"/>
<path d="M16.3478 38.4364C16.3478 39.3761 16.2018 40.1984 15.9391 40.8444C15.6764 41.5198 15.2969 42.0777 14.8298 42.4888C14.3627 42.9293 13.8081 43.2523 13.195 43.4285C12.582 43.6341 11.9105 43.7222 11.2099 43.7222C10.5385 43.7222 9.92545 43.6341 9.3416 43.4872C8.78695 43.3404 8.23229 43.1349 7.64844 42.8412L8.37825 40.9912C8.52421 41.0499 8.67018 41.1087 8.87452 41.1968C9.04968 41.2849 9.25403 41.373 9.48757 41.4317C9.72111 41.5198 9.98384 41.5785 10.2466 41.6079C10.5385 41.6666 10.8304 41.696 11.1223 41.696C11.9105 41.696 12.5236 41.4904 12.9907 41.0793C13.4578 40.6682 13.7497 40.0809 13.8664 39.2587H9.66272V37.3206H13.8664C13.7497 36.5277 13.4578 35.9404 13.0199 35.588C12.5528 35.2063 11.9397 35.0301 11.1515 35.0301C10.5677 35.0301 10.0422 35.0888 9.57514 35.2357C9.10806 35.3825 8.72856 35.5293 8.43664 35.6468L7.76521 33.8555C8.31987 33.5618 8.90372 33.3563 9.48757 33.2095C10.0714 33.0626 10.6553 33.0039 11.2391 33.0039C11.9397 33.0039 12.6112 33.1214 13.2242 33.3269C13.8373 33.5325 14.3919 33.8849 14.8298 34.296C15.2969 34.7364 15.6472 35.2944 15.9099 35.9698C16.2018 36.7333 16.3478 37.5261 16.3478 38.4364Z" fill="white"/>
<path fill-rule="evenodd" clip-rule="evenodd" d="M23.5016 43.5472C23.5307 43.2535 23.4432 42.8424 23.1804 42.4607C22.8885 42.0789 22.5966 41.6972 22.2755 41.2861C21.9544 40.9043 21.604 40.5226 21.2537 40.1702C20.9034 39.8178 20.5531 39.4948 20.2028 39.2011V43.5472H17.9258V33.3281H20.2028V37.175C20.7866 36.5583 21.3997 35.9123 21.9835 35.2369C22.5966 34.5615 22.655 34.1503 22.8593 33.3281H26.3624C25.6618 34.1503 24.9612 34.9432 24.2606 35.7067C23.5599 36.4702 22.8301 37.2337 22.0419 38.0265C22.8593 38.7019 23.6475 39.5242 24.4065 40.4638C25.1655 41.4035 25.8953 42.4313 26.596 43.5765H23.5016V43.5472Z" fill="white"/>
<path d="M37.1631 38.4363C37.1631 39.3173 37.0464 40.0808 36.7836 40.7562C36.5209 41.4316 36.1706 41.9895 35.7327 42.43C35.2948 42.8704 34.7401 43.2228 34.1271 43.4284C33.5141 43.6633 32.8426 43.7808 32.1128 43.7808C31.4122 43.7808 30.77 43.6633 30.1569 43.4284C29.5439 43.1935 28.9892 42.8704 28.5513 42.43C28.0842 41.9895 27.7339 41.4316 27.4712 40.7562C27.2085 40.0808 27.0625 39.3173 27.0625 38.4363C27.0625 37.5554 27.2085 36.7919 27.4712 36.1165C27.7339 35.4411 28.1134 34.8831 28.5805 34.4427C29.0476 34.0022 29.5731 33.6498 30.1861 33.4149C30.7991 33.18 31.4414 33.0625 32.1128 33.0625C32.8134 33.0625 33.4557 33.18 34.0687 33.4149C34.6818 33.6498 35.2364 33.9728 35.6743 34.4427C36.1414 34.8831 36.4917 35.4411 36.7544 36.1165C37.0172 36.7919 37.1631 37.5554 37.1631 38.4363ZM29.3979 38.4363C29.3979 38.9355 29.4563 39.4054 29.5731 39.7871C29.6898 40.1982 29.865 40.5506 30.0985 40.8149C30.3321 41.1085 30.624 41.3435 30.9451 41.4903C31.2662 41.6371 31.6457 41.7252 32.0836 41.7252C32.4923 41.7252 32.8718 41.6371 33.2221 41.4903C33.5724 41.3435 33.8352 41.1085 34.0687 40.8149C34.3023 40.5212 34.4774 40.1689 34.5942 39.7871C34.7109 39.376 34.7693 38.9355 34.7693 38.4363C34.7693 37.9371 34.7109 37.4673 34.5942 37.0855C34.4774 36.6744 34.3023 36.322 34.0687 36.0284C33.8352 35.7347 33.5432 35.4998 33.2221 35.353C32.8718 35.2062 32.4923 35.1181 32.0836 35.1181C31.6457 35.1181 31.2662 35.2062 30.9451 35.353C30.624 35.5292 30.3321 35.7347 30.0985 36.0284C29.865 36.322 29.6898 36.6744 29.5731 37.0855C29.4563 37.4966 29.3979 37.9371 29.3979 38.4363Z" fill="white"/>
<path d="M48.0207 33.3281V35.2956H44.9555V43.5472H42.6785V35.2956H39.6133V33.3281H48.0207Z" fill="white"/>
<path fill-rule="evenodd" clip-rule="evenodd" d="M56.1088 36.6469C56.1088 39.2017 53.8318 39.9358 51.6716 39.9358V43.5771H49.3945V33.4755C49.8908 33.3874 50.4163 33.2993 50.9709 33.2699C53.4523 33.0937 56.1088 33.4755 56.1088 36.6469ZM52.5473 35.1787C52.3722 35.1787 52.2262 35.1787 52.0511 35.208C51.8759 35.208 51.7591 35.2374 51.6424 35.2374V38.1739H52.3722C53.2771 38.1739 53.9486 37.5866 53.9486 36.6469C53.9486 35.8247 53.3939 35.1787 52.5473 35.1787Z" fill="white"/>
<path fill-rule="evenodd" clip-rule="evenodd" d="M63.4063 43.5472C63.4354 43.1948 63.3771 42.813 63.2311 42.4607C63.1143 42.0789 62.9684 41.7265 62.8516 41.3448H58.8814C58.7646 41.7265 58.6187 42.0789 58.5019 42.4607C58.3851 42.8424 58.3268 43.1654 58.3851 43.5472H55.7578C56.1373 42.4313 56.5168 41.4329 56.8379 40.4932C57.1882 39.5535 57.5094 38.6726 57.8597 37.8503C58.1808 37.0281 58.5019 36.2353 58.823 35.5011C59.1441 34.767 59.4653 34.0329 59.8156 33.3281H61.9758C62.2969 34.0329 62.6472 34.767 62.9684 35.5011C63.2895 36.2353 63.6106 37.0281 63.9609 37.8503C64.282 38.6726 64.6323 39.5535 64.9827 40.4932C65.333 41.4329 65.6833 42.4607 66.0628 43.5472H63.4063ZM60.8665 35.648C60.8081 35.7948 60.7497 36.0003 60.633 36.2646C60.5454 36.5289 60.4286 36.8226 60.3118 37.1456C60.1951 37.4686 60.0491 37.8503 59.9032 38.2615C59.7572 38.6726 59.582 39.0837 59.4361 39.5242H62.3553C62.2094 39.0837 62.0634 38.6432 61.9174 38.2615C61.7715 37.8503 61.6255 37.498 61.5087 37.1456C61.392 36.8226 61.2752 36.5289 61.1584 36.2646C61.0125 36.0003 60.9249 35.7948 60.8665 35.648Z" fill="white"/>
<path d="M73.506 33.3281H75.7539V43.5472H73.506V39.2011H69.7694V43.5472H67.5508V33.3281H69.7694V37.2337H73.506V33.3281Z" fill="white"/>
<path fill-rule="evenodd" clip-rule="evenodd" d="M82.0308 43.7532C80.3668 43.7532 79.1115 43.2834 78.2649 42.373C77.3892 41.4627 76.9805 40.1413 76.9805 38.4381C76.9805 37.5865 77.1264 36.823 77.3892 36.177C77.6519 35.5016 78.0022 34.9437 78.4693 34.5032C78.9364 34.0334 79.491 33.7103 80.1041 33.4754C80.7463 33.2405 81.4177 33.123 82.1767 33.123C82.6146 33.123 82.9941 33.1524 83.3444 33.2111C83.6948 33.2699 84.0159 33.358 84.2786 33.4461C84.5413 33.5342 84.7749 33.6223 84.95 33.7103C85.1252 33.7984 85.242 33.8572 85.3295 33.9159L85.3879 36.0008C85.0668 35.8246 83.9867 35.4429 83.578 35.3254C83.1693 35.208 82.7022 35.1492 82.1475 35.1492C81.7972 35.1492 81.4469 35.208 81.1258 35.3254C80.7755 35.4429 80.4836 35.6191 80.2208 35.8834C79.9581 36.1476 79.7538 36.4707 79.6078 36.8818C79.4618 37.2929 79.3743 37.7921 79.3743 38.3794C79.3743 38.8492 79.4326 39.2897 79.5202 39.7008C79.637 40.1119 79.783 40.4643 80.0165 40.758C80.25 41.0516 80.542 41.2865 80.9215 41.4627C81.301 41.6389 81.7388 41.727 82.2643 41.727C82.5854 41.727 82.9066 41.6976 83.1693 41.6683C83.432 41.6389 83.6656 41.5802 83.8699 41.5215C84.0743 41.4627 84.2494 41.404 84.4246 41.3453C84.5705 41.2865 85.1252 41.1397 85.2712 41.081L85.5047 42.9897C85.1836 43.1953 84.7165 43.3715 84.1326 43.5183C83.4904 43.6945 82.819 43.7532 82.0308 43.7532Z" fill="white"/>
<path fill-rule="evenodd" clip-rule="evenodd" d="M34.6529 34.9135C34.3318 34.7666 33.3393 34.2674 33.2225 33.0341C33.1057 31.7714 34.361 30.4206 34.6529 30.127V34.9135ZM34.7697 30.1563C35.0908 30.45 36.2585 31.5952 36.2293 32.4762C36.2001 33.3865 35.0324 34.6492 34.7697 34.9135V30.1563Z" fill="white"/>
<path fill-rule="evenodd" clip-rule="evenodd" d="M34.9453 34.9127C34.9745 34.6484 35.0621 33.7381 35.9379 33.327C36.8428 32.8865 38.1565 33.4738 38.4484 33.6206L34.9453 34.9127ZM38.4776 33.7381L34.9745 35.0302C35.2372 35.1476 36.4633 35.6762 37.1639 35.4706C37.8062 35.2064 38.3608 34.0318 38.4776 33.7381Z" fill="white"/>
</g>
<defs>
<clipPath id="clip0">
<rect width="94" height="74" fill="white"/>
</clipPath>
</defs>
</svg>
