<svg width="63" height="49" viewBox="0 0 63 49" fill="none" xmlns="http://www.w3.org/2000/svg">
<g clip-path="url(#clip0)">
<path fill-rule="evenodd" clip-rule="evenodd" d="M19.5621 8.96352C19.5621 8.96352 17.0186 5.40518 19.0142 2.27463C21.0099 -0.836482 21.049 0.155184 21.049 0.155184L19.5621 8.96352Z" fill="#5F9737"/>
<path fill-rule="evenodd" clip-rule="evenodd" d="M19.5625 8.96308C19.5625 8.96308 22.9473 6.39641 22.0864 2.79919C21.206 -0.798031 20.8538 0.135302 20.8538 0.135302L19.5625 8.96308Z" fill="#85BD37"/>
<path fill-rule="evenodd" clip-rule="evenodd" d="M18.5487 9.25559C18.6269 8.78892 18.7835 7.25281 17.4726 6.22226C16.103 5.15281 13.6378 5.60003 13.09 5.7167L18.5487 9.25559ZM13.0117 5.8917L18.4509 9.41115C17.9813 9.50837 15.6335 9.93615 14.5769 9.27503C13.54 8.65281 13.1095 6.47503 13.0117 5.8917Z" fill="#5F9737"/>
<path fill-rule="evenodd" clip-rule="evenodd" d="M31.4802 8.36133C36.078 8.36133 40.265 10.0141 43.4541 12.7558C43.2193 13.1836 42.8867 13.5724 42.4758 13.7086C41.4389 14.078 41.8302 14.5641 41.8302 14.5641C41.8302 14.5641 42.1236 14.7002 42.378 14.7586C42.6323 14.8169 43.9236 14.953 44.2171 14.953C44.5106 14.953 44.1584 14.1363 44.3932 14.0586C44.4128 14.0586 44.5693 14.2141 44.8628 13.6502C44.9606 13.4752 45.0389 14.2919 45.078 14.3308C44.941 16.2363 45.7237 15.3808 43.141 15.303C42.4171 15.2835 41.6345 15.5363 41.615 15.6919C41.5758 16.0613 41.8693 16.1002 41.3019 16.3724C40.7345 16.6447 40.0693 16.3724 40.1476 16.9558C40.2063 17.5391 40.578 17.8113 39.8345 17.9474C39.091 18.0836 38.3671 17.8697 38.3671 18.7836C38.3671 19.6974 37.4671 20.9224 38.6606 21.1558C39.8736 21.3891 41.1063 20.4752 41.1063 19.7169C41.1063 18.8419 41.1454 18.0641 42.241 18.0641C42.5736 18.0641 43.8258 17.0141 44.5302 17.6363C44.9019 17.9474 45.078 18.9391 45.2736 19.0752C45.4693 19.2113 45.8606 19.4447 46.0367 18.9197C46.2128 18.3947 46.4867 18.103 46.428 18.4919C46.3693 18.8808 46.5063 19.2502 46.8389 19.2113C47.1519 19.1724 46.6823 19.3863 47.1128 19.6974C47.5432 20.0086 47.9736 20.3974 48.5019 20.4169C48.541 20.4169 48.5997 20.4169 48.6389 20.4169C48.9715 21.4086 49.2063 22.4586 49.3628 23.528C47.2497 24.9863 44.1976 27.5141 43.3171 30.3141C42.4954 32.9974 43.6693 35.778 44.7258 37.5474C41.4389 40.9891 36.7041 43.1474 31.4606 43.1474C22.4997 43.1474 15.0649 36.8474 13.6562 28.5641L19.9171 26.9113L24.9258 21.9724L25.9236 20.4947C25.9236 20.4947 26.3541 19.6391 26.628 19.2502C26.9019 18.8613 27.2932 18.5697 27.6649 18.278C28.0563 17.9863 28.6236 17.2086 29.0541 16.9947C29.4845 16.7613 29.8954 16.2363 30.0323 16.2558C30.091 16.2752 30.091 16.7613 30.4236 17.0141C30.7758 17.3058 31.441 17.403 31.441 17.403C32.0867 17.1502 32.791 16.3919 32.5563 15.9447C32.3215 15.4974 31.6954 15.4002 31.3823 14.9724C31.0693 14.5447 30.9323 14.7586 30.4236 14.778C30.365 14.5058 30.3258 14.2141 29.9541 13.8836C29.5628 13.553 28.7215 13.1252 28.6432 13.5724C28.5649 14.0197 28.741 14.3308 28.6041 14.7391C28.4671 15.1474 28.5649 15.0308 28.0758 15.2058C27.6063 15.3808 27.6649 15.4974 27.4889 15.8086C27.3128 16.1197 27.4302 16.3335 27.0584 16.178C26.6867 16.0224 26.5106 15.7308 26.5302 15.5169C26.5497 15.3224 26.7649 15.2641 26.5497 15.2252C26.3541 15.1863 25.5715 15.4586 25.5128 14.7586C25.4541 14.0586 25.5519 13.7863 25.7476 13.6697C25.9236 13.553 26.1584 14.0197 26.3541 13.5141C26.5693 12.9308 27.4889 13.1641 28.1736 13.1252C28.1736 13.1252 28.7606 13.0086 29.0736 12.4447C29.4258 11.8224 30.4432 12.1141 30.991 12.4641C30.991 12.4641 30.541 12.1919 30.4432 12.853C30.3454 13.5141 30.4041 13.6113 30.7171 13.6502C31.0302 13.6697 32.1454 13.4558 32.1845 12.7752C32.2236 12.0947 31.4997 11.4141 31.1084 11.3169C30.7171 11.2002 30.1693 10.6558 29.465 11.0836C28.7606 11.5113 28.7215 11.8808 28.741 12.0558C28.7606 12.2308 28.4084 12.3086 27.7236 12.2891C27.0389 12.2697 27.8802 12.0363 27.978 11.6474C28.0758 11.2586 27.4106 10.8891 27.2932 11.3558C27.1758 11.8224 27.3323 12.2308 27.0389 12.2308C26.7454 12.2308 26.5693 12.7363 26.5693 12.7363C24.9454 13.1447 25.1019 12.9891 25.2584 11.5308C25.278 11.2974 25.1019 11.278 24.8084 11.278C23.5563 11.278 23.9084 11.2974 23.8302 12.5419C23.8889 12.2697 24.1823 12.678 24.378 12.5224C24.4758 12.4447 24.4954 12.0947 24.5345 12.0947C24.7693 12.0363 24.7302 12.0363 24.7302 12.1141C24.7302 12.853 24.378 13.5141 23.4389 12.9891C23.2432 12.8724 23.4193 12.2502 23.2041 12.2308C22.9693 12.2113 22.578 12.1336 22.4019 12.6391C22.2258 13.1447 22.2063 13.8835 21.991 14.3308C21.7563 14.778 21.3845 14.6613 21.5215 13.7474C22.1476 9.02244 27.2345 8.36133 31.4802 8.36133ZM25.1606 24.6363C25.1606 24.6363 23.0671 27.8641 23.4389 29.5169C23.8106 31.1697 24.3976 31.9086 25.5323 32.5502C26.6671 33.1919 26.941 35.0585 26.3541 36.2058C25.7671 37.353 26.178 38.6558 27.3519 40.0363C28.5258 41.4169 28.7019 41.8447 29.4454 42.2919C30.1889 42.7391 29.8563 41.9808 29.6215 40.4836C29.3867 38.9863 28.6236 38.8113 29.6215 38.1891C30.6193 37.5474 31.0302 37.7808 31.4802 36.6919C31.9302 35.603 31.6171 34.8836 32.1649 34.4752C32.7128 34.0669 33.6128 34.3002 34.0823 33.3474C34.5323 32.3947 34.6302 27.6308 34.6302 27.6308L25.1606 24.6363Z" fill="#002647"/>
<path fill-rule="evenodd" clip-rule="evenodd" d="M24.2012 17.4414C24.2012 17.4414 23.8686 16.6831 24.6707 16.6831C25.4729 16.6636 26.6468 17.247 25.8642 17.4414C25.1012 17.6164 24.2012 17.4414 24.2012 17.4414Z" fill="#002647"/>
<path fill-rule="evenodd" clip-rule="evenodd" d="M23.6345 14.9916C24.0258 15.0888 23.928 15.4194 23.791 15.8861C23.3606 17.2277 22.8519 14.7972 23.6345 14.9916Z" fill="#002647"/>
<path fill-rule="evenodd" clip-rule="evenodd" d="M47.0518 18.5683C47.0518 18.4906 46.8757 17.9072 47.1496 17.9072C47.4431 17.9267 47.5409 18.685 47.3649 18.9572C47.1888 19.2294 47.0518 18.5683 47.0518 18.5683Z" fill="#002647"/>
<path fill-rule="evenodd" clip-rule="evenodd" d="M22.7723 43.6143C22.7723 43.6143 22.2244 45.967 20.2092 46.2976C18.194 46.6281 18.5853 46.2393 18.5853 46.2393L22.7723 43.6143Z" fill="#5F9737"/>
<path fill-rule="evenodd" clip-rule="evenodd" d="M22.7741 43.614C22.7741 43.614 20.4654 43.1668 19.2915 44.8585C18.1176 46.5307 18.6459 46.3557 18.6459 46.3557L22.7741 43.614Z" fill="#85BD37"/>
<path fill-rule="evenodd" clip-rule="evenodd" d="M23.2823 43.9247C23.0671 44.0608 22.3627 44.5664 22.4214 45.4803C22.4801 46.433 23.5758 47.2692 23.8301 47.4636L23.2823 43.9247ZM23.928 47.4247L23.3801 43.9053C23.5953 44.0608 24.6323 44.8581 24.7497 45.5386C24.8671 46.1997 24.1236 47.1914 23.928 47.4247Z" fill="#5F9737"/>
<path fill-rule="evenodd" clip-rule="evenodd" d="M31.6361 4.00488C40.6948 4.00488 48.4817 9.391 51.9056 17.091H50.8491C47.5035 9.93544 40.147 4.95766 31.6361 4.95766C29.973 4.95766 28.3687 5.1521 26.823 5.5021C25.8448 5.71599 25.4143 4.84099 26.6665 4.54933C28.2709 4.19933 29.9339 4.00488 31.6361 4.00488ZM52.7078 32.5104C49.8513 41.3188 41.497 47.6965 31.6361 47.6965C30.9122 47.6965 30.2078 47.6577 29.5035 47.5993V46.6465C30.2078 46.7243 30.9122 46.7438 31.6361 46.7438C40.9491 46.7438 48.8339 40.8132 51.6709 32.5688C52.1013 31.3049 53.1383 31.1493 52.7078 32.5104ZM13.323 15.3799C11.523 18.4715 10.4861 22.0493 10.4861 25.8604C10.4861 32.141 13.3035 37.7799 17.7448 41.6104C18.4687 42.2327 17.6469 42.7965 17.0404 42.2715C12.423 38.266 9.50781 32.3938 9.50781 25.8604C9.50781 21.8354 10.6035 18.0632 12.5404 14.816L13.323 15.3799Z" fill="#002647"/>
<path fill-rule="evenodd" clip-rule="evenodd" d="M49.168 16.8379L52.7288 15.5352L52.181 19.9685L49.168 16.8379Z" fill="#002647"/>
<path fill-rule="evenodd" clip-rule="evenodd" d="M30.9519 45.6162L30.9323 45.7718L30.4627 49.019L27.1758 46.2384L30.854 45.6357C30.8736 45.6162 30.9127 45.6162 30.9519 45.6162Z" fill="#002647"/>
<path fill-rule="evenodd" clip-rule="evenodd" d="M10.4883 15.0881L13.9709 17.0714L14.5187 12.9492L10.4883 15.0881Z" fill="#002647"/>
<path fill-rule="evenodd" clip-rule="evenodd" d="M5.77174 19.7158H57.2478C60.4174 19.7158 63.0196 22.3019 63.0196 25.4519C63.0196 28.6019 60.4174 31.188 57.2478 31.188H5.77174C2.60217 31.1686 0 28.6019 0 25.4519C0 22.2825 2.60217 19.7158 5.77174 19.7158Z" fill="#85BD37"/>
<path d="M10.9554 25.4517C10.9554 26.0739 10.8576 26.6184 10.6815 27.0462C10.5054 27.4934 10.2511 27.8628 9.93804 28.1351C9.625 28.4267 9.25326 28.6406 8.84239 28.7573C8.43152 28.8934 7.98152 28.9517 7.51196 28.9517C7.06196 28.9517 6.65109 28.8934 6.25978 28.7962C5.88804 28.6989 5.5163 28.5628 5.125 28.3684L5.61413 27.1434C5.71196 27.1823 5.80978 27.2212 5.94674 27.2795C6.06413 27.3378 6.20109 27.3962 6.35761 27.4351C6.51413 27.4934 6.69022 27.5323 6.8663 27.5517C7.06196 27.5906 7.25761 27.6101 7.45326 27.6101C7.98152 27.6101 8.39239 27.4739 8.70543 27.2017C9.01848 26.9295 9.21413 26.5406 9.29239 25.9962H6.475V24.7128H9.29239C9.21413 24.1878 9.01848 23.7989 8.725 23.5656C8.41196 23.3128 8.00109 23.1962 7.47283 23.1962C7.08152 23.1962 6.72935 23.235 6.4163 23.3323C6.10326 23.4295 5.84891 23.5267 5.65326 23.6045L5.20326 22.4184C5.575 22.2239 5.9663 22.0878 6.35761 21.9906C6.74891 21.8934 7.14022 21.8545 7.53152 21.8545C8.00109 21.8545 8.45109 21.9323 8.86196 22.0684C9.27282 22.2045 9.64456 22.4378 9.93804 22.71C10.2511 23.0017 10.4859 23.3712 10.662 23.8184C10.8576 24.3239 10.9554 24.8489 10.9554 25.4517Z" fill="white"/>
<path fill-rule="evenodd" clip-rule="evenodd" d="M15.7487 28.835C15.7682 28.6406 15.7095 28.3684 15.5335 28.1156C15.3378 27.8628 15.1422 27.61 14.9269 27.3378C14.7117 27.085 14.4769 26.8323 14.2422 26.5989C14.0074 26.3656 13.7726 26.1517 13.5378 25.9572V28.835H12.0117V22.0684H13.5378V24.6156C13.9291 24.2072 14.34 23.7795 14.7313 23.3322C15.1422 22.885 15.1813 22.6128 15.3182 22.0684H17.6661C17.1965 22.6128 16.7269 23.1378 16.2574 23.6434C15.7878 24.1489 15.2987 24.6545 14.7704 25.1795C15.3182 25.6267 15.8465 26.1711 16.3552 26.7934C16.8639 27.4156 17.353 28.0961 17.8226 28.8545H15.7487V28.835Z" fill="white"/>
<path d="M24.9063 25.4519C24.9063 26.0352 24.828 26.5408 24.6519 26.988C24.4758 27.4352 24.2411 27.8047 23.9476 28.0963C23.6541 28.388 23.2824 28.6213 22.8715 28.7575C22.4606 28.913 22.0106 28.9908 21.5215 28.9908C21.0519 28.9908 20.6215 28.913 20.2106 28.7575C19.7998 28.6019 19.428 28.388 19.1345 28.0963C18.8215 27.8047 18.5867 27.4352 18.4106 26.988C18.2345 26.5408 18.1367 26.0352 18.1367 25.4519C18.1367 24.8686 18.2345 24.363 18.4106 23.9158C18.5867 23.4686 18.8411 23.0991 19.1541 22.8074C19.4672 22.5158 19.8193 22.2824 20.2302 22.1269C20.6411 21.9713 21.0715 21.8936 21.5215 21.8936C21.9911 21.8936 22.4215 21.9713 22.8324 22.1269C23.2432 22.2824 23.615 22.4963 23.9085 22.8074C24.2215 23.0991 24.4563 23.4686 24.6324 23.9158C24.8085 24.363 24.9063 24.8686 24.9063 25.4519ZM19.7019 25.4519C19.7019 25.7824 19.7411 26.0936 19.8193 26.3463C19.8976 26.6186 20.015 26.8519 20.1715 27.0269C20.328 27.2213 20.5237 27.3769 20.7389 27.4741C20.9541 27.5713 21.2085 27.6297 21.5019 27.6297C21.7758 27.6297 22.0302 27.5713 22.265 27.4741C22.4998 27.3769 22.6758 27.2213 22.8324 27.0269C22.9889 26.8325 23.1063 26.5991 23.1845 26.3463C23.2628 26.0741 23.3019 25.7824 23.3019 25.4519C23.3019 25.1213 23.2628 24.8102 23.1845 24.5574C23.1063 24.2852 22.9889 24.0519 22.8324 23.8574C22.6758 23.663 22.4802 23.5074 22.265 23.4102C22.0302 23.313 21.7758 23.2547 21.5019 23.2547C21.2085 23.2547 20.9541 23.313 20.7389 23.4102C20.5237 23.5269 20.328 23.663 20.1715 23.8574C20.015 24.0519 19.8976 24.2852 19.8193 24.5574C19.7411 24.8297 19.7019 25.1213 19.7019 25.4519Z" fill="white"/>
<path d="M32.1817 22.0684V23.3711H30.1273V28.835H28.6012V23.3711H26.5469V22.0684H32.1817Z" fill="white"/>
<path fill-rule="evenodd" clip-rule="evenodd" d="M37.6016 24.2655C37.6016 25.9572 36.0755 26.4433 34.6277 26.4433V28.8544H33.1016V22.1655C33.4342 22.1072 33.7863 22.0489 34.1581 22.0294C35.8211 21.9127 37.6016 22.1655 37.6016 24.2655ZM35.2146 23.2933C35.0972 23.2933 34.9994 23.2933 34.882 23.3127C34.7646 23.3127 34.6863 23.3322 34.6081 23.3322V25.2766H35.0972C35.7037 25.2766 36.1537 24.8877 36.1537 24.2655C36.1537 23.7211 35.782 23.2933 35.2146 23.2933Z" fill="white"/>
<path fill-rule="evenodd" clip-rule="evenodd" d="M42.4972 28.835C42.5167 28.6017 42.4776 28.3489 42.3798 28.1156C42.3015 27.8628 42.2037 27.6295 42.1254 27.3767H39.4646C39.3863 27.6295 39.2885 27.8628 39.2102 28.1156C39.132 28.3684 39.0928 28.5822 39.132 28.835H37.3711C37.6254 28.0961 37.8798 27.435 38.095 26.8128C38.3298 26.1906 38.545 25.6072 38.7798 25.0628C38.995 24.5184 39.2102 23.9934 39.4254 23.5072C39.6407 23.0211 39.8559 22.535 40.0907 22.0684H41.5385C41.7537 22.535 41.9885 23.0211 42.2037 23.5072C42.4189 23.9934 42.6341 24.5184 42.8689 25.0628C43.0841 25.6072 43.3189 26.1906 43.5537 26.8128C43.7885 27.435 44.0233 28.1156 44.2776 28.835H42.4972ZM40.795 23.6045C40.7559 23.7017 40.7167 23.8378 40.6385 24.0128C40.5798 24.1878 40.5015 24.3822 40.4233 24.5961C40.345 24.81 40.2472 25.0628 40.1494 25.335C40.0515 25.6072 39.9341 25.8795 39.8363 26.1711H41.7928C41.695 25.8795 41.5972 25.5878 41.4994 25.335C41.4015 25.0628 41.3037 24.8295 41.2254 24.5961C41.1472 24.3822 41.0689 24.1878 40.9907 24.0128C40.8928 23.8378 40.8341 23.7017 40.795 23.6045Z" fill="white"/>
<path d="M49.2647 22.0684H50.7713V28.835H49.2647V25.9572H46.7604V28.835H45.2734V22.0684H46.7604V24.6545H49.2647V22.0684Z" fill="white"/>
<path fill-rule="evenodd" clip-rule="evenodd" d="M54.9785 28.9715C53.8633 28.9715 53.022 28.6604 52.4546 28.0576C51.8677 27.4548 51.5938 26.5798 51.5938 25.4521C51.5938 24.8882 51.6916 24.3826 51.8677 23.9548C52.0437 23.5076 52.2785 23.1382 52.5916 22.8465C52.9046 22.5354 53.2764 22.3215 53.6872 22.1659C54.1177 22.0104 54.5677 21.9326 55.0764 21.9326C55.3698 21.9326 55.6242 21.9521 55.859 21.9909C56.0938 22.0298 56.309 22.0882 56.4851 22.1465C56.6611 22.2048 56.8177 22.2632 56.9351 22.3215C57.0525 22.3798 57.1307 22.4187 57.1894 22.4576L57.2285 23.8382C57.0133 23.7215 56.2894 23.4687 56.0155 23.391C55.7416 23.3132 55.4285 23.2743 55.0568 23.2743C54.822 23.2743 54.5872 23.3132 54.372 23.391C54.1372 23.4687 53.9416 23.5854 53.7655 23.7604C53.5894 23.9354 53.4524 24.1493 53.3546 24.4215C53.2568 24.6937 53.1981 25.0243 53.1981 25.4132C53.1981 25.7243 53.2372 26.0159 53.2959 26.2882C53.3742 26.5604 53.472 26.7937 53.6285 26.9882C53.7851 27.1826 53.9807 27.3382 54.2351 27.4548C54.4894 27.5715 54.7829 27.6298 55.1351 27.6298C55.3503 27.6298 55.5655 27.6104 55.7416 27.5909C55.9177 27.5715 56.0742 27.5326 56.2111 27.4937C56.3481 27.4548 56.4655 27.416 56.5829 27.3771C56.6807 27.3382 57.0525 27.2409 57.1503 27.2021L57.3068 28.4659C57.0916 28.6021 56.7785 28.7187 56.3872 28.8159C55.9568 28.9326 55.5068 28.9715 54.9785 28.9715Z" fill="white"/>
<path fill-rule="evenodd" clip-rule="evenodd" d="M23.2255 23.1187C23.0103 23.0214 22.3451 22.6909 22.2668 21.8742C22.1886 21.0381 23.0299 20.1437 23.2255 19.9492V23.1187ZM23.3038 19.9687C23.519 20.1631 24.3016 20.9214 24.2821 21.5048C24.2625 22.1076 23.4799 22.9437 23.3038 23.1187V19.9687Z" fill="white"/>
<path fill-rule="evenodd" clip-rule="evenodd" d="M23.418 23.1185C23.4375 22.9435 23.4962 22.3407 24.0832 22.0685C24.6897 21.7768 25.5701 22.1657 25.7658 22.263L23.418 23.1185ZM25.7854 22.3407L23.4375 23.1963C23.6136 23.2741 24.4354 23.6241 24.9049 23.488C25.3354 23.313 25.7071 22.5352 25.7854 22.3407Z" fill="white"/>
</g>
<defs>
<clipPath id="clip0">
<rect width="63" height="49" fill="white"/>
</clipPath>
</defs>
</svg>
