<svg width="16" height="17" viewBox="0 0 16 17" fill="none" xmlns="http://www.w3.org/2000/svg">
<path fill-rule="evenodd" clip-rule="evenodd" d="M2 0.5C0.895431 0.5 0 1.39543 0 2.5V14.5C0 15.6046 0.895431 16.5 2 16.5H14C15.1046 16.5 16 15.6046 16 14.5V2.5C16 1.39543 15.1046 0.5 14 0.5H2ZM10.4999 5.77433C10.8156 5.44241 11.3289 5.44241 11.6446 5.77433C11.9607 6.10626 11.9607 6.64431 11.6446 6.97623L7.59697 11.2262C7.43911 11.3924 7.23188 11.4753 7.02464 11.4753C6.8174 11.4753 6.61016 11.3924 6.4523 11.2262L4.4285 9.10123C4.11238 8.76931 4.11238 8.23126 4.4285 7.89933C4.74421 7.56741 5.25745 7.56741 5.57316 7.89933L7.02464 9.42296L10.4999 5.77433Z" fill="#98A782"/>
</svg>
