<svg width="104" height="104" viewBox="0 0 104 104" fill="none" xmlns="http://www.w3.org/2000/svg">
<circle cx="52" cy="52" r="52" fill="#F2F4F5"/>
<mask id="mask0" mask-type="alpha" maskUnits="userSpaceOnUse" x="0" y="0" width="104" height="104">
<circle cx="52" cy="52" r="52" fill="#F2F4F5"/>
</mask>
<g mask="url(#mask0)">
<path d="M12.2941 54.6213V51.2352C12.2941 49.7733 11.1089 48.5881 9.64706 48.5881C8.18518 48.5881 7 49.7733 7 51.2352V107.706C7 109.168 8.18518 110.353 9.64706 110.353H13.7059V98.8823C13.7059 97.4204 14.8911 96.2352 16.3529 96.2352C17.8148 96.2352 19 97.4204 19 98.8823V110.353H25.7059V50.1508L12.2941 54.6213ZM19 88.294C19 89.7559 17.8148 90.9411 16.3529 90.9411C14.8911 90.9411 13.7059 89.7559 13.7059 88.294V82.9999C13.7059 81.538 14.8911 80.3528 16.3529 80.3528C17.8148 80.3528 19 81.538 19 82.9999V88.294ZM19 72.4117C19 73.8735 17.8148 75.0587 16.3529 75.0587C14.8911 75.0587 13.7059 73.8735 13.7059 72.4117V67.1175C13.7059 65.6557 14.8911 64.4705 16.3529 64.4705C17.8148 64.4705 19 65.6557 19 67.1175V72.4117Z" fill="#BECCD2"/>
<path d="M94.3529 48.5881C92.8911 48.5881 91.7059 49.7733 91.7059 51.2352V54.6213L78.6471 50.2683V110.353H85.1765V98.8823C85.1765 97.4204 86.3617 96.2352 87.8235 96.2352C89.2854 96.2352 90.4706 97.4204 90.4706 98.8823V110.353H94.3529C95.8148 110.353 97 109.168 97 107.706V51.2352C97 49.7733 95.8148 48.5881 94.3529 48.5881ZM90.4706 88.294C90.4706 89.7559 89.2854 90.9411 87.8235 90.9411C86.3617 90.9411 85.1765 89.7559 85.1765 88.294V82.9999C85.1765 81.538 86.3617 80.3528 87.8235 80.3528C89.2854 80.3528 90.4706 81.538 90.4706 82.9999V88.294ZM90.4706 72.4117C90.4706 73.8735 89.2854 75.0587 87.8235 75.0587C86.3617 75.0587 85.1765 73.8735 85.1765 72.4117V67.1175C85.1765 65.6557 86.3617 64.4705 87.8235 64.4705C89.2854 64.4705 90.4706 65.6557 90.4706 67.1175V72.4117Z" fill="#BECCD2"/>
<path d="M68.7647 25.6471V22.6471C68.7647 21.1852 67.5795 20 66.1176 20H37.8823C36.4205 20 35.2353 21.1852 35.2353 22.6471V25.6471H68.7647Z" fill="#BECCD2"/>
<path d="M45.8235 98H58.1765V110.353H45.8235V98Z" fill="#BECCD2"/>
<path d="M70.7059 30.9412H33.6471C32.1852 30.9412 31 32.1263 31 33.5882V110.353H40.5294V95.3529C40.5294 93.891 41.7146 92.7059 43.1765 92.7059H60.8235C62.2854 92.7059 63.4706 93.891 63.4706 95.3529V110.353H73.3529V33.5882C73.3529 32.1263 72.1678 30.9412 70.7059 30.9412ZM44.0588 81.2353C44.0588 82.6972 42.8736 83.8823 41.4118 83.8823C39.9499 83.8823 38.7647 82.6972 38.7647 81.2353V75.9412C38.7647 74.4793 39.9499 73.2941 41.4118 73.2941C42.8736 73.2941 44.0588 74.4793 44.0588 75.9412V81.2353ZM44.0588 65.3529C44.0588 66.8148 42.8736 68 41.4118 68C39.9499 68 38.7647 66.8148 38.7647 65.3529V60.0588C38.7647 58.5969 39.9499 57.4118 41.4118 57.4118C42.8736 57.4118 44.0588 58.5969 44.0588 60.0588V65.3529ZM44.0588 49.4706C44.0588 50.9325 42.8736 52.1176 41.4118 52.1176C39.9499 52.1176 38.7647 50.9325 38.7647 49.4706V44.1765C38.7647 42.7146 39.9499 41.5294 41.4118 41.5294C42.8736 41.5294 44.0588 42.7146 44.0588 44.1765V49.4706ZM54.6471 81.2353C54.6471 82.6972 53.4619 83.8823 52 83.8823C50.5381 83.8823 49.3529 82.6972 49.3529 81.2353V75.9412C49.3529 74.4793 50.5381 73.2941 52 73.2941C53.4619 73.2941 54.6471 74.4793 54.6471 75.9412V81.2353ZM54.6471 65.3529C54.6471 66.8148 53.4619 68 52 68C50.5381 68 49.3529 66.8148 49.3529 65.3529V60.0588C49.3529 58.5969 50.5381 57.4118 52 57.4118C53.4619 57.4118 54.6471 58.5969 54.6471 60.0588V65.3529ZM54.6471 49.4706C54.6471 50.9325 53.4619 52.1176 52 52.1176C50.5381 52.1176 49.3529 50.9325 49.3529 49.4706V44.1765C49.3529 42.7146 50.5381 41.5294 52 41.5294C53.4619 41.5294 54.6471 42.7146 54.6471 44.1765V49.4706ZM65.2353 81.2353C65.2353 82.6972 64.0501 83.8823 62.5882 83.8823C61.1264 83.8823 59.9412 82.6972 59.9412 81.2353V75.9412C59.9412 74.4793 61.1264 73.2941 62.5882 73.2941C64.0501 73.2941 65.2353 74.4793 65.2353 75.9412V81.2353ZM65.2353 65.3529C65.2353 66.8148 64.0501 68 62.5882 68C61.1264 68 59.9412 66.8148 59.9412 65.3529V60.0588C59.9412 58.5969 61.1264 57.4118 62.5882 57.4118C64.0501 57.4118 65.2353 58.5969 65.2353 60.0588V65.3529ZM65.2353 49.4706C65.2353 50.9325 64.0501 52.1176 62.5882 52.1176C61.1264 52.1176 59.9412 50.9325 59.9412 49.4706V44.1765C59.9412 42.7146 61.1264 41.5294 62.5882 41.5294C64.0501 41.5294 65.2353 42.7146 65.2353 44.1765V49.4706Z" fill="#BECCD2"/>
</g>
</svg>
