<svg width="99" height="99" viewBox="0 0 99 99" fill="none" xmlns="http://www.w3.org/2000/svg">
<path d="M89.6368 49.5728C89.6009 71.7549 71.6115 89.6726 49.4653 89.6368C27.2473 89.6009 9.29378 71.5757 9.36545 49.3936C9.43712 27.2115 27.4265 9.29378 49.5728 9.36545C71.7549 9.43712 89.6726 27.4265 89.6368 49.5728ZM49.3936 86.9491C69.9631 87.0566 86.7699 70.3573 86.9133 49.6445C87.0566 29.0391 70.2856 12.1606 49.6086 12.0889C29.0033 11.9814 12.1964 28.6807 12.0889 49.3578C11.9456 69.9631 28.7166 86.8416 49.3936 86.9491Z" fill="#98A782"/>
<path d="M37.8172 51.9731C38.1397 51.3639 38.068 51.0414 38.068 50.7189C38.068 45.2719 38.068 39.7891 38.068 34.3421C38.068 31.6903 39.4656 29.8985 41.7949 29.5043C42.5116 29.3968 43.1567 29.6118 43.9092 29.7551C44.6259 27.8917 45.9518 26.6733 48.0303 26.6375C50.1446 26.6016 51.4346 27.8559 52.1513 29.7193C55.3765 29.2535 56.5949 29.8627 57.885 32.5145C58.1359 32.6578 58.3509 32.5145 58.5659 32.4786C61.1819 31.9769 63.4395 33.5895 63.762 36.2414C63.7978 36.4922 63.7978 36.7072 63.7978 36.9581C63.7978 45.8811 63.8337 54.8041 63.7978 63.7271C63.762 68.6724 60.0351 72.3635 55.0898 72.3993C52.9039 72.4351 50.7179 72.3993 48.5678 72.3993C47.0269 72.3993 45.486 72.471 43.9809 71.9334C40.7557 70.7867 38.8922 68.4932 38.2472 65.1964C38.1397 64.6588 37.9605 64.2647 37.5663 63.8705C34.8787 61.2186 32.2269 58.5668 29.575 55.8792C28.07 54.3741 27.6758 52.5465 28.4283 50.8264C29.575 48.1029 33.0511 47.2787 35.3087 49.2496C36.1688 50.038 36.9213 51.0056 37.8172 51.9731ZM61.1102 50.3963C61.1102 46.0244 61.1102 41.6883 61.1102 37.3164C61.1102 36.8506 61.1102 36.4205 60.931 35.9905C60.6443 35.3813 60.1426 35.023 59.4259 35.0946C58.7092 35.1663 58.2792 35.5605 58.1359 36.2414C58.0642 36.5997 58.0642 36.9581 58.0642 37.3164C58.0642 40.6133 58.0642 43.946 58.0642 47.2428C58.0642 47.5653 58.0642 47.8879 57.9925 48.2104C57.885 48.9271 57.4191 49.3213 56.7024 49.3213C55.9857 49.3213 55.5199 48.9271 55.4124 48.2104C55.3407 47.852 55.3407 47.4937 55.3407 47.1353C55.3407 42.9426 55.3407 38.714 55.3407 34.5213C55.3407 32.9087 54.8748 32.2278 53.8714 32.2278C52.7964 32.2278 52.3305 32.8728 52.3305 34.4854C52.3305 38.1048 52.3305 41.7242 52.3305 45.3077C52.3305 46.0961 52.3664 46.9203 52.3305 47.7087C52.2947 48.7479 51.7572 49.3571 50.9329 49.3213C50.1446 49.3213 49.6429 48.7479 49.607 47.7445C49.607 47.4937 49.607 47.2787 49.607 47.0278C49.607 41.9034 49.607 36.7431 49.607 31.6186C49.607 30.0777 49.1053 29.2893 48.1378 29.2893C47.0986 29.2893 46.561 30.0418 46.561 31.6186C46.561 36.8147 46.561 42.0109 46.561 47.207C46.561 47.5295 46.561 47.852 46.5252 48.1746C46.4177 48.8913 45.9518 49.2855 45.2351 49.2855C44.5184 49.2855 44.0525 48.8913 43.9092 48.1746C43.8375 47.852 43.8734 47.5295 43.8734 47.207C43.8734 42.9426 43.8734 38.6782 43.8734 34.4138C43.8734 34.0912 43.8734 33.7687 43.8375 33.4462C43.73 32.6578 43.2283 32.2278 42.44 32.192C41.6516 32.1203 41.2215 32.5503 40.9707 33.267C40.8274 33.7329 40.8274 34.1987 40.8274 34.7004C40.8274 41.2942 40.8274 47.8879 40.8274 54.4816C40.8274 55.27 40.899 56.0942 39.9673 56.4525C39.0714 56.8109 38.5339 56.1659 37.9605 55.6283C36.6705 54.3382 35.3804 53.0482 34.0903 51.7581C33.8753 51.5431 33.6603 51.3281 33.4094 51.1847C32.7286 50.7189 31.8327 50.7905 31.2951 51.3639C30.7218 51.9731 30.6501 52.6898 31.0801 53.4065C31.2593 53.6932 31.5102 53.9799 31.761 54.2307C34.4487 56.9184 37.1005 59.6061 39.824 62.2579C40.469 62.9029 40.8274 63.6196 40.9349 64.5155C41.2215 67.2032 43.2283 69.2816 45.916 69.5683C48.7828 69.855 51.6855 69.6758 54.5881 69.6758C58.6734 69.7116 61.1102 67.239 61.1102 63.1538C61.1102 58.9252 61.1102 54.6608 61.1102 50.3963Z" fill="#98A782"/>
</svg>
