<svg width="99" height="99" viewBox="0 0 99 99" fill="none" xmlns="http://www.w3.org/2000/svg">
<path d="M26.4287 80.7902C25.1258 80.7902 23.9638 80.7902 22.8018 80.7902C20.1608 80.755 18.5762 79.2056 18.5762 76.5646C18.5762 59.3102 18.5762 42.0559 18.541 24.8015C18.541 24.062 18.7523 23.4634 19.3157 22.9352C23.3652 18.9562 27.3795 14.9419 31.3938 10.8924C32.098 10.1529 32.8727 9.80078 33.9291 9.80078C45.6902 9.83599 57.4514 9.83599 69.2125 9.83599C72.2408 9.83599 73.755 11.3502 73.755 14.3785C73.755 15.2236 73.7902 16.0687 73.755 16.9138C73.7198 17.5124 73.8958 17.7589 74.5297 17.7237C75.4452 17.6885 76.3607 17.7237 77.2411 17.7237C80.0581 17.7237 81.6075 19.2731 81.6075 22.0549C81.6075 30.1187 81.6075 38.1824 81.6075 46.2462C81.6075 58.9581 81.6075 71.67 81.6075 84.3467C81.6075 86.6003 80.4807 88.1145 78.5087 88.5722C78.1566 88.6427 77.7693 88.6779 77.3819 88.6779C61.8178 88.6779 46.2184 88.6779 30.6543 88.6779C28.0837 88.6779 26.4287 87.0229 26.3935 84.4523C26.3935 83.2903 26.4287 82.1283 26.4287 80.7902ZM34.3164 12.477C34.3164 12.9347 34.3164 13.2517 34.3164 13.5686C34.3164 16.1039 34.3164 18.6745 34.3164 21.2098C34.3164 24.0268 32.7671 25.5762 29.9852 25.5762C27.4499 25.5762 24.9498 25.5762 22.4144 25.5762C21.182 25.5762 21.182 25.5762 21.182 26.8087C21.182 43.1475 21.182 59.4863 21.182 75.8251C21.182 76.0364 21.182 76.2477 21.182 76.4238C21.2172 77.6914 21.6045 78.0788 22.8722 78.114C23.1187 78.114 23.4004 78.114 23.6469 78.114C38.7885 78.114 53.9301 78.114 69.0717 78.114C70.7619 78.114 71.0788 77.7971 71.0788 76.142C71.0788 55.5424 71.0788 34.9429 71.0788 14.3433C71.0788 12.7235 70.7267 12.4065 69.1069 12.4065C57.8739 12.4065 46.641 12.4065 35.408 12.4065C35.0911 12.477 34.7742 12.477 34.3164 12.477ZM29.1753 80.7902C29.1049 81.0014 29.0697 81.1071 29.0697 81.1775C29.0697 82.1283 29.0697 83.0438 29.0697 83.9945C29.0697 85.72 29.3866 86.0369 31.1473 86.0369C43.0493 86.0369 54.9865 86.0369 66.8885 86.0369C70.3041 86.0369 73.755 86.0369 77.1706 86.0369C78.6496 86.0369 79.0369 85.6496 79.0369 84.1354C79.0369 83.8537 79.0369 83.5368 79.0369 83.2551C79.0369 66.0359 79.0369 48.8168 79.0369 31.5976C79.0369 28.3932 79.0369 25.1889 79.0369 22.0197C79.0369 21.2098 78.8257 20.4703 77.9101 20.3999C76.572 20.2943 75.2339 20.3647 73.931 20.3647C73.7198 20.8224 73.7902 21.245 73.7902 21.6323C73.7902 39.7318 73.755 57.8313 73.8254 75.9308C73.8254 78.9239 72.1704 80.8254 68.9308 80.7902C57.5922 80.6845 46.2184 80.755 34.8798 80.755C32.9431 80.7902 31.0768 80.7902 29.1753 80.7902ZM23.4004 22.9C23.4356 22.9 23.506 22.9704 23.5765 22.9704C25.7949 22.9704 28.0133 23.0057 30.2669 22.9704C31.2529 22.9704 31.6755 22.4775 31.6755 21.4563C31.6755 19.3435 31.6755 17.2307 31.6755 15.1179C31.6755 14.9419 31.7811 14.6954 31.7107 14.6602C28.8936 17.442 26.147 20.1534 23.4004 22.9Z" fill="#98A782"/>
<path d="M46.1118 34.8022C40.2312 34.8022 34.3859 34.8022 28.5053 34.8022C28.2236 34.8022 27.9067 34.8374 27.625 34.767C26.8855 34.6613 26.4277 34.2036 26.4277 33.4641C26.4277 32.7246 26.8855 32.2668 27.5898 32.1612C27.8363 32.126 28.0475 32.126 28.294 32.126C40.1608 32.126 52.0628 32.126 63.9296 32.126C64.1761 32.126 64.4578 32.0908 64.7043 32.1612C65.3733 32.3021 65.7959 32.7246 65.7959 33.4289C65.7959 34.1331 65.4085 34.5909 64.7043 34.7317C64.3873 34.8022 64.0704 34.767 63.7535 34.767C57.9081 34.8022 52.0276 34.8022 46.1118 34.8022Z" fill="#98A782"/>
<path d="M46.077 61.0707C40.1965 61.0707 34.3511 61.0707 28.4705 61.0707C28.1184 61.0707 27.7663 61.0707 27.4142 61.0002C26.8155 60.8594 26.4282 60.4368 26.4282 59.803C26.393 59.1339 26.7451 58.6762 27.3789 58.5001C27.6959 58.4297 28.0128 58.4297 28.3297 58.4297C40.1613 58.4297 51.9576 58.4297 63.7892 58.4297C65.2329 58.4297 65.8315 58.817 65.8315 59.7678C65.8315 60.6833 65.2329 61.0707 63.754 61.0707C57.8734 61.0707 51.9928 61.0707 46.077 61.0707Z" fill="#98A782"/>
<path d="M52.73 47.9358C48.9622 47.9358 32.4408 47.9358 28.673 47.9358C28.3209 47.9358 27.9687 47.9358 27.6166 47.8302C27.0532 47.6541 26.7715 47.2316 26.7715 46.633C26.7715 45.9991 27.0884 45.5766 27.687 45.4005C28.0039 45.3301 28.3209 45.3301 28.6378 45.3301C36.0677 45.3301 56.2513 45.3301 63.6813 45.3301C63.8573 45.3301 64.0334 45.3301 64.2095 45.3301C65.2306 45.3653 65.794 45.8583 65.794 46.7034C65.7588 47.5133 65.2306 47.9711 64.2095 47.9711C60.4417 47.9711 56.5682 47.9711 52.73 47.9358C52.73 47.9711 52.73 47.9711 52.73 47.9358Z" fill="#98A782"/>
<path d="M39.5637 41.3519C35.8312 41.3519 32.0986 41.3519 28.4012 41.3519C28.1899 41.3519 27.9787 41.3519 27.8026 41.3519C26.9927 41.2815 26.4645 40.7885 26.4293 40.0842C26.3941 39.3448 26.9575 38.7814 27.7674 38.7461C29.2463 38.7109 30.6901 38.7109 32.169 38.7109C38.4017 38.7109 44.5992 38.7109 50.8319 38.7109C51.0784 38.7109 51.3601 38.7109 51.6066 38.7461C52.3108 38.887 52.6982 39.3448 52.6982 40.0138C52.6982 40.7181 52.3108 41.1758 51.6066 41.2815C51.3249 41.3167 51.008 41.3167 50.7263 41.3167C46.9937 41.3519 43.2963 41.3519 39.5637 41.3519Z" fill="#98A782"/>
<path d="M46.1479 54.5209C43.6126 54.5209 30.6291 54.5209 28.0938 54.5209C27.1078 54.5209 26.5092 53.9574 26.5444 53.1123C26.5796 52.4081 27.1078 51.8799 27.9177 51.8799C33.1292 51.8799 48.7537 51.8799 54.0004 51.8799C54.8103 51.8799 55.3737 52.4785 55.3737 53.1828C55.3737 53.9222 54.7751 54.4856 53.8948 54.4856C51.3242 54.5561 48.7537 54.5209 46.1479 54.5209Z" fill="#98A782"/>
<path d="M31.7449 65.0156C32.9421 65.0156 34.1394 65.0156 35.3366 65.0156C36.3578 65.0156 36.9564 65.5438 36.9212 66.3537C36.9212 67.1636 36.3578 67.6566 35.3718 67.6566C32.9069 67.6918 30.442 67.6918 28.0123 67.6566C27.0264 67.6566 26.4629 67.1284 26.4277 66.3537C26.4277 65.579 27.0264 65.0156 28.0475 65.0156C29.28 65.0156 30.5124 65.0156 31.7449 65.0156Z" fill="#98A782"/>
</svg>
