<svg width="99" height="99" viewBox="0 0 99 99" fill="none" xmlns="http://www.w3.org/2000/svg">
<path d="M54.183 35.3194H25.1519C24.6168 35.3194 24.0817 35.9883 24.0817 36.9248C24.0817 37.8613 24.483 38.5302 25.1519 38.5302H54.3168C54.8519 38.5302 55.2533 37.8613 55.2533 36.9248C55.2533 35.9883 54.8519 35.3194 54.183 35.3194Z" fill="#98A782"/>
<path d="M25.1519 47.8951H44.9519C45.4871 47.8951 46.0222 47.2262 46.0222 46.2897C46.0222 45.3532 45.4871 44.6843 44.9519 44.6843H25.1519C24.6168 44.6843 24.0817 45.3532 24.0817 46.2897C24.0817 47.2262 24.6168 47.8951 25.1519 47.8951Z" fill="#98A782"/>
<path d="M25.1519 57.2599H44.9519C45.4871 57.2599 46.0222 56.591 46.0222 55.6545C46.0222 54.718 45.4871 54.0491 44.9519 54.0491H25.1519C24.6168 54.0491 24.0817 54.718 24.0817 55.6545C24.0817 56.591 24.6168 57.2599 25.1519 57.2599Z" fill="#98A782"/>
<path d="M25.1519 66.6248H54.3168C54.8519 66.6248 55.2533 65.9559 55.2533 65.0194C55.2533 64.0829 54.8519 63.414 54.183 63.414H25.1519C24.6168 63.414 24.0817 64.0829 24.0817 65.0194C24.0817 65.9559 24.483 66.6248 25.1519 66.6248Z" fill="#98A782"/>
<path d="M71.9763 37.1924V16.991C71.9763 14.3153 69.7019 12.041 67.0263 12.041H42.6776C42.0087 12.041 41.3398 12.5762 41.3398 13.3789C41.3398 14.0478 41.8749 14.7167 42.6776 14.7167H67.0263C68.2303 14.7167 69.1668 15.787 69.3006 16.991V37.1924C62.0763 37.8613 56.4573 44.0153 56.4573 51.3735C56.4573 58.7316 62.0763 64.8856 69.3006 65.5545V81.0734C69.3006 82.2775 68.2303 83.3478 67.0263 83.3478H19.6668C18.4627 83.3478 17.3925 82.2775 17.3925 81.0734V29.5667H27.2925C29.9681 29.5667 32.2425 27.2924 32.2425 24.6167V14.7167H37.5938C38.2627 14.7167 38.9317 14.1816 38.9317 13.3789C38.9317 12.7099 38.3965 12.041 37.5938 12.041H30.9046C30.5033 12.041 30.2357 12.1748 29.9681 12.4424L15.1181 27.2924C14.8506 27.5599 14.7168 27.8275 14.7168 28.2289V81.0734C14.7168 83.7491 16.9911 86.0235 19.6668 86.0235H67.0263C69.7019 86.0235 71.9763 83.7491 71.9763 81.0734V65.5545C74.1168 65.287 76.1236 64.618 77.9965 63.5478C78.3979 63.414 78.5317 63.1464 78.6654 62.7451C78.7992 62.3437 78.6655 61.9424 78.5317 61.6748C78.1303 61.1397 77.3276 60.8721 76.6587 61.2734C74.7857 62.3437 72.779 62.8789 70.6384 62.8789C64.3506 62.8789 59.133 57.7951 59.133 51.3735C59.133 45.0856 64.2168 39.868 70.6384 39.868C76.9263 39.868 82.1438 44.9518 82.1438 51.3735C82.1438 53.9153 81.3411 56.3234 79.8695 58.3302C79.4682 58.8653 79.6019 59.8018 80.1371 60.2032C80.4046 60.4707 80.6722 60.4707 81.0736 60.4707C81.4749 60.4707 81.7425 60.2032 82.01 59.9356C83.883 57.3937 84.8195 54.4505 84.8195 51.3735C84.8195 44.0153 79.2006 37.8613 71.9763 37.1924ZM29.5668 24.6167C29.5668 25.8207 28.4965 26.891 27.2925 26.891H19.2654L29.5668 16.5897V24.6167Z" fill="#98A782"/>
<path d="M70.5046 59.668C71.3073 59.668 71.9763 59.1329 71.9763 58.3302V52.7113H77.5952C78.2641 52.7113 78.933 52.0424 78.933 51.3735C78.933 50.7045 78.3979 50.0356 77.5952 50.0356H71.8425V44.4167C71.8425 43.7478 71.1736 43.0789 70.5046 43.0789C69.8357 43.0789 69.1668 43.614 69.1668 44.4167V50.0356H63.5479C62.879 50.0356 62.21 50.7045 62.21 51.3735C62.21 52.0424 62.7452 52.7113 63.5479 52.7113H69.1668V58.3302C69.1668 58.9991 69.7019 59.668 70.5046 59.668Z" fill="#98A782"/>
</svg>
