<svg width="99" height="99" viewBox="0 0 99 99" fill="none" xmlns="http://www.w3.org/2000/svg">
<path d="M49.4795 92.3113C48.847 92.3113 48.2145 92.2115 47.6063 92.012C45.2953 91.239 43.9087 89.1942 43.9087 86.5011C43.8843 81.7632 43.8843 76.9505 43.8843 72.2874C43.8843 70.1678 43.8843 68.0482 43.8843 65.9535V47.2013L43.3005 47.1016C43.1789 47.0767 43.0816 47.0767 42.9842 47.0517C42.7653 47.0268 42.595 46.9769 42.4004 46.9769C40.6002 46.8273 40.3569 46.5779 40.3326 44.7077C40.3326 44.4833 40.3326 44.2838 40.3326 44.0594C40.3083 43.4359 40.3083 42.8375 40.3569 42.239C40.4056 41.7403 40.3813 41.042 39.9191 40.5433C39.5785 40.1693 39.1163 39.9947 38.4594 39.9947C38.3865 39.9947 38.3135 39.9947 38.2648 39.9947C37.462 40.0446 36.6349 40.0446 35.7592 40.0446C35.005 40.0446 34.2509 40.0197 33.3995 39.9947C33.3508 39.9947 33.3022 39.9947 33.2535 39.9947C32.1588 39.9947 31.5263 40.5184 31.2344 41.6904C30.5046 44.5331 28.4854 46.2288 25.8581 46.2288C25.6149 46.2288 25.3716 46.2039 25.1283 46.1789C22.1848 45.8548 20.19 43.5856 20.1413 40.5932C20.044 32.838 20.044 25.1326 20.1413 17.6766C20.19 14.784 22.2334 12.44 25.031 12.1158C25.2743 12.0909 25.4932 12.066 25.7365 12.066C28.3638 12.066 30.5046 13.8115 31.1857 16.5296C31.575 18.1255 32.548 18.3499 33.5454 18.3499C37.6323 18.3499 41.7192 18.325 45.8062 18.325C52.4717 18.325 59.0643 18.325 65.3649 18.3499H65.3893C66.411 18.3499 67.4327 18.1255 67.8219 16.4298C68.4058 13.8863 70.4979 12.1158 73.0522 12.041C73.1009 12.041 73.1738 12.041 73.2225 12.041C76.6039 12.041 78.8907 14.5596 78.915 18.325C78.9393 22.3647 78.9393 26.4543 78.915 30.4441L78.8907 33.1871C78.8907 33.8604 78.8907 34.5586 78.8907 35.2319C78.8907 37.2018 78.915 39.2217 78.769 41.1917C78.5744 43.7352 76.6526 45.755 74.0983 46.1041C73.8063 46.154 73.5144 46.154 73.2225 46.154C70.7168 46.154 68.7464 44.8074 68.1868 42.7377C67.6517 40.7677 66.6299 39.8451 64.9514 39.8451C64.6595 39.8451 64.3189 39.87 63.9296 39.9199C63.8567 39.9199 63.7837 39.9448 63.6864 39.9448C63.5891 39.9448 63.5161 39.9448 63.4188 39.9448C63.3215 39.9448 63.1998 39.9448 63.1025 39.9448C58.9426 39.9448 58.6507 40.2441 58.6264 44.5581V44.7326C58.6264 44.8324 58.6264 44.9072 58.6264 45.0069C58.5777 46.3784 58.2372 46.7525 56.9478 46.8772C56.8749 46.8772 56.8262 46.8772 56.7532 46.8772H56.6559C56.364 46.8772 55.8288 46.8772 55.3423 47.3011L55.099 47.5006V65.6792C55.1477 70.0929 55.0747 74.5815 55.0017 78.9204C54.953 81.4141 54.9044 84.0075 54.9044 86.551C54.8557 89.8426 52.5204 92.3113 49.4795 92.3113ZM46.6333 86.0024C46.6333 86.0522 46.6333 86.1271 46.6333 86.2019C46.6333 86.4762 46.6333 86.8003 46.6819 87.0996C46.9982 88.6207 48.0199 89.4935 49.4552 89.4935H49.5038C50.9148 89.4685 51.8879 88.6207 52.2284 87.1744C52.3014 86.8003 52.3014 86.4263 52.3014 86.1021V85.9026C52.3014 79.1947 52.3014 72.4619 52.3014 65.754V64.5571C52.3014 59.4451 52.3014 54.3331 52.3014 49.2212C52.3014 49.1464 52.3014 49.0716 52.3014 48.9968C52.3257 48.5728 52.3501 47.9494 51.8635 47.326L51.6689 47.0767H46.7549L46.7062 47.725C46.7062 47.8746 46.6819 47.9993 46.6819 48.124C46.6576 48.3733 46.6333 48.5978 46.6333 48.8222C46.6333 54.0588 46.6333 65.2802 46.6333 65.2802C46.6333 65.2802 46.6333 79.2945 46.6333 86.0024ZM43.2032 40.7179C43.0086 41.5657 42.8626 42.5382 43.2762 43.5357L43.4465 43.9596H55.7558L55.8045 43.2863C55.8045 43.1367 55.8288 42.9621 55.8288 42.8125C55.8775 42.1143 55.9261 41.4161 55.6828 40.6431L55.5369 40.1443H43.3491L43.2032 40.7179ZM73.2225 14.8339C71.471 14.8339 70.3033 16.2553 70.3033 18.3749C70.3033 23.9107 70.3033 29.4217 70.3033 34.9576V39.87C70.3033 42.0644 71.3737 43.3861 73.1252 43.4609C73.1738 43.4609 73.1982 43.4609 73.2468 43.4609C75.0227 43.4609 76.1417 42.0894 76.166 39.87C76.166 37.2517 76.166 34.5835 76.166 31.9901V29.0975C76.166 28.0502 76.166 27.0029 76.166 25.9555C76.166 23.4619 76.166 20.8934 76.166 18.3499C76.1417 16.2553 74.974 14.8339 73.2225 14.8339ZM25.7122 14.8339C23.9607 14.8339 22.8173 16.2553 22.8173 18.4746C22.8173 25.3072 22.8173 32.2894 22.8173 39.8202C22.8173 42.1143 23.912 43.4609 25.7365 43.4609H25.7608C27.5854 43.4359 28.6801 42.0644 28.6557 39.7703C28.6557 37.2766 28.6557 34.8079 28.6557 32.3143V29.1973V26.0802C28.6557 23.5866 28.6557 21.0929 28.6557 18.5993C28.6557 16.3301 27.561 14.8838 25.8095 14.8339C25.7608 14.8339 25.7365 14.8339 25.7122 14.8339ZM31.575 37.0772H67.4327V21.2425H31.575V37.0772Z" fill="#98A782"/>
</svg>
