<svg width="8" height="14" viewBox="0 0 8 14" fill="none" xmlns="http://www.w3.org/2000/svg">
<path d="M0.324275 2.23715C-0.0828437 1.86396 -0.110347 1.23139 0.262845 0.824276C0.636038 0.417157 1.26861 0.389654 1.67572 0.762846L0.324275 2.23715ZM7 7L7.67573 6.26285C7.88235 6.45226 8 6.71969 8 7C8 7.28031 7.88235 7.54774 7.67573 7.73715L7 7ZM1.67573 13.2372C1.26861 13.6103 0.636039 13.5828 0.262847 13.1757C-0.110346 12.7686 -0.0828429 12.136 0.324276 11.7628L1.67573 13.2372ZM1.67572 0.762846L7.67573 6.26285L6.32428 7.73715L0.324275 2.23715L1.67572 0.762846ZM7.67573 7.73715L1.67573 13.2372L0.324276 11.7628L6.32428 6.26285L7.67573 7.73715Z" fill="#859299"/>
</svg>
