<svg width="24" height="25" viewBox="0 0 24 25" fill="none" xmlns="http://www.w3.org/2000/svg">
<path d="M14 3.5V7.5C14 7.76522 14.1054 8.01957 14.2929 8.20711C14.4804 8.39464 14.7348 8.5 15 8.5H19M14 3.5H7C6.46957 3.5 5.96086 3.71071 5.58579 4.08579C5.21071 4.46086 5 4.96957 5 5.5V19.5C5 20.0304 5.21071 20.5391 5.58579 20.9142C5.96086 21.2893 6.46957 21.5 7 21.5H17C17.5304 21.5 18.0391 21.2893 18.4142 20.9142C18.7893 20.5391 19 20.0304 19 19.5V8.5M14 3.5L19 8.5M12 11.5V17.5M9 14.5H15" stroke="#98A782" stroke-width="1.5" stroke-linecap="round" stroke-linejoin="round"/>
</svg>
