<svg width="24" height="25" viewBox="0 0 24 25" fill="none" xmlns="http://www.w3.org/2000/svg">
<path d="M10 8.5V6.5C10 5.96957 10.2107 5.46086 10.5858 5.08579C10.9609 4.71071 11.4696 4.5 12 4.5H19C19.5304 4.5 20.0391 4.71071 20.4142 5.08579C20.7893 5.46086 21 5.96957 21 6.5V18.5C21 19.0304 20.7893 19.5391 20.4142 19.9142C20.0391 20.2893 19.5304 20.5 19 20.5H12C11.4696 20.5 10.9609 20.2893 10.5858 19.9142C10.2107 19.5391 10 19.0304 10 18.5V16.5" stroke="#98A782" stroke-width="1.5" stroke-linecap="round" stroke-linejoin="round"/>
<path d="M17 12.5H3M3 12.5L6 9.5M3 12.5L6 15.5" stroke="#98A782" stroke-width="1.5" stroke-linecap="round" stroke-linejoin="round"/>
</svg>
