<svg width="24" height="25" viewBox="0 0 24 25" fill="none" xmlns="http://www.w3.org/2000/svg">
<path d="M12 8.50007V12.5001L14 14.5001M3.05005 11.5001C3.27414 9.30013 4.30031 7.25968 5.93278 5.76803C7.56525 4.27639 9.68974 3.43795 11.9009 3.4127C14.1121 3.38744 16.2552 4.17713 17.9213 5.6311C19.5874 7.08507 20.6599 9.10155 20.9342 11.2958C21.2085 13.49 20.6654 15.7085 19.4084 17.5278C18.1515 19.3472 16.2687 20.6401 14.1193 21.1599C11.97 21.6797 9.70446 21.39 7.75504 20.3461C5.80563 19.3022 4.30877 17.5772 3.55005 15.5001M3.05005 20.5001V15.5001H8.05005" stroke="#98A782" stroke-width="1.5" stroke-linecap="round" stroke-linejoin="round"/>
</svg>
