<svg width="23" height="23" viewBox="0 0 23 23" fill="none" xmlns="http://www.w3.org/2000/svg">
<path fill-rule="evenodd" clip-rule="evenodd" d="M11.3239 2.93018C9.13105 2.93018 7.3534 4.73518 7.3534 6.96177C7.3534 9.18836 9.13105 10.9934 11.3239 10.9934C13.5168 10.9934 15.2944 9.18836 15.2944 6.96177C15.2944 4.73518 13.5168 2.93018 11.3239 2.93018ZM8.9416 6.96177C8.9416 5.62582 10.0082 4.54281 11.3239 4.54281C12.6396 4.54281 13.7062 5.62582 13.7062 6.96177C13.7062 8.29773 12.6396 9.38073 11.3239 9.38073C10.0082 9.38073 8.9416 8.29773 8.9416 6.96177Z" fill="#98A782"/>
<path d="M8.67669 12.3371C6.48384 12.3371 4.70618 14.1421 4.70618 16.3686V17.9813C4.70618 18.4266 5.06171 18.7876 5.50028 18.7876C5.93885 18.7876 6.29438 18.4266 6.29438 17.9813V16.3686C6.29438 15.0327 7.36098 13.9497 8.67669 13.9497H15.0295C16.3452 13.9497 17.4118 15.0327 17.4118 16.3686V17.9813C17.4118 18.4266 17.7673 18.7876 18.2059 18.7876C18.6445 18.7876 19 18.4266 19 17.9813V16.3686C19 14.1421 17.2224 12.3371 15.0295 12.3371H8.67669Z" fill="#98A782"/>
</svg>
