<svg width="74" height="74" viewBox="0 0 74 74" fill="none" xmlns="http://www.w3.org/2000/svg">
<path d="M54.7 32H54.2V29.4C54.2 27.5 52.7 26 50.8 26H39.5C38.5 26 37.6 26.4 37 27.1C36.3 26.4 35.4 26 34.4 26H27.3C26.9 26 26.5 26.4 26.5 26.9C26.5 27.4 26.9 27.8 27.4 27.8H34.5C35.4 27.8 36.2 28.5 36.2 29.5V34.6C35.5 34.1 34.7 33.9 33.9 33.9H24.5C24.3 33.1 23.8 32.4 23 32.1C22.8 32.1 22.5 32 22.3 32H21.5V29.4C21.5 28.5 22.2 27.7 23.2 27.7H25C25.5 27.7 25.9 27.3 25.9 26.8C25.9 26.4 25.5 26 25 26H23.1C21.3 26 19.7 27.5 19.7 29.4V32H19.3C18 32 17 33 17 34.3V40.3C17 42.7 18.9 44.6 21.2 44.7L20.7 46C20.5 46.6 20.6 47.3 20.9 47.8C21.3 48.3 21.9 48.7 22.5 48.7H23.4C24 48.7 24.6 48.4 25 47.9L27.4 44.7H46.4L48.8 47.9C49.2 48.4 49.8 48.7 50.4 48.7H51.3C51.9 48.7 52.5 48.4 52.9 47.8C53.3 47.3 53.4 46.6 53.1 46L52.6 44.7C54.9 44.6 56.8 42.7 56.8 40.3V34.3C57 33 55.9 32 54.7 32ZM24.5 38.4V35.6H33.8C35.1 35.6 36.1 36.6 36.1 37.9V38.4H24.5ZM23.6 40.1H44.8C45.3 40.1 45.7 39.7 45.7 39.2C45.7 38.7 45.3 38.3 44.8 38.3H37.8V37.8C37.8 36.5 38.8 35.5 40.1 35.5H49.4V38.3H47.1C46.6 38.3 46.2 38.7 46.2 39.2C46.2 39.7 46.6 40.1 47.1 40.1H50.3C50.8 40.1 51.2 39.7 51.2 39.2V34.2C51.2 33.9 51.4 33.7 51.7 33.7H54.7C55 33.7 55.2 33.9 55.2 34.2V40.2C55.2 41.6 54 42.8 52.6 42.8H21.4C20 42.8 18.8 41.6 18.8 40.2V34.2C18.8 34 19 33.8 19.3 33.8H22.3C22.6 33.8 22.8 34 22.8 34.3V39.3C22.8 39.8 23.2 40.1 23.6 40.1ZM52.5 32H51.7C50.8 32 50 32.6 49.6 33.4C49.5 33.5 49.5 33.7 49.5 33.8H40.2C39.4 33.8 38.6 34.1 37.9 34.5V29.4C37.9 28.5 38.6 27.7 39.6 27.7H50.9C51.8 27.7 52.6 28.4 52.6 29.4V32H52.5ZM25.3 44.7L23.7 46.8C23.7 46.9 23.6 46.9 23.5 46.9H22.6C22.5 46.9 22.4 46.8 22.4 46.8C22.4 46.8 22.3 46.7 22.4 46.6L23.1 44.7H25.3ZM50.9 44.7L51.6 46.6C51.6 46.7 51.6 46.8 51.6 46.8C51.6 46.8 51.5 46.9 51.4 46.9H50.5C50.4 46.9 50.4 46.9 50.3 46.8L48.7 44.7H50.9Z" fill="#98A782"/>
<path d="M37 67C43.113 67 48.9925 65.1766 54.0029 61.7269C54.5359 61.3599 54.6705 60.6302 54.3034 60.0971C53.9365 59.564 53.2067 59.4293 52.6737 59.7965C48.0561 62.9758 42.6362 64.6562 37 64.6562C21.7503 64.6562 9.34375 52.2497 9.34375 37C9.34375 21.7503 21.7503 9.34375 37 9.34375C52.2497 9.34375 64.6562 21.7503 64.6562 37C64.6562 42.636 62.9758 48.0559 59.7965 52.6737C59.4295 53.2068 59.5641 53.9364 60.0971 54.3036C60.6303 54.6705 61.3598 54.5358 61.7268 54.0029C65.1766 48.9923 67 43.1129 67 37C67 20.4084 53.5956 7 37 7C20.4085 7 7 20.4043 7 37C7 53.5916 20.4044 67 37 67Z" fill="#EB5757"/>
<path fill-rule="evenodd" clip-rule="evenodd" d="M12.5586 21.1706C12.8671 20.7125 13.4886 20.5912 13.9466 20.8997L61.2878 52.7825C61.7458 53.091 61.8671 53.7125 61.5586 54.1706C61.2501 54.6286 60.6286 54.7499 60.1706 54.4414L12.8294 22.5586C12.3714 22.2501 12.2501 21.6286 12.5586 21.1706Z" fill="#EB5757"/>
<path d="M57.3906 58.5625C58.0378 58.5625 58.5625 58.0378 58.5625 57.3906C58.5625 56.7434 58.0378 56.2188 57.3906 56.2188C56.7434 56.2188 56.2188 56.7434 56.2188 57.3906C56.2188 58.0378 56.7434 58.5625 57.3906 58.5625Z" fill="#EB5757"/>
</svg>
