<svg width="74" height="74" viewBox="0 0 74 74" fill="none" xmlns="http://www.w3.org/2000/svg">
<path fill-rule="evenodd" clip-rule="evenodd" d="M50.6248 32.5139C53.5695 34.214 55.5067 37.2541 55.8069 40.646C55.8405 41.0261 55.5793 41.3693 55.2035 41.4378C54.8284 41.5071 54.4624 41.278 54.3591 40.9106C53.8589 39.1284 52.7018 37.6379 51.1008 36.7136C49.9359 36.0411 48.6569 35.7407 47.4017 35.7743C47.5921 37.906 47.1218 40.064 46.045 41.9289C44.9684 43.7939 43.3345 45.2801 41.3932 46.181C41.9917 47.285 42.8914 48.2425 44.0562 48.915C45.6573 49.8395 47.527 50.0962 49.3202 49.6384C49.69 49.5442 50.0707 49.7468 50.199 50.1061C50.3272 50.4656 50.1607 50.8634 49.8146 51.0244C48.4135 51.6761 46.9062 51.9995 45.4029 51.9995C43.5934 51.9996 41.7895 51.5311 40.1811 50.6026C38.932 49.8814 37.8479 48.9108 36.9984 47.7604C36.1489 48.9108 35.0649 49.8814 33.8157 50.6026C30.871 52.3026 27.2698 52.4603 24.1821 51.0244C23.8362 50.8634 23.6696 50.4655 23.7978 50.1061C23.9261 49.7468 24.3063 49.5441 24.6766 49.6384C26.4699 50.0962 28.3394 49.8395 29.9405 48.915C31.0962 48.2478 31.9999 47.2906 32.6031 46.1809C30.662 45.28 29.0285 43.7939 27.9518 41.929C26.8752 40.0643 26.4049 37.9064 26.5953 35.7749C25.3327 35.7425 24.0519 36.0465 22.8962 36.7138C21.2952 37.6381 20.138 39.1287 19.6378 40.9108C19.5347 41.2781 19.1694 41.507 18.7935 41.438C18.4181 41.3693 18.1567 41.0261 18.1904 40.646C18.4906 37.254 20.4278 34.214 23.3725 32.5139C24.6217 31.7927 26.0042 31.3392 27.4252 31.1788C26.8537 29.8679 26.5552 28.4438 26.5552 27.0014C26.5552 23.6012 28.2193 20.4035 31.0068 18.4476C31.3191 18.2284 31.7472 18.2831 31.9942 18.5739C32.2412 18.8647 32.2263 19.2958 31.9597 19.5688C30.6665 20.8929 29.9542 22.6403 29.9542 24.4891C29.9542 25.8341 30.3337 27.092 30.9904 28.1621C32.7413 26.9314 34.8453 26.2597 36.9987 26.2597C39.1521 26.2597 41.2562 26.9316 43.007 28.1622C43.6637 27.092 44.0431 25.8341 44.0431 24.4891C44.0431 22.6403 43.3309 20.8929 42.0377 19.5688C41.7711 19.2958 41.7561 18.8646 42.0032 18.5739C42.2503 18.2831 42.6783 18.2284 42.9906 18.4476C45.778 20.4035 47.4422 23.6012 47.4422 27.0014C47.4422 28.4438 47.1437 29.8679 46.572 31.1787C47.9932 31.3392 49.3755 31.7927 50.6248 32.5139ZM42.1055 29.3338C40.6129 28.3004 38.8263 27.7377 36.9987 27.7377C35.1709 27.7377 33.3844 28.3003 31.8919 29.3337C33.1764 30.687 34.99 31.5335 36.9987 31.5335C39.0074 31.5335 40.8209 30.6871 42.1055 29.3338ZM40.8299 44.8147C42.4711 44.0389 43.8517 42.7729 44.7655 41.1902C45.6794 39.6072 46.0854 37.7788 45.9368 35.9694C44.1224 36.4051 42.4825 37.5526 41.4782 39.2922C40.4739 41.0318 40.3001 43.0257 40.8299 44.8147ZM46.4666 34.366C48.3202 34.1181 50.1935 34.4834 51.84 35.434C51.9216 35.4811 52.0023 35.5294 52.0819 35.5789C51.4564 34.8794 50.7179 34.2741 49.8859 33.7937C48.5232 33.007 46.9763 32.5913 45.4121 32.5913C45.4099 32.5913 45.4098 32.591 45.4054 32.5913C45.1414 32.5913 44.8975 32.4505 44.7655 32.2218C44.6334 31.993 44.6335 31.711 44.7658 31.4824C45.5499 30.1266 45.9643 28.577 45.9643 27.0014C45.9643 26.0406 45.8096 25.0985 45.5164 24.2071C45.5194 24.3008 45.521 24.3949 45.521 24.4891C45.521 29.1882 41.6979 33.0114 36.9987 33.0114C34.2681 33.0114 31.8337 31.7203 30.2729 29.7168C30.2697 29.7133 30.2664 29.7099 30.2631 29.7065C30.2582 29.7014 30.2533 29.6963 30.2487 29.6907C30.2282 29.6659 30.2103 29.6399 30.1936 29.6134C29.1162 28.1862 28.4764 26.411 28.4764 24.4891C28.4764 24.3949 28.478 24.3009 28.481 24.2071C28.1878 25.0985 28.033 26.0406 28.033 27.0014C28.033 28.577 28.4475 30.1266 29.2315 31.4826C29.3638 31.7112 29.3639 31.9932 29.2318 32.222C29.0997 32.4507 28.8559 32.5914 28.5919 32.5914C28.5892 32.5919 28.588 32.5918 28.5869 32.5916C28.5864 32.5915 28.5858 32.5914 28.5852 32.5914C27.0209 32.5914 25.4742 33.0072 24.1114 33.7939C23.2793 34.2743 22.5408 34.8796 21.9154 35.5791C21.995 35.5295 22.0758 35.4811 22.1574 35.4341C25.6895 33.3947 30.1891 34.15 32.8559 37.2303C33.1231 37.5389 33.0895 38.0056 32.7809 38.2727C32.4722 38.5397 32.0056 38.5062 31.7386 38.1977C30.7486 37.0543 29.4527 36.3 28.061 35.9672C27.9117 37.7771 28.3176 39.6067 29.2319 41.1903C30.1462 42.774 31.5276 44.0402 33.1698 44.816C33.5775 43.4443 33.5721 41.9448 33.0769 40.5157C32.9433 40.1302 33.1475 39.7092 33.5331 39.5756C33.9185 39.442 34.3396 39.6462 34.4733 40.0318C35.169 42.0393 35.0665 44.1618 34.3097 46.0231C34.3086 46.0267 34.3075 46.0303 34.3064 46.0339C34.3039 46.0424 34.3014 46.051 34.2983 46.0594C34.2947 46.069 34.2902 46.078 34.2857 46.087C34.283 46.0925 34.2802 46.098 34.2777 46.1037C33.577 47.778 32.3434 49.2346 30.6797 50.1952C30.5981 50.2423 30.5158 50.288 30.4332 50.3322C31.3518 50.1403 32.2448 49.8034 33.0771 49.3229C34.4416 48.5351 35.5763 47.4014 36.3585 46.0444C36.4904 45.8156 36.7344 45.6745 36.9987 45.6745C37.2629 45.6745 37.507 45.8155 37.6389 46.0444C38.4212 47.4014 39.5558 48.5351 40.9203 49.3229C41.7525 49.8033 42.6457 50.1402 43.5641 50.3321C43.4814 50.2879 43.3993 50.2422 43.3177 50.1951C39.2481 47.8455 37.8488 42.6231 40.1983 38.5534C41.3365 36.582 43.1743 35.1718 45.3731 34.5826C45.7281 34.4874 46.0858 34.4181 46.4442 34.3691L46.4491 34.368C46.4522 34.3675 46.4553 34.3672 46.4585 34.3669C46.4612 34.3666 46.4639 34.3664 46.4666 34.366ZM34.782 36.706C34.782 35.4836 35.7765 34.4892 36.9987 34.4892C38.221 34.4892 39.2155 35.4836 39.2155 36.706C39.2155 37.9284 38.221 38.9228 36.9987 38.9228C35.7765 38.9228 34.782 37.9284 34.782 36.706ZM36.2598 36.706C36.2598 37.1135 36.5913 37.4449 36.9987 37.4449C37.4062 37.4449 37.7377 37.1135 37.7377 36.706C37.7377 36.2985 37.4062 35.9671 36.9987 35.9671C36.5913 35.9671 36.2598 36.2985 36.2598 36.706Z" fill="#98A782"/>
<path d="M37 67C43.113 67 48.9925 65.1766 54.0029 61.7269C54.5359 61.3599 54.6705 60.6302 54.3034 60.0971C53.9365 59.564 53.2067 59.4293 52.6737 59.7965C48.0561 62.9758 42.6362 64.6562 37 64.6562C21.7503 64.6562 9.34375 52.2497 9.34375 37C9.34375 21.7503 21.7503 9.34375 37 9.34375C52.2497 9.34375 64.6562 21.7503 64.6562 37C64.6562 42.636 62.9758 48.0559 59.7965 52.6737C59.4295 53.2068 59.5641 53.9364 60.0971 54.3036C60.6303 54.6705 61.3598 54.5358 61.7268 54.0029C65.1766 48.9923 67 43.1129 67 37C67 20.4084 53.5956 7 37 7C20.4085 7 7 20.4043 7 37C7 53.5916 20.4044 67 37 67Z" fill="#EB5757"/>
<path fill-rule="evenodd" clip-rule="evenodd" d="M12.5586 21.1706C12.8671 20.7125 13.4886 20.5912 13.9466 20.8997L61.2878 52.7825C61.7458 53.091 61.8671 53.7125 61.5586 54.1706C61.2501 54.6286 60.6286 54.7499 60.1706 54.4414L12.8294 22.5586C12.3714 22.2501 12.2501 21.6286 12.5586 21.1706Z" fill="#EB5757"/>
<path d="M57.3906 58.5625C58.0378 58.5625 58.5625 58.0378 58.5625 57.3906C58.5625 56.7434 58.0378 56.2188 57.3906 56.2188C56.7434 56.2188 56.2188 56.7434 56.2188 57.3906C56.2188 58.0378 56.7434 58.5625 57.3906 58.5625Z" fill="#EB5757"/>
</svg>
