<svg width="74" height="74" viewBox="0 0 74 74" fill="none" xmlns="http://www.w3.org/2000/svg">
<path d="M49.4258 46.877C49.7817 46.877 50.0703 46.5884 50.0703 46.2324C50.0703 45.8765 49.7817 45.5879 49.4258 45.5879C49.0698 45.5879 48.7812 45.8765 48.7812 46.2324C48.7812 46.5884 49.0698 46.877 49.4258 46.877Z" fill="#98A782"/>
<path d="M49.4258 43.9766C49.7809 43.9766 50.0703 43.6872 50.0703 43.332V34.9531C50.0703 34.7836 50.0013 34.6173 49.8814 34.4974C49.7616 34.3776 49.5953 34.3086 49.4258 34.3086H46.8477C46.6781 34.3086 46.5119 34.3776 46.392 34.4974C46.2721 34.6173 46.2031 34.7836 46.2031 34.9531V38.8203H42.3359V29.1523C42.3359 28.7964 42.0473 28.5078 41.6913 28.5078H34.6016V25.2852C34.6016 24.9894 34.4002 24.7316 34.1133 24.6598L31.5352 24.0153C31.3427 23.9672 31.1387 24.0104 30.9822 24.1326C30.8258 24.2547 30.7344 24.4421 30.7344 24.6406V28.5078H26.8672V20.6445C26.8672 20.2886 26.5785 20 26.2226 20H23.6445C23.2886 20 23 20.2886 23 20.6445V52.3555C23 52.7114 23.2886 53 23.6445 53H49.4258C49.5953 53 49.7616 52.931 49.8814 52.8112C50.0013 52.6913 50.0703 52.525 50.0703 52.3555V49.1328C50.0703 48.7777 49.7809 48.4883 49.4258 48.4883C49.0699 48.4883 48.7812 48.7777 48.7812 49.1328V51.7109H47.4922V35.5977H48.7812V43.332C48.7812 43.6872 49.0699 43.9766 49.4258 43.9766ZM25.5781 51.7109H24.2891V21.2891H25.5781V51.7109ZM26.8672 32.375H27.9535L28.0573 33.534L26.8672 33.3485V32.375ZM30.7344 51.7109H26.8672V50.4219H30.7344V51.7109ZM30.7344 49.1328H26.8672V42.6875H30.7344V49.1328ZM30.7344 41.3984H26.8672V40.1094H30.7344V41.3984ZM30.7344 38.8203H26.8672V38.0403L30.7344 37.283V38.8203ZM30.7344 35.9695L26.8672 36.7268V34.6532L30.7344 35.2559V35.9695ZM30.7344 33.9512L29.3698 33.7386L29.2477 32.375H30.7344V33.9512ZM30.7344 31.0859H26.8672V29.7969H30.7344V31.0859ZM34.6016 29.7969H38.4688V31.0859H34.6016V29.7969ZM34.6016 32.375H38.4688V38.8203H34.6016V32.375ZM34.6016 40.1094H38.4688V41.3984H34.6016V40.1094ZM34.6016 42.6875H38.4688V43.9766H34.6016V42.6875ZM32.0234 25.4661L33.3125 25.7884V43.9766H32.0234V25.4661ZM35.8906 51.7109H32.0234V45.2656H35.8906V51.7109ZM41.0469 51.7109H37.1797V45.2656H41.0469V51.7109ZM41.0469 43.9766H39.7578V29.7969H41.0469V43.9766ZM46.2031 51.7109H42.3359V50.4219H46.2031V51.7109ZM46.2031 49.1328H42.3359V42.6875H46.2031V49.1328ZM46.2031 41.3984H42.3359V40.1094H46.2031V41.3984Z" fill="#98A782"/>
<path d="M37 67C43.113 67 48.9925 65.1766 54.0029 61.7269C54.5359 61.3599 54.6705 60.6302 54.3034 60.0971C53.9365 59.564 53.2067 59.4293 52.6737 59.7965C48.0561 62.9758 42.6362 64.6562 37 64.6562C21.7503 64.6562 9.34375 52.2497 9.34375 37C9.34375 21.7503 21.7503 9.34375 37 9.34375C52.2497 9.34375 64.6562 21.7503 64.6562 37C64.6562 42.636 62.9758 48.0559 59.7965 52.6737C59.4295 53.2068 59.5641 53.9364 60.0971 54.3036C60.6303 54.6705 61.3598 54.5358 61.7268 54.0029C65.1766 48.9923 67 43.1129 67 37C67 20.4084 53.5956 7 37 7C20.4085 7 7 20.4043 7 37C7 53.5916 20.4044 67 37 67Z" fill="#EB5757"/>
<path fill-rule="evenodd" clip-rule="evenodd" d="M12.5586 21.1706C12.8671 20.7125 13.4886 20.5912 13.9466 20.8997L61.2878 52.7825C61.7458 53.091 61.8671 53.7125 61.5586 54.1706C61.2501 54.6286 60.6286 54.7499 60.1706 54.4414L12.8294 22.5586C12.3714 22.2501 12.2501 21.6286 12.5586 21.1706Z" fill="#EB5757"/>
<path d="M57.3906 58.5625C58.0378 58.5625 58.5625 58.0378 58.5625 57.3906C58.5625 56.7434 58.0378 56.2188 57.3906 56.2188C56.7434 56.2188 56.2188 56.7434 56.2188 57.3906C56.2188 58.0378 56.7434 58.5625 57.3906 58.5625Z" fill="#EB5757"/>
</svg>
