<svg width="74" height="74" viewBox="0 0 74 74" fill="none" xmlns="http://www.w3.org/2000/svg">
<path d="M32.5 43.1C32.6 43.1 32.7 43.1 32.7 43.1L32.2 44C31.9 44.6 31.9 45.2 32.2 45.8C32.5 46.4 33.1 46.7 33.8 46.7H35.4C35.7 46.7 36 46.4 36 46.1C36 45.8 35.7 45.5 35.4 45.5H33.8C33.6 45.5 33.4 45.4 33.3 45.2C33.2 45 33.2 44.8 33.3 44.6L33.8 43.7C33.8 44 34.1 44.2 34.4 44.2C34.6 44.2 34.7 44.1 34.8 44C34.9 43.9 34.9 43.7 34.9 43.6L34.7 41.8C34.7 41.6 34.6 41.5 34.4 41.4C34.3 41.3 34.2 41.3 34.1 41.3C34 41.3 33.9 41.3 33.9 41.3L32.3 42C32 42.1 31.9 42.5 32 42.8C32.1 43 32.3 43.1 32.5 43.1Z" fill="#98A782"/>
<path d="M39.6 42.7C39.6 42.8 39.6 43 39.7 43.1L40.5 44.5C40.6 44.7 40.6 44.9 40.5 45.1C40.4 45.3 40.2 45.4 40 45.4H39C39.3 45.2 39.3 44.8 39.1 44.6C39 44.5 38.8 44.4 38.6 44.4C38.5 44.4 38.4 44.4 38.3 44.5L36.9 45.6C36.8 45.7 36.7 45.9 36.7 46.1C36.7 46.3 36.8 46.5 36.9 46.6L38.3 47.6C38.4 47.7 38.5 47.7 38.6 47.7C38.8 47.7 39 47.6 39.1 47.5C39.2 47.4 39.2 47.2 39.2 47.1C39.2 46.9 39.1 46.8 39 46.7H40C40.7 46.7 41.2 46.4 41.6 45.8C41.9 45.2 41.9 44.6 41.6 44L40.8 42.6C40.7 42.4 40.5 42.3 40.3 42.3C40.2 42.3 40.1 42.3 40 42.4C39.7 42.4 39.6 42.6 39.6 42.7Z" fill="#98A782"/>
<path d="M34.7 40.8C34.8 40.9 34.9 40.9 35 40.9C35.2 40.9 35.4 40.8 35.5 40.6L36.3 39.2C36.4 39 36.6 38.9 36.8 38.9C37 38.9 37.2 39 37.3 39.2L37.8 40.1C37.7 40.1 37.6 40.1 37.6 40.1C37.4 40.1 37.2 40.2 37.1 40.5C37 40.6 37 40.8 37.1 40.9C37.2 41 37.3 41.2 37.4 41.2L39 41.9C39.1 41.9 39.2 41.9 39.2 41.9C39.3 41.9 39.4 41.9 39.5 41.8C39.7 41.7 39.8 41.5 39.8 41.4L40 39.6C40 39.3 39.8 39 39.4 39C39.1 39 38.9 39.2 38.8 39.5L38.3 38.6C38 38 37.4 37.7 36.7 37.7C36 37.7 35.5 38 35.1 38.6L34.5 40C34.4 40.1 34.4 40.3 34.4 40.4C34.5 40.6 34.6 40.8 34.7 40.8Z" fill="#98A782"/>
<path d="M49.3 46.5L50.2 35.6C51.5 35.5 52.6 34.4 52.6 33.1C52.6 31.7 51.5 30.6 50.1 30.6H50C49.9 30.2 49.7 29.8 49.6 29.4C50.2 29.4 50.7 29.1 50.9 28.5C51.1 28 51 27.3 50.6 26.9L50 26.4V26.3C49.9 25.9 49.7 25.5 49.5 25.1C50.1 25.1 50.6 24.8 50.8 24.2C51.1 23.6 51 23 50.6 22.6L48.8 20.8C48.5 20.5 48.2 20.4 47.8 20.4C47.6 20.4 47.4 20.4 47.3 20.5C46.8 20.7 46.4 21.3 46.4 21.8C45.7 21.5 44.9 21.3 44.2 21.2C44 21.2 43.7 21.2 43.5 21.2C42.4 21.2 41.2 21.5 40.2 22C39.8 21.8 39.4 21.6 39 21.5C39.4 21.1 39.5 20.5 39.3 19.9C39.1 19.4 38.5 19 38 19H35.5C34.9 19 34.4 19.3 34.2 19.9C34 20.4 34.1 21.1 34.5 21.5C34.1 21.6 33.8 21.8 33.5 22C32.3 21.4 31.1 21.1 30 21.1C28.8 21.1 27.8 21.4 26.9 22.1C26.3 22.6 25.5 23.1 24.6 24.3C24.2 24.8 23.8 25.7 23.7 26.3L23.1 26.9C22.7 27.3 22.6 27.9 22.8 28.5C23 29 23.5 29.3 24.1 29.3C23.9 29.7 23.8 30.1 23.6 30.5H23.5C22.1 30.5 21 31.6 21 33C21 34.4 22.1 35.5 23.4 35.5L24.3 46.4C22.7 47.1 21.6 48.7 21.6 50.4C21.6 51.2 21.8 51.9 22.2 52.6C22.3 52.8 22.6 52.9 22.8 52.9C22.9 52.9 23 52.9 23.2 52.8C23.4 52.7 23.5 52.6 23.5 52.4C23.5 52.2 23.5 52 23.4 51.9C23.1 51.5 23 50.9 23 50.4C23 49.3 23.6 48.4 24.5 47.8C24.6 48.1 24.7 48.5 24.9 48.8C24.4 49.3 24 49.9 24 50.5C24 51.6 24.9 52.4 25.9 52.4C26.7 52.4 27.5 51.9 27.7 51.1C28 51.2 28.3 51.2 28.6 51.2H28.7C28.4 52.5 27.2 53.4 25.8 53.4C25.3 53.4 24.7 53.3 24.3 53C24.3 53 24.2 53 24.1 53C23.8 53 23.6 53.1 23.5 53.3C23.4 53.5 23.4 53.7 23.4 53.8C23.4 54 23.6 54.1 23.7 54.2C24.4 54.6 25.1 54.8 25.9 54.8C27.1 54.8 28.1 54.4 29 53.6C29.7 52.9 30.1 52.1 30.2 51.2H43.3C43.4 52.1 43.9 53 44.6 53.6C45.4 54.4 46.5 54.8 47.6 54.8C50 54.8 52 52.8 52 50.5C52 48.8 51 47.2 49.3 46.5ZM47.7 22.7V21.8L49.5 23.6V23.7H48.6C48.5 23.5 48.3 23.4 48.2 23.2C48.1 23 47.9 22.9 47.7 22.7ZM47.2 24.8C46.7 25 46.3 25.5 46.3 26.1C45.6 25.8 44.8 25.6 44.1 25.5C43.9 25.5 43.6 25.5 43.4 25.5C43.3 25.5 43.2 25.5 43.1 25.5C42.7 24.5 42.2 23.7 41.4 23C42 22.7 42.7 22.6 43.4 22.6C44.8 22.6 46.2 23.2 47.2 24.2C47.4 24.4 47.5 24.5 47.7 24.7C47.5 24.7 47.3 24.7 47.2 24.8ZM48.5 30.6H43.3C43 29.3 42.3 28.2 41.4 27.3C42 27 42.7 26.9 43.4 26.9C44.8 26.9 46.2 27.5 47.2 28.5C47.8 29.1 48.2 29.8 48.5 30.6ZM36.7 26.8C39 26.8 41.1 28.4 41.8 30.6H31.6C32.2 28.4 34.4 26.8 36.7 26.8ZM35.4 24.7H38V24.8L37.3 25.5C37.1 25.5 36.9 25.5 36.7 25.5C36.5 25.5 36.3 25.5 36.1 25.5L35.4 24.7ZM40.1 26.3C39.7 26.1 39.3 25.9 38.9 25.8C39.3 25.4 39.4 24.8 39.2 24.2C39 23.7 38.4 23.3 37.9 23.3H35.4C34.8 23.3 34.3 23.6 34.1 24.2C33.9 24.7 34 25.4 34.4 25.8C34 25.9 33.7 26.1 33.4 26.3C32.9 26 32.4 25.8 31.8 25.7C32.7 23.8 34.6 22.6 36.7 22.6C38.8 22.6 40.8 23.9 41.6 25.8C41.1 25.8 40.6 26 40.1 26.3ZM30.3 25.5C29.2 25.5 28.2 25.7 27.3 26.2C27.3 25.5 27 25 26.5 24.8C26.3 24.7 26.2 24.7 26 24.7C26.1 24.5 26.3 24.4 26.4 24.2C27.4 23.2 28.8 22.6 30.2 22.6C30.8 22.6 31.4 22.7 32 22.9C31.3 23.6 30.7 24.5 30.3 25.5ZM32.1 27.2C31.1 28.1 30.4 29.3 30.1 30.6H25.2C25.5 29.8 25.9 29.1 26.5 28.5C27.5 27.5 28.9 26.9 30.3 26.9C30.9 26.9 31.5 27 32.1 27.2ZM48.6 28C48.5 27.8 48.3 27.7 48.1 27.5C47.9 27.3 47.8 27.2 47.6 27V26C47.6 25.9 47.6 25.9 47.7 25.9C47.7 25.9 47.7 25.9 47.8 25.9H47.9L49.7 27.7C49.8 27.8 49.8 27.8 49.7 27.9C49.7 28 49.6 28 49.5 28H48.6ZM37.3 21.1C37.1 21.1 36.9 21.1 36.7 21.1C36.5 21.1 36.3 21.1 36.1 21.1L35.4 20.4V20.3H38V20.4L37.3 21.1ZM25.8 26H26C26 26 26.1 26 26.1 26.1V27.1C25.9 27.2 25.7 27.4 25.6 27.5C25.4 27.7 25.2 27.9 25.1 28H24.1C24.1 28 24 28 24 27.9C24 27.9 24 27.8 24 27.7L25.8 26ZM25.8 50.1C26.1 50.3 26.3 50.5 26.5 50.6C26.4 50.9 26.2 51 26 51C25.7 51 25.5 50.8 25.5 50.5C25.5 50.3 25.6 50.2 25.8 50.1ZM41.8 35.6C42.2 35.6 42.5 35.3 42.5 34.9C42.5 34.5 42.2 34.2 41.8 34.2H23.5C22.9 34.2 22.4 33.7 22.4 33.1C22.4 32.5 22.9 32 23.5 32H50.1C50.7 32 51.2 32.5 51.2 33.1C51.2 33.7 50.7 34.2 50.1 34.2H43.6C43.2 34.2 42.9 34.5 42.9 34.9C42.9 35.3 43.2 35.6 43.6 35.6H48.8L47.9 47.1C47.8 48.6 46.5 49.8 45 49.8H28.7C27.2 49.8 25.9 48.6 25.8 47.1L24.8 35.6H41.8ZM47.2 50.6C47.4 50.4 47.7 50.3 47.9 50.1C48.1 50.2 48.2 50.4 48.2 50.6C48.2 50.9 48 51.1 47.7 51.1C47.4 51 47.2 50.9 47.2 50.6ZM44.9 51.2C45.2 51.2 45.5 51.2 45.8 51.1C46.1 51.9 46.8 52.4 47.6 52.4C48.7 52.4 49.5 51.5 49.5 50.5C49.5 49.9 49.2 49.3 48.7 48.9C48.9 48.6 49 48.3 49.1 47.9C50 48.4 50.6 49.4 50.6 50.5C50.6 52.1 49.3 53.4 47.6 53.4C46.2 53.4 45.1 52.5 44.7 51.2H44.9Z" fill="#98A782"/>
<path d="M37 67C43.113 67 48.9925 65.1766 54.0029 61.7269C54.5359 61.3599 54.6705 60.6302 54.3034 60.0971C53.9365 59.564 53.2067 59.4293 52.6737 59.7965C48.0561 62.9758 42.6362 64.6562 37 64.6562C21.7503 64.6562 9.34375 52.2497 9.34375 37C9.34375 21.7503 21.7503 9.34375 37 9.34375C52.2497 9.34375 64.6562 21.7503 64.6562 37C64.6562 42.636 62.9758 48.0559 59.7965 52.6737C59.4295 53.2068 59.5641 53.9364 60.0971 54.3036C60.6303 54.6705 61.3598 54.5358 61.7268 54.0029C65.1766 48.9923 67 43.1129 67 37C67 20.4084 53.5956 7 37 7C20.4085 7 7 20.4043 7 37C7 53.5916 20.4044 67 37 67Z" fill="#EB5757"/>
<path fill-rule="evenodd" clip-rule="evenodd" d="M12.5586 21.1706C12.8671 20.7125 13.4886 20.5912 13.9466 20.8997L61.2878 52.7825C61.7458 53.091 61.8671 53.7125 61.5586 54.1706C61.2501 54.6286 60.6286 54.7499 60.1706 54.4414L12.8294 22.5586C12.3714 22.2501 12.2501 21.6286 12.5586 21.1706Z" fill="#EB5757"/>
<path d="M57.3906 58.5625C58.0378 58.5625 58.5625 58.0378 58.5625 57.3906C58.5625 56.7434 58.0378 56.2188 57.3906 56.2188C56.7434 56.2188 56.2188 56.7434 56.2188 57.3906C56.2188 58.0378 56.7434 58.5625 57.3906 58.5625Z" fill="#EB5757"/>
</svg>
