<svg width="74" height="74" viewBox="0 0 74 74" fill="none" xmlns="http://www.w3.org/2000/svg">
<path d="M44.9667 22.1818H43.3313V20.4564C43.3312 19.6533 42.6779 19 41.8749 19H32.1223C31.3192 19 30.6659 19.6533 30.6659 20.4564V22.1818H29.0305C27.8613 22.1818 26.9102 23.133 26.9102 24.3021V52.8796C26.9102 54.0488 27.8613 54.9999 29.0305 54.9999H44.9666C46.1358 54.9999 47.087 54.0487 47.087 52.8796V40.1786C47.087 39.7903 46.7722 39.4755 46.3838 39.4755C45.9955 39.4755 45.6807 39.7903 45.6807 40.1786V52.8797C45.6807 53.2734 45.3604 53.5938 44.9666 53.5938H29.0305C28.6368 53.5938 28.3164 53.2734 28.3164 52.8797V24.3022C28.3164 23.9084 28.6368 23.5881 29.0305 23.5881H44.9666C45.3604 23.5881 45.6807 23.9084 45.6807 24.3022V33.8215C45.6807 34.2098 45.9955 34.5246 46.3838 34.5246C46.7722 34.5246 47.087 34.2098 47.087 33.8215V24.3022C47.087 23.133 46.1358 22.1818 44.9667 22.1818ZM32.0721 22.1818V20.4564C32.0721 20.4287 32.0946 20.4062 32.1223 20.4062H41.8748C41.9025 20.4062 41.925 20.4287 41.925 20.4564V22.1818H32.0721Z" fill="#98A782"/>
<path d="M46.967 36.6221C46.8018 36.37 46.4782 36.2543 46.1898 36.337C45.9106 36.417 45.7071 36.6658 45.6822 36.955C45.657 37.2468 45.8263 37.5326 46.0928 37.6529C46.3571 37.7721 46.6745 37.7143 46.8797 37.5094C47.1126 37.2772 47.1538 36.895 46.967 36.6221Z" fill="#98A782"/>
<path d="M30.707 38.378C30.3187 38.378 30.0039 38.6927 30.0039 39.0811V50.9662C30.0039 51.3546 30.3187 51.6693 30.707 51.6693H43.2901C43.6785 51.6693 43.9933 51.3546 43.9933 50.9662V39.0811C43.9933 38.6927 43.6785 38.378 43.2901 38.378H37.6268L41.3436 32.0491C41.4713 31.8317 41.4728 31.5626 41.3475 31.3438C41.2223 31.1249 40.9894 30.9899 40.7373 30.9899H38.2733V26.5508C38.2733 26.2336 38.0608 25.9556 37.7547 25.8724C37.4487 25.7891 37.1245 25.9212 36.9639 26.1948L32.6536 33.5341C32.5259 33.7515 32.5244 34.0206 32.6496 34.2394C32.7748 34.4582 33.0077 34.5932 33.2599 34.5932H35.7239V38.3779H30.707V38.378ZM34.4882 33.1871L36.867 29.1366V31.6931C36.867 32.0815 37.1818 32.3963 37.5702 32.3963H39.509L37.1302 36.4468V33.8902C37.1302 33.5019 36.8154 33.1871 36.4271 33.1871H34.4882ZM42.587 46.3014H31.4102V43.746H42.587V46.3014ZM42.587 50.2631H31.4102V47.7076H42.587V50.2631ZM42.587 42.3396H31.4102V39.7842H42.587V42.3396Z" fill="#98A782"/>
<path d="M37 67C43.113 67 48.9925 65.1766 54.0029 61.7269C54.5359 61.3599 54.6705 60.6302 54.3034 60.0971C53.9365 59.564 53.2067 59.4293 52.6737 59.7965C48.0561 62.9758 42.6362 64.6562 37 64.6562C21.7503 64.6562 9.34375 52.2497 9.34375 37C9.34375 21.7503 21.7503 9.34375 37 9.34375C52.2497 9.34375 64.6562 21.7503 64.6562 37C64.6562 42.636 62.9758 48.0559 59.7965 52.6737C59.4295 53.2068 59.5641 53.9364 60.0971 54.3036C60.6303 54.6705 61.3598 54.5358 61.7268 54.0029C65.1766 48.9923 67 43.1129 67 37C67 20.4084 53.5956 7 37 7C20.4085 7 7 20.4043 7 37C7 53.5916 20.4044 67 37 67Z" fill="#EB5757"/>
<path fill-rule="evenodd" clip-rule="evenodd" d="M12.5586 21.1706C12.8671 20.7125 13.4886 20.5912 13.9466 20.8997L61.2878 52.7825C61.7458 53.091 61.8671 53.7125 61.5586 54.1706C61.2501 54.6286 60.6286 54.7499 60.1706 54.4414L12.8294 22.5586C12.3714 22.2501 12.2501 21.6286 12.5586 21.1706Z" fill="#EB5757"/>
<path d="M57.3906 58.5625C58.0378 58.5625 58.5625 58.0378 58.5625 57.3906C58.5625 56.7434 58.0378 56.2188 57.3906 56.2188C56.7434 56.2188 56.2188 56.7434 56.2188 57.3906C56.2188 58.0378 56.7434 58.5625 57.3906 58.5625Z" fill="#EB5757"/>
</svg>
