<svg width="74" height="74" viewBox="0 0 74 74" fill="none" xmlns="http://www.w3.org/2000/svg">
<path d="M35 27.5L35.2 27.7L35 27.5Z" fill="#98A782"/>
<path d="M51.4001 37.3C50.7001 35.2 49.7001 33.3 48.6001 31.5C48.5001 31.3 48.3001 31.2 48.1001 31.1C47.9001 31 47.7001 31 47.5001 31.1C47.3001 31.2 47.2001 31.3 47.0001 31.5C46.9001 31.7 46.9001 31.9 46.9001 32.1C47.0001 33.1 46.9001 34 46.6001 34.9C46.4001 35.5 46.0001 36.1 45.6001 36.5C45.9001 34.6 46.1001 31.9 45.1001 28.7C44.0001 25 41.5001 20.6 36.1001 16.2L35.9001 16.4L36.1001 16.2C35.9001 16.1 35.7001 16 35.5001 16C35.3001 16 35.1001 16.1 34.9001 16.2C34.7001 16.3 34.6001 16.5 34.6001 16.7C34.6001 16.9 34.6001 17.1 34.7001 17.3L34.9001 17.2L34.7001 17.3C34.7001 17.3 34.7001 17.3 34.7001 17.4C34.7001 17.4 34.8001 17.5 34.8001 17.6C34.9001 17.8 35.0001 18 35.1001 18.3C35.3001 18.9 35.6001 19.8 35.8001 20.7C36.1001 22.6 35.9001 24.8 34.1001 26.2C33.9001 26.3 32.4001 27.4 30.6001 29.3C29.0001 31.2 27.2001 33.8 26.4001 37.1C25.5001 36.3 24.8001 35.2 24.4001 34.1C24.3001 33.9 24.3001 33.8 24.1001 33.7C24.0001 33.6 23.8001 33.5 23.6001 33.5C23.4001 33.5 23.2001 33.5 23.1001 33.6C23.0001 33.7 22.9001 33.9 22.8001 34L23.1001 34.1L22.8001 34C22.7001 34.2 21.9001 36 21.4001 38.7C20.9001 41.4 20.8001 44.9 22.2001 48.4C23.9001 52.6 27.6001 55.8 33.0001 57.7L33.1001 57.5L33.0001 57.7C33.6001 57.9 34.3001 58.1 35.0001 58.3C35.0001 58.3 35.0001 58.3 35.1001 58.3C36.0001 58.5 36.9001 58.6 37.8001 58.6C39.9001 58.6 41.9001 58.2 43.8001 57.3C45.7001 56.4 47.3001 55.2 48.6001 53.6L48.4001 53.4L48.6001 53.6L48.7001 53.4C50.5001 51.2 51.7001 48.5 52.2001 45.7C52.6001 42.9 52.4001 40 51.4001 37.3ZM26.6001 39.6L26.8001 39.4L26.6001 39.6C26.7001 39.7 26.9001 39.7 27.0001 39.8C27.2001 39.8 27.3001 39.8 27.4001 39.7C27.5001 39.6 27.7001 39.5 27.8001 39.4C27.9001 39.3 27.9001 39.1 28.0001 39H27.7001H28.0001C28.4001 35.6 30.2001 32.9 31.9001 30.9C33.6001 28.9 35.2001 27.8 35.3001 27.8L35.0001 27.5L35.2001 27.7C38.0001 25.5 38.0001 22.2 37.5001 19.8C42.3001 24.5 43.8001 29 44.1001 32.4C44.4001 36 43.3001 38.3 43.3001 38.5C43.2001 38.7 43.2001 38.9 43.2001 39C43.2001 39.2 43.3001 39.4 43.5001 39.5C43.6001 39.6 43.8001 39.7 44.0001 39.8C44.2001 39.8 44.4001 39.8 44.5001 39.7C44.5001 39.7 45.4001 39.2 46.4001 38.3C47.2001 37.5 48.1001 36.4 48.6001 34.9C49.1001 35.8 49.5001 36.8 49.8001 37.8C50.6001 40.2 50.8001 42.8 50.4001 45.3C50.0001 47.8 48.9001 50.2 47.2001 52.2L47.1001 52.3C46.8001 52.7 46.4001 53.1 46.0001 53.5C46.8001 51.5 47.3001 48.8 45.8001 45.8C45.4001 44.7 44.8001 43.7 44.0001 42.8L43.8001 43L44.0001 42.8C43.1001 41.7 42.2001 40.6 41.4001 39.4L41.2001 39L41.0001 39.3L41.2001 39.2L41.0001 39.3L41.2001 39.1C40.8001 38.5 40.5001 37.7 40.5001 37C40.5001 36.3 40.6001 35.7 40.9001 35.1L40.8001 35L40.9001 35.1L40.7001 35L41.0001 35.1C41.1001 34.9 41.1001 34.7 41.1001 34.5C41.1001 34.3 41.0001 34.1 40.8001 34C40.7001 33.9 40.5001 33.8 40.3001 33.8C40.1001 33.8 39.9001 33.8 39.7001 33.9C37.8001 35.2 36.2001 37 35.3001 39.2C34.5001 40.9 34.2001 42.8 34.2001 44.7C34.1001 44.3 34.0001 43.9 34.0001 43.5H33.7001H34.0001C34.0001 43.3 33.9001 43.1 33.8001 43C33.7001 42.9 33.5001 42.7 33.3001 42.7C33.1001 42.7 32.9001 42.7 32.7001 42.7C32.5001 42.8 32.4001 42.9 32.3001 43C32.3001 43.1 31.1001 44.8 30.6001 47.4C30.1001 49.7 30.2001 52.7 32.2001 55.5C28.0001 53.7 25.2001 51.1 23.9001 47.7H23.8001H23.9001C22.1001 43.6 23.0001 39.1 23.7001 36.7C24.5001 37.8 25.4001 38.8 26.6001 39.6ZM37.7001 57.1V56.8C37.0001 56.8 36.3001 56.7 35.5001 56.6C33.1001 54.5 32.3001 52.3 32.1001 50.3C32.0001 48.6 32.3001 47.1 32.8001 46C33.0001 46.4 33.2001 46.7 33.5001 47C34.0001 47.5 34.5001 47.8 35.1001 48.1L35.2001 47.8L35.1001 48.1C35.2001 48.1 35.4001 48.2 35.6001 48.1C35.8001 48.1 35.9001 48 36.0001 47.9C36.1001 47.8 36.2001 47.7 36.2001 47.5C36.2001 47.4 36.3001 47.2 36.2001 47C35.2001 42 37.0001 38.8 38.6001 37C38.6001 38.1 39.0001 39.1 39.6001 40L39.8001 40.4L40.0001 40.2L39.8001 40.4C40.6001 41.6 41.5001 42.8 42.5001 43.9C43.1001 44.6 43.6001 45.5 44.0001 46.4V46.5L44.2001 46.4L44.0001 46.5C45.2001 48.9 44.9001 51.1 44.2001 52.8C43.5001 54.4 42.6001 55.5 42.2001 55.8C40.7001 56.4 39.1001 56.7 37.5001 56.7L37.7001 57.1Z" fill="#98A782"/>
<path d="M37 67C43.113 67 48.9925 65.1766 54.0029 61.7269C54.5359 61.3599 54.6705 60.6302 54.3034 60.0971C53.9365 59.564 53.2067 59.4293 52.6737 59.7965C48.0561 62.9758 42.6362 64.6562 37 64.6562C21.7503 64.6562 9.34375 52.2497 9.34375 37C9.34375 21.7503 21.7503 9.34375 37 9.34375C52.2497 9.34375 64.6562 21.7503 64.6562 37C64.6562 42.636 62.9758 48.0559 59.7965 52.6737C59.4295 53.2068 59.5641 53.9364 60.0971 54.3036C60.6303 54.6705 61.3598 54.5358 61.7268 54.0029C65.1766 48.9923 67 43.1129 67 37C67 20.4084 53.5956 7 37 7C20.4085 7 7 20.4043 7 37C7 53.5916 20.4044 67 37 67Z" fill="#EB5757"/>
<path fill-rule="evenodd" clip-rule="evenodd" d="M12.5586 21.1706C12.8671 20.7125 13.4886 20.5912 13.9466 20.8997L61.2878 52.7825C61.7458 53.091 61.8671 53.7125 61.5586 54.1706C61.2501 54.6286 60.6286 54.7499 60.1706 54.4414L12.8294 22.5586C12.3714 22.2501 12.2501 21.6286 12.5586 21.1706Z" fill="#EB5757"/>
<path d="M57.3906 58.5625C58.0378 58.5625 58.5625 58.0378 58.5625 57.3906C58.5625 56.7434 58.0378 56.2188 57.3906 56.2188C56.7434 56.2188 56.2188 56.7434 56.2188 57.3906C56.2188 58.0378 56.7434 58.5625 57.3906 58.5625Z" fill="#EB5757"/>
</svg>
