<svg width="74" height="74" viewBox="0 0 74 74" fill="none" xmlns="http://www.w3.org/2000/svg">
<path d="M31.4766 52.0002C30.9243 52.0002 30.4766 51.5525 30.4766 51.0002V26.8184C30.4766 26.2661 30.9243 25.8184 31.4766 25.8184H38.9268C40.7848 25.8184 42.3359 26.1763 43.5803 26.8922C44.8331 27.5996 45.7749 28.5627 46.4055 29.7814C47.0447 31.0002 47.3643 32.3723 47.3643 33.8979C47.3643 35.4235 47.049 36.7999 46.4183 38.0272C45.7876 39.2459 44.8501 40.2132 43.6058 40.9292C42.3615 41.6365 40.8146 41.9902 38.9652 41.9902H33.3175C32.7652 41.9902 32.3175 41.5425 32.3175 40.9902V40.8425C32.3175 40.2902 32.7652 39.8425 33.3175 39.8425H38.9013C40.2734 39.8425 41.4112 39.5868 42.3146 39.0755C43.218 38.5556 43.8913 37.8482 44.3345 36.9533C44.7862 36.0584 45.0121 35.04 45.0121 33.8979C45.0121 32.7559 44.7862 31.7374 44.3345 30.8425C43.8913 29.9476 43.2138 29.2445 42.3018 28.7331C41.3984 28.2218 40.2521 27.9661 38.8629 27.9661H33.8672C33.3149 27.9661 32.8672 28.4138 32.8672 28.9661V51.0002C32.8672 51.5525 32.4195 52.0002 31.8672 52.0002H31.4766Z" fill="#98A782"/>
<path d="M37 67C43.113 67 48.9925 65.1766 54.0029 61.7269C54.5359 61.3599 54.6705 60.6302 54.3034 60.0971C53.9365 59.564 53.2067 59.4293 52.6737 59.7965C48.0561 62.9758 42.6362 64.6562 37 64.6562C21.7503 64.6562 9.34375 52.2497 9.34375 37C9.34375 21.7503 21.7503 9.34375 37 9.34375C52.2497 9.34375 64.6562 21.7503 64.6562 37C64.6562 42.636 62.9758 48.0559 59.7965 52.6737C59.4295 53.2068 59.5641 53.9364 60.0971 54.3036C60.6303 54.6705 61.3598 54.5358 61.7268 54.0029C65.1766 48.9923 67 43.1129 67 37C67 20.4084 53.5956 7 37 7C20.4085 7 7 20.4043 7 37C7 53.5916 20.4044 67 37 67Z" fill="#EB5757"/>
<path fill-rule="evenodd" clip-rule="evenodd" d="M12.5586 21.1706C12.8671 20.7125 13.4886 20.5912 13.9466 20.8997L61.2878 52.7825C61.7458 53.091 61.8671 53.7125 61.5586 54.1706C61.2501 54.6286 60.6286 54.7499 60.1706 54.4414L12.8294 22.5586C12.3714 22.2501 12.2501 21.6286 12.5586 21.1706Z" fill="#EB5757"/>
<path d="M57.3906 58.5625C58.0378 58.5625 58.5625 58.0378 58.5625 57.3906C58.5625 56.7434 58.0378 56.2188 57.3906 56.2188C56.7434 56.2188 56.2188 56.7434 56.2188 57.3906C56.2188 58.0378 56.7434 58.5625 57.3906 58.5625Z" fill="#EB5757"/>
</svg>
