<svg width="74" height="74" viewBox="0 0 74 74" fill="none" xmlns="http://www.w3.org/2000/svg">
<path d="M55.6 23.9004L43.9 22.4004C43.5 22.4004 43.1 22.7004 43.1 23.1004L43.6 23.2004L43 23.1004C43 23.3004 43 23.5004 43.2 23.7004C43.3 23.9004 43.5 24.0004 43.7 24.0004L55.4 25.5004C55.8 25.5004 56.2 25.2004 56.2 24.8004H56H56.2H55.7H56.2C56.2 24.6004 56.2 24.4004 56 24.2004C56.1 24.0004 55.9 23.9004 55.6 23.9004Z" fill="#98A782"/>
<path d="M29.1984 36.3998C29.6984 36.3998 29.9984 35.9998 29.9984 35.5998C29.9984 35.1998 29.5984 34.7998 29.1984 34.7998C28.7984 34.7998 28.3984 35.1998 28.3984 35.5998C28.3984 35.9998 28.7984 36.3998 29.1984 36.3998Z" fill="#98A782"/>
<path d="M29.1984 49.6002C29.5984 49.6002 29.9984 49.2002 29.9984 48.8002V38.5002C29.9984 38.0002 29.5984 37.7002 29.1984 37.7002C28.7984 37.7002 28.3984 38.0002 28.3984 38.5002V48.7002C28.3984 49.2002 28.7984 49.6002 29.1984 49.6002Z" fill="#98A782"/>
<path d="M43 20.4L43.5 20.3L43 20.4C43.1 20.8 43.4 21.1 43.8 21.1L55.5 19.6C55.9 19.5 56.3 19.2 56.2 18.7L55.7 18.8L56.2 18.7C56.3 18.3 56 18 55.5 18L55.6 18.5L55.4 18L43.7 19.5C43.3 19.5 43 19.9 43 20.4L43.4 20.3L43 20.4Z" fill="#98A782"/>
<path d="M44 32.5999C44.4 32.1999 44.7 31.5999 44.7 30.9999C44.7 29.9999 44.1 29.1999 43.2 28.8999C42.9 25.9999 40.8 23.5999 38.1 22.8999V18.8999C38.1 18.3999 37.7 18.0999 37.3 18.0999H34.4C32.3 17.9999 30.6 19.6999 30.6 21.6999V22.7999C29.4 23.0999 28.3 23.7999 27.4 24.6999C26.3 25.7999 25.7 27.2999 25.5 28.7999C25.2 28.8999 24.9 29.0999 24.7 29.2999C24.2 29.7999 24 30.3999 24 30.9999C24 31.8999 24.6 32.7999 25.5 33.0999V51.1999C25.2 51.2999 24.9 51.4999 24.7 51.6999C24.3 52.0999 24 52.6999 24 53.2999C24 54.5999 25 55.5999 26.3 55.5999H26.8H42.4C43 55.5999 43.6 55.3999 44 54.8999C44.4 54.4999 44.7 53.8999 44.7 53.2999C44.7 52.3999 44.1 51.4999 43.2 51.1999V33.0999C43.5 32.9999 43.7 32.7999 44 32.5999ZM42.8 53.7999C42.7 53.8999 42.5 53.9999 42.3 53.9999H26.3C25.9 53.9999 25.7 53.6999 25.7 53.3999C25.7 53.1999 25.8 53.0999 25.9 52.8999C26 52.6999 26.2 52.6999 26.4 52.6999H42.5C42.9 52.6999 43.1 52.9999 43.1 53.2999C43 53.4999 43 53.6999 42.8 53.7999ZM25.8 30.4999C25.9 30.3999 26.1 30.2999 26.3 30.2999H42.4C42.8 30.2999 43 30.5999 43 30.8999C43 31.0999 42.9 31.1999 42.8 31.3999C42.7 31.4999 42.5 31.5999 42.3 31.5999H26.3C25.9 31.5999 25.7 31.2999 25.7 30.9999C25.6 30.7999 25.7 30.5999 25.8 30.4999ZM34.3 19.5999H36.4V22.5999H32.2V21.6999C32.2 20.5999 33.2 19.5999 34.3 19.5999ZM27.2 28.6999C27.4 27.5999 27.9 26.5999 28.6 25.7999C29.4 24.9999 30.4 24.3999 31.5 24.2999C31.7 24.2999 31.9 24.2999 32.1 24.2999H36.5C36.7 24.2999 36.9 24.2999 37.1 24.2999C39.3 24.5999 41.1 26.3999 41.4 28.6999H27.2ZM35.9 42.1999C35.9 38.9999 38.4 36.4999 41.6 36.3999V47.8999C38.4 47.8999 35.9 45.2999 35.9 42.1999ZM41.6 33.2999V34.7999C37.6 34.7999 34.3 38.0999 34.3 42.1999C34.3 46.2999 37.6 49.4999 41.6 49.5999V51.0999H27.1V33.2999H41.6ZM42.8 28.8999H42.7H42.8Z" fill="#98A782"/>
<path d="M37 67C43.113 67 48.9925 65.1766 54.0029 61.7269C54.5359 61.3599 54.6705 60.6302 54.3034 60.0971C53.9365 59.564 53.2067 59.4293 52.6737 59.7965C48.0561 62.9758 42.6362 64.6562 37 64.6562C21.7503 64.6562 9.34375 52.2497 9.34375 37C9.34375 21.7503 21.7503 9.34375 37 9.34375C52.2497 9.34375 64.6562 21.7503 64.6562 37C64.6562 42.636 62.9758 48.0559 59.7965 52.6737C59.4295 53.2068 59.5641 53.9364 60.0971 54.3036C60.6303 54.6705 61.3598 54.5358 61.7268 54.0029C65.1766 48.9923 67 43.1129 67 37C67 20.4084 53.5956 7 37 7C20.4085 7 7 20.4043 7 37C7 53.5916 20.4044 67 37 67Z" fill="#EB5757"/>
<path fill-rule="evenodd" clip-rule="evenodd" d="M12.5586 21.1706C12.8671 20.7125 13.4886 20.5912 13.9466 20.8997L61.2878 52.7825C61.7458 53.091 61.8671 53.7125 61.5586 54.1706C61.2501 54.6286 60.6286 54.7499 60.1706 54.4414L12.8294 22.5586C12.3714 22.2501 12.2501 21.6286 12.5586 21.1706Z" fill="#EB5757"/>
<path d="M57.3906 58.5625C58.0378 58.5625 58.5625 58.0378 58.5625 57.3906C58.5625 56.7434 58.0378 56.2188 57.3906 56.2188C56.7434 56.2188 56.2188 56.7434 56.2188 57.3906C56.2188 58.0378 56.7434 58.5625 57.3906 58.5625Z" fill="#EB5757"/>
</svg>
