<svg width="74" height="74" viewBox="0 0 74 74" fill="none" xmlns="http://www.w3.org/2000/svg">
<path d="M52.3997 35.2C52.2997 34.8 51.9997 34.5 51.4997 34.5L41.3997 35.9L41.1997 35.5C41.0997 35.2 40.8997 34.9 40.6997 34.6V34.5H40.5997L40.4997 34.3L46.6997 26.4C46.7997 26.2 46.8997 26 46.8997 25.8C46.8997 25.6 46.7997 25.4 46.5997 25.2C44.1997 23.3 41.3997 22.2 38.2997 22C37.8997 22 37.4997 22 36.9997 22C33.5997 22 30.4997 23.1 27.6997 25.3C27.6997 25.5 27.4997 25.7 27.4997 25.9C27.4997 26.1 27.4997 26.3 27.6997 26.5L33.8997 34.4L33.6997 34.6C33.4997 34.9 33.2997 35.3 33.0997 35.6L32.9997 35.9L22.9997 34.5H22.8997C22.4997 34.5 22.0997 34.8 22.0997 35.2C21.6997 38.7 22.2997 42.1 23.9997 45C25.6997 48 28.2997 50.2 31.5997 51.5C31.6997 51.5 31.7997 51.6 31.8997 51.6C32.1997 51.6 32.4997 51.4 32.6997 51.1L36.3997 41.8H36.6997C37.0997 41.9 37.4997 41.9 37.7997 41.8H38.0997L41.7997 51.2C41.8997 51.4 41.9997 51.5 42.0997 51.6C42.1997 51.7 42.3997 51.7 42.4997 51.7C42.6997 51.7 42.8997 51.7 43.0997 51.6C46.2997 50.3 48.8997 48 50.5997 45C52.2997 42 52.8997 38.5 52.3997 35.2ZM34.8997 41.1L31.4997 49.7L31.0997 49.5C28.6997 48.3 26.7997 46.5 25.4997 44.2C24.1997 41.9 23.5997 39.3 23.6997 36.6V36.2L32.7997 37.5V37.8C32.8997 39 33.5997 40.1 34.4997 40.9L34.8997 41.1ZM29.7997 25.9C31.7997 24.5 34.3997 23.7 37.1997 23.7C39.8997 23.7 42.4997 24.5 44.6997 25.9L45.0997 26.1L39.3997 33.4L39.0997 33.3C38.4997 33.1 37.8997 32.9 37.2997 32.9C36.6997 32.9 36.0997 33 35.4997 33.3L35.1997 33.4L29.4997 26.1L29.7997 25.9ZM37.2997 34.5C38.7997 34.5 40.0997 35.8 40.0997 37.3C40.0997 38.9 38.7997 40.1 37.2997 40.1C35.7997 40.1 34.4997 38.8 34.4997 37.3C34.4997 35.8 35.6997 34.5 37.2997 34.5ZM39.8997 40.9C40.8997 40.2 41.5997 39 41.6997 37.8V37.5L50.8997 36.2V36.6C51.0997 39.4 50.3997 42.1 48.8997 44.6C47.4997 46.8 45.5997 48.6 43.4997 49.5L43.0997 49.7L39.6997 41.1L39.8997 40.9Z" fill="#98A782"/>
<path d="M37 67C43.113 67 48.9925 65.1766 54.0029 61.7269C54.5359 61.3599 54.6705 60.6302 54.3034 60.0971C53.9365 59.564 53.2067 59.4293 52.6737 59.7965C48.0561 62.9758 42.6362 64.6562 37 64.6562C21.7503 64.6562 9.34375 52.2497 9.34375 37C9.34375 21.7503 21.7503 9.34375 37 9.34375C52.2497 9.34375 64.6562 21.7503 64.6562 37C64.6562 42.636 62.9758 48.0559 59.7965 52.6737C59.4295 53.2068 59.5641 53.9364 60.0971 54.3036C60.6303 54.6705 61.3598 54.5358 61.7268 54.0029C65.1766 48.9923 67 43.1129 67 37C67 20.4084 53.5956 7 37 7C20.4085 7 7 20.4043 7 37C7 53.5916 20.4044 67 37 67Z" fill="#EB5757"/>
<path fill-rule="evenodd" clip-rule="evenodd" d="M12.5586 21.1706C12.8671 20.7125 13.4886 20.5912 13.9466 20.8997L61.2878 52.7825C61.7458 53.091 61.8671 53.7125 61.5586 54.1706C61.2501 54.6286 60.6286 54.7499 60.1706 54.4414L12.8294 22.5586C12.3714 22.2501 12.2501 21.6286 12.5586 21.1706Z" fill="#EB5757"/>
<path d="M57.3906 58.5625C58.0378 58.5625 58.5625 58.0378 58.5625 57.3906C58.5625 56.7434 58.0378 56.2188 57.3906 56.2188C56.7434 56.2188 56.2188 56.7434 56.2188 57.3906C56.2188 58.0378 56.7434 58.5625 57.3906 58.5625Z" fill="#EB5757"/>
</svg>
