<svg width="74" height="74" viewBox="0 0 74 74" fill="none" xmlns="http://www.w3.org/2000/svg">
<path d="M40.292 22.2521C40.459 21.8749 40.6108 21.528 40.7627 21.181C40.7692 21.1681 40.775 21.1537 40.781 21.1389C40.8031 21.0846 40.8278 21.0237 40.8993 21C42.9796 21.528 43.8603 23.5947 42.7519 25.42C42.5393 25.7669 42.3267 26.1139 42.1293 26.4608C41.5675 27.3961 41.8711 28.2861 42.8733 28.7085C42.9506 28.7392 43.0238 28.7738 43.1012 28.8103C43.1759 28.8456 43.2545 28.8827 43.344 28.9197C43.2601 29.1214 43.1761 29.3166 43.0936 29.5083C42.9971 29.7326 42.9026 29.9522 42.8126 30.1718C40.6412 29.5835 39.8061 27.6073 40.9145 25.7217C41.0208 25.5407 41.1271 25.3634 41.2334 25.1862C41.3397 25.0089 41.446 24.8316 41.5523 24.6506C42.0837 23.7304 41.7952 22.8856 40.8234 22.4633C40.6963 22.4288 40.578 22.3769 40.435 22.3142C40.3901 22.2945 40.3427 22.2737 40.292 22.2521Z" fill="#98A782"/>
<path fill-rule="evenodd" clip-rule="evenodd" d="M29.2178 23.1255C29.4566 22.6882 30.0823 22.6877 30.3217 23.1248C31.9937 26.1773 33.6484 29.2072 35.3129 32.2553L35.32 32.2683C35.7884 33.1261 36.2577 33.9854 36.7283 34.8469C36.9585 35.2684 36.6548 35.7834 36.176 35.7834H31.143C30.7951 35.7834 30.5131 36.0666 30.5131 36.4158V38.7803C30.5131 38.986 30.6712 39.0809 30.8168 38.9362C32.2138 37.5937 34.3244 37.5484 35.7518 38.8759C36.0428 39.1469 36.3121 39.4288 36.5824 39.7118C36.7633 39.9013 36.9448 40.0913 37.1336 40.2788C37.3694 40.5131 37.7005 40.4418 37.8619 40.1508C38.1142 39.696 38.3643 39.2446 38.6065 38.7854C39.0772 37.9255 39.548 37.0618 40.0187 36.1981C40.4894 35.3345 40.9601 34.471 41.4308 33.6112C42.3115 31.997 43.9059 31.2579 45.561 31.7104C46.5784 31.982 47.3376 32.6005 47.8387 33.5207C48.7954 35.2631 49.7482 37.0093 50.7011 38.7555C51.6539 40.5015 52.6067 42.2475 53.5632 43.9898C53.9049 44.6158 54.2466 45.2381 54.5882 45.8603C54.9299 46.4826 55.2715 47.1049 55.6132 47.7309C56.3268 49.0584 56.0383 50.5217 54.8691 51.4117C54.3073 51.8491 53.6544 52 52.9559 52H25.1074C23.8775 52 22.9057 51.5474 22.3438 50.4311C21.8124 49.3903 21.8883 48.3645 22.6323 47.4594C23.2946 46.6656 24.0224 45.937 24.7502 45.2084C25.0736 44.8846 25.3972 44.5606 25.7148 44.2311C26.2463 43.6805 26.7778 43.1336 27.3092 42.5868C27.8407 42.04 28.3721 41.4932 28.9036 40.9426C29.0099 40.837 29.101 40.7314 29.101 40.5503V35.9946C29.101 35.8826 28.9802 35.8136 28.8687 35.8136H23.3847C22.9078 35.8136 22.6039 35.3021 22.8308 34.8809C24.9552 30.939 27.0713 27.0556 29.2178 23.1255ZM44.4471 50.1723C44.3813 50.3597 44.5127 50.5669 44.7107 50.5669C45.4916 50.5669 46.2725 50.5644 47.0534 50.562C49.0056 50.5558 50.9581 50.5497 52.9103 50.582C54.2466 50.6122 54.9147 49.3903 54.2921 48.289C52.5977 45.2454 50.9353 42.1954 49.2716 39.1432C48.371 37.4908 47.4698 35.8375 46.5632 34.1844C46.4113 33.9129 46.2291 33.6564 45.971 33.4452C44.9384 32.6155 43.4503 32.872 42.7822 34.0788C41.9778 35.5191 41.1888 36.9645 40.4002 38.4091C39.8344 39.4457 39.2685 40.4823 38.6976 41.5158C38.5645 41.7509 38.6619 41.8572 38.8074 42.0159L38.8191 42.0287C39.2138 42.436 39.6077 42.8442 40.0015 43.2524C41.1831 44.4772 42.3646 45.7019 43.5718 46.9012C44.5354 47.8722 44.8876 48.9176 44.4471 50.1723ZM30.4969 50.0643C30.4703 50.3408 30.7071 50.5669 30.9838 50.5669H41.613C42.1748 50.5669 42.6608 50.4311 42.9948 49.9333C43.4048 49.3148 43.2985 48.6662 42.6911 48.0326C41.4005 46.7052 40.11 45.374 38.8194 44.0429C37.5286 42.7115 36.2378 41.3801 34.947 40.0525C33.9904 39.072 32.6997 39.0569 31.7279 40.0224C31.5855 40.1638 31.4459 40.3107 31.3055 40.4585C31.1165 40.6574 30.9261 40.8577 30.7257 41.0482C30.5435 41.2141 30.4979 41.4102 30.4979 41.6516V50.054L30.4969 50.0643ZM30.3216 26.0793C30.0821 25.6428 29.4571 25.6434 29.2181 26.0802L28.2696 27.8137C27.2433 29.6892 26.2272 31.5461 25.2077 33.4146C24.9779 33.8359 25.2816 34.3503 25.7601 34.3503H33.778C34.2565 34.3503 34.5603 33.8358 34.3306 33.4145C32.9986 30.9712 31.6724 28.5411 30.3216 26.0793ZM29.0596 43.1403C29.065 42.9903 28.8883 42.9489 28.7821 43.0545C27.1573 44.7289 25.5326 46.4034 23.9079 48.0628C23.4523 48.5304 23.2549 49.0584 23.5131 49.6769C23.7864 50.3255 24.3178 50.5669 25.0011 50.5669C26.2159 50.5518 27.4307 50.5518 28.6454 50.582C28.9795 50.582 29.0706 50.5066 29.0706 50.1747C29.063 49.0207 29.063 47.8667 29.063 46.7126C29.063 45.5586 29.063 44.4046 29.0554 43.2506C29.0554 43.2266 29.0566 43.2026 29.0578 43.1784C29.0585 43.1658 29.0591 43.153 29.0596 43.1403Z" fill="#98A782"/>
<path d="M46.3692 21.3302C46.2448 21.6251 46.1161 21.9304 45.971 22.252C46.138 22.3275 46.2595 22.3878 46.381 22.4481C47.4743 22.9158 47.7476 23.7304 47.1554 24.7562C46.8821 25.1936 46.6087 25.6311 46.3658 26.0837C45.5003 27.7581 46.5632 29.8399 48.4461 30.1718C48.4537 30.1567 48.4651 30.1416 48.4764 30.1265C48.4878 30.1114 48.4992 30.0963 48.5068 30.0812C48.5439 29.9953 48.5835 29.9094 48.6235 29.8225C48.6819 29.6957 48.7413 29.5668 48.7953 29.4326C48.9171 29.1376 48.974 29.0171 48.9374 28.9436C48.9009 28.8705 48.7719 28.844 48.522 28.7387C47.5198 28.3012 47.2313 27.4564 47.7628 26.5211C47.8782 26.3121 48.0026 26.1091 48.1267 25.9067C48.2803 25.6564 48.4332 25.407 48.5676 25.1484C49.4786 23.4739 48.4309 21.362 46.5025 21.0151C46.4582 21.1189 46.414 21.2239 46.3692 21.3302Z" fill="#98A782"/>
<path d="M37 67C43.113 67 48.9925 65.1766 54.0029 61.7269C54.5359 61.3599 54.6705 60.6302 54.3034 60.0971C53.9365 59.564 53.2067 59.4293 52.6737 59.7965C48.0561 62.9758 42.6362 64.6562 37 64.6562C21.7503 64.6562 9.34375 52.2497 9.34375 37C9.34375 21.7503 21.7503 9.34375 37 9.34375C52.2497 9.34375 64.6562 21.7503 64.6562 37C64.6562 42.636 62.9758 48.0559 59.7965 52.6737C59.4295 53.2068 59.5641 53.9364 60.0971 54.3036C60.6303 54.6705 61.3598 54.5358 61.7268 54.0029C65.1766 48.9923 67 43.1129 67 37C67 20.4084 53.5956 7 37 7C20.4085 7 7 20.4043 7 37C7 53.5916 20.4044 67 37 67Z" fill="#EB5757"/>
<path fill-rule="evenodd" clip-rule="evenodd" d="M12.5586 21.1706C12.8671 20.7125 13.4886 20.5912 13.9466 20.8997L61.2878 52.7825C61.7458 53.091 61.8671 53.7125 61.5586 54.1706C61.2501 54.6286 60.6286 54.7499 60.1706 54.4414L12.8294 22.5586C12.3714 22.2501 12.2501 21.6286 12.5586 21.1706Z" fill="#EB5757"/>
<path d="M57.3906 58.5625C58.0378 58.5625 58.5625 58.0378 58.5625 57.3906C58.5625 56.7434 58.0378 56.2188 57.3906 56.2188C56.7434 56.2188 56.2188 56.7434 56.2188 57.3906C56.2188 58.0378 56.7434 58.5625 57.3906 58.5625Z" fill="#EB5757"/>
</svg>
