<svg width="74" height="74" viewBox="0 0 74 74" fill="none" xmlns="http://www.w3.org/2000/svg">
<path d="M44.2344 45.4731C44.2344 46.0771 44.2344 46.6649 44.2344 47.269C44.2344 47.4486 44.2344 47.6282 44.218 47.7914C44.1854 48.2486 43.8752 48.5425 43.467 48.5425C43.0425 48.5425 42.716 48.2159 42.716 47.7425C42.6997 46.5996 42.6997 45.4567 42.716 44.3139C42.716 43.9384 42.618 43.6771 42.3568 43.4323C40.9527 42.0445 39.565 40.6404 38.1609 39.2527C38.0629 39.1547 37.965 39.0731 37.867 38.9751C37.7038 39.0894 37.7691 39.2363 37.7691 39.3669C37.7691 41.4078 37.7691 43.4486 37.7691 45.4894C37.7691 45.7343 37.8507 45.9302 38.0303 46.0935C38.8466 46.9098 39.6629 47.7261 40.4793 48.5425C40.8874 48.9506 40.9201 49.4078 40.5935 49.7343C40.267 50.0608 39.8099 50.0282 39.4017 49.62C38.8956 49.1139 38.4058 48.5914 37.8997 48.069C37.7038 48.2323 37.7691 48.3955 37.7691 48.5261C37.7691 49.7343 37.7691 50.9425 37.7527 52.1506C37.7527 52.5914 37.5242 52.8853 37.1487 52.9669C36.8058 53.0323 36.5446 52.9016 36.3487 52.6078C36.2344 52.4282 36.2344 52.2159 36.2344 52.02C36.2344 50.8608 36.2344 49.7016 36.2344 48.5588C36.2344 48.4118 36.2833 48.2649 36.1364 48.069C35.7772 48.4282 35.418 48.771 35.0752 49.1302C34.8956 49.3098 34.716 49.5057 34.5201 49.669C34.1772 49.9955 33.7201 50.0118 33.4262 49.718C33.116 49.4078 33.116 48.9506 33.4589 48.5914C34.2589 47.7914 35.0425 46.9751 35.8589 46.2078C36.1364 45.9465 36.2507 45.669 36.2507 45.2771C36.2344 43.318 36.2344 41.3588 36.2344 39.3996C36.2344 39.2527 36.267 39.1057 36.1854 38.9751C36.0221 39.0078 35.9405 39.122 35.8589 39.22C34.4221 40.6567 33.0017 42.0935 31.565 43.5139C31.3691 43.7098 31.3038 43.8894 31.3038 44.1506C31.3201 45.3425 31.3201 46.5506 31.3038 47.7425C31.3038 48.1996 30.9772 48.5098 30.5691 48.5098C30.1446 48.5261 29.8344 48.2323 29.8017 47.7751C29.7854 47.6608 29.8017 47.5629 29.8017 47.4486C29.8017 46.9098 29.8017 46.3547 29.8017 45.8159C29.8017 45.6853 29.8507 45.5384 29.7527 45.4241C29.5895 45.4404 29.5242 45.571 29.4425 45.669C28.6425 46.469 27.8425 47.269 27.0425 48.069C26.9609 48.1506 26.8793 48.2486 26.7813 48.3302C26.4221 48.6241 25.9976 48.6078 25.7201 48.3139C25.4262 48.02 25.4262 47.5792 25.7364 47.2527C26.2589 46.7139 26.7813 46.1914 27.3201 45.669C27.7609 45.2282 28.218 44.8037 28.6589 44.3792C28.4793 44.2159 28.3323 44.2486 28.2017 44.2486C27.614 44.2486 27.0262 44.2486 26.4548 44.2486C25.8507 44.2486 25.5078 43.9547 25.5078 43.4812C25.5078 43.0241 25.867 42.7465 26.4384 42.7302C27.5813 42.7302 28.7242 42.7302 29.867 42.7302C30.1282 42.7302 30.3242 42.6649 30.5038 42.469C31.9242 41.0323 33.3609 39.5955 34.7976 38.1588C34.8956 38.0608 35.0099 37.9955 35.0425 37.8486C34.9282 37.7343 34.7813 37.7833 34.6507 37.7833C32.6262 37.7833 30.6017 37.7833 28.5772 37.7833C28.316 37.7833 28.1201 37.8649 27.9405 38.0445C27.1731 38.8282 26.3895 39.6118 25.6058 40.3955C25.5242 40.4771 25.4425 40.5751 25.3446 40.6404C25.018 40.9016 24.5772 40.869 24.316 40.5914C24.0548 40.2976 24.0221 39.8567 24.316 39.5465C24.7568 39.0731 25.214 38.6323 25.6711 38.1751C25.7691 38.0771 25.916 37.9955 25.9323 37.8323C25.7854 37.7343 25.6384 37.7833 25.4915 37.7833C24.2997 37.7833 23.0915 37.7833 21.8997 37.7833C21.2303 37.7833 20.8548 37.1792 21.165 36.6404C21.3446 36.3302 21.6384 36.2486 21.965 36.2649C23.1405 36.2649 24.3323 36.2649 25.5078 36.2649C25.6384 36.2649 25.7854 36.2976 25.9323 36.1996C25.7364 35.8731 25.4262 35.6445 25.1813 35.3833C24.9364 35.122 24.6915 34.8771 24.4303 34.6323C24.0384 34.2241 24.0058 33.7669 24.3323 33.4404C24.6589 33.1139 25.116 33.1629 25.5242 33.571C26.3405 34.3874 27.1568 35.2037 27.9731 36.02C28.1364 36.1833 28.2997 36.2812 28.5446 36.2812C30.618 36.2649 32.6752 36.2812 34.7487 36.2812C34.8466 36.2812 34.9609 36.3139 35.0589 36.2323C35.0589 36.069 34.9282 36.0037 34.8303 35.922C33.3772 34.4363 31.9405 33.0159 30.5201 31.5955C30.3078 31.3669 30.0793 31.2853 29.7691 31.2853C28.7078 31.3016 27.6466 31.2853 26.5854 31.2853C26.4711 31.2853 26.3731 31.2853 26.2589 31.2853C25.7854 31.269 25.4752 30.9588 25.4752 30.518C25.4752 30.0935 25.7854 29.7833 26.2752 29.7669C26.8793 29.7506 27.4997 29.7669 28.1038 29.7669C28.2507 29.7669 28.3976 29.7669 28.5446 29.7669C28.5609 29.5384 28.3976 29.4731 28.2997 29.3751C27.467 28.5261 26.6017 27.6935 25.7691 26.8445C25.3609 26.4363 25.3772 25.9465 25.7527 25.6363C26.0793 25.3751 26.4711 25.4078 26.8466 25.7833C27.6956 26.6323 28.5446 27.4812 29.3935 28.3139C29.4915 28.4118 29.5568 28.5425 29.7691 28.5588C29.7691 28.069 29.7691 27.5792 29.7691 27.1057C29.7691 26.8118 29.7527 26.5016 29.7854 26.2078C29.818 25.7506 30.1282 25.4731 30.5527 25.4731C30.9609 25.4894 31.2874 25.7996 31.2874 26.2404C31.3038 27.4159 31.3038 28.6078 31.2874 29.7833C31.2874 30.0771 31.3691 30.2894 31.5813 30.5016C33.018 31.922 34.4548 33.3588 35.8915 34.7955C35.9731 34.8771 36.0384 34.9914 36.1691 35.0078C36.2833 34.8772 36.2344 34.7465 36.2344 34.6159C36.2344 32.5914 36.2344 30.5669 36.2344 28.5425C36.2344 28.2812 36.1527 28.0853 35.9568 27.9057C35.1568 27.122 34.3568 26.3057 33.5568 25.5057C33.1323 25.0812 33.067 24.6241 33.3935 24.2976C33.7364 23.9547 34.1935 24.0037 34.6344 24.4608C35.1242 24.9506 35.5976 25.4567 36.0711 25.9629C36.267 25.7833 36.2017 25.62 36.2017 25.4894C36.2017 24.2812 36.2017 23.0731 36.218 21.8649C36.218 21.5057 36.3813 21.2445 36.7078 21.0976C37.0017 20.9669 37.2629 21.0649 37.4915 21.2608C37.7038 21.4567 37.7364 21.7016 37.7364 21.9792C37.7364 23.1547 37.7364 24.3139 37.7364 25.4894C37.7364 25.6363 37.7038 25.7833 37.818 25.9792C38.3078 25.4894 38.7813 25.0323 39.2548 24.5588C39.7772 24.0527 40.2017 23.971 40.5609 24.3139C40.9364 24.6731 40.8548 25.1139 40.3323 25.6527C39.5487 26.4363 38.7813 27.22 37.9976 27.9874C37.867 28.118 37.7527 28.2649 37.7527 28.4771C37.7527 30.5996 37.7527 32.722 37.7527 34.8445C37.7527 34.9261 37.7364 35.0078 37.818 35.0731C37.965 35.0567 38.0303 34.9261 38.1282 34.8282C39.565 33.3914 40.9854 31.9547 42.4384 30.5343C42.6344 30.3384 42.6997 30.1588 42.6997 29.8976C42.6833 28.722 42.6997 27.5302 42.6997 26.3547C42.6997 25.9629 42.8793 25.6853 43.2384 25.571C43.565 25.4567 43.8589 25.571 44.0711 25.8486C44.2017 26.0118 44.218 26.2241 44.218 26.4363C44.218 27.0404 44.218 27.6282 44.218 28.2323C44.218 28.3629 44.1854 28.5098 44.267 28.6241C44.414 28.6241 44.4793 28.5098 44.5609 28.4282C45.3446 27.6445 46.1446 26.8445 46.9282 26.0608C47.0262 25.9629 47.1405 25.8486 47.2548 25.7506C47.5813 25.4731 47.9895 25.4731 48.2833 25.7506C48.5936 26.0445 48.6099 26.4853 48.2997 26.8118C47.7936 27.3506 47.2711 27.8567 46.7487 28.3792C46.2915 28.8363 45.8344 29.2771 45.3935 29.718C45.5242 29.9139 45.6711 29.8486 45.7854 29.8486C46.4058 29.8486 47.0425 29.8486 47.6629 29.8486C48.2017 29.8649 48.5282 30.1751 48.5119 30.6323C48.4956 31.0731 48.1691 31.3669 47.6629 31.3669C46.4874 31.3669 45.2956 31.3669 44.1201 31.3669C43.9242 31.3669 43.7609 31.3833 43.5976 31.5465C42.0956 33.0486 40.5935 34.5506 39.1078 36.0527C39.0589 36.1016 39.0099 36.1833 38.9609 36.2323C39.0915 36.3629 39.2384 36.3139 39.3691 36.3139C41.3935 36.3139 43.418 36.3139 45.4425 36.3139C45.7038 36.3139 45.8997 36.2323 46.0956 36.0527C46.8956 35.2363 47.7119 34.4363 48.5119 33.62C48.9201 33.2118 49.3609 33.1629 49.7038 33.4894C50.0466 33.8159 49.9976 34.2894 49.5895 34.7139C49.0833 35.2037 48.5772 35.6935 48.0711 36.1833C48.2344 36.3792 48.3976 36.3139 48.5282 36.3139C49.7364 36.3139 50.9446 36.3139 52.1527 36.3139C52.4956 36.3139 52.7568 36.4445 52.9038 36.771C53.0344 37.0486 52.9854 37.2935 52.8221 37.5384C52.6425 37.7996 52.365 37.8486 52.0548 37.8486C50.8793 37.8486 49.6874 37.8486 48.5119 37.8486C48.3813 37.8486 48.2507 37.8649 48.1201 37.8649C48.1364 38.0772 48.2833 38.1425 48.3813 38.2404C48.8058 38.6812 49.2466 39.1057 49.6711 39.5465C49.9976 39.8894 50.014 40.3465 49.7364 40.6404C49.4425 40.9506 48.9527 40.9669 48.6099 40.6241C47.8425 39.8731 47.0589 39.122 46.3405 38.3384C45.9813 37.9465 45.6058 37.8159 45.0997 37.8323C43.2058 37.8649 41.3119 37.8486 39.4344 37.8486C39.2874 37.8486 39.1405 37.7996 38.9935 37.8976C38.9935 38.0608 39.1405 38.1261 39.2221 38.2241C40.6589 39.6608 42.0956 41.0812 43.516 42.5343C43.6956 42.7139 43.8915 42.8118 44.1527 42.8118C45.2466 42.7955 46.3242 42.8118 47.418 42.8118C47.5323 42.8118 47.6303 42.8118 47.7446 42.8118C48.218 42.8282 48.5446 43.1384 48.5446 43.5792C48.5446 44.0037 48.2344 44.3139 47.7446 44.3302C47.1405 44.3465 46.5201 44.3302 45.916 44.3302C45.7691 44.3302 45.6221 44.2976 45.4752 44.3792C45.4589 44.5425 45.6058 44.6078 45.6874 44.6894C46.4711 45.4894 47.2711 46.2731 48.0548 47.0567C48.1527 47.1547 48.267 47.269 48.365 47.3833C48.6425 47.7261 48.6099 48.1343 48.316 48.4118C48.0221 48.6894 47.5976 48.722 47.2874 48.4282C46.7487 47.922 46.2425 47.3996 45.7201 46.8771C45.2629 46.42 44.8221 45.9465 44.365 45.4894C44.316 45.4241 44.267 45.4404 44.2344 45.4731Z" fill="#98A782"/>
<path d="M37 67C43.113 67 48.9925 65.1766 54.0029 61.7269C54.5359 61.3599 54.6705 60.6302 54.3034 60.0971C53.9365 59.564 53.2067 59.4293 52.6737 59.7965C48.0561 62.9758 42.6362 64.6562 37 64.6562C21.7503 64.6562 9.34375 52.2497 9.34375 37C9.34375 21.7503 21.7503 9.34375 37 9.34375C52.2497 9.34375 64.6562 21.7503 64.6562 37C64.6562 42.636 62.9758 48.0559 59.7965 52.6737C59.4295 53.2068 59.5641 53.9364 60.0971 54.3036C60.6303 54.6705 61.3598 54.5358 61.7268 54.0029C65.1766 48.9923 67 43.1129 67 37C67 20.4084 53.5956 7 37 7C20.4085 7 7 20.4043 7 37C7 53.5916 20.4044 67 37 67Z" fill="#EB5757"/>
<path fill-rule="evenodd" clip-rule="evenodd" d="M12.5586 21.1706C12.8671 20.7125 13.4886 20.5912 13.9466 20.8997L61.2878 52.7825C61.7458 53.091 61.8671 53.7125 61.5586 54.1706C61.2501 54.6286 60.6286 54.7499 60.1706 54.4414L12.8294 22.5586C12.3714 22.2501 12.2501 21.6286 12.5586 21.1706Z" fill="#EB5757"/>
<path d="M57.3906 58.5625C58.0378 58.5625 58.5625 58.0378 58.5625 57.3906C58.5625 56.7434 58.0378 56.2188 57.3906 56.2188C56.7434 56.2188 56.2188 56.7434 56.2188 57.3906C56.2188 58.0378 56.7434 58.5625 57.3906 58.5625Z" fill="#EB5757"/>
</svg>
