<svg width="74" height="74" viewBox="0 0 74 74" fill="none" xmlns="http://www.w3.org/2000/svg">
<path d="M51.3007 32.3003L47.7007 27.9003C47.4007 27.6003 46.9007 27.5003 46.6007 27.8003L31.8007 40.2003L30.2007 41.5003L27.5007 43.8003C27.2007 44.1003 27.1007 44.6003 27.4007 44.9003C27.7007 45.2003 28.2007 45.3003 28.5007 45.0003L30.6007 43.2003L33.3007 46.4003L27.5007 51.3003L24.8007 48.0003L26.9007 46.3003C27.2007 46.0003 27.3007 45.6003 27.0007 45.2003C26.7007 44.9003 26.2007 44.8003 25.9007 45.1003L23.3007 47.3003C23.0007 47.6003 22.9007 48.1003 23.2007 48.4003L26.8007 52.8003C27.1007 53.1003 27.6007 53.2003 27.9007 52.9003L34.9007 47.0003L36.5007 45.7003L44.3007 39.2003C44.6007 38.9003 44.7007 38.4003 44.4007 38.1003C44.1007 37.8003 43.6007 37.7003 43.3007 38.0003L36.1007 44.0003L33.4007 40.8003L44.9007 31.2003L47.6007 34.4003L45.0007 36.6003C44.7007 36.9003 44.6007 37.4003 44.9007 37.7003C45.2007 38.0003 45.7007 38.1003 46.0007 37.8003L51.3007 33.4003C51.5007 33.1003 51.6007 32.6003 51.3007 32.3003ZM48.7007 33.5003L46.0007 30.3003L46.9007 29.5003L49.6007 32.7003L48.7007 33.5003ZM31.8007 42.2003L32.2007 41.9003L34.9007 45.1003L34.5007 45.4003L31.8007 42.2003Z" fill="#98A782"/>
<path d="M34.8016 17.4004L34.6016 17.5004L34.8016 17.4004Z" fill="#98A782"/>
<path d="M34.9995 23.9C36.3995 25.6 37.9995 25.6 39.3995 25.7C40.4995 25.8 41.2995 25.8 41.8995 26.5C42.8995 27.7 42.9995 28.4 42.9995 28.4C42.9995 28.8 43.2995 29.1 43.5995 29.2C43.7995 29.2 43.9995 29.2 44.1995 29C44.2995 28.9 44.3995 28.7 44.4995 28.6L44.1995 28.5L44.4995 28.6C44.4995 28.5 44.6995 27.6 44.5995 26.4C44.4995 25.2 44.1995 23.7 43.0995 22.4C42.3995 21.6 41.7995 21.2 41.0995 20.9C40.4995 20.7 39.8995 20.6 39.2995 20.6V20.9V20.6C38.5995 20.6 37.9995 20.5 37.2995 20.1C36.5995 19.7 35.6995 18.9 34.6995 17.2L34.3995 17.4L34.6995 17.2C34.6995 17.1 34.3995 17 34.1995 17V17.3V17C33.8995 17 33.6995 17.2 33.5995 17.4C33.3995 17.6 32.0995 20.4 34.9995 23.9ZM40.6995 22.4C41.0995 22.5 41.4995 22.8 41.9995 23.4C42.4995 24 42.7995 24.7 42.8995 25.3C41.8995 24.3 40.5995 24.2 39.4995 24.1C38.1995 24 37.0995 24 36.1995 22.8C35.1995 21.6 34.7995 20.5 34.6995 19.7C35.4995 20.7 36.2995 21.3 36.9995 21.7C37.8995 22.1 38.5995 22.2 39.2995 22.2V21.9V22.2C39.8995 22.3 40.2995 22.3 40.6995 22.4ZM39.3995 25.6V25.4V25.6V25.4V25.6Z" fill="#98A782"/>
<path d="M37 67C43.113 67 48.9925 65.1766 54.0029 61.7269C54.5359 61.3599 54.6705 60.6302 54.3034 60.0971C53.9365 59.564 53.2067 59.4293 52.6737 59.7965C48.0561 62.9758 42.6362 64.6562 37 64.6562C21.7503 64.6562 9.34375 52.2497 9.34375 37C9.34375 21.7503 21.7503 9.34375 37 9.34375C52.2497 9.34375 64.6562 21.7503 64.6562 37C64.6562 42.636 62.9758 48.0559 59.7965 52.6737C59.4295 53.2068 59.5641 53.9364 60.0971 54.3036C60.6303 54.6705 61.3598 54.5358 61.7268 54.0029C65.1766 48.9923 67 43.1129 67 37C67 20.4084 53.5956 7 37 7C20.4085 7 7 20.4043 7 37C7 53.5916 20.4044 67 37 67Z" fill="#EB5757"/>
<path fill-rule="evenodd" clip-rule="evenodd" d="M12.5586 21.1706C12.8671 20.7125 13.4886 20.5912 13.9466 20.8997L61.2878 52.7825C61.7458 53.091 61.8671 53.7125 61.5586 54.1706C61.2501 54.6286 60.6286 54.7499 60.1706 54.4414L12.8294 22.5586C12.3714 22.2501 12.2501 21.6286 12.5586 21.1706Z" fill="#EB5757"/>
<path d="M57.3906 58.5625C58.0378 58.5625 58.5625 58.0378 58.5625 57.3906C58.5625 56.7434 58.0378 56.2188 57.3906 56.2188C56.7434 56.2188 56.2188 56.7434 56.2188 57.3906C56.2188 58.0378 56.7434 58.5625 57.3906 58.5625Z" fill="#EB5757"/>
</svg>
