<svg width="74" height="74" viewBox="0 0 74 74" fill="none" xmlns="http://www.w3.org/2000/svg">
<path fill-rule="evenodd" clip-rule="evenodd" d="M34.5417 55.4167C33.2 55.4167 31.6667 54.2667 31.6667 51.9667V47.9417C31.6667 46.025 30.7083 44.3 29.175 42.9583C25.725 40.275 24 36.4417 24 32.225C24.1917 24.9417 30.1333 19.1917 37.225 19C40.8667 19 44.3167 20.3417 46.8083 22.8333C49.3 25.325 50.8333 28.775 50.8333 32.4167C50.8333 36.4417 49.1083 40.275 45.85 42.7667C44.125 44.1083 43.1667 46.2167 43.1667 48.1333V48.6508C43.1675 48.6697 43.168 48.6889 43.168 48.7083C43.168 48.7277 43.1675 48.7469 43.1667 48.7659V52.5417C43.1667 54.075 41.825 55.4167 40.2917 55.4167H34.5417ZM44.7 41.2333C42.6994 42.8702 41.3891 45.3699 41.2604 47.75H33.5811C33.5236 45.3322 32.3792 43.1057 30.325 41.425C27.45 39.3167 25.9167 35.8667 25.9167 32.225C26.1083 26.0917 31.2833 20.9167 37.4167 20.9167C40.4833 20.9167 43.3583 22.0667 45.4667 24.175C47.7667 26.475 48.9167 29.35 48.9167 32.4167C48.9167 35.8667 47.3833 39.125 44.7 41.2333ZM33.5833 51.9667V49.6667H41.25V52.5417C41.25 53.1167 40.8667 53.5 40.2917 53.5H34.5417C33.5833 53.5 33.5833 52.35 33.5833 51.9667ZM44.1237 32.417C44.1237 32.992 44.507 33.3753 45.082 33.3753C45.657 33.3753 46.0404 32.992 46.0404 32.417C46.0404 27.6253 42.207 23.792 37.4154 23.792C36.8404 23.792 36.457 24.1753 36.457 24.7503C36.457 25.3253 36.8404 25.7087 37.4154 25.7087C41.057 25.7087 44.1237 28.7753 44.1237 32.417Z" fill="#98A782"/>
<path d="M37 67C43.113 67 48.9925 65.1766 54.0029 61.7269C54.5359 61.3599 54.6705 60.6302 54.3034 60.0971C53.9365 59.564 53.2067 59.4293 52.6737 59.7965C48.0561 62.9758 42.6362 64.6562 37 64.6562C21.7503 64.6562 9.34375 52.2497 9.34375 37C9.34375 21.7503 21.7503 9.34375 37 9.34375C52.2497 9.34375 64.6562 21.7503 64.6562 37C64.6562 42.636 62.9758 48.0559 59.7965 52.6737C59.4295 53.2068 59.5641 53.9364 60.0971 54.3036C60.6303 54.6705 61.3598 54.5358 61.7268 54.0029C65.1766 48.9923 67 43.1129 67 37C67 20.4084 53.5956 7 37 7C20.4085 7 7 20.4043 7 37C7 53.5916 20.4044 67 37 67Z" fill="#EB5757"/>
<path fill-rule="evenodd" clip-rule="evenodd" d="M12.5586 21.1706C12.8671 20.7125 13.4886 20.5912 13.9466 20.8997L61.2878 52.7825C61.7458 53.091 61.8671 53.7125 61.5586 54.1706C61.2501 54.6286 60.6286 54.7499 60.1706 54.4414L12.8294 22.5586C12.3714 22.2501 12.2501 21.6286 12.5586 21.1706Z" fill="#EB5757"/>
<path d="M57.3906 58.5625C58.0378 58.5625 58.5625 58.0378 58.5625 57.3906C58.5625 56.7434 58.0378 56.2188 57.3906 56.2188C56.7434 56.2188 56.2188 56.7434 56.2188 57.3906C56.2188 58.0378 56.7434 58.5625 57.3906 58.5625Z" fill="#EB5757"/>
</svg>
