<svg width="33" height="51" viewBox="0 0 33 51" fill="none" xmlns="http://www.w3.org/2000/svg">
<path d="M16.5 0C25.598 0 33 7.95256 33 17.7274C33 30.0132 16.4838 51 16.4838 51C16.4838 51 0 29.409 0 17.7274C0 7.95256 7.40168 0 16.5 0ZM11.5216 22.9179C12.8943 24.3925 14.697 25.1299 16.5 25.1299C18.3027 25.1299 20.106 24.3925 21.4781 22.9179C24.2233 19.9689 24.2233 15.1702 21.4781 12.2208C20.1488 10.7921 18.3806 10.0051 16.5 10.0051C14.6194 10.0051 12.8515 10.7924 11.5216 12.2208C8.77644 15.1702 8.77644 19.9689 11.5216 22.9179Z" fill="#EB5757"/>
</svg>
