<svg width="26" height="40" viewBox="0 0 26 40" fill="none" xmlns="http://www.w3.org/2000/svg">
<path d="M13 0C20.1681 0 26 6.2373 26 13.9038C26 23.5398 12.9872 40 12.9872 40C12.9872 40 0 23.0659 0 13.9038C0 6.2373 5.83162 0 13 0ZM9.07763 17.9749C10.1592 19.1313 11.5795 19.7097 13 19.7097C14.4203 19.7097 15.8411 19.1313 16.9221 17.9749C19.085 15.6619 19.085 11.8982 16.9221 9.58496C15.8748 8.46436 14.4817 7.84717 13 7.84717C11.5183 7.84717 10.1254 8.4646 9.07763 9.58496C6.91477 11.8982 6.91477 15.6619 9.07763 17.9749Z" fill="#556A3B"/>
</svg>
