<svg width="74" height="75" viewBox="0 0 74 75" fill="none" xmlns="http://www.w3.org/2000/svg">
<path d="M63.7 45.2C63.6 45.1 63.3 45 63.1 45H60.4L55.6 30.8L55.9 30.7C57.9 30.1 59.4 28.2 59.3 26.1C59.3 24.8 58.8 23.6 57.9 22.7C57 21.8 55.8 21.3 54.5 21.3C52.8 21.3 51.2 22.2 50.4 23.6C50 24.3 49.2 24.8 48.3 24.8C48.1 24.8 47.9 24.8 47.7 24.7L40.7 22.7V20.3L41.3 19C41.9 17.7 41.7 16.2 40.8 15L37.9 11.3C37.6 10.9 36.9 10.9 36.6 11.3L33.8 15C32.9 16.1 32.7 17.7 33.3 19L33.9 20.3V22.6L26.9 24.6C26.7 24.7 26.5 24.7 26.2 24.7C25.4 24.7 24.6 24.3 24.1 23.5C23.2 22.1 21.6 21.2 20 21.2H19.8C17.2 21.3 15.2 23.5 15.2 26.1C15.2 28.2 16.7 30.1 18.7 30.7H19L14.3 44.9H11.8C11.4 44.9 11 45.3 11 45.7V48.1C11 50.3 12.8 52.1 15 52.1H25.5C27.7 52.1 29.5 50.3 29.5 48.1V45.7C29.5 45.3 29.1 44.9 28.7 44.9H26L21.2 30.8H34V56.5H23.1C20.5 56.5 18.5 58.6 18.5 61.1V63.7C18.5 64.1 18.9 64.5 19.3 64.5H32.7C33.1 64.5 33.5 64.1 33.5 63.7C33.5 63.3 33.1 63 32.7 63H20.1V61.2C20.1 59.5 21.5 58.2 23.1 58.2H51.4C53.1 58.2 54.4 59.6 54.4 61.2V63H42C41.6 63 41.2 63.4 41.2 63.8C41.2 64.2 41.6 64.6 42 64.6H55.2C55.6 64.6 56 64.2 56 63.8V61.2C56 58.7 53.9 56.6 51.4 56.6H40.7V30.9H53.5L48.9 45H46.4C46 45 45.6 45.4 45.6 45.8V48.2C45.6 50.4 47.4 52.2 49.6 52.2H60C62.2 52.2 64 50.4 64 48.2V45.8C64 45.5 63.9 45.3 63.7 45.2ZM39.1 20.9V56.5H35.6V20.9H39.1ZM12.6 48.2V46.6H27.8V48.2C27.8 49.5 26.7 50.6 25.4 50.6H15C13.7 50.5 12.6 49.5 12.6 48.2ZM54.6 32.6L58.8 45H50.6L54.6 32.6ZM47.2 26.2C47.6 26.3 47.9 26.4 48.2 26.4H48.3C48.7 26.4 49 26.4 49.4 26.3L49.7 26.2V26.5C49.8 27.4 50.1 28.2 50.6 28.9L50.9 29.3H40.7V24.3L47.2 26.2ZM51.3 26C51.3 24.3 52.7 22.9 54.4 22.8H54.5C55.4 22.8 56.2 23.1 56.8 23.8C57.4 24.4 57.7 25.2 57.7 26.1C57.7 27.8 56.2 29.3 54.5 29.3C52.8 29.3 51.3 27.8 51.3 26ZM39.8 18.3L39.3 19.3H35.2L34.7 18.3C34.4 17.5 34.5 16.7 35 16L37.3 13.1L39.6 16C40.1 16.7 40.2 17.5 39.8 18.3ZM16 44.9L20 32.5L24.2 44.9H16ZM23.3 26C23.3 27.8 21.9 29.2 20.1 29.2C18.5 29.2 17.2 28 16.9 26.5C16.9 26.4 16.9 26.3 16.9 26.1C16.9 25.3 17.2 24.4 17.7 23.8C18.3 23.2 19.1 22.8 19.9 22.7H20C20.8 22.7 21.7 23 22.3 23.6C22.9 24.4 23.3 25.2 23.3 26ZM33.9 24.3V29.3H23.7L24 28.9C24.5 28.2 24.8 27.3 24.9 26.5V26.2L25.2 26.3C25.9 26.5 26.6 26.5 27.4 26.3L33.9 24.3ZM62.4 46.5V48.1C62.4 49.4 61.3 50.5 60 50.5H49.5C48.2 50.5 47.1 49.4 47.1 48.1V46.5H62.4Z" fill="#98A782"/>
<path d="M37.2992 63.3008C37.1992 63.3008 36.9992 63.3008 36.7992 63.6008C36.6992 63.8008 36.7992 64.0008 36.8992 64.2008C36.9992 64.3008 37.0992 64.3008 37.1992 64.3008C37.2992 64.3008 37.3992 64.3008 37.4992 64.2008C37.6992 64.1008 37.7992 63.8008 37.6992 63.6008C37.5992 63.4008 37.3992 63.3008 37.2992 63.3008Z" fill="#98A782"/>
</svg>
