<svg width="74" height="74" viewBox="0 0 74 74" fill="none" xmlns="http://www.w3.org/2000/svg">
<mask id="path-1-outside-1" maskUnits="userSpaceOnUse" x="7.62109" y="10" width="58" height="54" fill="black">
<rect fill="white" x="7.62109" y="10" width="58" height="54"/>
<path d="M64.7752 43.8656C63.6956 42.279 61.5215 41.8591 59.9301 42.9286L52.6868 47.7761L52.6657 32.6876L55.1821 35.0449C55.7172 35.5461 56.415 35.8219 57.1475 35.8219C57.1488 35.8219 57.1504 35.8219 57.1518 35.8219C57.9427 35.8208 58.7062 35.4893 59.2468 34.9123C59.7719 34.3517 60.0474 33.6203 60.0223 32.8525C59.9973 32.0848 59.6747 31.3727 59.1141 30.8476L54.3434 26.3786C54.0168 26.0726 53.5041 26.0893 53.1983 26.4159C52.8924 26.7425 52.9091 27.2551 53.2356 27.5611L58.0063 32.0301C58.2511 32.2593 58.3918 32.5702 58.4028 32.9053C58.4137 33.2404 58.2935 33.5598 58.0642 33.8045C57.8247 34.0601 57.4999 34.2011 57.1494 34.2015C57.1487 34.2015 57.1482 34.2015 57.1475 34.2015C56.8279 34.2015 56.5234 34.0812 56.2898 33.8623C56.2897 33.8622 56.2897 33.8622 56.2897 33.8622L37.3465 16.1165C37.0343 15.8242 36.5485 15.8247 36.2371 16.1181L17.3431 33.9169C17.0991 34.1468 16.7801 34.2672 16.4448 34.2579C16.1096 34.2479 15.7984 34.1079 15.5685 33.8636C15.3386 33.6197 15.2174 33.3006 15.2275 32.9655C15.2375 32.6303 15.3775 32.3191 15.6215 32.0892L35.9277 12.9602C36.4091 12.5066 37.1642 12.5055 37.6468 12.9578L49.5268 24.0868C49.8533 24.3927 50.366 24.3761 50.672 24.0495C50.9778 23.7229 50.9611 23.2103 50.6346 22.9043L38.7547 11.7753C37.6491 10.7395 35.9194 10.7418 34.8167 11.7808L28.3163 17.9044L28.3145 16.8122C28.314 16.4678 28.1795 16.1444 27.9357 15.9014C27.6924 15.6587 27.3693 15.5251 27.0257 15.5251C27.025 15.5251 27.0245 15.5251 27.0238 15.5251L22.3737 15.5317C22.0294 15.5321 21.7061 15.6667 21.4629 15.9105C21.22 16.1542 21.0863 16.478 21.0868 16.8225L21.0997 24.7029L14.5105 30.91C13.9514 31.4367 13.6309 32.1496 13.6079 32.9174C13.585 33.6852 13.8625 34.4159 14.3891 34.9749C14.9157 35.534 15.6286 35.8546 16.3965 35.8776C16.4259 35.8785 16.4553 35.8789 16.4846 35.8789C17.2202 35.8789 17.9167 35.6029 18.4542 35.0963L20.965 32.731L20.975 39.8581C20.1626 39.7398 19.3407 39.6777 18.5151 39.6777H17.1288V39.1919C17.1288 37.5611 15.802 36.2343 14.1712 36.2343H11.5787C9.94793 36.2342 8.62109 37.5609 8.62109 39.1918V51.8868C8.62109 52.3342 8.98381 52.6969 9.43123 52.6969C9.87864 52.6969 10.2414 52.3342 10.2414 51.8868V39.1918C10.2414 38.4544 10.8413 37.8545 11.5787 37.8545H14.1711C14.9085 37.8545 15.5084 38.4544 15.5084 39.1918V40.4877V57.0935V58.3766C15.5084 59.114 14.9085 59.714 14.1711 59.714H11.5787C10.8413 59.714 10.2414 59.114 10.2414 58.3766V56.959C10.2414 56.5116 9.87864 56.1489 9.43123 56.1489C8.98381 56.1489 8.62109 56.5116 8.62109 56.959V58.3766C8.62109 60.0074 9.94793 61.3342 11.5787 61.3342H14.1711C15.8019 61.3342 17.1287 60.0075 17.1287 58.3766V58.2665L28.9929 62.7593C29.0149 62.7676 29.0372 62.7749 29.0598 62.7812C29.5756 62.9269 30.0912 63 30.6002 63C30.8756 63 31.1491 62.9786 31.4198 62.9358L48.8553 60.4225C48.8594 60.4219 48.8634 60.4212 48.8675 60.4206C50.3498 60.1839 51.7483 59.5572 52.9115 58.6085C52.9216 58.6003 52.9315 58.5918 52.9412 58.583L64.2053 48.4521C65.5171 47.2876 65.762 45.3158 64.7752 43.8656ZM26.6947 17.146L26.6984 19.4285L22.7174 23.1787L22.7075 17.1514L26.6947 17.146ZM36.7941 17.8193L51.0432 31.1676L51.0679 48.8594L48.7742 50.3946L46.3453 50.2583L46.2811 49.6131C46.0551 47.3408 44.3776 45.5129 42.1595 45.0767L42.1448 34.5515C42.1437 33.7438 41.4861 33.0874 40.6786 33.0874C40.6779 33.0874 40.6773 33.0874 40.6766 33.0874L32.955 33.0983C32.5634 33.0989 32.1953 33.2518 31.9189 33.5292C31.6423 33.8064 31.4903 34.1749 31.4908 34.5665L31.5037 43.7432C29.9742 43.3936 28.5138 42.8161 27.1484 42.0174C26.978 41.9178 26.806 41.8215 26.6325 41.728C26.5649 41.6915 26.4961 41.6572 26.4279 41.6217C26.3224 41.5666 26.2171 41.5111 26.1105 41.4583C26.0255 41.4161 25.9396 41.3762 25.854 41.3355C25.7633 41.2924 25.6726 41.2489 25.5811 41.2073C25.488 41.165 25.3941 41.1248 25.3003 41.0842C25.2146 41.0472 25.1289 41.01 25.0427 40.9744C24.9463 40.9346 24.8493 40.8963 24.7521 40.8583C24.666 40.8246 24.5798 40.7911 24.4932 40.7588C24.3971 40.7228 24.3005 40.6881 24.2037 40.6541C24.113 40.6221 24.022 40.5908 23.9307 40.5603C23.838 40.5294 23.7451 40.4991 23.6518 40.4698C23.5524 40.4384 23.4525 40.4085 23.3525 40.3789C23.2666 40.3536 23.1808 40.3283 23.0944 40.3044C22.9817 40.273 22.8684 40.2436 22.755 40.2146C22.7019 40.2009 22.6491 40.1855 22.5957 40.1723L22.5831 31.2066L36.7941 17.8193ZM40.539 44.8739L33.7629 44.0939L33.1245 44.0204L33.1114 34.7183L40.5248 34.7079L40.539 44.8739ZM63.1258 47.2442L51.8728 57.3651C50.935 58.1254 49.8102 58.6284 48.6179 58.8197L31.19 61.3319C31.1863 61.3325 31.1828 61.333 31.1791 61.3336L31.167 61.3355C30.639 61.419 30.0892 61.3838 29.5326 61.231L17.1288 56.5339V41.2979H18.5151C19.6951 41.2979 20.8672 41.4341 22.0086 41.6987C22.051 41.7086 22.0934 41.7187 22.1357 41.7289C22.276 41.7627 22.4159 41.7975 22.5551 41.8352C22.5673 41.8385 22.5794 41.842 22.5916 41.8454C22.7311 41.8835 22.8701 41.9237 23.0087 41.9658C23.0335 41.9733 23.0585 41.9807 23.0832 41.9884C23.2307 42.0339 23.3774 42.0815 23.5234 42.1314C23.5385 42.1366 23.5535 42.1419 23.5685 42.1471C23.8726 42.2521 24.1737 42.3666 24.471 42.4905C24.4872 42.4973 24.5034 42.5041 24.5196 42.5109C24.6678 42.5732 24.8151 42.6377 24.9614 42.7046C24.9653 42.7064 24.9693 42.7083 24.9732 42.7102C25.1146 42.7751 25.2551 42.8425 25.3947 42.9118C25.4111 42.9199 25.4276 42.9279 25.444 42.9361C25.5803 43.0043 25.7156 43.0749 25.8501 43.1471C25.8754 43.1608 25.9007 43.1748 25.9261 43.1885C26.0618 43.2624 26.1967 43.3378 26.3303 43.416C28.2582 44.5437 30.3569 45.2741 32.5682 45.5871C32.5752 45.5881 32.5821 45.589 32.5891 45.5897L41.6661 46.6348C41.7163 46.642 41.7662 46.6503 41.8157 46.6596C43.152 46.9106 44.2066 47.898 44.5595 49.1838C44.6118 49.3742 44.6486 49.5713 44.6688 49.7734L44.7048 50.1359L27.6929 48.6455C27.2475 48.6066 26.8542 48.9361 26.8152 49.3818C26.776 49.8275 27.1058 50.2205 27.5515 50.2595L45.5369 51.8353C45.5412 51.8357 45.5454 51.8356 45.5497 51.8359C45.5539 51.8362 45.558 51.8369 45.5623 51.8372L48.9542 52.0276C48.9693 52.0285 48.9844 52.0288 48.9995 52.0288C49.0156 52.0288 49.0314 52.0262 49.0474 52.0252C49.0654 52.0241 49.0835 52.0235 49.1015 52.0213C49.1256 52.0182 49.1493 52.0129 49.173 52.0077C49.1899 52.004 49.207 52.0012 49.2236 51.9963C49.2496 51.9889 49.2745 51.9788 49.2997 51.9687C49.3132 51.9633 49.3272 51.9592 49.3405 51.953C49.3783 51.9355 49.4151 51.9153 49.4501 51.8918L52.3293 49.965C52.3294 49.9649 52.3295 49.9648 52.3296 49.9647L60.8324 44.2742C61.6879 43.6992 62.8557 43.9248 63.4356 44.7771C63.9657 45.5559 63.8341 46.6152 63.1258 47.2442Z"/>
</mask>
<path d="M64.7752 43.8656C63.6956 42.279 61.5215 41.8591 59.9301 42.9286L52.6868 47.7761L52.6657 32.6876L55.1821 35.0449C55.7172 35.5461 56.415 35.8219 57.1475 35.8219C57.1488 35.8219 57.1504 35.8219 57.1518 35.8219C57.9427 35.8208 58.7062 35.4893 59.2468 34.9123C59.7719 34.3517 60.0474 33.6203 60.0223 32.8525C59.9973 32.0848 59.6747 31.3727 59.1141 30.8476L54.3434 26.3786C54.0168 26.0726 53.5041 26.0893 53.1983 26.4159C52.8924 26.7425 52.9091 27.2551 53.2356 27.5611L58.0063 32.0301C58.2511 32.2593 58.3918 32.5702 58.4028 32.9053C58.4137 33.2404 58.2935 33.5598 58.0642 33.8045C57.8247 34.0601 57.4999 34.2011 57.1494 34.2015C57.1487 34.2015 57.1482 34.2015 57.1475 34.2015C56.8279 34.2015 56.5234 34.0812 56.2898 33.8623C56.2897 33.8622 56.2897 33.8622 56.2897 33.8622L37.3465 16.1165C37.0343 15.8242 36.5485 15.8247 36.2371 16.1181L17.3431 33.9169C17.0991 34.1468 16.7801 34.2672 16.4448 34.2579C16.1096 34.2479 15.7984 34.1079 15.5685 33.8636C15.3386 33.6197 15.2174 33.3006 15.2275 32.9655C15.2375 32.6303 15.3775 32.3191 15.6215 32.0892L35.9277 12.9602C36.4091 12.5066 37.1642 12.5055 37.6468 12.9578L49.5268 24.0868C49.8533 24.3927 50.366 24.3761 50.672 24.0495C50.9778 23.7229 50.9611 23.2103 50.6346 22.9043L38.7547 11.7753C37.6491 10.7395 35.9194 10.7418 34.8167 11.7808L28.3163 17.9044L28.3145 16.8122C28.314 16.4678 28.1795 16.1444 27.9357 15.9014C27.6924 15.6587 27.3693 15.5251 27.0257 15.5251C27.025 15.5251 27.0245 15.5251 27.0238 15.5251L22.3737 15.5317C22.0294 15.5321 21.7061 15.6667 21.4629 15.9105C21.22 16.1542 21.0863 16.478 21.0868 16.8225L21.0997 24.7029L14.5105 30.91C13.9514 31.4367 13.6309 32.1496 13.6079 32.9174C13.585 33.6852 13.8625 34.4159 14.3891 34.9749C14.9157 35.534 15.6286 35.8546 16.3965 35.8776C16.4259 35.8785 16.4553 35.8789 16.4846 35.8789C17.2202 35.8789 17.9167 35.6029 18.4542 35.0963L20.965 32.731L20.975 39.8581C20.1626 39.7398 19.3407 39.6777 18.5151 39.6777H17.1288V39.1919C17.1288 37.5611 15.802 36.2343 14.1712 36.2343H11.5787C9.94793 36.2342 8.62109 37.5609 8.62109 39.1918V51.8868C8.62109 52.3342 8.98381 52.6969 9.43123 52.6969C9.87864 52.6969 10.2414 52.3342 10.2414 51.8868V39.1918C10.2414 38.4544 10.8413 37.8545 11.5787 37.8545H14.1711C14.9085 37.8545 15.5084 38.4544 15.5084 39.1918V40.4877V57.0935V58.3766C15.5084 59.114 14.9085 59.714 14.1711 59.714H11.5787C10.8413 59.714 10.2414 59.114 10.2414 58.3766V56.959C10.2414 56.5116 9.87864 56.1489 9.43123 56.1489C8.98381 56.1489 8.62109 56.5116 8.62109 56.959V58.3766C8.62109 60.0074 9.94793 61.3342 11.5787 61.3342H14.1711C15.8019 61.3342 17.1287 60.0075 17.1287 58.3766V58.2665L28.9929 62.7593C29.0149 62.7676 29.0372 62.7749 29.0598 62.7812C29.5756 62.9269 30.0912 63 30.6002 63C30.8756 63 31.1491 62.9786 31.4198 62.9358L48.8553 60.4225C48.8594 60.4219 48.8634 60.4212 48.8675 60.4206C50.3498 60.1839 51.7483 59.5572 52.9115 58.6085C52.9216 58.6003 52.9315 58.5918 52.9412 58.583L64.2053 48.4521C65.5171 47.2876 65.762 45.3158 64.7752 43.8656ZM26.6947 17.146L26.6984 19.4285L22.7174 23.1787L22.7075 17.1514L26.6947 17.146ZM36.7941 17.8193L51.0432 31.1676L51.0679 48.8594L48.7742 50.3946L46.3453 50.2583L46.2811 49.6131C46.0551 47.3408 44.3776 45.5129 42.1595 45.0767L42.1448 34.5515C42.1437 33.7438 41.4861 33.0874 40.6786 33.0874C40.6779 33.0874 40.6773 33.0874 40.6766 33.0874L32.955 33.0983C32.5634 33.0989 32.1953 33.2518 31.9189 33.5292C31.6423 33.8064 31.4903 34.1749 31.4908 34.5665L31.5037 43.7432C29.9742 43.3936 28.5138 42.8161 27.1484 42.0174C26.978 41.9178 26.806 41.8215 26.6325 41.728C26.5649 41.6915 26.4961 41.6572 26.4279 41.6217C26.3224 41.5666 26.2171 41.5111 26.1105 41.4583C26.0255 41.4161 25.9396 41.3762 25.854 41.3355C25.7633 41.2924 25.6726 41.2489 25.5811 41.2073C25.488 41.165 25.3941 41.1248 25.3003 41.0842C25.2146 41.0472 25.1289 41.01 25.0427 40.9744C24.9463 40.9346 24.8493 40.8963 24.7521 40.8583C24.666 40.8246 24.5798 40.7911 24.4932 40.7588C24.3971 40.7228 24.3005 40.6881 24.2037 40.6541C24.113 40.6221 24.022 40.5908 23.9307 40.5603C23.838 40.5294 23.7451 40.4991 23.6518 40.4698C23.5524 40.4384 23.4525 40.4085 23.3525 40.3789C23.2666 40.3536 23.1808 40.3283 23.0944 40.3044C22.9817 40.273 22.8684 40.2436 22.755 40.2146C22.7019 40.2009 22.6491 40.1855 22.5957 40.1723L22.5831 31.2066L36.7941 17.8193ZM40.539 44.8739L33.7629 44.0939L33.1245 44.0204L33.1114 34.7183L40.5248 34.7079L40.539 44.8739ZM63.1258 47.2442L51.8728 57.3651C50.935 58.1254 49.8102 58.6284 48.6179 58.8197L31.19 61.3319C31.1863 61.3325 31.1828 61.333 31.1791 61.3336L31.167 61.3355C30.639 61.419 30.0892 61.3838 29.5326 61.231L17.1288 56.5339V41.2979H18.5151C19.6951 41.2979 20.8672 41.4341 22.0086 41.6987C22.051 41.7086 22.0934 41.7187 22.1357 41.7289C22.276 41.7627 22.4159 41.7975 22.5551 41.8352C22.5673 41.8385 22.5794 41.842 22.5916 41.8454C22.7311 41.8835 22.8701 41.9237 23.0087 41.9658C23.0335 41.9733 23.0585 41.9807 23.0832 41.9884C23.2307 42.0339 23.3774 42.0815 23.5234 42.1314C23.5385 42.1366 23.5535 42.1419 23.5685 42.1471C23.8726 42.2521 24.1737 42.3666 24.471 42.4905C24.4872 42.4973 24.5034 42.5041 24.5196 42.5109C24.6678 42.5732 24.8151 42.6377 24.9614 42.7046C24.9653 42.7064 24.9693 42.7083 24.9732 42.7102C25.1146 42.7751 25.2551 42.8425 25.3947 42.9118C25.4111 42.9199 25.4276 42.9279 25.444 42.9361C25.5803 43.0043 25.7156 43.0749 25.8501 43.1471C25.8754 43.1608 25.9007 43.1748 25.9261 43.1885C26.0618 43.2624 26.1967 43.3378 26.3303 43.416C28.2582 44.5437 30.3569 45.2741 32.5682 45.5871C32.5752 45.5881 32.5821 45.589 32.5891 45.5897L41.6661 46.6348C41.7163 46.642 41.7662 46.6503 41.8157 46.6596C43.152 46.9106 44.2066 47.898 44.5595 49.1838C44.6118 49.3742 44.6486 49.5713 44.6688 49.7734L44.7048 50.1359L27.6929 48.6455C27.2475 48.6066 26.8542 48.9361 26.8152 49.3818C26.776 49.8275 27.1058 50.2205 27.5515 50.2595L45.5369 51.8353C45.5412 51.8357 45.5454 51.8356 45.5497 51.8359C45.5539 51.8362 45.558 51.8369 45.5623 51.8372L48.9542 52.0276C48.9693 52.0285 48.9844 52.0288 48.9995 52.0288C49.0156 52.0288 49.0314 52.0262 49.0474 52.0252C49.0654 52.0241 49.0835 52.0235 49.1015 52.0213C49.1256 52.0182 49.1493 52.0129 49.173 52.0077C49.1899 52.004 49.207 52.0012 49.2236 51.9963C49.2496 51.9889 49.2745 51.9788 49.2997 51.9687C49.3132 51.9633 49.3272 51.9592 49.3405 51.953C49.3783 51.9355 49.4151 51.9153 49.4501 51.8918L52.3293 49.965C52.3294 49.9649 52.3295 49.9648 52.3296 49.9647L60.8324 44.2742C61.6879 43.6992 62.8557 43.9248 63.4356 44.7771C63.9657 45.5559 63.8341 46.6152 63.1258 47.2442Z" fill="#98A782"/>
<path d="M64.7752 43.8656C63.6956 42.279 61.5215 41.8591 59.9301 42.9286L52.6868 47.7761L52.6657 32.6876L55.1821 35.0449C55.7172 35.5461 56.415 35.8219 57.1475 35.8219C57.1488 35.8219 57.1504 35.8219 57.1518 35.8219C57.9427 35.8208 58.7062 35.4893 59.2468 34.9123C59.7719 34.3517 60.0474 33.6203 60.0223 32.8525C59.9973 32.0848 59.6747 31.3727 59.1141 30.8476L54.3434 26.3786C54.0168 26.0726 53.5041 26.0893 53.1983 26.4159C52.8924 26.7425 52.9091 27.2551 53.2356 27.5611L58.0063 32.0301C58.2511 32.2593 58.3918 32.5702 58.4028 32.9053C58.4137 33.2404 58.2935 33.5598 58.0642 33.8045C57.8247 34.0601 57.4999 34.2011 57.1494 34.2015C57.1487 34.2015 57.1482 34.2015 57.1475 34.2015C56.8279 34.2015 56.5234 34.0812 56.2898 33.8623C56.2897 33.8622 56.2897 33.8622 56.2897 33.8622L37.3465 16.1165C37.0343 15.8242 36.5485 15.8247 36.2371 16.1181L17.3431 33.9169C17.0991 34.1468 16.7801 34.2672 16.4448 34.2579C16.1096 34.2479 15.7984 34.1079 15.5685 33.8636C15.3386 33.6197 15.2174 33.3006 15.2275 32.9655C15.2375 32.6303 15.3775 32.3191 15.6215 32.0892L35.9277 12.9602C36.4091 12.5066 37.1642 12.5055 37.6468 12.9578L49.5268 24.0868C49.8533 24.3927 50.366 24.3761 50.672 24.0495C50.9778 23.7229 50.9611 23.2103 50.6346 22.9043L38.7547 11.7753C37.6491 10.7395 35.9194 10.7418 34.8167 11.7808L28.3163 17.9044L28.3145 16.8122C28.314 16.4678 28.1795 16.1444 27.9357 15.9014C27.6924 15.6587 27.3693 15.5251 27.0257 15.5251C27.025 15.5251 27.0245 15.5251 27.0238 15.5251L22.3737 15.5317C22.0294 15.5321 21.7061 15.6667 21.4629 15.9105C21.22 16.1542 21.0863 16.478 21.0868 16.8225L21.0997 24.7029L14.5105 30.91C13.9514 31.4367 13.6309 32.1496 13.6079 32.9174C13.585 33.6852 13.8625 34.4159 14.3891 34.9749C14.9157 35.534 15.6286 35.8546 16.3965 35.8776C16.4259 35.8785 16.4553 35.8789 16.4846 35.8789C17.2202 35.8789 17.9167 35.6029 18.4542 35.0963L20.965 32.731L20.975 39.8581C20.1626 39.7398 19.3407 39.6777 18.5151 39.6777H17.1288V39.1919C17.1288 37.5611 15.802 36.2343 14.1712 36.2343H11.5787C9.94793 36.2342 8.62109 37.5609 8.62109 39.1918V51.8868C8.62109 52.3342 8.98381 52.6969 9.43123 52.6969C9.87864 52.6969 10.2414 52.3342 10.2414 51.8868V39.1918C10.2414 38.4544 10.8413 37.8545 11.5787 37.8545H14.1711C14.9085 37.8545 15.5084 38.4544 15.5084 39.1918V40.4877V57.0935V58.3766C15.5084 59.114 14.9085 59.714 14.1711 59.714H11.5787C10.8413 59.714 10.2414 59.114 10.2414 58.3766V56.959C10.2414 56.5116 9.87864 56.1489 9.43123 56.1489C8.98381 56.1489 8.62109 56.5116 8.62109 56.959V58.3766C8.62109 60.0074 9.94793 61.3342 11.5787 61.3342H14.1711C15.8019 61.3342 17.1287 60.0075 17.1287 58.3766V58.2665L28.9929 62.7593C29.0149 62.7676 29.0372 62.7749 29.0598 62.7812C29.5756 62.9269 30.0912 63 30.6002 63C30.8756 63 31.1491 62.9786 31.4198 62.9358L48.8553 60.4225C48.8594 60.4219 48.8634 60.4212 48.8675 60.4206C50.3498 60.1839 51.7483 59.5572 52.9115 58.6085C52.9216 58.6003 52.9315 58.5918 52.9412 58.583L64.2053 48.4521C65.5171 47.2876 65.762 45.3158 64.7752 43.8656ZM26.6947 17.146L26.6984 19.4285L22.7174 23.1787L22.7075 17.1514L26.6947 17.146ZM36.7941 17.8193L51.0432 31.1676L51.0679 48.8594L48.7742 50.3946L46.3453 50.2583L46.2811 49.6131C46.0551 47.3408 44.3776 45.5129 42.1595 45.0767L42.1448 34.5515C42.1437 33.7438 41.4861 33.0874 40.6786 33.0874C40.6779 33.0874 40.6773 33.0874 40.6766 33.0874L32.955 33.0983C32.5634 33.0989 32.1953 33.2518 31.9189 33.5292C31.6423 33.8064 31.4903 34.1749 31.4908 34.5665L31.5037 43.7432C29.9742 43.3936 28.5138 42.8161 27.1484 42.0174C26.978 41.9178 26.806 41.8215 26.6325 41.728C26.5649 41.6915 26.4961 41.6572 26.4279 41.6217C26.3224 41.5666 26.2171 41.5111 26.1105 41.4583C26.0255 41.4161 25.9396 41.3762 25.854 41.3355C25.7633 41.2924 25.6726 41.2489 25.5811 41.2073C25.488 41.165 25.3941 41.1248 25.3003 41.0842C25.2146 41.0472 25.1289 41.01 25.0427 40.9744C24.9463 40.9346 24.8493 40.8963 24.7521 40.8583C24.666 40.8246 24.5798 40.7911 24.4932 40.7588C24.3971 40.7228 24.3005 40.6881 24.2037 40.6541C24.113 40.6221 24.022 40.5908 23.9307 40.5603C23.838 40.5294 23.7451 40.4991 23.6518 40.4698C23.5524 40.4384 23.4525 40.4085 23.3525 40.3789C23.2666 40.3536 23.1808 40.3283 23.0944 40.3044C22.9817 40.273 22.8684 40.2436 22.755 40.2146C22.7019 40.2009 22.6491 40.1855 22.5957 40.1723L22.5831 31.2066L36.7941 17.8193ZM40.539 44.8739L33.7629 44.0939L33.1245 44.0204L33.1114 34.7183L40.5248 34.7079L40.539 44.8739ZM63.1258 47.2442L51.8728 57.3651C50.935 58.1254 49.8102 58.6284 48.6179 58.8197L31.19 61.3319C31.1863 61.3325 31.1828 61.333 31.1791 61.3336L31.167 61.3355C30.639 61.419 30.0892 61.3838 29.5326 61.231L17.1288 56.5339V41.2979H18.5151C19.6951 41.2979 20.8672 41.4341 22.0086 41.6987C22.051 41.7086 22.0934 41.7187 22.1357 41.7289C22.276 41.7627 22.4159 41.7975 22.5551 41.8352C22.5673 41.8385 22.5794 41.842 22.5916 41.8454C22.7311 41.8835 22.8701 41.9237 23.0087 41.9658C23.0335 41.9733 23.0585 41.9807 23.0832 41.9884C23.2307 42.0339 23.3774 42.0815 23.5234 42.1314C23.5385 42.1366 23.5535 42.1419 23.5685 42.1471C23.8726 42.2521 24.1737 42.3666 24.471 42.4905C24.4872 42.4973 24.5034 42.5041 24.5196 42.5109C24.6678 42.5732 24.8151 42.6377 24.9614 42.7046C24.9653 42.7064 24.9693 42.7083 24.9732 42.7102C25.1146 42.7751 25.2551 42.8425 25.3947 42.9118C25.4111 42.9199 25.4276 42.9279 25.444 42.9361C25.5803 43.0043 25.7156 43.0749 25.8501 43.1471C25.8754 43.1608 25.9007 43.1748 25.9261 43.1885C26.0618 43.2624 26.1967 43.3378 26.3303 43.416C28.2582 44.5437 30.3569 45.2741 32.5682 45.5871C32.5752 45.5881 32.5821 45.589 32.5891 45.5897L41.6661 46.6348C41.7163 46.642 41.7662 46.6503 41.8157 46.6596C43.152 46.9106 44.2066 47.898 44.5595 49.1838C44.6118 49.3742 44.6486 49.5713 44.6688 49.7734L44.7048 50.1359L27.6929 48.6455C27.2475 48.6066 26.8542 48.9361 26.8152 49.3818C26.776 49.8275 27.1058 50.2205 27.5515 50.2595L45.5369 51.8353C45.5412 51.8357 45.5454 51.8356 45.5497 51.8359C45.5539 51.8362 45.558 51.8369 45.5623 51.8372L48.9542 52.0276C48.9693 52.0285 48.9844 52.0288 48.9995 52.0288C49.0156 52.0288 49.0314 52.0262 49.0474 52.0252C49.0654 52.0241 49.0835 52.0235 49.1015 52.0213C49.1256 52.0182 49.1493 52.0129 49.173 52.0077C49.1899 52.004 49.207 52.0012 49.2236 51.9963C49.2496 51.9889 49.2745 51.9788 49.2997 51.9687C49.3132 51.9633 49.3272 51.9592 49.3405 51.953C49.3783 51.9355 49.4151 51.9153 49.4501 51.8918L52.3293 49.965C52.3294 49.9649 52.3295 49.9648 52.3296 49.9647L60.8324 44.2742C61.6879 43.6992 62.8557 43.9248 63.4356 44.7771C63.9657 45.5559 63.8341 46.6152 63.1258 47.2442Z" stroke="#98A782" stroke-width="0.4" mask="url(#path-1-outside-1)"/>
</svg>
