<svg width="74" height="74" viewBox="0 0 74 74" fill="none" xmlns="http://www.w3.org/2000/svg">
<path d="M29.201 47.8004H19.201L23.101 40.0004L26.801 43.0004C27.201 43.3004 27.801 43.2004 28.001 42.8004C28.201 42.6004 28.201 42.3004 28.101 42.1004L24.401 29.3004C24.301 28.9004 23.901 28.7004 23.601 28.7004L10.601 30.5004C10.201 30.6004 9.90101 30.9004 9.90101 31.2004C9.80101 31.6004 10.001 31.9004 10.301 32.1004L14.201 34.4004L11.101 40.0004C10.401 41.3004 10.001 42.8004 10.001 44.4004C10.001 45.5004 10.201 46.7004 10.601 47.7004L13.301 55.0004C14.401 58.8004 16.201 60.5004 19.101 60.5004H29.201C29.701 60.5004 30.101 60.1004 30.101 59.6004V48.6004C30.001 48.2004 29.601 47.8004 29.201 47.8004ZM16.201 34.5004C16.401 34.1004 16.301 33.6004 15.901 33.3004L13.401 31.8004L23.001 30.4004L25.701 39.8004L23.301 37.9004C22.901 37.6004 22.201 37.7004 22.001 38.2004L14.601 52.9004L12.301 47.0004C12.001 46.2004 11.801 45.3004 11.801 44.3004C11.801 43.1004 12.101 41.9004 12.701 40.8004L16.201 34.5004ZM28.301 49.5004V58.7004H19.101C17.101 58.7004 15.501 57.2004 15.401 55.2004L18.301 49.5004H28.301Z" fill="#98A782"/>
<path d="M42.401 25.3004L38.301 27.7004C37.901 27.9004 37.801 28.3004 37.901 28.6004C38.001 29.0004 38.301 29.2004 38.701 29.3004L52.001 30.3004C52.401 30.3004 52.801 30.0004 52.801 29.6004L55.501 17.0004C55.601 16.7004 55.501 16.5004 55.301 16.3004C55.001 15.9004 54.501 15.9004 54.101 16.2004L50.701 19.0004L46.501 14.1004C45.501 12.9004 44.201 12.1004 42.801 11.5004C41.801 11.1004 40.701 10.9004 39.601 10.9004H31.101C27.201 10.9004 25.501 11.8004 24.501 14.4004L21.001 23.9004C20.801 24.4004 21.101 24.8004 21.501 25.0004L31.801 28.8004C32.201 29.0004 32.701 28.7004 32.901 28.3004L36.401 19.0004L42.401 25.3004ZM35.101 17.5004L31.601 26.8004L23.001 23.7004L26.201 15.1004C26.701 13.7004 28.101 12.7004 29.701 12.7004C30.101 12.7004 30.401 12.8004 30.801 12.9004L35.101 17.5004ZM44.201 26.3004C44.401 26.2004 44.601 25.9004 44.601 25.7004C44.601 25.4004 44.601 25.2004 44.401 25.0004L33.201 13.0004L39.701 12.9004C40.601 12.9004 41.401 13.1004 42.301 13.4004C43.501 13.8004 44.501 14.5004 45.301 15.5004L50.101 21.0004C50.401 21.3004 50.901 21.4004 51.301 21.1004L53.601 19.3004L51.501 28.8004L41.701 28.0004L44.201 26.3004Z" fill="#98A782"/>
<path d="M64.701 43.7004L64.601 43.5004C64.101 42.7004 60.301 36.8004 58.301 33.6004C58.001 33.2004 57.501 33.1004 57.101 33.3004L48.901 38.8004C48.701 38.9004 48.601 39.1004 48.501 39.4004C48.501 39.6004 48.501 39.9004 48.701 40.1004L54.901 47.8004H45.701V44.1004C45.701 43.2004 44.701 43.0004 44.201 43.5004L36.001 52.5004L35.801 52.7004L35.701 53.1004V53.3004L35.901 53.7004H36.001V53.8004L44.201 62.9004C44.401 63.1004 44.601 63.2004 44.801 63.2004C45.201 63.2004 45.701 62.9004 45.701 62.3004V58.6004H52.501C54.501 58.6004 56.501 57.8004 58.001 56.4004C60.501 54.1004 62.501 50.9004 64.101 47.2004C64.101 47.1004 64.401 46.4004 64.501 46.2004C64.601 45.9004 64.801 45.5004 64.901 45.2004C65.001 45.0004 65.001 44.7004 65.001 44.4004C65.001 44.2004 65.001 44.1004 65.001 43.9004C64.801 44.0004 64.801 43.9004 64.701 43.7004ZM63.001 44.3004C63.001 45.0004 62.701 45.6004 62.301 46.2004L62.201 46.3004C61.501 47.2004 60.401 47.8004 59.201 47.8004H57.001L50.501 39.8004L57.201 35.4004L63.001 44.3004ZM44.701 49.5004H59.301C59.901 49.5004 60.401 49.4004 60.901 49.3004H61.001V49.4004C59.901 51.7004 58.401 53.6004 56.701 55.3004C55.601 56.4004 54.101 57.0004 52.401 57.0004H44.701C44.201 57.0004 43.801 57.4004 43.801 57.9004V60.0004L37.601 53.1004L43.801 46.2004V48.5004C43.801 49.1004 44.201 49.5004 44.701 49.5004ZM35.901 53.7004L36.101 53.6004L36.001 53.7004H35.901Z" fill="#98A782"/>
</svg>
