<svg width="74" height="75" viewBox="0 0 74 75" fill="none" xmlns="http://www.w3.org/2000/svg">
<path d="M57.1651 58.099H56.2319V30.8063H56.2883C57.2242 30.8063 57.9854 30.045 57.9854 29.1092V27.3557C57.9854 26.4199 57.2242 25.6586 56.2883 25.6586H50.0945V23.7922H51.0278C51.3121 23.7922 51.5761 23.6449 51.7256 23.4031C51.8752 23.1613 51.8887 22.8593 51.7615 22.605L50.6016 20.2851H51.0278C51.3121 20.2851 51.5761 20.1379 51.7256 19.8961C51.8752 19.6543 51.8887 19.3523 51.7615 19.098L50.6016 16.7781H51.0278C51.3121 16.7781 51.5761 16.6309 51.7256 16.3891C51.8752 16.1472 51.8887 15.8453 51.7615 15.591L50.0079 12.0839C49.8689 11.806 49.5849 11.6305 49.2742 11.6305H48.341V9.82032C48.341 9.36728 47.9737 9 47.5207 9C47.0677 9 46.7004 9.36728 46.7004 9.82032V11.6303H45.7672C45.4565 11.6303 45.1724 11.8058 45.0335 12.0837L43.28 15.5907C43.1528 15.845 43.1664 16.147 43.3159 16.3889C43.4654 16.6307 43.7294 16.7779 44.0137 16.7779H44.4399L43.28 19.0978C43.1528 19.3521 43.1664 19.654 43.3159 19.8959C43.4654 20.1377 43.7294 20.2849 44.0137 20.2849H44.4399L43.28 22.6048C43.1528 22.8591 43.1664 23.1611 43.3159 23.4029C43.4654 23.6447 43.7294 23.7919 44.0137 23.7919H44.9469V25.6584H39.5734V23.7919H40.5066C40.7908 23.7919 41.0549 23.6447 41.2044 23.4029C41.3539 23.1611 41.3675 22.8591 41.2403 22.6048L40.0803 20.2849H40.5066C40.7908 20.2849 41.0549 20.1377 41.2044 19.8959C41.3539 19.654 41.3675 19.3521 41.2403 19.0978L40.0803 16.7779H40.5066C40.7908 16.7779 41.0549 16.6307 41.2044 16.3889C41.3539 16.147 41.3675 15.845 41.2403 15.5907L39.4866 12.0837C39.3477 11.8058 39.0637 11.6303 38.753 11.6303H37.8198V9.82032C37.8198 9.36728 37.4525 9 36.9994 9C36.5464 9 36.1791 9.36728 36.1791 9.82032V11.6303H35.2459C34.9352 11.6303 34.6512 11.8058 34.5122 12.0837L32.7587 15.5907C32.6315 15.845 32.6451 16.147 32.7946 16.3889C32.9441 16.6307 33.2082 16.7779 33.4924 16.7779H33.9187L32.7587 19.0978C32.6315 19.3521 32.6451 19.654 32.7946 19.8959C32.9441 20.1377 33.2082 20.2849 33.4924 20.2849H33.9187L32.7587 22.6048C32.6315 22.8591 32.6451 23.1611 32.7946 23.4029C32.9441 23.6447 33.2082 23.7919 33.4924 23.7919H34.4256V25.6584H29.0521V23.7919H29.9853C30.2696 23.7919 30.5336 23.6447 30.6831 23.4029C30.8326 23.1611 30.8462 22.8591 30.719 22.6048L29.5591 20.2849H29.9853C30.2696 20.2849 30.5336 20.1377 30.6831 19.8959C30.8326 19.654 30.8462 19.3521 30.719 19.0978L29.5591 16.7779H29.9853C30.2696 16.7779 30.5336 16.6307 30.6831 16.3889C30.8326 16.147 30.8462 15.845 30.719 15.5907L28.9655 12.0837C28.8266 11.8058 28.5425 11.6303 28.2318 11.6303H27.2986V9.82032C27.2986 9.36728 26.9313 9 26.4783 9C26.0253 9 25.658 9.36728 25.658 9.82032V11.6303H24.7248C24.4141 11.6303 24.13 11.8058 23.9911 12.0837L22.2375 15.5907C22.1103 15.845 22.1238 16.147 22.2734 16.3889C22.4229 16.6307 22.6869 16.7779 22.9712 16.7779H23.3974L22.2375 19.0978C22.1103 19.3521 22.1238 19.654 22.2734 19.8959C22.4229 20.1377 22.6869 20.2849 22.9712 20.2849H23.3974L22.2375 22.6048C22.1103 22.8591 22.1238 23.1611 22.2734 23.4029C22.4229 23.6447 22.6869 23.7919 22.9712 23.7919H23.9045V25.6584H17.7105C16.7747 25.6584 16.0135 26.4197 16.0135 27.3555V29.109C16.0135 30.0448 16.7747 30.8061 17.7105 30.8061H17.767V58.0987H16.8338C15.898 58.0987 15.1367 58.86 15.1367 59.7958V63.3028C15.1367 64.2386 15.898 65 16.8338 65H57.1651C58.1009 65 58.8622 64.2386 58.8622 63.3028V59.7958C58.8622 58.8603 58.1009 58.099 57.1651 58.099ZM46.274 13.2709H48.7671L49.7005 15.1373H45.3409L46.274 13.2709ZM46.274 16.778H48.7671L49.7005 18.6444H45.3409L46.274 16.778ZM46.274 20.285H48.7671L49.7005 22.1514H45.3409L46.274 20.285ZM48.4538 23.7922V25.6586H46.5874V23.7922H48.4538ZM35.7529 13.2709H38.246L39.1792 15.1373H34.8197L35.7529 13.2709ZM35.7529 16.778H38.246L39.1792 18.6444H34.8197L35.7529 16.778ZM35.7529 20.285H38.246L39.1792 22.1514H34.8197L35.7529 20.285ZM37.9326 23.7922V25.6586H36.0663V23.7922H37.9326ZM25.2317 13.2709H27.7248L28.658 15.1373H24.2984L25.2317 13.2709ZM25.2317 16.778H27.7248L28.658 18.6444H24.2984L25.2317 16.778ZM25.2317 20.285H27.7248L28.658 22.1514H24.2984L25.2317 20.285ZM27.4114 23.7922V25.6586H25.545V23.7922H27.4114ZM57.1651 63.3596H16.8338C16.8026 63.3596 16.7774 63.3343 16.7774 63.303V59.796C16.7774 59.7649 16.8026 59.7396 16.8338 59.7396H20.3412C20.7943 59.7396 21.1616 59.3723 21.1616 58.9193C21.1616 58.4662 20.7943 58.099 20.3412 58.099H19.4076V30.8063H25.658V31.7395C25.658 32.1925 26.0253 32.5598 26.4783 32.5598C26.9313 32.5598 27.2986 32.1925 27.2986 31.7395V30.8063H36.1791V31.7395C36.1791 32.1925 36.5464 32.5598 36.9994 32.5598C37.4525 32.5598 37.8198 32.1925 37.8198 31.7395V30.8063H46.7003V31.7395C46.7003 32.1925 47.0676 32.5598 47.5206 32.5598C47.9736 32.5598 48.3409 32.1925 48.3409 31.7395V30.8063H50.1504C50.6035 30.8063 50.9707 30.439 50.9707 29.986C50.9707 29.5329 50.6035 29.1657 50.1504 29.1657H17.7105C17.6794 29.1657 17.6541 29.1404 17.6541 29.1092V27.3557C17.6541 27.3245 17.6794 27.2993 17.7105 27.2993H56.2883C56.3195 27.2993 56.3448 27.3245 56.3448 27.3557V29.1092C56.3448 29.1404 56.3195 29.1657 56.2883 29.1657H53.6575C53.2045 29.1657 52.8372 29.5329 52.8372 29.986C52.8372 30.439 53.2045 30.8063 53.6575 30.8063H54.5913V58.099H23.8481C23.3951 58.099 23.0278 58.4662 23.0278 58.9193C23.0278 59.3723 23.3951 59.7396 23.8481 59.7396H57.1651C57.1963 59.7396 57.2215 59.7649 57.2215 59.796V63.303C57.2215 63.3342 57.1963 63.3596 57.1651 63.3596Z" fill="#98A782"/>
<path d="M46.6723 51.2448L38.3606 36.8485C38.0765 36.3563 37.5677 36.0625 36.9993 36.0625C36.431 36.0625 35.9222 36.3563 35.6381 36.8485L27.3264 51.2448C27.0422 51.737 27.0422 52.3246 27.3264 52.8167C27.6104 53.3088 28.1194 53.6027 28.6877 53.6027H45.311C45.8793 53.6027 46.3882 53.3088 46.6723 52.8167C46.9564 52.3246 46.9564 51.737 46.6723 51.2448ZM28.8067 51.9621L36.9993 37.7719L45.192 51.9621H28.8067Z" fill="#98A782"/>
<path d="M39.3177 46.6039C39.1134 46.3264 38.7893 46.1624 38.4446 46.1624H37.0297L38.0355 42.9341C38.2136 42.3625 37.8946 41.7548 37.323 41.5767C36.7514 41.3986 36.1438 41.7176 35.9656 42.2892L34.5217 46.9239C34.4192 47.253 34.4793 47.6112 34.6836 47.8888C34.8878 48.1663 35.212 48.3304 35.5567 48.3304H36.9715L35.9657 51.5588C35.7876 52.1304 36.1066 52.7382 36.6782 52.9162C36.7856 52.9496 36.8942 52.9655 37.001 52.9655C37.4629 52.9655 37.891 52.6679 38.0355 52.2037L39.4794 47.5688C39.582 47.2397 39.5219 46.8814 39.3177 46.6039Z" fill="#98A782"/>
</svg>
