<svg width="69" height="70" viewBox="0 0 69 70" fill="none" xmlns="http://www.w3.org/2000/svg">
<path d="M9.14628 53.9181C9.14628 55.2276 9.14628 56.5371 9.14628 57.8214C9.14628 58.1235 9.34774 58.1991 9.59956 58.1991C10.0277 58.1991 10.4809 58.1991 10.909 58.1991C11.4379 58.2243 11.7652 58.5013 11.7652 59.0049C11.7652 59.5086 11.4379 59.8107 10.9342 59.8359C10.3802 59.8611 9.80102 59.8863 9.24701 59.8359C8.18936 59.7352 7.50945 58.9545 7.48426 57.8214C7.45908 56.6378 7.45908 55.429 7.48426 54.2455C7.48426 53.9181 7.4339 53.6663 7.13171 53.4397C6.7288 53.1123 6.52734 52.659 6.52734 52.105C6.52734 51.7021 6.52734 51.2992 6.52734 50.9214C6.52734 49.6372 7.18208 48.9824 8.44118 48.9572C8.5671 48.9572 8.69301 48.9321 8.81892 48.9321C8.99519 48.6299 8.89446 48.3025 8.91965 48.0003C8.94483 45.9606 8.76855 43.8956 9.37292 41.8811C10.909 36.7691 14.2834 33.6717 19.471 32.5385C20.1257 32.3874 20.5538 32.6392 20.6545 33.1429C20.7552 33.6717 20.4531 34.0242 19.7983 34.1502C16.2728 34.8553 13.6287 36.7691 11.8911 39.942C11.1609 41.2515 10.7328 42.6869 10.632 44.1978C10.5061 45.7591 10.5817 47.3204 10.5817 48.9321C13.251 48.9321 15.8447 48.9321 18.4385 48.9321C18.6148 48.6551 18.5392 48.3529 18.5392 48.0759C18.5392 47.1693 18.5392 46.2628 18.5392 45.3814C18.5896 43.3416 19.9494 42.007 21.964 41.9818C23.072 41.9566 24.18 41.9818 25.288 41.9818C25.5147 41.9818 25.7413 42.0322 25.9931 41.9062C25.9931 39.3125 25.9931 36.7187 25.9931 34.0242C25.288 34.0242 24.5829 34.0242 23.8778 34.0242C23.5001 34.0242 23.1727 33.9235 22.9713 33.571C22.6691 33.0421 23.0216 32.4126 23.7015 32.3874C24.3311 32.3622 24.9607 32.3622 25.5902 32.3874C25.9679 32.4126 26.1442 32.2615 26.2701 31.9089C26.6227 30.8765 27.353 30.1462 28.4106 29.844C28.9142 29.6929 29.015 29.4411 28.9898 28.9878C28.9394 28.2827 29.0905 27.6028 29.569 27.0488C29.7956 26.797 30.0474 26.52 30.3496 26.4444C30.9036 26.3185 30.9792 25.966 30.9792 25.4875C30.954 24.6061 30.9792 23.7248 30.9792 22.8434C30.9792 21.4835 31.3821 21.0554 32.7671 21.0051C32.893 21.0051 33.0189 20.9799 33.2204 20.9547C33.2204 19.9978 33.2456 19.0661 33.1952 18.1343C33.17 17.7062 32.1627 17.0767 31.7346 17.127C29.2164 17.4796 26.673 17.8825 24.1045 18.2854C21.9892 18.6128 20.3271 17.2026 20.2768 15.0873C20.2768 14.5333 20.2516 13.9541 20.2768 13.4001C20.3271 11.4107 21.9892 10.0005 23.9534 10.3027C26.5723 10.6804 29.1661 11.0833 31.7346 11.4862C32.1124 11.5366 32.339 11.4611 32.616 11.1841C34.4039 9.37094 37.174 9.37094 38.9619 11.1841C39.2389 11.4611 39.4656 11.5618 39.8433 11.4862C40.6743 11.3351 45.5093 10.6049 46.3403 10.479C46.9446 10.3782 47.3476 10.63 47.4735 11.1085C47.5742 11.6121 47.2972 11.9647 46.6676 12.0906C46.2647 12.1662 41.8327 12.8461 41.4298 12.9216C41.0268 12.9972 40.5987 13.0475 40.1455 13.1231C40.2714 13.8785 40.3469 14.6088 40.1203 15.3643C40.8506 15.6413 41.5809 15.6665 42.3111 15.7672C44.1242 16.0694 45.9625 16.3464 47.7757 16.6234C48.8837 16.7997 49.6139 16.1701 49.6391 15.0621C49.6643 14.5081 49.6643 13.9289 49.6391 13.3749C49.6139 12.418 48.934 11.8388 47.9771 11.9143C47.549 11.9395 47.0957 12.0402 46.6676 12.0906C46.164 12.141 45.7863 11.9143 45.7107 11.3855C45.6352 10.8567 45.9374 10.5293 46.441 10.4538C47.1713 10.353 47.9267 10.1264 48.6822 10.2523C50.168 10.5041 51.2256 11.7129 51.3011 13.2238C51.3263 13.9037 51.3263 14.6088 51.3011 15.2887C51.2256 17.1774 49.5132 18.5876 47.6497 18.2854C45.0308 17.8825 42.437 17.4544 39.8181 17.0515C39.3396 16.9759 38.4079 17.681 38.4079 18.1595C38.3827 19.0409 38.4079 19.9223 38.4079 20.7784C38.6849 20.9799 38.9367 20.9044 39.1885 20.9295C40.1203 20.9799 40.6239 21.4584 40.6239 22.4153C40.6491 23.4729 40.6239 24.5558 40.6239 25.6134C40.6239 25.8904 40.5988 26.1422 40.9513 26.2681C42.1349 26.6962 42.6637 27.5776 42.6133 28.8115C42.5881 29.3655 42.714 29.6677 43.3184 29.844C44.3005 30.121 44.9553 30.8513 45.3078 31.8082C45.4589 32.2111 45.6352 32.3622 46.0633 32.337C47.5742 32.3119 49.0851 32.3119 50.5961 32.337C50.9738 32.337 51.1752 32.2867 51.3263 31.8586C51.7796 30.5491 52.8121 29.8188 54.1971 29.8188C56.6146 29.7936 59.0321 29.7936 61.4244 29.8188C62.4065 29.8188 62.9353 30.3477 62.9353 31.3549C62.9353 35.7114 62.9353 40.0931 62.9353 44.4496C62.9353 45.4317 62.4065 45.9858 61.4244 45.9858C58.9817 46.0109 56.5642 46.0109 54.1215 45.9858C52.8121 45.9858 51.9055 45.2806 51.3767 44.1223C51.2256 43.7697 51.0493 43.6186 50.6464 43.6186C49.0851 43.6438 47.549 43.6438 45.9877 43.6186C45.6352 43.6186 45.4337 43.7194 45.2826 44.0719C44.6783 45.5828 43.4947 46.2879 41.883 46.3131C41.4298 46.3131 36.7926 46.3383 36.3393 46.3131C35.8105 46.2879 35.4579 46.0613 35.4327 45.4821C35.4076 45.0037 35.7601 44.7015 36.3393 44.6763C36.8178 44.6511 41.4549 44.6763 41.9334 44.6763C43.117 44.6259 43.8472 43.8956 43.8472 42.7121C43.8472 39.5391 43.8724 36.3662 43.8472 33.2184C43.8472 32.0097 43.0666 31.2794 41.8579 31.2794C37.8035 31.2794 33.7492 31.2794 29.7201 31.2794C28.4358 31.2794 27.6803 32.0349 27.6803 33.3191C27.6803 36.4165 27.6803 39.5391 27.6803 42.6365C27.6803 43.9712 28.4106 44.7015 29.7453 44.7015C31.9361 44.7015 34.1521 44.7015 36.343 44.7015C36.7711 44.7015 37.1488 44.8022 37.2999 45.2555C37.5013 45.7843 37.1236 46.3383 36.4941 46.3383C34.0514 46.3635 31.5836 46.4138 29.1409 46.3131C27.7559 46.2628 26.7486 45.4317 26.2449 44.1223C26.0938 43.7445 25.8924 43.669 25.5398 43.669C24.3563 43.6942 23.1475 43.669 21.964 43.669C20.8056 43.669 20.1761 44.3237 20.1761 45.4569C20.1761 46.6153 20.1761 47.7485 20.1761 48.9321C20.3271 48.9572 20.4279 49.0076 20.5286 49.0076C21.9892 49.058 22.5684 49.6623 22.5432 51.1229C22.5432 51.8028 22.7698 52.6338 22.2158 53.1123C21.5107 53.7418 21.6114 54.4721 21.6114 55.2276C21.6114 56.1341 21.6366 57.0407 21.6114 57.9221C21.5863 59.0805 20.8056 59.9115 19.622 59.9366C18.0608 59.9618 16.4743 59.9366 14.913 59.9366C14.3086 59.9366 13.9561 59.5841 13.9561 59.0805C13.9561 58.5768 14.3086 58.2746 14.9382 58.2746C16.3736 58.2746 17.8341 58.2494 19.2695 58.2746C19.7983 58.2746 19.9746 58.0984 19.9494 57.5695C19.9242 56.5119 19.9242 55.4794 19.9494 54.4218C19.9494 54.0692 19.8739 53.8929 19.471 53.8929C16.1469 53.9181 12.7977 53.8929 9.47365 53.8929C9.39811 53.8678 9.29738 53.8929 9.14628 53.9181ZM61.2481 44.2985C61.2481 39.9672 61.2481 35.7366 61.2481 31.4557C58.8054 31.4557 56.4383 31.4305 54.046 31.4557C53.3157 31.4557 52.8373 32.0349 52.8121 32.7903C52.7869 33.4702 52.8121 34.125 52.8121 34.8049C52.8121 37.449 52.8121 40.0931 52.8121 42.7373C52.8121 43.669 53.2654 44.2734 54.0964 44.2734C56.4635 44.3237 58.8306 44.2985 61.2481 44.2985ZM51.0997 34.0242C49.211 34.0242 47.3979 34.0242 45.61 34.0242C45.61 36.6935 45.61 39.2873 45.61 41.8811C47.4735 41.8811 49.2866 41.8811 51.0997 41.8811C51.0997 39.2369 51.0997 36.6432 51.0997 34.0242ZM31.4576 13.2238C31.3569 13.1734 31.3317 13.1231 31.3065 13.1231C28.7632 12.7202 26.2198 12.2921 23.6764 11.9395C22.7194 11.7884 22.0143 12.4432 21.9892 13.4253C21.964 13.9793 21.964 14.5081 21.9892 15.0621C22.0143 16.1953 22.7446 16.8248 23.8778 16.6738C25.6909 16.3968 27.5292 16.1198 29.3423 15.8176C30.0474 15.6917 30.7777 15.6665 31.508 15.4147C31.3065 14.634 31.3317 13.9037 31.4576 13.2238ZM35.8141 11.4862C34.278 11.4862 32.9937 12.7453 32.9937 14.2815C32.9937 15.7924 34.2277 17.0515 35.7638 17.0767C37.2999 17.1019 38.5842 15.8427 38.6094 14.3066C38.6094 12.7957 37.3503 11.5114 35.8141 11.4862ZM8.18936 52.105C8.49155 52.2561 8.74337 52.2057 8.99519 52.2057C11.4127 52.2057 13.8302 52.2057 16.2225 52.2057C17.6075 52.2057 18.9925 52.2057 20.3775 52.2057C20.7804 52.2057 20.9567 52.0798 20.9315 51.6769C20.9063 51.3244 21.0071 50.9718 20.856 50.6444C16.6254 50.6444 12.42 50.6444 8.21455 50.6444C8.18936 51.1733 8.18936 51.6265 8.18936 52.105ZM40.9261 29.5418C40.9261 29.1893 40.9513 28.9123 40.9261 28.6101C40.9009 28.0813 40.5987 27.8043 40.0699 27.8043C37.1992 27.8043 34.3284 27.8043 31.4576 27.8043C30.954 27.8043 30.677 28.1064 30.6518 28.5849C30.6266 28.8871 30.5763 29.2145 30.7274 29.5418C34.1018 29.5418 37.4762 29.5418 40.9261 29.5418ZM34.958 22.6419C34.1773 22.6419 33.447 22.6419 32.6664 22.6419C32.6664 23.7248 32.6664 24.7572 32.6664 25.8149C32.6664 25.966 32.7167 26.1171 32.9182 26.1171C33.5981 26.1171 34.278 26.1171 34.958 26.1171C34.958 24.9083 34.958 23.8003 34.958 22.6419ZM36.6703 26.0667C37.451 26.0667 38.1813 26.0667 38.8864 26.0667C38.8864 24.8831 38.8864 23.7751 38.8864 22.6671C38.1309 22.6671 37.4006 22.6671 36.6703 22.6671C36.6703 23.8003 36.6703 24.9083 36.6703 26.0667ZM36.6452 20.854C36.6452 20.1237 36.6452 19.4186 36.6452 18.6883C36.066 18.6883 35.512 18.6883 34.9831 18.6883C34.5299 20.6274 34.832 21.0554 36.5192 20.9044C36.5696 20.9044 36.5696 20.9044 36.6452 20.854Z" fill="#98A782"/>
</svg>
