<svg width="69" height="70" viewBox="0 0 69 70" fill="none" xmlns="http://www.w3.org/2000/svg">
<path d="M40.4148 14.113H40.6946C41.254 14.113 41.627 13.6468 41.627 13.1806C41.627 12.7144 41.1608 12.2482 40.6946 12.2482H40.4148C39.8554 12.2482 39.4824 12.7144 39.4824 13.1806C39.4824 13.6468 39.9486 14.113 40.4148 14.113Z" fill="#98A782"/>
<path d="M42 42.2725H42.2797C42.8391 42.2725 43.2121 41.8063 43.2121 41.3401C43.3054 40.8738 42.8391 40.4076 42.2797 40.4076H42C41.4405 40.4076 41.0675 40.8738 41.0675 41.3401C41.0675 41.8995 41.5337 42.2725 42 42.2725Z" fill="#98A782"/>
<path d="M36.9648 41.3401C36.9648 43.7644 38.7364 46.0022 41.0675 46.4684H41.254V50.3847C41.254 50.9441 41.7202 51.3171 42.1864 51.3171C42.4662 51.3171 42.6527 51.2239 42.8392 51.0374C43.0256 50.8509 43.1189 50.5711 43.1189 50.3847V46.5617H43.3054C45.6364 46.0022 47.4081 43.8576 47.4081 41.4333C47.4081 38.4495 45.077 36.0252 42.1864 36.0252C39.2959 36.0252 36.9648 38.3563 36.9648 41.3401ZM42.1864 37.9833C44.0513 37.9833 45.5432 39.4752 45.5432 41.3401C45.5432 43.2049 44.0513 44.6968 42.1864 44.6968C40.3216 44.6968 38.8297 43.2049 38.8297 41.3401C38.8297 39.4752 40.3216 37.9833 42.1864 37.9833Z" fill="#98A782"/>
<path d="M55.1473 28.7522L53.0027 28.0063L51.4175 16.5374C51.231 15.232 50.4851 14.2063 49.4594 13.5536C49.2729 13.4603 49.0864 13.3671 48.9 13.3671C48.527 13.3671 48.2473 13.5536 48.0608 13.8333C47.9675 14.113 47.8743 14.2995 47.9675 14.5793C48.0608 14.859 48.154 15.0455 48.4337 15.1387C48.9932 15.5117 49.3662 15.9779 49.4594 16.7238L51.231 28.8455C51.231 29.2184 51.5108 29.4982 51.8837 29.5914L54.5878 30.5238C56.1729 31.0833 56.8256 31.6428 56.7324 32.2955L53.8419 52.2495C53.7486 52.9955 53.3756 53.4617 52.7229 53.8347C52.6297 53.9279 52.4432 53.9279 52.35 54.0211C52.35 54.0211 52.35 54.0211 52.2567 54.0211C52.0702 54.1144 51.977 54.1144 51.7905 54.2076L33.6081 58.2171C33.6081 58.2171 33.5148 58.2171 33.4216 58.2171C33.2351 58.2171 33.0486 58.1238 32.8621 58.0306C32.7689 57.9374 32.6756 57.8441 32.5824 57.7509C32.3027 57.3779 32.1162 56.8184 32.0229 56.259L31.9297 55.6995C31.8364 55.4198 31.7432 55.2333 31.5567 55.1401C31.4635 55.0468 31.4635 55.0468 31.3702 54.9536C31.277 54.8603 31.0905 54.8603 30.9973 54.8603C30.904 54.8603 30.8108 54.9536 30.7175 54.9536L18.9689 59.2428L14.6797 60.8279C14.5864 60.8279 14.5864 60.8279 14.4932 60.8279C14.4 60.8279 14.3067 60.8279 14.3067 60.8279C14.1202 60.7347 13.9337 60.6414 13.8405 60.5482C13.4675 60.1752 13.1878 59.6157 13.281 59.1495L18.8756 25.4887C18.9689 24.6495 19.4351 23.8103 19.9946 23.5306C20.181 23.4374 20.3675 23.2509 20.554 23.0644C20.6473 22.8779 20.6473 22.5982 20.554 22.3184C20.4608 21.9455 20.0878 21.6657 19.6216 21.6657C19.5283 21.6657 19.3419 21.6657 19.2486 21.759C18.5959 22.0387 18.0364 22.5049 17.6635 23.1576C17.2905 23.7171 17.0108 24.463 16.9175 25.1157L11.2297 58.7766C11.0432 59.8955 11.5094 61.2009 12.5351 62.0401C13.0946 62.5063 13.7473 62.786 14.4 62.786C14.6797 62.786 14.9594 62.6928 15.2392 62.5995L30.2513 57.0982L30.3446 57.3779C30.6243 58.4036 31.277 59.2428 31.9297 59.709C32.3027 59.9887 32.8621 60.1752 33.3283 60.1752C33.3283 60.1752 33.3283 60.1752 33.4216 60.1752C33.6081 60.1752 33.7946 60.1752 33.981 60.082L52.1635 56.0725C54.1216 55.6063 55.427 54.3941 55.6135 52.5293L58.504 32.5752C58.877 30.1509 56.1729 29.1252 55.1473 28.7522Z" fill="#98A782"/>
<path d="M27.2675 30.4306H27.454V34.2536C27.454 34.813 27.9202 35.186 28.3864 35.186C28.6662 35.186 28.8527 35.0928 29.0392 34.9063C29.2256 34.7198 29.3189 34.4401 29.3189 34.2536V30.4306H29.5054C31.8364 29.8711 33.6081 27.7266 33.6081 25.3022C33.6081 22.3184 31.277 19.9874 28.3864 19.9874C25.4959 19.9874 23.1648 22.3184 23.1648 25.3022C23.1648 27.7266 24.9364 29.9644 27.2675 30.4306ZM28.3864 21.9455C30.2513 21.9455 31.7432 23.4374 31.7432 25.3022C31.7432 27.1671 30.2513 28.659 28.3864 28.659C26.5216 28.659 25.0297 27.1671 25.0297 25.3022C25.0297 23.4374 26.5216 21.9455 28.3864 21.9455Z" fill="#98A782"/>
<path d="M39.3892 18.4022H39.5756V22.2252C39.5756 22.7847 40.0419 23.1576 40.5081 23.1576C40.6946 23.1576 40.881 23.0644 40.9743 22.9711H41.0675C41.0675 22.9711 41.1608 22.9711 41.1608 22.8779C41.3473 22.6914 41.4405 22.4117 41.4405 22.2252V18.4022H41.627C43.9581 17.8428 45.7297 15.6982 45.7297 13.2738C45.7297 10.2901 43.3986 7.95898 40.5081 7.95898C37.6175 7.95898 35.2864 10.2901 35.2864 13.2738C35.2864 15.6982 37.0581 17.936 39.3892 18.4022ZM40.5081 9.91709C42.3729 9.91709 43.8648 11.409 43.8648 13.2738C43.8648 15.1387 42.3729 16.6306 40.5081 16.6306C38.6432 16.6306 37.1513 15.1387 37.1513 13.2738C37.1513 11.409 38.6432 9.91709 40.5081 9.91709Z" fill="#98A782"/>
<path d="M26.0554 17.2833C26.1486 17.2833 26.1486 17.2833 26.2419 17.2833C26.7081 17.2833 27.081 16.9103 27.1743 16.4441L27.827 12.8076C27.9202 11.9684 28.3864 11.2225 28.7594 10.9428C28.8527 10.8495 29.0392 10.7563 29.1324 10.7563C29.2256 10.7563 29.2256 10.7563 29.3189 10.7563L32.3027 11.409C32.3959 11.409 32.4891 11.409 32.4891 11.409C32.9554 11.409 33.3283 11.1293 33.4216 10.663C33.5148 10.1036 33.2351 9.63736 32.6756 9.54412L29.7851 8.89142C29.5054 8.89142 29.3189 8.89142 29.1324 8.89142C28.5729 8.89142 28.1067 9.0779 27.6405 9.35763C26.7081 10.0103 26.0554 11.1293 25.8689 12.5279L25.2162 16.1644C25.2162 16.4441 25.2162 16.6306 25.4027 16.9103C25.4959 17.0968 25.7756 17.2833 26.0554 17.2833Z" fill="#98A782"/>
<path d="M28.2932 26.1414H28.5729C29.1324 26.1414 29.5054 25.6752 29.5054 25.209C29.5054 24.7428 29.0392 24.2766 28.5729 24.2766H28.2932C27.7337 24.2766 27.3608 24.7428 27.3608 25.209C27.3608 25.7684 27.827 26.1414 28.2932 26.1414Z" fill="#98A782"/>
</svg>
