<svg width="69" height="70" viewBox="0 0 69 70" fill="none" xmlns="http://www.w3.org/2000/svg">
<path d="M8.62109 30.6994C7.61815 30.6994 6.69439 30.6994 5.77062 30.6994C5.05801 30.6994 4.66211 30.4091 4.66211 29.8548C4.66211 29.3006 5.0844 28.9575 5.79702 28.9575C6.72078 28.9575 7.64454 28.9047 8.5683 28.9575C9.12256 28.9839 9.33371 28.7727 9.49206 28.2977C9.91436 27.0308 10.495 25.8695 11.102 24.6818C11.4716 23.9692 12.0258 23.5469 12.844 23.5733C13.6094 23.5997 14.1637 23.9956 14.5068 24.7082C14.9027 25.5 15.2986 26.3182 15.7473 27.2155C16.0376 26.6085 16.2751 26.107 16.5127 25.6055C16.8294 24.9457 17.2781 24.4706 18.0699 24.4706C18.8353 24.4706 19.2575 24.9457 19.5743 25.5792C19.759 25.9487 19.9438 26.3182 20.1813 26.7668C20.498 26.0542 20.762 25.3944 21.0523 24.761C21.2898 24.2067 21.6857 23.7844 22.3456 23.7844C23.0054 23.7844 23.3749 24.1803 23.6388 24.7346C24.2195 25.8959 24.6154 27.1364 24.9321 28.4032C25.0377 28.7991 25.196 28.9311 25.5919 28.9311C31.3192 28.9311 37.073 28.9311 42.8003 28.9311C43.2226 28.9311 43.4073 28.7991 43.5129 28.3768C43.8032 27.0836 44.2255 25.8431 44.8326 24.6554C45.0965 24.1539 45.466 23.7844 46.0466 23.7844C46.6801 23.758 47.076 24.1275 47.3135 24.6554C47.6038 25.3152 47.8942 25.975 48.2373 26.7405C48.5012 26.239 48.7124 25.8431 48.9235 25.4208C49.2138 24.8401 49.6889 24.4442 50.3751 24.4442C51.0614 24.4442 51.51 24.8401 51.8268 25.4208C52.0907 25.975 52.381 26.5029 52.6977 27.1627C53.12 26.3182 53.5159 25.5792 53.859 24.8137C54.2285 24.0483 54.7828 23.5469 55.6274 23.5469C56.4984 23.5469 57.0262 24.0747 57.3957 24.8137C57.9764 25.975 58.557 27.1364 58.9529 28.3768C59.0849 28.7991 59.296 28.9575 59.7447 28.9311C60.7213 28.8783 61.7242 28.9047 62.7008 28.9311C63.3342 28.9311 63.7301 29.2742 63.7565 29.8021C63.7565 30.3299 63.387 30.673 62.7271 30.673C61.777 30.673 60.8004 30.673 59.7975 30.673C59.8767 31.412 60.1406 31.9927 60.2726 32.6261C60.4573 33.3651 60.2462 33.8402 59.7183 33.9722C59.1641 34.1042 58.7946 33.8138 58.5834 33.0748C57.8972 30.6203 57.1318 28.1921 55.9441 25.9223C55.8649 25.7375 55.7593 25.5792 55.6538 25.3944C55.3634 25.5264 55.2843 25.7903 55.1787 26.0014C53.6215 29.1158 52.6449 32.415 51.9587 35.7933C51.1141 39.8843 50.6655 44.0544 50.5335 48.2245C50.5071 48.8316 50.6918 49.0163 51.2989 48.9899C54.1758 48.9635 57.0526 48.9635 59.9295 48.9899C60.5101 48.9899 60.6685 48.858 60.6421 48.2509C60.5365 44.7406 60.1934 41.2831 59.6127 37.8256C59.5864 37.6672 59.56 37.5353 59.5336 37.3769C59.4544 36.8227 59.6391 36.4004 60.2198 36.2948C60.7213 36.1892 61.1172 36.5059 61.2227 37.0866C61.4603 38.4854 61.6714 39.8579 61.8562 41.2567C62.1465 43.6585 62.3049 46.0603 62.384 48.4884C62.4368 49.9929 61.7242 50.7055 60.1934 50.7319C59.5336 50.7319 58.8737 50.7319 58.1611 50.7319C58.1611 51.5237 58.1611 52.2363 58.1611 52.9489C58.1611 56.1953 58.3987 55.8258 55.2315 55.8521C54.9148 55.8521 54.5716 55.8521 54.2549 55.8521C53.2784 55.8521 53.0145 55.5882 53.0145 54.5853C53.0145 53.3448 53.0145 52.0779 53.0145 50.7055C52.2754 50.7055 51.5628 50.7055 50.8766 50.7055C49.425 50.7055 48.686 49.9401 48.7651 48.4884C48.8443 46.9576 48.9235 45.4268 48.9763 43.8696C48.3429 43.7113 47.7358 43.7905 47.1288 43.7905C45.8619 43.7641 45.334 43.2098 45.3604 41.9429C45.3868 40.3329 45.5188 38.7494 45.6771 37.1394C45.7035 36.9282 45.7035 36.7171 45.7299 36.4795C45.2549 36.2948 44.7798 36.4004 44.3311 36.374C42.9586 36.3476 42.5627 35.9517 42.6419 34.5792C42.6947 33.5235 42.8003 32.4678 42.9059 31.412C42.9322 31.2009 43.0114 30.9898 42.8795 30.7258C40.9264 30.7258 38.9733 30.7258 36.9938 30.7258C36.8618 30.937 37.0202 31.0689 37.073 31.2273C41.0583 40.0954 45.0437 48.9371 49.0555 57.8052C49.1083 57.9372 49.1874 58.0956 49.2402 58.2275C49.5305 58.9138 49.3986 59.4152 48.8971 59.6264C48.3956 59.8375 47.947 59.6 47.6302 58.8874C47.3663 58.2803 47.076 57.6733 46.812 57.0926C42.9586 48.5412 39.1052 39.9898 35.2518 31.412C34.9879 30.8314 34.6976 30.6466 34.0641 30.6466C33.5099 30.6466 33.2723 30.8578 33.0348 31.3329C28.9439 40.4913 24.8001 49.6234 20.7092 58.7554C20.6564 58.8874 20.6036 58.9929 20.5508 59.1249C20.3133 59.6 19.9438 59.8111 19.4159 59.6264C18.9408 59.468 18.7561 58.9665 18.9672 58.4123C19.3367 57.5149 19.759 56.6439 20.1549 55.773C23.85 47.5911 27.5186 39.4092 31.2137 31.2537C31.2665 31.1217 31.3192 30.9634 31.3984 30.7522C29.3661 30.7522 27.3867 30.7522 25.3544 30.7522C25.4336 31.7024 25.5127 32.6789 25.5919 33.6291C25.6183 34.0514 25.6447 34.4737 25.6711 34.8696C25.6975 35.8725 25.2224 36.3476 24.2459 36.374C23.718 36.374 23.1901 36.374 22.7151 36.374C22.5039 36.6643 22.6095 36.9018 22.6359 37.1394C22.7942 38.7494 22.9262 40.3329 22.9526 41.9429C22.979 43.2098 22.4511 43.7641 21.1843 43.7905C20.6036 43.7905 19.9966 43.7905 19.3895 43.7905C19.2575 44.3711 19.3631 44.899 19.3895 45.4004C19.4423 46.4826 19.5215 47.5647 19.5479 48.6204C19.6007 49.9137 18.8353 50.7055 17.5684 50.7055C16.8558 50.7055 16.1168 50.7055 15.4041 50.7055C15.2194 51.1806 15.325 51.6292 15.2986 52.0515C15.2722 52.9225 15.2986 53.8199 15.2986 54.6908C15.2986 55.5354 15.0346 55.7994 14.1901 55.8258C13.2135 55.8258 12.2106 55.8258 11.234 55.8258C10.4686 55.8258 10.1783 55.509 10.1519 54.7172C10.1255 53.6351 10.1519 52.553 10.1519 51.4973C10.1519 51.2597 10.1519 51.0222 10.1519 50.7055C9.38649 50.7055 8.67388 50.7055 7.98765 50.7055C6.6416 50.7055 5.90259 49.9665 5.92898 48.6204C6.08734 42.7083 6.77357 36.8754 8.43634 31.1745C8.5683 31.0953 8.5683 30.9634 8.62109 30.6994ZM12.8176 25.2888C11.8938 26.8724 11.2604 28.4296 10.7325 30.0396C8.75306 36.0309 7.96126 42.2069 7.75011 48.4621C7.72372 48.9107 7.90847 49.0163 8.33076 49.0163C11.3132 49.0163 14.322 48.9899 17.3045 49.0163C17.7795 49.0163 17.9115 48.858 17.8851 48.4093C17.8323 46.7729 17.7531 45.1629 17.5948 43.5265C17.1725 39.0133 16.4071 34.5528 14.9818 30.2244C14.4276 28.5616 13.7678 26.9516 12.8176 25.2888ZM50.3223 26.4501C47.9997 31.4912 47.3399 36.6907 47.1288 42.0485C47.5774 42.0485 47.9206 42.0485 48.2373 42.0485C48.554 42.0221 48.8971 42.1277 49.2138 41.9693C49.2402 41.8901 49.2666 41.811 49.2666 41.7054C49.7153 37.7728 50.4543 33.893 51.642 30.0924C51.6948 29.934 51.7212 29.8021 51.6684 29.6437C51.3253 28.6408 50.9822 27.585 50.3223 26.4501ZM18.0962 26.4765C17.5684 27.3475 17.3045 28.1393 16.9877 28.9311C16.7502 29.5381 16.7502 30.066 16.9613 30.6994C17.3308 31.7816 17.5948 32.8901 17.8587 33.9986C18.413 36.4531 18.8617 38.9341 19.1256 41.4679C19.152 41.7318 19.0728 42.0749 19.5479 42.0749C20.1021 42.0749 20.6828 42.0749 21.3162 42.0749C21.0523 36.6907 20.4452 31.4648 18.0962 26.4765ZM22.3456 26.3709C21.8441 27.8226 20.9995 29.195 21.5274 30.8842C21.9233 32.0983 22.108 33.3915 22.3983 34.632C22.9262 34.632 23.4277 34.632 23.9819 34.632C23.8764 31.7552 23.5069 28.9839 22.3456 26.3709ZM44.4894 34.6056C45.0173 34.6056 45.5188 34.6056 46.0203 34.6056C46.3106 33.3651 46.5217 32.1247 46.8648 30.937C47.1288 30.0396 47.1288 29.2214 46.8384 28.3768C46.6009 27.6906 46.4953 26.9516 46.073 26.2918C45.2285 27.7962 44.3839 32.2038 44.4894 34.6056ZM13.583 54.1102C13.583 52.9489 13.583 51.8668 13.583 50.7847C13.0288 50.7319 12.5537 50.7055 11.9994 50.8111C11.9994 51.9196 11.9994 53.0017 11.9994 54.1102C12.5537 54.1894 13.0551 54.163 13.583 54.1102ZM54.8356 50.7583C54.8356 51.8932 54.8356 52.9753 54.8356 54.1366C55.2843 54.1366 55.6802 54.1366 56.1025 54.1366C56.3136 54.1366 56.4456 54.0574 56.4456 53.8463C56.4456 52.8169 56.4456 51.814 56.4456 50.7583C55.8649 50.7583 55.3898 50.7583 54.8356 50.7583Z" fill="#98A782"/>
<path d="M25.9091 19.3254C25.5396 18.4016 24.9061 17.9529 23.956 18.0057C23.3489 18.0321 22.9794 17.8209 22.6627 17.2931C21.4486 15.2344 19.4955 14.5218 17.2521 15.2344C16.6979 15.4192 16.2228 15.2344 16.038 14.7857C15.8533 14.3107 16.0644 13.8884 16.6187 13.6244C18.9413 12.5951 21.9501 13.4397 23.5865 15.5775C23.9032 15.9734 24.1935 16.211 24.7478 16.2901C26.173 16.5541 27.1496 17.425 27.651 18.7975C28.0205 19.8268 27.3607 20.8826 26.2786 21.0673C26.0674 21.0937 25.8299 21.0937 25.6188 21.0937C20.8152 21.0937 15.9852 21.0937 11.1817 21.0937C10.9705 21.0937 10.733 21.1201 10.5218 21.0673C10.0204 20.9881 9.70365 20.6978 9.73005 20.1963C9.73005 19.6949 10.0204 19.4045 10.4955 19.3781C10.9705 19.3254 11.472 19.3254 11.9471 19.3518C12.343 19.3781 12.5013 19.2198 12.5541 18.8503C12.6333 18.2432 12.8444 17.6626 13.1084 17.1083C13.3987 16.5277 13.8474 16.3165 14.3225 16.5541C14.8503 16.818 14.9295 17.2667 14.692 17.7946C14.4808 18.2696 14.2697 18.7447 14.3225 19.3254C18.1759 19.3254 22.0029 19.3254 25.9091 19.3254Z" fill="#98A782"/>
<path d="M52.5645 18.0053C50.5059 18.0053 48.4208 18.0053 46.3621 18.0053C45.8871 18.0053 45.4912 17.9261 45.28 17.4246C45.0689 16.8704 45.4648 16.2105 46.0718 16.2897C47.3387 16.4481 48.1569 16.0522 48.7903 14.8909C49.2126 14.0991 50.11 13.6504 50.981 13.4128C51.456 13.2809 51.6936 13.0433 51.9047 12.621C53.0396 10.3512 55.5734 9.3219 58.0543 10.0609C60.3241 10.7471 61.8286 13.0433 61.5646 15.4715C61.4063 17.0287 60.3769 17.9789 58.7933 18.0053C56.7347 18.0053 54.6496 18.0053 52.5645 18.0053ZM49.978 16.1841C50.0836 16.2369 50.11 16.2897 50.1364 16.2897C53.0396 16.2897 55.9429 16.3161 58.8197 16.2897C59.4268 16.2897 59.7699 15.9466 59.8227 15.3132C59.981 13.5184 58.8461 11.9876 57.0514 11.6445C55.415 11.3014 53.6995 12.3307 53.2244 13.9935C53.0396 14.6533 52.6965 14.9436 52.0367 14.9964C51.1921 15.0228 50.5059 15.4451 49.978 16.1841Z" fill="#98A782"/>
<path d="M35.0955 56.882C35.0955 57.489 35.1219 58.1225 35.0955 58.7295C35.0691 59.3894 34.726 59.7589 34.1981 59.7325C33.5911 59.6797 33.3535 59.2838 33.3535 58.7559C33.3535 57.5154 33.3271 56.2486 33.3535 55.0081C33.3535 54.3747 33.723 53.9788 34.2509 54.0051C34.8315 54.0579 35.0691 54.4538 35.0955 54.9817C35.0955 55.5887 35.0955 56.2486 35.0955 56.882Z" fill="#98A782"/>
<path d="M33.3535 48.0943C33.3535 47.5664 33.3271 47.0386 33.3535 46.5107C33.3799 45.9828 33.6175 45.5605 34.1981 45.5605C34.8052 45.5605 35.0691 45.9564 35.0691 46.5107C35.0955 47.6192 35.0955 48.7013 35.0691 49.8099C35.0691 50.3641 34.7788 50.76 34.1981 50.7336C33.5911 50.7072 33.3799 50.3113 33.3535 49.7571C33.3271 49.2028 33.3535 48.6486 33.3535 48.0943Z" fill="#98A782"/>
<path d="M33.3535 40.7306C33.3535 40.3083 33.3271 39.886 33.3535 39.4901C33.3799 38.9623 33.6966 38.6191 34.2509 38.6191C34.7788 38.6191 35.0691 38.9623 35.0691 39.4637C35.0955 40.3083 35.0955 41.1793 35.0691 42.0239C35.0427 42.5253 34.7524 42.8421 34.2245 42.8421C33.6966 42.8421 33.4063 42.5253 33.3799 42.0239C33.3271 41.6016 33.3535 41.1529 33.3535 40.7306Z" fill="#98A782"/>
<path d="M35.119 34.5016C35.0926 34.7919 35.0926 35.1086 35.0398 35.3989C34.9342 35.8476 34.6439 36.0588 34.1952 36.0588C33.7729 36.0588 33.4826 35.7948 33.4034 35.3989C33.2978 34.7919 33.2978 34.1848 33.4034 33.5778C33.4826 33.1819 33.7729 32.9444 34.1952 32.918C34.6439 32.918 34.9606 33.1291 35.0398 33.5778C35.0926 33.8681 35.0926 34.1848 35.119 34.5016Z" fill="#98A782"/>
</svg>
