<svg width="69" height="70" viewBox="0 0 69 70" fill="none" xmlns="http://www.w3.org/2000/svg">
<path d="M33.2944 40.0665C32.9055 40.0665 32.6277 40.0665 32.35 40.0665C27.8222 40.0665 23.2667 40.0665 18.7389 40.0665C18.2945 40.0665 17.8501 40.0665 17.4334 40.0665C16.9612 40.0665 16.489 40.0665 16.239 39.5387C16.0167 39.0387 16.2945 38.7054 16.5723 38.3442C18.4334 35.9554 20.2667 33.5387 22.1278 31.1499C28.4055 23.0388 34.6833 14.9 40.961 6.76112C41.0166 6.67779 41.0721 6.62223 41.1277 6.5389C41.4332 6.15001 41.7943 5.95557 42.2666 6.20557C42.711 6.45557 42.8221 6.84445 42.6832 7.31667C42.1277 9.2611 41.5999 11.2333 41.0444 13.2055C39.5721 18.4833 38.0999 23.761 36.6277 29.0388C36.5722 29.2888 36.5166 29.5388 36.4333 29.761C36.711 29.9832 36.9888 29.8999 37.2666 29.8999C42.0443 29.8999 46.8499 29.8999 51.6276 29.8999C51.9332 29.8999 52.2387 29.8999 52.5165 29.8999C52.9054 29.8999 53.2387 30.0387 53.4332 30.4276C53.6276 30.8165 53.4609 31.1499 53.2387 31.4554C52.0165 33.0387 50.8221 34.6221 49.5999 36.1776C42.6555 45.1775 35.7111 54.1775 28.7667 63.1496C28.6555 63.2885 28.5722 63.4274 28.4611 63.5385C28.1555 63.8441 27.7944 63.983 27.4056 63.7608C26.9889 63.5385 26.85 63.1774 26.9889 62.7052C27.5444 60.733 28.1 58.733 28.6278 56.7608C30.1 51.4831 31.5722 46.2053 33.0444 40.9276C33.1555 40.7053 33.2111 40.4553 33.2944 40.0665ZM39.7944 11.3166C39.7388 11.2889 39.711 11.2611 39.6555 11.2333C32.7111 20.2333 25.7667 29.2332 18.7389 38.3442C19.2112 38.3442 19.4612 38.3442 19.7112 38.3442C24.4889 38.3442 29.2389 38.3442 34.0166 38.3442C35.1555 38.3442 35.4611 38.7331 35.1555 39.7887C33.7944 44.7609 32.4055 49.7053 31.0166 54.6497C30.6555 55.983 30.2666 57.3441 29.9055 58.6775C29.9611 58.7052 29.9889 58.7052 30.0444 58.733C36.9888 49.7331 43.9332 40.7331 50.961 31.6221C50.4887 31.6221 50.2387 31.6221 49.9887 31.6221C45.211 31.6221 40.4055 31.6221 35.6277 31.6221C34.6 31.6221 34.2666 31.2054 34.5444 30.2332C35.2666 27.5943 35.9888 24.9832 36.7388 22.3444C37.7388 18.6777 38.7666 14.9833 39.7944 11.3166Z" fill="#98A782"/>
<path d="M20.1269 26.2879C20.0991 26.8435 19.5991 27.2046 19.0436 27.0379C18.8491 26.9824 18.6547 26.8713 18.488 26.7602C16.7936 25.8157 15.0714 24.8435 13.3491 23.8991C12.738 23.538 12.5436 23.0935 12.7936 22.6213C13.0436 22.1491 13.5436 22.0657 14.1825 22.3991C15.9602 23.3991 17.738 24.3991 19.488 25.3991C19.8491 25.5935 20.1269 25.8157 20.1269 26.2879Z" fill="#98A782"/>
<path d="M13.6278 47.8168C13.1278 47.7891 12.85 47.5946 12.7389 47.1779C12.6278 46.7335 12.7944 46.4002 13.1833 46.178C14.2111 45.5946 15.2389 45.0113 16.2666 44.4557C17.1 43.9835 17.9055 43.5113 18.7388 43.0669C19.3222 42.7335 19.8499 42.8446 20.0722 43.2891C20.3499 43.8724 20.0999 44.2613 19.5722 44.5391C17.7388 45.5668 15.9055 46.5946 14.0722 47.6224C13.9055 47.7335 13.7111 47.7891 13.6278 47.8168Z" fill="#98A782"/>
<path d="M57.0431 23.0101C57.0153 23.3712 56.8486 23.6212 56.5431 23.7878C54.6542 24.8434 52.7931 25.8989 50.9042 26.9267C50.432 27.1767 49.9876 27.1489 49.7098 26.6489C49.4042 26.1211 49.6264 25.7045 50.1264 25.4267C51.9875 24.3712 53.8209 23.3434 55.682 22.3156C56.3486 21.9545 57.0431 22.3434 57.0431 23.0101Z" fill="#98A782"/>
<path d="M57.0161 46.9838C56.9884 47.6782 56.3217 48.0115 55.655 47.6227C54.6828 47.0949 53.7106 46.5393 52.7662 45.9838C51.9051 45.4838 51.0439 45.0116 50.1828 44.5116C49.6828 44.2338 49.4606 43.8449 49.7106 43.3171C49.9328 42.8449 50.4328 42.7338 51.0162 43.0671C52.8495 44.0949 54.6828 45.1227 56.5161 46.1505C56.8217 46.3449 57.0161 46.5949 57.0161 46.9838Z" fill="#98A782"/>
<path d="M22.9038 57.1505C22.2649 57.1782 21.8205 56.5394 22.126 55.956C23.1816 53.9838 24.2927 52.0394 25.4038 50.0949C25.626 49.6783 26.0705 49.595 26.4871 49.8172C26.9038 50.0394 27.0427 50.4561 26.8482 50.8727C26.6816 51.2616 26.4593 51.6227 26.2649 51.9838C25.4316 53.4838 24.5982 54.956 23.7649 56.456C23.5982 56.8171 23.376 57.1505 22.9038 57.1505Z" fill="#98A782"/>
<path d="M47.6835 56.205C47.6835 56.7049 47.4891 56.9827 47.0724 57.1216C46.628 57.2327 46.2946 57.0938 46.0724 56.7049C45.628 55.9272 45.1835 55.1216 44.7669 54.3439C44.1835 53.2883 43.5724 52.2605 43.0169 51.205C42.6558 50.5661 42.7391 50.0661 43.2391 49.8439C43.8224 49.5661 44.2113 49.8439 44.4891 50.3717C45.5169 52.1772 46.5168 53.9827 47.5446 55.7883C47.6002 55.9272 47.6279 56.0938 47.6835 56.205Z" fill="#98A782"/>
<path d="M47.6799 13.7602C47.6521 13.8435 47.5965 14.038 47.5132 14.2046C46.4854 16.038 45.4577 17.8713 44.4299 19.7046C44.2077 20.0657 43.9299 20.3157 43.4855 20.2324C42.8466 20.1213 42.6244 19.4824 42.9855 18.8157C43.8466 17.2324 44.7355 15.6768 45.6243 14.0935C45.8188 13.7602 45.9854 13.4269 46.1799 13.1491C46.4021 12.8435 46.7632 12.7602 47.1243 12.8991C47.4854 13.0102 47.6521 13.288 47.6799 13.7602Z" fill="#98A782"/>
<path d="M26.9325 19.5952C26.9325 19.8174 26.7659 20.0674 26.4325 20.2063C26.0714 20.3452 25.7381 20.2619 25.4881 19.9841C25.2937 19.7619 25.1548 19.4841 25.0159 19.2341C24.0992 17.623 23.2103 16.0119 22.2937 14.4008C21.9326 13.7619 21.9881 13.2619 22.4326 13.0119C22.9048 12.7342 23.4048 12.9286 23.7659 13.5675C24.7381 15.2897 25.6825 16.9841 26.6548 18.7063C26.7936 18.9286 26.9603 19.1508 26.9325 19.5952Z" fill="#98A782"/>
<path d="M19.5726 18.8159C19.5726 19.177 19.406 19.427 19.1004 19.5936C18.7949 19.7603 18.4337 19.7325 18.1837 19.4825C16.906 18.2048 15.6282 16.9548 14.3782 15.6492C14.0449 15.3159 14.1282 14.8715 14.4615 14.5381C14.7949 14.2326 15.2115 14.177 15.5171 14.4826C16.8226 15.7326 18.0726 17.0103 19.3504 18.2881C19.4893 18.427 19.5448 18.6214 19.5726 18.8159Z" fill="#98A782"/>
<path d="M55.5414 54.9281C55.5414 55.1781 55.3747 55.4004 55.097 55.567C54.7914 55.7337 54.4303 55.7337 54.1803 55.4837C52.9025 54.2337 51.597 52.9559 50.347 51.6504C50.0137 51.317 50.0692 50.8726 50.4026 50.5393C50.7359 50.2059 51.1803 50.1504 51.5137 50.4837C52.7914 51.7337 54.0414 52.9837 55.2914 54.2615C55.4581 54.4281 55.5414 54.6226 55.5414 54.9281Z" fill="#98A782"/>
<path d="M55.5404 15.1228C55.5682 15.4006 55.4293 15.6228 55.2348 15.7894C54.0404 16.9839 52.846 18.1783 51.6515 19.3728C51.2349 19.7616 50.7904 19.845 50.3738 19.4283C49.9571 18.9839 50.0682 18.5394 50.4849 18.1505C51.6515 16.9839 52.846 15.7894 54.0126 14.6228C54.2904 14.345 54.6237 14.2061 55.0126 14.3728C55.346 14.5117 55.5126 14.7617 55.5404 15.1228Z" fill="#98A782"/>
<path d="M19.5719 51.1229C19.5719 51.4285 19.4053 51.6507 19.2108 51.8452C18.0442 53.0118 16.8775 54.1507 15.7386 55.3173C15.3498 55.7062 14.9053 55.8173 14.4609 55.4285C14.072 55.0674 14.0998 54.5674 14.572 54.0951C15.7386 52.9285 16.8775 51.7618 18.0442 50.6229C18.3497 50.3174 18.6831 50.1785 19.0997 50.3729C19.4053 50.5118 19.5719 50.7618 19.5719 51.1229Z" fill="#98A782"/>
<path d="M46.6558 22.3154C46.6558 22.121 46.7391 21.9543 46.8503 21.8154C47.2391 21.3988 47.6558 20.9821 48.0725 20.5932C48.4336 20.2877 48.8502 20.2599 49.2114 20.5932C49.6002 20.9543 49.6002 21.371 49.2669 21.7599C48.878 22.2043 48.4614 22.5932 48.0447 22.9821C47.7669 23.2321 47.4336 23.2876 47.0725 23.0932C46.7669 22.9543 46.628 22.6765 46.6558 22.3154Z" fill="#98A782"/>
<path d="M23.0706 47.5948C23.0706 47.8448 22.9873 48.067 22.8206 48.2337C22.4317 48.6226 22.0428 49.0392 21.654 49.4004C21.2651 49.7337 20.8484 49.7615 20.4873 49.3726C20.1262 49.0393 20.1262 48.5948 20.4595 48.2615C20.8484 47.817 21.2928 47.4004 21.7373 46.9837C21.9873 46.7337 22.3206 46.7337 22.654 46.8726C22.904 47.0115 23.0706 47.2615 23.0706 47.5948Z" fill="#98A782"/>
<path d="M48.6816 49.6212C48.4594 49.6212 48.265 49.5656 48.0983 49.4267C47.6816 49.0101 47.265 48.6212 46.8761 48.2045C46.5428 47.8156 46.515 47.399 46.9039 47.0379C47.265 46.6768 47.7094 46.7045 48.0705 47.0379C48.4872 47.399 48.8761 47.8156 49.2372 48.2045C49.515 48.4823 49.5427 48.8156 49.3761 49.1767C49.265 49.4545 49.015 49.6212 48.6816 49.6212Z" fill="#98A782"/>
<path d="M23.0698 22.3161C23.0698 22.705 22.9309 22.955 22.6253 23.0939C22.3198 23.2605 21.9865 23.2605 21.7087 23.0105C21.2642 22.5939 20.792 22.1494 20.4031 21.705C20.1254 21.3994 20.1531 21.0105 20.4031 20.6772C20.6254 20.3716 21.0142 20.2328 21.3198 20.3994C22.0142 20.7883 22.5698 21.3994 23.0142 22.0661C23.0698 22.1772 23.0698 22.2883 23.0698 22.3161Z" fill="#98A782"/>
</svg>
