<svg width="69" height="70" viewBox="0 0 69 70" fill="none" xmlns="http://www.w3.org/2000/svg">
<path d="M16.3309 43.2087C16.3309 40.447 16.3309 37.7627 16.3309 35.001C14.4468 35.1042 12.5884 34.8203 10.7301 35.1816C10.6784 35.1816 10.601 35.2333 10.5494 35.2333C8.53615 35.9043 7.29725 37.6078 7.29725 39.7759C7.29725 45.2736 7.29725 50.797 7.29725 56.2947C7.29725 56.5012 7.32306 56.7335 7.27144 56.9399C7.194 57.3787 6.91009 57.6368 6.47131 57.6626C6.00672 57.6885 5.69699 57.4045 5.61956 56.9658C5.59375 56.7851 5.59375 56.5786 5.59375 56.3979C5.59375 50.9261 5.59375 45.4284 5.59375 39.9566C5.59375 36.085 8.30386 33.3749 12.1496 33.3749C13.5176 33.3749 14.8856 33.3749 16.2535 33.3749C16.3826 32.9619 16.46 32.6006 16.6407 32.2909C17.3634 30.8971 18.6539 31.052 19.9186 31.0778C20.9252 31.1036 21.6737 31.5682 22.0351 32.4973C22.2157 32.9619 22.448 33.0136 22.861 33.0652C24.0225 33.1942 24.8742 32.9619 25.5195 31.8263C26.0615 30.8455 27.0165 30.1744 27.9199 29.4775C26.5261 28.3677 26.8358 26.8965 27.0939 25.5285C27.2746 24.5993 28.1264 24.2896 29.0814 24.2122C29.1588 23.3088 28.9523 22.3796 29.5201 21.5795C30.088 20.7794 30.8881 20.4438 31.8947 20.4438C31.8947 19.5663 31.8947 18.7145 31.8947 17.7853C30.759 17.7853 29.6492 17.7853 28.5393 17.7853C26.7584 17.7853 26.139 17.1659 26.139 15.3849C26.139 15.1785 26.139 14.9462 26.139 14.7397C26.139 13.4492 26.8617 12.7006 28.178 12.6748C29.5201 12.649 30.8365 12.6748 32.1786 12.6748C33.4433 12.6748 34.7081 12.6748 35.9728 12.6748C36.7213 12.6748 37.1084 12.9846 37.1084 13.5266C37.1084 14.0686 36.7213 14.3783 35.9728 14.3783C33.5466 14.3783 31.1204 14.3783 28.6942 14.3783C27.8425 14.3783 27.8425 14.3783 27.8425 15.2043C27.8425 16.0818 27.8425 16.0818 28.6684 16.0818C32.5916 16.0818 36.489 16.0818 40.4122 16.0818C40.6961 16.0818 41.1091 16.2625 41.1865 15.8495C41.2898 15.4108 41.3156 14.9462 41.1607 14.5074C41.1091 14.3267 40.851 14.3783 40.6961 14.3783C40.3606 14.3525 39.9992 14.3783 39.6637 14.3009C39.2765 14.2235 39.0959 13.9396 39.07 13.5524C39.0442 13.191 39.2249 12.9329 39.5346 12.7781C40.1799 12.4425 41.8318 12.6748 42.348 13.191C43.1997 14.017 43.1997 16.4432 42.348 17.2691C41.935 17.6563 41.4188 17.7853 40.8768 17.7853C39.6895 17.7853 38.5022 17.7853 37.3407 17.8111C37.3149 17.8111 37.2633 17.8369 37.1859 17.8886C37.1859 18.6887 37.1859 19.5404 37.1859 20.418C39.5863 20.5471 40.1799 22.0957 39.9734 24.1605C41.7802 24.5993 42.1157 25.0639 42.1415 26.8448C42.1415 27.6966 42.2189 28.5483 41.4704 29.1936C42.1157 29.7614 42.7868 30.2002 43.3288 30.768C43.8192 31.2843 44.3354 31.8005 44.6709 32.3941C44.9807 32.9103 45.342 33.0394 45.9098 33.0394C46.5035 33.0394 46.839 32.9103 47.0971 32.2909C47.4585 31.4391 48.2328 31.052 49.1878 31.052C50.3751 31.052 51.5882 30.9229 52.3367 32.1618C52.5432 32.5232 52.5948 32.9361 52.7238 33.3491C54.066 33.3491 55.4081 33.3491 56.7245 33.3491C60.7509 33.3491 63.4352 36.0334 63.4352 40.0598C63.4352 40.9116 63.4352 41.7892 63.4352 42.6409C63.4352 43.2604 63.0739 43.6475 62.5835 43.6475C62.0931 43.6475 61.7575 43.2604 61.7575 42.6151C61.7575 41.6601 61.7575 40.7309 61.7575 39.7759C61.7059 36.9884 59.7443 35.0268 56.9568 35.0268C55.563 35.0268 54.1692 35.0268 52.7238 35.0268C52.7238 37.7627 52.7238 40.447 52.7238 43.1571C53.2142 43.3378 53.7304 43.2345 54.2467 43.2345C55.1242 43.2604 55.4598 43.5701 55.4598 44.4476C55.4598 48.4999 55.4598 52.5263 55.4598 56.5786C55.4598 57.2755 55.15 57.6626 54.6338 57.6626C54.0918 57.6885 53.7563 57.2755 53.7563 56.5528C53.7563 52.9393 53.7563 49.3258 53.7563 45.7124C53.7563 45.4801 53.7563 45.2478 53.7563 45.0413C52.8787 44.809 52.8271 44.8348 52.569 45.5575C52.4915 45.7898 52.3625 46.0221 52.2076 46.2286C51.0462 47.7514 47.8715 47.4675 47.0713 45.7382C46.8907 45.351 46.6842 45.351 46.3486 45.2994C45.5485 45.222 45.0581 45.4801 44.5419 46.1511C39.5863 52.8877 29.675 52.6812 25.0033 45.764C24.771 45.4026 24.5129 45.2478 24.0999 45.2994C23.9192 45.3252 23.7644 45.3252 23.5837 45.2994C22.8094 45.222 22.2674 45.2994 21.777 46.1511C21.0285 47.4675 19.6089 47.1577 18.3958 47.0803C17.5182 47.0029 16.8988 46.4609 16.589 45.6091C16.2793 44.8348 16.3051 44.8348 15.4534 44.9638C15.2985 45.1961 15.376 45.4543 15.3501 45.7124C15.3501 49.2484 15.3501 52.7586 15.3501 56.2947C15.3501 56.5012 15.376 56.7335 15.3243 56.9399C15.2469 57.3787 14.963 57.6368 14.5242 57.6368C14.0596 57.6368 13.7499 57.3787 13.6466 56.9399C13.6208 56.7851 13.6208 56.6044 13.6208 56.4237C13.6208 52.4747 13.6208 48.4999 13.6208 44.5509C13.6208 43.4926 13.9047 43.2087 14.963 43.2087C15.4018 43.2087 15.8405 43.2087 16.3309 43.2087ZM46.7616 43.6217C46.7616 40.6019 46.7616 37.6853 46.7616 34.7171C46.1421 34.7171 45.5743 34.6912 45.0065 34.7171C44.387 34.7429 44.0257 34.5106 43.6901 33.9944C42.6061 32.136 41.0575 30.7422 39.07 29.8389C38.7603 29.684 38.4248 29.6066 38.0892 29.6066C35.947 29.6066 33.7789 29.6066 31.6366 29.6066C31.3269 29.6066 31.043 29.6582 30.759 29.7872C28.7716 30.6906 27.1714 32.0586 26.0615 33.9685C25.726 34.5622 25.313 34.7687 24.6419 34.7429C23.8676 34.7171 23.0675 34.7429 22.2674 34.7429C22.2416 34.9752 22.2416 35.13 22.2158 35.2591C22.1899 35.956 21.8802 36.3173 21.364 36.3173C20.822 36.3173 20.5381 35.956 20.5123 35.2591C20.5123 34.6912 20.5123 34.0976 20.5123 33.5298C20.5123 32.9877 20.2541 32.7296 19.7121 32.7555C19.5315 32.7555 19.325 32.7555 19.1443 32.7555C18.1635 32.7555 18.0603 32.8587 18.0603 33.8137C18.0603 37.2207 18.0603 40.6019 18.0603 44.0089C18.0603 45.4801 18.0603 45.4801 19.5315 45.4801C20.409 45.4801 20.5123 45.351 20.5123 44.4476C20.5123 42.7441 20.5123 41.0406 20.5123 39.363C20.5123 38.6661 20.822 38.3047 21.3382 38.2789C21.906 38.2531 22.2158 38.6403 22.2158 39.3888C22.2158 40.1631 22.2158 40.9374 22.2158 41.7117C22.2416 42.357 22.1383 42.9764 22.2674 43.5959C22.3448 43.6217 22.3964 43.6475 22.4222 43.6475C23.1191 43.6475 23.8418 43.6991 24.5387 43.6475C25.2872 43.5959 25.7002 43.8798 26.0873 44.4993C27.9715 47.5449 30.759 49.2226 34.3209 49.3775C38.3474 49.5581 41.4188 47.8288 43.5611 44.4476C43.9224 43.9056 44.2838 43.5959 44.9549 43.6475C45.5743 43.6475 46.1421 43.6217 46.7616 43.6217ZM48.5167 39.0532C48.5167 40.9116 48.5167 42.7441 48.5167 44.6025C48.5167 45.1703 48.749 45.4543 49.3168 45.4284C49.4975 45.4284 49.704 45.4284 49.8847 45.4284C50.8397 45.4284 50.9429 45.3252 50.9429 44.3444C50.9429 40.9632 50.9429 37.6078 50.9429 34.2267C50.9429 32.678 50.9429 32.6522 49.3685 32.7038C48.6458 32.7296 48.4909 32.8587 48.4909 33.5814C48.5167 35.4139 48.5167 37.2465 48.5167 39.0532ZM34.4758 27.9031C36.0502 27.9031 37.5988 27.9031 39.1733 27.9031C40.5671 27.9031 40.3864 28.1354 40.438 26.6125C40.4638 26.0189 40.2573 25.8382 39.6637 25.8382C36.4632 25.864 33.2627 25.8382 30.0622 25.864C28.4619 25.864 28.6942 25.5543 28.6426 27.3094C28.6426 27.7482 28.7974 27.9031 29.2362 27.9031C30.9913 27.8773 32.7206 27.9031 34.4758 27.9031ZM30.8107 24.1089C33.2627 24.1089 35.7405 24.1089 38.2699 24.1089C38.2699 23.8508 38.2699 23.6185 38.2699 23.3862C38.2699 22.3022 38.0634 22.0699 36.9536 22.0699C35.5082 22.0699 34.037 22.0699 32.5916 22.0699C30.8107 22.0957 30.6816 22.2247 30.8107 24.1089ZM35.3791 20.3406C35.3791 19.4372 35.3791 18.5855 35.3791 17.6821C34.7597 17.7079 34.1919 17.6047 33.6498 17.7337C33.6498 18.6113 33.6498 19.463 33.6498 20.3148C34.2435 20.3406 34.7855 20.3406 35.3791 20.3406Z" fill="#98A782"/>
<path d="M61.7578 51.5193C61.7578 49.8932 61.7578 48.2672 61.7578 46.6153C61.7578 45.9184 62.0675 45.5312 62.5838 45.5312C63.1258 45.5312 63.4355 45.9184 63.4355 46.5895C63.4355 49.919 63.4355 53.2486 63.4355 56.5782C63.4355 57.2492 63.1258 57.6622 62.6096 57.6622C62.0934 57.6622 61.7578 57.2751 61.7578 56.604C61.7578 54.9005 61.7578 53.2228 61.7578 51.5193Z" fill="#98A782"/>
</svg>
