<svg width="20" height="20" viewBox="0 0 20 20" fill="none" xmlns="http://www.w3.org/2000/svg">
<g clip-path="url(#clip0)">
<path d="M17.4461 1.45696C15.5035 -0.485654 12.3429 -0.485654 10.4003 1.45696L2.98189 8.87532C2.75295 9.10427 2.75295 9.47517 2.98189 9.70411C3.21084 9.93306 3.58174 9.93306 3.81068 9.70411L11.229 2.28575C12.6691 0.846846 15.1772 0.846846 16.6172 2.28575C18.1025 3.77103 18.1025 6.18813 16.6172 7.67341L6.2585 18.1488C5.37248 19.0348 3.82881 19.0348 2.94283 18.1488C2.02877 17.2347 2.02877 15.7477 2.94283 14.8337L12.8872 4.77208C13.2192 4.44013 13.7984 4.44013 14.1304 4.77208C14.4732 5.11489 14.4732 5.67298 14.1304 6.01583L4.60096 15.6624C4.4033 15.8601 4.4033 16.2935 4.60096 16.4912C4.8299 16.7202 5.2008 16.7202 5.42975 16.4912L14.9591 6.84458C15.7593 6.04438 15.7593 4.74345 14.9591 3.94329C14.1842 3.16833 12.8322 3.16946 12.0584 3.94329L2.11404 14.0049C0.753652 15.3652 0.753652 17.6171 2.11404 18.9775C2.77857 19.6421 3.6617 20 4.60092 20C5.54014 20 6.42334 19.6421 7.08729 18.9776L17.446 8.50216C19.3887 6.55954 19.3887 3.39954 17.4461 1.45696Z" fill="white"/>
</g>
<defs>
<clipPath id="clip0">
<rect width="20" height="20" fill="white"/>
</clipPath>
</defs>
</svg>
