<svg width="55" height="38" viewBox="0 0 55 38" fill="none" xmlns="http://www.w3.org/2000/svg">
<path d="M26.9632 0.448176C34.0797 0.448176 41.1962 0.448176 48.3126 0.448176C51.8 0.448176 54.0398 2.65189 54.0398 6.15524C54.0398 14.7723 54.0398 23.3894 54.0398 32.0065C54.0398 35.5381 51.8 37.7419 48.2843 37.7419C34.1081 37.7419 19.9318 37.7419 5.75556 37.7419C2.21149 37.7419 0 35.5099 0 31.9783C0 23.3894 0 14.7723 0 6.18349C0 2.62364 2.21149 0.419922 5.78391 0.419922C12.8153 0.448175 19.8751 0.448176 26.9632 0.448176ZM18.5709 17.9932C13.5241 23.7285 8.5341 29.4073 3.51571 35.0861C4.19617 35.6511 4.90498 35.6794 5.64215 35.6794C16.9264 35.6794 28.2391 35.6794 39.5234 35.6794C42.5287 35.6794 45.5341 35.6794 48.5395 35.6794C49.2483 35.6794 49.9287 35.5664 50.5241 35.0578C45.4774 29.3508 40.4874 23.672 35.469 17.9649C35.072 18.3039 34.7602 18.5582 34.4483 18.8407C32.2935 20.7337 30.1387 22.6549 27.9556 24.5478C27.1617 25.2541 26.8498 25.2541 26.0843 24.5478C24.2414 22.9374 22.4268 21.3552 20.6123 19.7448C19.9318 19.1798 19.2797 18.6147 18.5709 17.9932ZM4.42299 2.56714C4.39464 2.62364 4.36628 2.7084 4.36628 2.7649C11.908 9.40431 19.4215 16.0155 26.9916 22.6831C34.59 16.0155 42.1035 9.37606 49.6452 2.73665C49.6169 2.68015 49.5885 2.62364 49.5602 2.53888C34.505 2.56713 19.4498 2.56714 4.42299 2.56714ZM17.0398 16.637C12.1916 12.3709 7.4 8.16119 2.43832 3.782C2.2682 4.62959 2.04138 5.25115 2.04138 5.87271C1.98467 8.07643 2.01303 10.3084 2.01303 12.5121C2.01303 19.0385 2.01303 25.5649 2.01303 32.0913C2.01303 32.5151 2.09809 32.9389 2.15479 33.5322C7.20153 27.7969 12.0782 22.2593 17.0398 16.637ZM51.6015 4.00803C51.5165 4.00803 51.4031 4.00803 51.318 4.00803C46.5548 8.18944 41.7916 12.3709 37 16.6088C41.9333 22.2311 46.8383 27.7686 51.7149 33.3344C51.7717 33.3062 51.8284 33.2779 51.8851 33.2497C51.9134 32.9106 51.9701 32.5716 51.9701 32.2326C51.9701 30.6222 51.9701 28.9835 51.9701 27.3731C51.9701 20.2534 51.9701 13.1054 51.9418 5.98572C51.9418 5.30766 51.7149 4.65784 51.6015 4.00803Z" fill="#98A782"/>
</svg>
