<svg width="74" height="74" viewBox="0 0 74 74" fill="none" xmlns="http://www.w3.org/2000/svg">
<path d="M26.9906 53.5323C29.2189 54.1123 31.4472 54.3259 33.6755 54.2344C44.8474 53.8375 54.3099 46.1149 56.9045 35.2177C57.4234 33.0199 57.515 30.7306 57.576 28.4718C57.6676 25.3278 57.4539 22.1838 56.9961 19.0398C56.9045 18.3377 56.5993 18.0935 55.8972 18.1241C47.3504 18.4598 39.8109 21.3902 33.4313 27.1287C27.0822 32.8063 23.2667 39.9184 22.0457 48.3737C21.9236 49.2894 21.3742 49.8083 20.6721 49.6862C19.97 49.5641 19.5732 48.9536 19.7259 48.0684C19.9395 46.878 20.1532 45.657 20.4279 44.4666C20.55 43.9782 20.4279 43.6729 20.1227 43.3066C13.041 35.3703 12.0032 23.9237 17.5281 14.8274C18.3217 13.4844 19.268 12.2634 20.3363 11.1035C21.4657 9.8825 22.8088 9.63831 24.2435 10.554C27.1738 12.355 29.4326 14.7969 30.9588 17.8799C31.9661 19.8945 32.5766 22.0312 32.8208 24.29C33.1871 24.3816 33.3397 24.0763 33.5534 23.9237C40.1772 18.7346 47.7167 16.0484 56.1109 15.8347C57.8507 15.7737 58.9801 16.6894 59.2549 18.3988C60.1706 24.0763 60.3232 29.7844 59.2549 35.4008C58.217 40.8036 55.5309 45.4739 51.4406 49.1673C43.8096 56.0963 34.9575 58.1415 25.0371 55.3943C24.3961 55.2111 23.9077 55.2722 23.3277 55.6079C21.1605 56.8594 18.9322 57.9278 16.5818 58.8435C15.6356 59.2098 14.9946 59.0572 14.6893 58.3551C14.3841 57.6836 14.7504 57.0426 15.6661 56.6763C22.0762 54.1428 27.7843 50.4799 32.8208 45.7791C36.6669 42.1467 39.933 38.0259 42.6191 33.4778C42.8633 33.081 43.1075 32.7147 43.6264 32.6231C44.0843 32.5621 44.4811 32.7147 44.7558 33.1115C45.0611 33.5389 45.0305 33.9967 44.7558 34.3935C43.9927 35.645 43.2296 36.9271 42.4054 38.1175C38.3762 44.0087 33.3702 48.9536 27.479 53.0134C27.3264 53.1355 27.1127 53.2271 26.9906 53.5323ZM21.3131 41.1394C21.9236 39.5216 22.5036 38.0565 23.1751 36.6523C23.2362 36.5302 23.2362 36.4081 23.2362 36.286C23.3582 33.4778 23.3888 30.639 23.0225 27.8308C22.7783 25.8467 22.4425 23.8626 22.0152 21.8786C21.8931 21.2986 22.0152 20.8102 22.5646 20.505C23.0225 20.2302 23.5109 20.3218 23.9077 20.6881C24.1824 20.9323 24.274 21.2986 24.335 21.6344C25.0066 24.8089 25.5255 28.0445 25.617 31.3106C25.617 31.5548 25.556 31.86 25.8002 32.1347C27.1433 30.1812 28.6084 28.3802 30.2567 26.7625C30.4704 26.5488 30.5009 26.2741 30.5009 25.9993C30.3483 20.2913 27.9064 15.8653 23.1751 12.6907C22.6257 12.3244 22.2594 12.3855 21.8015 12.8739C15.8493 19.3756 14.5367 29.296 18.6575 37.1713C19.3901 38.5448 20.2142 39.8269 21.3131 41.1394Z" fill="#98A782"/>
</svg>
