<svg width="54" height="50" viewBox="0 0 54 50" fill="none" xmlns="http://www.w3.org/2000/svg">
<path d="M29.0405 1.98004C29.3057 1.38364 29.5468 0.834956 29.7878 0.286271C29.7982 0.265796 29.8074 0.243125 29.817 0.219672C29.852 0.133818 29.8912 0.0374739 30.0048 0C33.3075 0.834956 34.7057 4.10321 32.9459 6.98978C32.6084 7.53846 32.2709 8.08715 31.9575 8.63583C31.0655 10.1149 31.5477 11.5224 33.1387 12.1904C33.2613 12.2389 33.3777 12.2936 33.5005 12.3513C33.6192 12.4071 33.7439 12.4657 33.8861 12.5243C33.7527 12.8432 33.6194 13.1519 33.4884 13.4552C33.3352 13.8099 33.1853 14.1572 33.0423 14.5044C29.595 13.574 28.2691 10.4489 30.0289 7.46689C30.1977 7.18064 30.3664 6.90036 30.5351 6.62007C30.7039 6.33976 30.8727 6.05939 31.0414 5.77313C31.8852 4.31792 31.4271 2.98199 29.8843 2.31402C29.6825 2.25956 29.4946 2.17745 29.2676 2.07823C29.1963 2.0471 29.1211 2.01422 29.0405 1.98004Z" fill="#98A782"/>
<path fill-rule="evenodd" clip-rule="evenodd" d="M11.459 3.36131C11.8382 2.66967 12.8315 2.66898 13.2116 3.36016C15.8661 8.18739 18.4931 12.979 21.1357 17.7992L21.147 17.8198C21.8907 19.1764 22.6356 20.5352 23.3828 21.8977C23.7483 22.5642 23.2661 23.3787 22.506 23.3787H14.5155C13.9633 23.3787 13.5155 23.8264 13.5155 24.3787V28.118C13.5155 28.4433 13.7665 28.5934 13.9977 28.3646C16.2155 26.2414 19.5664 26.1698 21.8325 28.2692C22.2945 28.6978 22.722 29.1436 23.1511 29.5911C23.4384 29.8907 23.7266 30.1912 24.0263 30.4878C24.4006 30.8582 24.9263 30.7455 25.1825 30.2854C25.5831 29.566 25.9802 28.8523 26.3646 28.126C27.112 26.7661 27.8594 25.4003 28.6068 24.0344C29.354 22.6688 30.1013 21.3031 30.8486 19.9434C32.2468 17.3909 34.778 16.2219 37.4057 16.9376C39.0209 17.367 40.2263 18.3451 41.0218 19.8003C42.5406 22.5558 44.0534 25.3173 45.5662 28.0787C47.0789 30.8399 48.5915 33.6011 50.1102 36.3563C50.6526 37.3463 51.195 38.3304 51.7374 39.3144C52.2798 40.2985 52.8222 41.2825 53.3647 42.2726C54.4977 44.3719 54.0396 46.6859 52.1834 48.0934C51.2914 48.7852 50.2548 49.0238 49.1459 49.0238H4.93339C2.98071 49.0238 1.43785 48.3081 0.54589 46.5428C-0.29786 44.8967 -0.177324 43.2745 1.00393 41.8432C2.05537 40.588 3.21081 39.4357 4.36625 38.2834C4.87966 37.7714 5.39339 37.259 5.89768 36.738C6.74145 35.8672 7.58523 35.0024 8.429 34.1376C9.27273 33.2729 10.1165 32.4081 10.9602 31.5374C11.1289 31.3704 11.2736 31.2034 11.2736 30.9172V23.7127C11.2736 23.5355 11.0819 23.4264 10.9048 23.4264H2.19838C1.44116 23.4264 0.958725 22.6175 1.31904 21.9515C4.69164 15.7177 8.05126 9.57639 11.459 3.36131ZM35.6373 46.1334C35.5328 46.4298 35.7414 46.7575 36.0557 46.7575C37.2955 46.7575 38.5353 46.7536 39.7751 46.7497C42.8744 46.7399 45.9743 46.7302 49.0736 46.7813C51.195 46.829 52.2557 44.8967 51.2673 43.1552C48.5773 38.342 45.938 33.5186 43.2967 28.6918C41.8668 26.0787 40.4362 23.4641 38.9968 20.85C38.7557 20.4206 38.4664 20.015 38.0566 19.681C36.4173 18.369 34.0548 18.7745 32.9941 20.683C31.7169 22.9607 30.4643 25.2465 29.2124 27.531C28.314 29.1702 27.4157 30.8095 26.5093 32.4439C26.2979 32.8158 26.4526 32.9838 26.6836 33.2349L26.7021 33.255C27.3289 33.8991 27.9541 34.5447 28.5794 35.1903C30.4553 37.1271 32.3311 39.0639 34.2477 40.9605C35.7775 42.496 36.3365 44.1492 35.6373 46.1334ZM13.4898 45.9626C13.4476 46.3999 13.8235 46.7575 14.2629 46.7575H31.1379C32.0298 46.7575 32.8013 46.5428 33.3316 45.7555C33.9825 44.7774 33.8138 43.7516 32.8495 42.7497C30.8005 40.6505 28.7516 38.5454 26.7026 36.4403C24.6534 34.3349 22.6041 32.2294 20.5548 30.1299C19.0361 28.5793 16.987 28.5554 15.4441 30.0822C15.2181 30.3059 14.9964 30.5382 14.7735 30.7719C14.4735 31.0864 14.1712 31.4033 13.853 31.7044C13.5637 31.9668 13.4914 32.2769 13.4914 32.6586V45.9464L13.4898 45.9626ZM13.2115 8.03246C12.8313 7.34211 11.839 7.34309 11.4596 8.0339L9.95374 10.7753C8.32436 13.7412 6.71115 16.6777 5.09266 19.6325C4.72773 20.2988 5.20998 21.1124 5.96962 21.1124H18.6989C19.4586 21.1124 19.9409 20.2988 19.5762 19.6324C17.4616 15.7686 15.3559 11.9256 13.2115 8.03246ZM11.2078 35.0129C11.2165 34.7758 10.936 34.7103 10.7673 34.8772C8.18786 37.5252 5.60839 40.1732 3.02893 42.7974C2.30571 43.5369 1.99232 44.3719 2.40214 45.35C2.83607 46.3758 3.67982 46.7575 4.76464 46.7575C6.69321 46.7336 8.62178 46.7336 10.5504 46.7813C11.0807 46.7813 11.2254 46.6621 11.2254 46.1372C11.2133 44.3122 11.2133 42.4873 11.2133 40.6623C11.2133 38.8373 11.2133 37.0123 11.2012 35.1874C11.2012 35.1494 11.2032 35.1114 11.2051 35.0732C11.2061 35.0532 11.2071 35.0331 11.2078 35.0129Z" fill="#98A782"/>
<path d="M38.6888 0.522132C38.4914 0.988618 38.287 1.47141 38.0566 1.97999C38.3218 2.09927 38.5147 2.19469 38.7075 2.29011C40.4432 3.02965 40.8772 4.31786 39.937 5.94006C39.5031 6.63189 39.0691 7.32371 38.6834 8.03938C37.3093 10.6874 38.9968 13.9795 41.9861 14.5043C41.9982 14.4805 42.0162 14.4566 42.0343 14.4328C42.0524 14.4089 42.0705 14.385 42.0825 14.3612C42.1414 14.2253 42.2042 14.0894 42.2678 13.9519C42.3605 13.7515 42.4548 13.5476 42.5406 13.3354C42.7339 12.869 42.8243 12.6783 42.7661 12.5621C42.7082 12.4465 42.5033 12.4046 42.1066 12.238C40.5156 11.5462 40.0575 10.2103 40.9013 8.7312C41.0845 8.40063 41.2821 8.07959 41.4791 7.75956C41.7229 7.36364 41.9657 6.96928 42.179 6.56032C43.6254 3.91231 41.962 0.572489 38.9004 0.0238037C38.8302 0.188092 38.7599 0.354053 38.6888 0.522132Z" fill="#98A782"/>
</svg>
