<svg width="49" height="50" viewBox="0 0 49 50" fill="none" xmlns="http://www.w3.org/2000/svg">
<path d="M6.55962 45.1002C6.95747 45.2966 7.40989 45.4005 7.86913 45.4005C8.53946 45.4005 9.17832 45.183 9.66993 44.8102C9.903 44.6334 9.87838 44.2931 9.64243 44.1202L9.59455 44.0854C9.43455 43.97 9.22139 43.9868 9.05814 44.0975C8.71031 44.3301 8.3079 44.4543 7.89186 44.4543C6.83471 44.4543 5.94579 43.6843 5.82529 42.6613C5.69343 41.5413 6.40502 40.5793 7.51447 40.3738C7.63951 40.3489 7.76682 40.3377 7.89414 40.3377C8.81943 40.3377 9.61741 40.9541 9.88113 41.871C9.8925 41.9161 9.90387 41.9636 9.91296 42.0087C9.91637 42.0211 9.91978 42.0364 9.92319 42.0516C9.92602 42.0643 9.92885 42.0769 9.93168 42.0879C9.93268 42.0918 9.93621 42.0945 9.94024 42.0945C10.0994 42.09 10.2585 42.0878 10.4199 42.0878C10.654 42.0878 10.8434 41.8931 10.7931 41.6645C10.561 40.6097 9.66785 39.7096 8.51933 39.4683C8.30563 39.4231 8.08738 39.4005 7.8714 39.4005C6.5869 39.4005 5.44335 40.1977 5.02504 41.3855C4.51124 42.842 5.1569 44.4047 6.55962 45.1002Z" fill="#98A782"/>
<path fill-rule="evenodd" clip-rule="evenodd" d="M5.07013 23.7446C5.28024 28.05 5.49503 32.5 5.64677 36.4322C5.68909 36.4322 5.73141 36.4328 5.77343 36.4334C5.81487 36.434 5.85601 36.4345 5.89658 36.4345C6.15805 36.4345 6.39151 36.4252 6.61797 36.3902C6.46906 32.4784 6.25524 28.0478 6.04812 23.7562L6.04599 23.712C5.94809 21.6921 5.84922 20.2298 5.75624 18.8545C5.64523 17.2127 5.54261 15.6949 5.46003 13.5005L5.44836 13.1576L42.1879 13.1506C42.5218 13.1506 42.8579 13.1506 43.1918 13.153L43.2679 13.153C43.1895 15.2286 43.1108 17.1024 43.0324 18.9706C42.9153 21.7584 42.7987 24.5345 42.6846 27.9496C42.4978 33.5261 42.304 39.2938 42.1149 44.4015C42.0659 45.7612 41.6153 46.1997 40.2683 46.1997H31.1073C24.8342 46.1997 17.6017 46.1973 14.1068 46.195C14.0806 46.195 14.0555 46.197 14.0301 46.1991C14.0169 46.2001 14.0036 46.2012 13.99 46.202C13.9317 46.2067 13.871 46.2113 13.8126 46.2113C13.5955 46.2113 13.4204 46.1484 13.2756 46.0177L13.1683 45.9198V45.7752C13.1683 45.507 13.2827 45.3041 13.3737 45.1431C13.4017 45.0942 13.4297 45.0452 13.4531 44.9939C14.2515 43.2074 14.2212 41.4278 13.3667 39.7066C12.3371 37.6355 10.2617 36.3481 7.94576 36.3481C6.91154 36.3481 5.87498 36.6163 4.94814 37.1248C3.52871 37.9037 2.46647 39.2658 2.03223 40.8634C1.598 42.4657 1.81278 44.1099 2.64156 45.4953C3.78318 47.4054 5.75591 48.5459 7.91775 48.5459C9.09439 48.5459 10.243 48.1961 11.2375 47.5337C11.6134 47.2865 11.9963 47.1699 12.4492 47.1699C16.0211 47.1745 22.7705 47.1769 29.0155 47.1769H29.0377C33.5656 47.1769 37.8282 47.1769 40.4177 47.1746C42.0962 47.1746 43.0184 46.279 43.0814 44.5857C43.2822 39.2075 43.4877 33.1342 43.6838 27.2616C43.7938 23.9888 43.9062 21.3261 44.0187 18.6611C44.0935 16.8871 44.1684 15.112 44.2427 13.1553C44.6977 13.155 45.1506 13.1503 45.6034 13.1413C46.7287 13.1157 47.4851 12.3763 47.5271 11.2545C47.5458 10.7437 47.5598 7.30442 47.5154 6.70969C47.4501 5.86074 46.7917 5.16339 45.9489 5.05378C45.7668 5.03045 45.5754 5.01879 45.3816 5.01879C45.2625 5.01879 45.1435 5.02346 45.0267 5.03279L45.0197 5.03323C44.985 5.0354 44.9523 5.03745 44.9217 5.03745C44.4968 5.03745 44.2096 4.82755 44.0439 4.39374C43.9159 4.0608 43.7753 3.72577 43.6381 3.39851L43.6143 3.34189C43.4182 2.87543 43.2151 2.39032 43.04 1.90054C42.9116 1.53904 42.7925 1.45508 42.3863 1.45508C40.0797 1.46441 35.9288 1.46907 29.6955 1.46907C27.8982 1.46907 26.0938 1.46843 24.384 1.46781C22.8445 1.46726 21.3817 1.46674 20.0699 1.46674L16.2855 1.46441L11.4973 1.46674C9.76734 1.46674 8.0374 1.46441 6.29813 1.45741C6.01798 1.45741 5.95728 1.51338 5.88023 1.72329C5.77051 2.01716 5.64444 2.30403 5.52071 2.58157L5.49363 2.64356C5.32838 3.0218 5.17149 3.38091 5.06079 3.7547C4.79231 4.66895 4.29037 5.05844 3.38222 5.05844C3.32385 5.05844 3.26082 5.05611 3.19778 5.05378C3.16043 5.05145 3.12308 5.05145 3.08572 5.05145C2.0655 5.05145 1.35112 5.8001 1.30909 6.91493C1.28808 7.4327 1.29044 10.7881 1.31612 11.2942C1.36748 12.36 2.09588 13.0877 3.16979 13.146C3.27718 13.1506 3.38458 13.153 3.49664 13.153C3.54215 13.153 3.58821 13.1524 3.63537 13.1519C3.68491 13.1513 3.73588 13.1506 3.78846 13.1506C3.84424 13.1506 3.90114 13.1501 3.95941 13.1495C4.02054 13.1489 4.08351 13.1483 4.14799 13.1483H4.46549L4.47717 13.4655C4.56011 15.6861 4.66466 17.2207 4.77788 18.8823C4.8718 20.2609 4.97168 21.7269 5.07013 23.7446ZM2.57211 6.29455C2.8616 6.00301 3.29584 6.00301 4.1573 6.00301L45.0688 6.00068C45.6898 6.00068 46.054 6.01234 46.3014 6.2619C46.5489 6.50912 46.5582 6.86595 46.5582 7.47468C46.5559 9.17957 46.3972 12.1711 44.6813 12.1711H20.0256V12.1758H3.71142C2.52311 12.1758 2.28265 11.9332 2.28031 10.7437C2.27798 9.86447 2.27795 6.58608 2.57211 6.29455ZM6.49423 2.85911C6.57594 2.66553 6.75571 2.43697 7.15025 2.43697C7.19928 2.43697 7.25298 2.4393 7.30434 2.44863L7.31052 2.44904C7.34322 2.45123 7.37411 2.45329 7.40706 2.45329C9.05062 2.44863 10.6942 2.44863 12.3377 2.44863C12.3377 2.44863 25.094 2.45096 28.6192 2.45096C34.9179 2.45096 39.0899 2.44863 41.3848 2.44163C41.7957 2.44163 42.2953 2.52792 42.5101 3.21361C42.5591 3.36521 42.6268 3.51914 42.6992 3.68007C42.8206 3.94595 42.956 4.24681 43.0143 4.60132L43.0774 4.98614H5.72148L5.8242 4.57566C5.94794 4.08355 6.13471 3.66607 6.3168 3.26026C6.3775 3.12734 6.43821 2.99436 6.49423 2.85911ZM7.96678 37.33C5.09055 37.33 2.81899 39.569 2.79564 42.4237C2.78397 43.7764 3.31392 45.0615 4.28745 46.0411C5.26798 47.0276 6.56135 47.571 7.93409 47.571C10.7029 47.5617 13.0352 45.2364 13.0422 42.489C13.0492 39.6506 10.7823 37.337 7.98545 37.3277H7.96678V37.33Z" fill="#98A782"/>
<path d="M25.7192 25.193C25.7098 25.228 25.7028 25.256 25.6982 25.2793L28.9106 26.1283L29.7697 22.9377C29.4148 22.8048 29.1183 22.7231 28.8405 22.6812C28.8223 22.7296 28.8076 22.7851 28.7919 22.8445L28.7845 22.8724L28.7833 22.8767C28.7322 23.0649 28.6687 23.2985 28.481 23.5068L28.1845 23.8333L27.8413 23.2736C27.8166 23.2329 27.7921 23.1931 27.7679 23.1538C27.7144 23.067 27.6624 22.9825 27.6125 22.8957C27.4024 22.5342 27.1923 22.1681 26.9845 21.8042C26.5386 21.0229 26.074 20.2136 25.5908 19.4393C25.3129 18.9938 24.8203 18.7186 24.3044 18.7186C23.8795 18.7186 23.506 18.9122 23.2795 19.2481C22.6375 20.2043 22.0492 21.2305 21.4819 22.2217C21.2811 22.5715 21.0803 22.9214 20.8772 23.2712C21.1434 23.4485 21.4188 23.6071 21.727 23.761L24.3628 19.2411L27.4748 24.6356L26.7697 24.505C26.4336 24.442 26.1908 24.3977 26.0437 24.3977C25.976 24.3977 25.955 24.407 25.955 24.407C25.8943 24.4584 25.8126 24.8012 25.7425 25.1067L25.739 25.1208C25.7331 25.1447 25.727 25.1697 25.7192 25.193Z" fill="#98A782"/>
<path d="M17.7676 33.3419C18.3116 33.3466 18.8555 33.3489 19.3995 33.3489L19.7285 33.3487C20.1675 33.3484 20.6074 33.348 21.05 33.3536L21.8508 33.3513C21.8765 33.3513 21.9979 33.3536 22.0026 33.3536C22.0002 33.3279 22.0002 33.3046 22.0002 33.279L21.9995 33.2439C21.9949 33.0358 21.9898 32.8039 22.0119 32.57C22.0208 32.4724 22.0148 32.4194 22.0124 32.3986C22.0117 32.392 22.0113 32.3886 22.0119 32.388C22.0002 32.3834 21.9535 32.3647 21.8228 32.3647H21.7901C21.3419 32.374 20.8539 32.3787 20.2983 32.3787C19.7543 32.3787 19.208 32.374 18.6641 32.3694L18.1038 32.3647C18.0734 32.3647 18.0454 32.3647 18.0151 32.367C17.973 32.3694 17.9287 32.3717 17.8843 32.3717C17.7139 32.3717 17.4594 32.3437 17.2026 32.0965L17.0182 31.9169L19.703 27.2547L20.0088 27.5882C20.2189 27.8191 20.282 28.064 20.331 28.2622C20.3473 28.3345 20.3637 28.3905 20.38 28.4395C20.6882 28.3835 20.9987 28.3019 21.3325 28.1923L20.4641 24.9761L17.2516 25.8413C17.2695 25.9051 17.2854 25.9679 17.3012 26.0304C17.3076 26.0554 17.3141 26.0811 17.3205 26.1061C17.3232 26.1166 17.3259 26.1271 17.3287 26.1375L17.3417 26.1879C17.3928 26.3866 17.4419 26.577 17.5108 26.7556L18.5427 26.5737L18.573 26.9329C18.601 27.2757 18.447 27.5066 18.3349 27.6745C18.3259 27.6889 18.3166 27.7029 18.3073 27.7168C18.2925 27.7391 18.2778 27.7612 18.2649 27.7841C17.8797 28.458 17.4899 29.1296 17.1001 29.8012C16.8761 30.1857 16.652 30.573 16.428 30.9599C16.0918 31.5406 16.0517 32.1408 16.3178 32.6073C16.5793 33.0667 17.1092 33.3349 17.7676 33.3419Z" fill="#98A782"/>
<path d="M23.8049 32.8708L26.1209 30.5665C26.3427 30.7578 26.5528 30.984 26.7605 31.2126C26.7232 31.2569 26.6765 31.3035 26.6228 31.3525C26.4921 31.4785 26.331 31.637 26.2259 31.8726L26.0205 32.3367H31.8523L31.6305 31.8656C31.2383 31.0307 30.7784 30.2563 30.3325 29.5077C29.994 28.9409 29.6741 28.3999 29.38 27.8378C29.6321 27.6629 29.9076 27.4926 30.2251 27.3527C30.4259 27.7025 30.629 28.05 30.8321 28.3952L30.8704 28.4609C31.4212 29.4036 31.9898 30.3771 32.4826 31.3572C32.6834 31.756 32.6671 32.2085 32.436 32.5979C32.1721 33.0434 31.6889 33.3209 31.1449 33.3396C30.6547 33.3559 30.1154 33.3653 29.4453 33.3653C29.1115 33.3653 28.7776 33.3629 28.4438 33.3606C28.1099 33.3583 27.7738 33.3559 27.4399 33.3559H26.1676L26.2446 33.7501C26.3098 34.0874 26.5144 34.2855 26.666 34.4323L26.6672 34.4334L26.6837 34.4497L26.6977 34.4634C26.7177 34.4828 26.7373 34.5019 26.7559 34.5221C26.5995 34.7086 26.4174 34.8812 26.2259 35.0608C26.1816 35.1005 26.1372 35.1424 26.0952 35.1844L23.8049 32.8708Z" fill="#98A782"/>
<path d="M6.55962 45.1002C6.95747 45.2966 7.40989 45.4005 7.86913 45.4005C8.53946 45.4005 9.17832 45.183 9.66993 44.8102C9.903 44.6334 9.87838 44.2931 9.64243 44.1202L9.59455 44.0854C9.43455 43.97 9.22139 43.9868 9.05814 44.0975C8.71031 44.3301 8.3079 44.4543 7.89186 44.4543C6.83471 44.4543 5.94579 43.6843 5.82529 42.6613C5.69343 41.5413 6.40502 40.5793 7.51447 40.3738C7.63951 40.3489 7.76682 40.3377 7.89414 40.3377C8.81943 40.3377 9.61741 40.9541 9.88113 41.871C9.8925 41.9161 9.90387 41.9636 9.91296 42.0087C9.91637 42.0211 9.91978 42.0364 9.92319 42.0516C9.92602 42.0643 9.92885 42.0769 9.93168 42.0879C9.93268 42.0918 9.93621 42.0945 9.94024 42.0945C10.0994 42.09 10.2585 42.0878 10.4199 42.0878C10.654 42.0878 10.8434 41.8931 10.7931 41.6645C10.561 40.6097 9.66785 39.7096 8.51933 39.4683C8.30563 39.4231 8.08738 39.4005 7.8714 39.4005C6.5869 39.4005 5.44335 40.1977 5.02504 41.3855C4.51124 42.842 5.1569 44.4047 6.55962 45.1002Z" stroke="#98A782"/>
<path fill-rule="evenodd" clip-rule="evenodd" d="M5.07013 23.7446C5.28024 28.05 5.49503 32.5 5.64677 36.4322C5.68909 36.4322 5.73141 36.4328 5.77343 36.4334C5.81487 36.434 5.85601 36.4345 5.89658 36.4345C6.15805 36.4345 6.39151 36.4252 6.61797 36.3902C6.46906 32.4784 6.25524 28.0478 6.04812 23.7562L6.04599 23.712C5.94809 21.6921 5.84922 20.2298 5.75624 18.8545C5.64523 17.2127 5.54261 15.6949 5.46003 13.5005L5.44836 13.1576L42.1879 13.1506C42.5218 13.1506 42.8579 13.1506 43.1918 13.153L43.2679 13.153C43.1895 15.2286 43.1108 17.1024 43.0324 18.9706C42.9153 21.7584 42.7987 24.5345 42.6846 27.9496C42.4978 33.5261 42.304 39.2938 42.1149 44.4015C42.0659 45.7612 41.6153 46.1997 40.2683 46.1997H31.1073C24.8342 46.1997 17.6017 46.1973 14.1068 46.195C14.0806 46.195 14.0555 46.197 14.0301 46.1991C14.0169 46.2001 14.0036 46.2012 13.99 46.202C13.9317 46.2067 13.871 46.2113 13.8126 46.2113C13.5955 46.2113 13.4204 46.1484 13.2756 46.0177L13.1683 45.9198V45.7752C13.1683 45.507 13.2827 45.3041 13.3737 45.1431C13.4017 45.0942 13.4297 45.0452 13.4531 44.9939C14.2515 43.2074 14.2212 41.4278 13.3667 39.7066C12.3371 37.6355 10.2617 36.3481 7.94576 36.3481C6.91154 36.3481 5.87498 36.6163 4.94814 37.1248C3.52871 37.9037 2.46647 39.2658 2.03223 40.8634C1.598 42.4657 1.81278 44.1099 2.64156 45.4953C3.78318 47.4054 5.75591 48.5459 7.91775 48.5459C9.09439 48.5459 10.243 48.1961 11.2375 47.5337C11.6134 47.2865 11.9963 47.1699 12.4492 47.1699C16.0211 47.1745 22.7705 47.1769 29.0155 47.1769H29.0377C33.5656 47.1769 37.8282 47.1769 40.4177 47.1746C42.0962 47.1746 43.0184 46.279 43.0814 44.5857C43.2822 39.2075 43.4877 33.1342 43.6838 27.2616C43.7938 23.9888 43.9062 21.3261 44.0187 18.6611C44.0935 16.8871 44.1684 15.112 44.2427 13.1553C44.6977 13.155 45.1506 13.1503 45.6034 13.1413C46.7287 13.1157 47.4851 12.3763 47.5271 11.2545C47.5458 10.7437 47.5598 7.30442 47.5154 6.70969C47.4501 5.86074 46.7917 5.16339 45.9489 5.05378C45.7668 5.03045 45.5754 5.01879 45.3816 5.01879C45.2625 5.01879 45.1435 5.02346 45.0267 5.03279L45.0197 5.03323C44.985 5.0354 44.9523 5.03745 44.9217 5.03745C44.4968 5.03745 44.2096 4.82755 44.0439 4.39374C43.9159 4.0608 43.7753 3.72577 43.6381 3.39851L43.6143 3.34189C43.4182 2.87543 43.2151 2.39032 43.04 1.90054C42.9116 1.53904 42.7925 1.45508 42.3863 1.45508C40.0797 1.46441 35.9288 1.46907 29.6955 1.46907C27.8982 1.46907 26.0938 1.46843 24.384 1.46781C22.8445 1.46726 21.3817 1.46674 20.0699 1.46674L16.2855 1.46441L11.4973 1.46674C9.76734 1.46674 8.0374 1.46441 6.29813 1.45741C6.01798 1.45741 5.95728 1.51338 5.88023 1.72329C5.77051 2.01716 5.64444 2.30403 5.52071 2.58157L5.49363 2.64356C5.32838 3.0218 5.17149 3.38091 5.06079 3.7547C4.79231 4.66895 4.29037 5.05844 3.38222 5.05844C3.32385 5.05844 3.26082 5.05611 3.19778 5.05378C3.16043 5.05145 3.12308 5.05145 3.08572 5.05145C2.0655 5.05145 1.35112 5.8001 1.30909 6.91493C1.28808 7.4327 1.29044 10.7881 1.31612 11.2942C1.36748 12.36 2.09588 13.0877 3.16979 13.146C3.27718 13.1506 3.38458 13.153 3.49664 13.153C3.54215 13.153 3.58821 13.1524 3.63537 13.1519C3.68491 13.1513 3.73588 13.1506 3.78846 13.1506C3.84424 13.1506 3.90114 13.1501 3.95941 13.1495C4.02054 13.1489 4.08351 13.1483 4.14799 13.1483H4.46549L4.47717 13.4655C4.56011 15.6861 4.66466 17.2207 4.77788 18.8823C4.8718 20.2609 4.97168 21.7269 5.07013 23.7446ZM2.57211 6.29455C2.8616 6.00301 3.29584 6.00301 4.1573 6.00301L45.0688 6.00068C45.6898 6.00068 46.054 6.01234 46.3014 6.2619C46.5489 6.50912 46.5582 6.86595 46.5582 7.47468C46.5559 9.17957 46.3972 12.1711 44.6813 12.1711H20.0256V12.1758H3.71142C2.52311 12.1758 2.28265 11.9332 2.28031 10.7437C2.27798 9.86447 2.27795 6.58608 2.57211 6.29455ZM6.49423 2.85911C6.57594 2.66553 6.75571 2.43697 7.15025 2.43697C7.19928 2.43697 7.25298 2.4393 7.30434 2.44863L7.31052 2.44904C7.34322 2.45123 7.37411 2.45329 7.40706 2.45329C9.05062 2.44863 10.6942 2.44863 12.3377 2.44863C12.3377 2.44863 25.094 2.45096 28.6192 2.45096C34.9179 2.45096 39.0899 2.44863 41.3848 2.44163C41.7957 2.44163 42.2953 2.52792 42.5101 3.21361C42.5591 3.36521 42.6268 3.51914 42.6992 3.68007C42.8206 3.94595 42.956 4.24681 43.0143 4.60132L43.0774 4.98614H5.72148L5.8242 4.57566C5.94794 4.08355 6.13471 3.66607 6.3168 3.26026C6.3775 3.12734 6.43821 2.99436 6.49423 2.85911ZM7.96678 37.33C5.09055 37.33 2.81899 39.569 2.79564 42.4237C2.78397 43.7764 3.31392 45.0615 4.28745 46.0411C5.26798 47.0276 6.56135 47.571 7.93409 47.571C10.7029 47.5617 13.0352 45.2364 13.0422 42.489C13.0492 39.6506 10.7823 37.337 7.98545 37.3277H7.96678V37.33Z" stroke="#98A782"/>
<path d="M25.7192 25.193C25.7098 25.228 25.7028 25.256 25.6982 25.2793L28.9106 26.1283L29.7697 22.9377C29.4148 22.8048 29.1183 22.7231 28.8405 22.6812C28.8223 22.7296 28.8076 22.7851 28.7919 22.8445L28.7845 22.8724L28.7833 22.8767C28.7322 23.0649 28.6687 23.2985 28.481 23.5068L28.1845 23.8333L27.8413 23.2736C27.8166 23.2329 27.7921 23.1931 27.7679 23.1538C27.7144 23.067 27.6624 22.9825 27.6125 22.8957C27.4024 22.5342 27.1923 22.1681 26.9845 21.8042C26.5386 21.0229 26.074 20.2136 25.5908 19.4393C25.3129 18.9938 24.8203 18.7186 24.3044 18.7186C23.8795 18.7186 23.506 18.9122 23.2795 19.2481C22.6375 20.2043 22.0492 21.2305 21.4819 22.2217C21.2811 22.5715 21.0803 22.9214 20.8772 23.2712C21.1434 23.4485 21.4188 23.6071 21.727 23.761L24.3628 19.2411L27.4748 24.6356L26.7697 24.505C26.4336 24.442 26.1908 24.3977 26.0437 24.3977C25.976 24.3977 25.955 24.407 25.955 24.407C25.8943 24.4584 25.8126 24.8012 25.7425 25.1067L25.739 25.1208C25.7331 25.1447 25.727 25.1697 25.7192 25.193Z" stroke="#98A782"/>
<path d="M17.7676 33.3419C18.3116 33.3466 18.8555 33.3489 19.3995 33.3489L19.7285 33.3487C20.1675 33.3484 20.6074 33.348 21.05 33.3536L21.8508 33.3513C21.8765 33.3513 21.9979 33.3536 22.0026 33.3536C22.0002 33.3279 22.0002 33.3046 22.0002 33.279L21.9995 33.2439C21.9949 33.0358 21.9898 32.8039 22.0119 32.57C22.0208 32.4724 22.0148 32.4194 22.0124 32.3986C22.0117 32.392 22.0113 32.3886 22.0119 32.388C22.0002 32.3834 21.9535 32.3647 21.8228 32.3647H21.7901C21.3419 32.374 20.8539 32.3787 20.2983 32.3787C19.7543 32.3787 19.208 32.374 18.6641 32.3694L18.1038 32.3647C18.0734 32.3647 18.0454 32.3647 18.0151 32.367C17.973 32.3694 17.9287 32.3717 17.8843 32.3717C17.7139 32.3717 17.4594 32.3437 17.2026 32.0965L17.0182 31.9169L19.703 27.2547L20.0088 27.5882C20.2189 27.8191 20.282 28.064 20.331 28.2622C20.3473 28.3345 20.3637 28.3905 20.38 28.4395C20.6882 28.3835 20.9987 28.3019 21.3325 28.1923L20.4641 24.9761L17.2516 25.8413C17.2695 25.9051 17.2854 25.9679 17.3012 26.0304C17.3076 26.0554 17.3141 26.0811 17.3205 26.1061C17.3232 26.1166 17.3259 26.1271 17.3287 26.1375L17.3417 26.1879C17.3928 26.3866 17.4419 26.577 17.5108 26.7556L18.5427 26.5737L18.573 26.9329C18.601 27.2757 18.447 27.5066 18.3349 27.6745C18.3259 27.6889 18.3166 27.7029 18.3073 27.7168C18.2925 27.7391 18.2778 27.7612 18.2649 27.7841C17.8797 28.458 17.4899 29.1296 17.1001 29.8012C16.8761 30.1857 16.652 30.573 16.428 30.9599C16.0918 31.5406 16.0517 32.1408 16.3178 32.6073C16.5793 33.0667 17.1092 33.3349 17.7676 33.3419Z" stroke="#98A782"/>
<path d="M23.8049 32.8708L26.1209 30.5665C26.3427 30.7578 26.5528 30.984 26.7605 31.2126C26.7232 31.2569 26.6765 31.3035 26.6228 31.3525C26.4921 31.4785 26.331 31.637 26.2259 31.8726L26.0205 32.3367H31.8523L31.6305 31.8656C31.2383 31.0307 30.7784 30.2563 30.3325 29.5077C29.994 28.9409 29.6741 28.3999 29.38 27.8378C29.6321 27.6629 29.9076 27.4926 30.2251 27.3527C30.4259 27.7025 30.629 28.05 30.8321 28.3952L30.8704 28.4609C31.4212 29.4036 31.9898 30.3771 32.4826 31.3572C32.6834 31.756 32.6671 32.2085 32.436 32.5979C32.1721 33.0434 31.6889 33.3209 31.1449 33.3396C30.6547 33.3559 30.1154 33.3653 29.4453 33.3653C29.1115 33.3653 28.7776 33.3629 28.4438 33.3606C28.1099 33.3583 27.7738 33.3559 27.4399 33.3559H26.1676L26.2446 33.7501C26.3098 34.0874 26.5144 34.2855 26.666 34.4323L26.6672 34.4334L26.6837 34.4497L26.6977 34.4634C26.7177 34.4828 26.7373 34.5019 26.7559 34.5221C26.5995 34.7086 26.4174 34.8812 26.2259 35.0608C26.1816 35.1005 26.1372 35.1424 26.0952 35.1844L23.8049 32.8708Z" stroke="#98A782"/>
</svg>
