<svg width="60" height="44" viewBox="0 0 60 44" fill="none" xmlns="http://www.w3.org/2000/svg">
<path fill-rule="evenodd" clip-rule="evenodd" d="M3.77345 0.785156C2.65453 0.785156 1.6405 1.44353 1.18186 2.46272L1.17914 2.46882C0.727775 3.49003 0.911008 4.68701 1.66353 5.52012L1.66442 5.52111L16.4939 21.9999L1.66215 38.4777C0.916057 39.3086 0.719759 40.5057 1.18144 41.5326C1.63979 42.5559 2.65401 43.2148 3.77345 43.2148H14.7997C15.6114 43.2148 16.367 42.866 16.9018 42.2866L16.9103 42.2773L33.4497 23.9002C34.4193 22.8229 34.4219 21.179 33.4488 20.1024L33.4479 20.1015L16.9103 1.72631L16.9082 1.724C16.3683 1.12793 15.6078 0.785156 14.7997 0.785156H3.77345ZM3.14797 4.17981C2.93164 3.94054 2.87229 3.58857 3.00708 3.28041C3.1445 2.97819 3.44536 2.78516 3.77345 2.78516H14.7997C15.035 2.78516 15.2591 2.88306 15.4248 3.06553L15.4258 3.06656L31.9631 21.4414L31.9648 21.4433C32.2478 21.7561 32.2502 22.2432 31.9631 22.5623L15.4287 40.9339C15.2582 41.1165 15.0303 41.2148 14.7997 41.2148H3.77345C3.44513 41.2148 3.14382 41.0215 3.00655 40.7147L3.0057 40.7128C2.87264 40.4171 2.92614 40.0641 3.14957 39.8147L3.15024 39.8139L19.1847 22.0001L3.14952 4.18153L3.14797 4.17981Z" fill="#98A782"/>
<path fill-rule="evenodd" clip-rule="evenodd" d="M28.6636 0.785156C27.5447 0.785156 26.5306 1.44353 26.072 2.46272L26.0693 2.46882C25.6179 3.49003 25.8011 4.687 26.5537 5.52012L26.5546 5.5211L41.3841 21.9999L26.5523 38.4777C25.8062 39.3086 25.6099 40.5057 26.0716 41.5326C26.5299 42.5559 27.5441 43.2148 28.6636 43.2148H39.6899C40.5015 43.2148 41.2571 42.866 41.7919 42.2866L41.8004 42.2773L58.3398 23.9002C59.3094 22.8229 59.3121 21.179 58.3389 20.1024L58.3381 20.1015L41.8004 1.72631L41.7983 1.724C41.2585 1.12793 40.498 0.785156 39.6899 0.785156H28.6636ZM28.0381 4.17981C27.8218 3.94054 27.7624 3.58857 27.8972 3.28042C28.0346 2.97819 28.3355 2.78516 28.6636 2.78516H39.6899C39.9252 2.78516 40.1493 2.8831 40.3151 3.06564L40.3159 3.06656L56.8532 21.4414L56.855 21.4433C57.138 21.7561 57.1404 22.2432 56.8532 22.5623L40.3188 40.9339C40.1483 41.1165 39.9204 41.2148 39.6899 41.2148H28.6636C28.3353 41.2148 28.034 41.0215 27.8967 40.7147L27.8958 40.7128C27.7626 40.4168 27.8164 40.0634 28.0404 39.8139L44.0748 22L28.0397 4.18153L28.0381 4.17981Z" fill="#98A782"/>
</svg>
