<svg width="56" height="53" viewBox="0 0 56 53" fill="none" xmlns="http://www.w3.org/2000/svg">
<path fill-rule="evenodd" clip-rule="evenodd" d="M42.5024 19.1285L29.2267 18.1229C28.9711 18.104 28.8386 17.9218 28.8008 17.7583C28.7834 17.6814 28.7455 17.4174 29.0153 17.2587L33.5178 14.6143L26.7546 7.3773L23.0519 17.3231C22.9809 17.5022 22.8042 17.6232 22.6054 17.6232C22.5502 17.6232 22.4966 17.6138 22.4445 17.5949L12.1663 13.7926C11.9281 13.6999 11.805 13.4328 11.8934 13.1861L15.391 3.80592C16.2886 1.37367 17.7905 0.592773 21.5721 0.592773C21.6526 0.592773 21.7346 0.592773 21.8182 0.594345H29.9666C29.9935 0.594345 30.0183 0.593926 30.0422 0.593521C30.0647 0.593141 30.0865 0.592773 30.1086 0.592773C31.1798 0.592773 32.2116 0.775035 33.1755 1.13484C34.5338 1.62821 35.7502 2.47038 36.6952 3.57181L41.1677 8.75997L44.9714 5.70709C45.0582 5.63796 45.1544 5.60182 45.2569 5.60182C45.3973 5.60182 45.5425 5.67096 45.6324 5.78408C45.6939 5.8595 45.757 5.98677 45.7176 6.16903L42.9915 18.7576C42.9505 18.9792 42.7611 19.13 42.5387 19.13C42.5387 19.13 42.5134 19.13 42.5024 19.1285ZM29.9903 1.5465L22.7316 1.70205L34.5859 14.3787C34.72 14.5185 34.7216 14.674 34.7105 14.7542C34.6916 14.8987 34.608 15.0244 34.4802 15.0998L30.7665 17.309L42.1506 18.1841L44.5186 7.27203L41.3807 9.78755C41.3003 9.8504 41.1977 9.88654 41.0904 9.88654C40.9548 9.88654 40.8254 9.8284 40.7386 9.72627L35.9774 4.19715C35.1428 3.22457 34.0542 2.47195 32.83 2.02415C31.9702 1.7052 31.0631 1.54336 30.137 1.54336C30.0881 1.54493 30.0392 1.5465 29.9903 1.5465ZM20.086 1.48366C18.3806 1.48366 16.8408 2.5568 16.2524 4.15159L12.933 13.0997L22.3372 16.5595L26.021 6.63254L21.4112 1.70205L21.2976 1.66749C20.9032 1.54493 20.4962 1.48366 20.086 1.48366Z" fill="#98A782"/>
<path fill-rule="evenodd" clip-rule="evenodd" d="M9.62004 49.2282C6.87656 49.2282 5.26265 47.6806 4.22773 44.0542L4.223 44.0385L1.54104 36.7166C1.13875 35.7063 0.928924 34.6096 0.928924 33.5333C0.928924 32.0438 1.28862 30.6517 1.99855 29.3947L5.3226 23.4351L1.13401 20.9337C0.921035 20.8033 0.87844 20.5833 0.913147 20.4231C0.928924 20.3492 1.00307 20.1057 1.30124 20.0648L14.1273 18.2375C14.1526 18.2344 14.1746 18.2328 14.1967 18.2328C14.4018 18.2328 14.5817 18.3726 14.6463 18.5816L18.2954 31.3273C18.3459 31.508 18.2828 31.6416 18.2212 31.7217C18.1282 31.8443 17.9767 31.9197 17.8284 31.9197C17.7259 31.9197 17.6281 31.8835 17.5413 31.8144L13.4757 28.5321L9.01108 37.3467H19.6663C19.9298 37.3467 20.1365 37.5572 20.1444 37.8369V48.7663C20.1444 49.024 19.9408 49.2251 19.6821 49.2251H9.62004V49.2282ZM5.49929 44.2993L5.5056 44.4172C5.61919 46.5807 7.41926 48.2745 9.60427 48.2745H19.2057V38.2831H8.55515L5.49929 44.2993ZM2.70533 20.786L6.17925 22.8223C6.39854 22.948 6.47426 23.2261 6.35279 23.4445L2.80156 29.8142C2.18156 30.9455 1.85341 32.2245 1.85341 33.516C1.85341 34.5075 2.03326 35.4596 2.3898 36.3458L5.06229 43.0486L12.881 27.5815C12.963 27.4229 13.1271 27.3207 13.3069 27.3207C13.3811 27.3207 13.4899 27.338 13.5956 27.4244L16.9544 30.1458L13.8149 19.2101L2.70533 20.786Z" fill="#98A782"/>
<path fill-rule="evenodd" clip-rule="evenodd" d="M34.8605 51.8916C34.9725 52.0173 35.1051 52.0441 35.195 52.0441C35.4316 52.0441 35.6777 51.8712 35.6809 51.5884V47.5064H42.8591C44.8027 47.5064 46.6422 46.7757 48.0368 45.4496C50.4474 43.1651 52.5062 40.0494 53.9892 36.4356L54.0018 36.4088C54.0365 36.335 54.3379 35.6264 54.4088 35.4504L54.4167 35.4331C54.554 35.1314 54.6628 34.8093 54.7465 34.4621C54.8001 34.2673 54.8332 34.0379 54.8506 33.7613L54.8522 33.7409L54.8553 33.7205C54.8837 33.5351 54.8837 33.4125 54.8837 33.268C54.8837 33.2365 54.8742 33.1753 54.8348 33.0684L54.748 32.9804V32.9254C54.2148 32.0817 50.4427 26.1802 48.4139 23.0095C48.3192 22.8712 48.1599 22.7848 47.999 22.7848C47.9106 22.7848 47.8286 22.8084 47.7529 22.8602L39.524 28.3233C39.412 28.3972 39.3394 28.5072 39.3205 28.6329C39.3015 28.7617 39.3378 28.8921 39.423 28.999L46.1295 37.3484H35.6982V33.2664C35.6982 32.9647 35.4569 32.8029 35.2297 32.8029C35.1366 32.8029 34.9994 32.8312 34.8779 32.9616L26.6664 42.0071C26.649 42.0322 26.6285 42.0558 26.6064 42.0778C26.6048 42.0802 26.6029 42.0825 26.6009 42.0849C26.5989 42.0872 26.597 42.0896 26.5954 42.0919V42.1328L26.578 42.1501V42.1831L26.5449 42.2161V42.2836L26.4849 42.3418C26.4834 42.3449 26.4802 42.3496 26.4786 42.3543L26.4771 42.3622V42.3983L26.4944 42.4156V42.5115L26.5086 42.5539C26.5118 42.5617 26.5149 42.5712 26.5181 42.5806C26.5209 42.588 26.5236 42.5948 26.5264 42.6018C26.5284 42.6067 26.5303 42.6116 26.5323 42.6167C26.5433 42.6419 26.5528 42.667 26.5591 42.6937C26.5607 42.6969 26.5622 42.7016 26.5638 42.7063C26.5859 42.7314 26.6048 42.755 26.619 42.777L26.7279 42.887V42.898L34.8605 51.8916ZM34.7375 50.2293L27.5972 42.3323L34.7375 34.4338V37.7899C34.7375 38.0476 34.941 38.2487 35.1997 38.2487H49.8211C50.3402 38.2487 50.8355 38.1796 51.2536 38.0508L52.2554 37.7412L51.7868 38.6761C50.6368 40.9685 49.1554 42.9797 47.3884 44.6483C46.18 45.7985 44.5708 46.4317 42.8559 46.4317H35.1997C34.941 46.4317 34.7375 46.6328 34.7375 46.8905V50.2293ZM47.319 37.3311L40.469 28.8073L47.868 23.8941L53.9308 33.3842L53.9214 33.5304C53.8693 34.2751 53.62 34.9806 53.1988 35.5777V35.5918L53.1089 35.7112C52.3453 36.7262 51.1227 37.3311 49.8401 37.3311H47.319Z" fill="#98A782"/>
<path fill-rule="evenodd" clip-rule="evenodd" d="M42.5024 19.1285L29.2267 18.1229C28.9711 18.104 28.8386 17.9218 28.8008 17.7583C28.7834 17.6814 28.7455 17.4174 29.0153 17.2587L33.5178 14.6143L26.7546 7.3773L23.0519 17.3231C22.9809 17.5022 22.8042 17.6232 22.6054 17.6232C22.5502 17.6232 22.4966 17.6138 22.4445 17.5949L12.1663 13.7926C11.9281 13.6999 11.805 13.4328 11.8934 13.1861L15.391 3.80592C16.2886 1.37367 17.7905 0.592773 21.5721 0.592773C21.6526 0.592773 21.7346 0.592773 21.8182 0.594345H29.9666C29.9935 0.594345 30.0183 0.593926 30.0422 0.593521C30.0647 0.593141 30.0865 0.592773 30.1086 0.592773C31.1798 0.592773 32.2116 0.775035 33.1755 1.13484C34.5338 1.62821 35.7502 2.47038 36.6952 3.57181L41.1677 8.75997L44.9714 5.70709C45.0582 5.63796 45.1544 5.60182 45.2569 5.60182C45.3973 5.60182 45.5425 5.67096 45.6324 5.78408C45.6939 5.8595 45.757 5.98677 45.7176 6.16903L42.9915 18.7576C42.9505 18.9792 42.7611 19.13 42.5387 19.13C42.5387 19.13 42.5134 19.13 42.5024 19.1285ZM29.9903 1.5465L22.7316 1.70205L34.5859 14.3787C34.72 14.5185 34.7216 14.674 34.7105 14.7542C34.6916 14.8987 34.608 15.0244 34.4802 15.0998L30.7665 17.309L42.1506 18.1841L44.5186 7.27203L41.3807 9.78755C41.3003 9.8504 41.1977 9.88654 41.0904 9.88654C40.9548 9.88654 40.8254 9.8284 40.7386 9.72627L35.9774 4.19715C35.1428 3.22457 34.0542 2.47195 32.83 2.02415C31.9702 1.7052 31.0631 1.54336 30.137 1.54336C30.0881 1.54493 30.0392 1.5465 29.9903 1.5465ZM20.086 1.48366C18.3806 1.48366 16.8408 2.5568 16.2524 4.15159L12.933 13.0997L22.3372 16.5595L26.021 6.63254L21.4112 1.70205L21.2976 1.66749C20.9032 1.54493 20.4962 1.48366 20.086 1.48366Z" stroke="#98A782"/>
<path fill-rule="evenodd" clip-rule="evenodd" d="M9.62004 49.2282C6.87656 49.2282 5.26265 47.6806 4.22773 44.0542L4.223 44.0385L1.54104 36.7166C1.13875 35.7063 0.928924 34.6096 0.928924 33.5333C0.928924 32.0438 1.28862 30.6517 1.99855 29.3947L5.3226 23.4351L1.13401 20.9337C0.921035 20.8033 0.87844 20.5833 0.913147 20.4231C0.928924 20.3492 1.00307 20.1057 1.30124 20.0648L14.1273 18.2375C14.1526 18.2344 14.1746 18.2328 14.1967 18.2328C14.4018 18.2328 14.5817 18.3726 14.6463 18.5816L18.2954 31.3273C18.3459 31.508 18.2828 31.6416 18.2212 31.7217C18.1282 31.8443 17.9767 31.9197 17.8284 31.9197C17.7259 31.9197 17.6281 31.8835 17.5413 31.8144L13.4757 28.5321L9.01108 37.3467H19.6663C19.9298 37.3467 20.1365 37.5572 20.1444 37.8369V48.7663C20.1444 49.024 19.9408 49.2251 19.6821 49.2251H9.62004V49.2282ZM5.49929 44.2993L5.5056 44.4172C5.61919 46.5807 7.41926 48.2745 9.60427 48.2745H19.2057V38.2831H8.55515L5.49929 44.2993ZM2.70533 20.786L6.17925 22.8223C6.39854 22.948 6.47426 23.2261 6.35279 23.4445L2.80156 29.8142C2.18156 30.9455 1.85341 32.2245 1.85341 33.516C1.85341 34.5075 2.03326 35.4596 2.3898 36.3458L5.06229 43.0486L12.881 27.5815C12.963 27.4229 13.1271 27.3207 13.3069 27.3207C13.3811 27.3207 13.4899 27.338 13.5956 27.4244L16.9544 30.1458L13.8149 19.2101L2.70533 20.786Z" stroke="#98A782"/>
<path fill-rule="evenodd" clip-rule="evenodd" d="M34.8605 51.8916C34.9725 52.0173 35.1051 52.0441 35.195 52.0441C35.4316 52.0441 35.6777 51.8712 35.6809 51.5884V47.5064H42.8591C44.8027 47.5064 46.6422 46.7757 48.0368 45.4496C50.4474 43.1651 52.5062 40.0494 53.9892 36.4356L54.0018 36.4088C54.0365 36.335 54.3379 35.6264 54.4088 35.4504L54.4167 35.4331C54.554 35.1314 54.6628 34.8093 54.7465 34.4621C54.8001 34.2673 54.8332 34.0379 54.8506 33.7613L54.8522 33.7409L54.8553 33.7205C54.8837 33.5351 54.8837 33.4125 54.8837 33.268C54.8837 33.2365 54.8742 33.1753 54.8348 33.0684L54.748 32.9804V32.9254C54.2148 32.0817 50.4427 26.1802 48.4139 23.0095C48.3192 22.8712 48.1599 22.7848 47.999 22.7848C47.9106 22.7848 47.8286 22.8084 47.7529 22.8602L39.524 28.3233C39.412 28.3972 39.3394 28.5072 39.3205 28.6329C39.3015 28.7617 39.3378 28.8921 39.423 28.999L46.1295 37.3484H35.6982V33.2664C35.6982 32.9647 35.4569 32.8029 35.2297 32.8029C35.1366 32.8029 34.9994 32.8312 34.8779 32.9616L26.6664 42.0071C26.649 42.0322 26.6285 42.0558 26.6064 42.0778C26.6048 42.0802 26.6029 42.0825 26.6009 42.0849C26.5989 42.0872 26.597 42.0896 26.5954 42.0919V42.1328L26.578 42.1501V42.1831L26.5449 42.2161V42.2836L26.4849 42.3418C26.4834 42.3449 26.4802 42.3496 26.4786 42.3543L26.4771 42.3622V42.3983L26.4944 42.4156V42.5115L26.5086 42.5539C26.5118 42.5617 26.5149 42.5712 26.5181 42.5806C26.5209 42.588 26.5236 42.5948 26.5264 42.6018C26.5284 42.6067 26.5303 42.6116 26.5323 42.6167C26.5433 42.6419 26.5528 42.667 26.5591 42.6937C26.5607 42.6969 26.5622 42.7016 26.5638 42.7063C26.5859 42.7314 26.6048 42.755 26.619 42.777L26.7279 42.887V42.898L34.8605 51.8916ZM34.7375 50.2293L27.5972 42.3323L34.7375 34.4338V37.7899C34.7375 38.0476 34.941 38.2487 35.1997 38.2487H49.8211C50.3402 38.2487 50.8355 38.1796 51.2536 38.0508L52.2554 37.7412L51.7868 38.6761C50.6368 40.9685 49.1554 42.9797 47.3884 44.6483C46.18 45.7985 44.5708 46.4317 42.8559 46.4317H35.1997C34.941 46.4317 34.7375 46.6328 34.7375 46.8905V50.2293ZM47.319 37.3311L40.469 28.8073L47.868 23.8941L53.9308 33.3842L53.9214 33.5304C53.8693 34.2751 53.62 34.9806 53.1988 35.5777V35.5918L53.1089 35.7112C52.3453 36.7262 51.1227 37.3311 49.8401 37.3311H47.319Z" stroke="#98A782"/>
</svg>
