<svg width="75" height="44" viewBox="0 0 75 44" fill="none" xmlns="http://www.w3.org/2000/svg">
<path d="M30.4035 12.958C30.8291 12.6059 31.4594 12.6655 31.8115 13.0911L38.5912 21.2862C38.9432 21.7118 38.8836 22.3421 38.4581 22.6942C38.0326 23.0462 37.4022 22.9866 37.0502 22.5611L30.2704 14.3659C29.9184 13.9404 29.978 13.31 30.4035 12.958Z" fill="#98A782"/>
<path d="M38.2542 12.8123C37.9013 12.3874 37.2709 12.329 36.846 12.6819C36.4211 13.0347 36.3627 13.6652 36.7155 14.09L43.4952 22.2544C43.8481 22.6793 44.4785 22.7377 44.9034 22.3849C45.3283 22.0321 45.3867 21.4016 45.0339 20.9767L38.2542 12.8123Z" fill="#98A782"/>
<path d="M44.4228 12.9566C44.8491 12.6055 45.4793 12.6665 45.8304 13.0928L52.5796 21.288C52.9307 21.7143 52.8697 22.3445 52.4434 22.6956C52.0171 23.0467 51.3869 22.9857 51.0358 22.5594L44.2866 14.3642C43.9355 13.9379 43.9965 13.3077 44.4228 12.9566Z" fill="#98A782"/>
<path fill-rule="evenodd" clip-rule="evenodd" d="M52.4568 35.6645C52.4568 33.3849 54.2909 31.522 56.5719 31.522C58.8528 31.522 60.6869 33.3849 60.6869 35.6645C60.6869 37.944 58.8528 39.807 56.5719 39.807C54.2909 39.807 52.4568 37.944 52.4568 35.6645ZM56.5719 33.522C55.412 33.522 54.4568 34.4729 54.4568 35.6645C54.4568 36.8561 55.412 37.807 56.5719 37.807C57.7317 37.807 58.6869 36.8561 58.6869 35.6645C58.6869 34.4729 57.7317 33.522 56.5719 33.522Z" fill="#98A782"/>
<path fill-rule="evenodd" clip-rule="evenodd" d="M54.2522 1.68164C54.6052 1.26624 55.1185 0.990234 55.7167 0.990234H58.282C59.3617 0.990234 60.1982 1.84677 60.1982 2.9145V7.40912L73.2096 22.4364C74.2413 22.6864 75.0097 23.6296 75.0097 24.7273V30.3654C75.0097 30.972 74.7499 31.5936 74.3229 32.0244L70.4138 35.968C69.9953 36.3901 69.4089 36.6645 68.7569 36.6645H64.104C63.6182 40.4134 60.438 43.3192 56.5719 43.3192C52.3682 43.3192 48.9754 39.8838 48.9754 35.6645C48.9754 34.2035 49.3822 32.8364 50.0886 31.6734H24.8719C23.5784 31.6734 22.5282 30.6012 22.5282 29.3178V5.96467C22.5282 4.68128 23.5784 3.60908 24.8719 3.60908H51.6549C51.903 3.60908 52.1076 3.6862 52.2266 3.73954C52.303 3.77376 52.3757 3.81272 52.4432 3.85308L54.246 1.68907L54.2522 1.68164ZM51.8427 29.6734C53.1392 28.6325 54.7821 28.0098 56.5719 28.0098C60.438 28.0098 63.6182 30.9156 64.104 34.6645H68.7569C68.8379 34.6645 68.9233 34.6308 68.9934 34.56L72.9024 30.6164C72.964 30.5543 73.0097 30.4365 73.0097 30.3654V24.7273C73.0097 24.5319 72.8383 24.3717 72.6659 24.3717H63.9012C63.1611 24.3717 62.428 24.0087 61.9905 23.402L52.4111 10.0946L52.3929 10.0652C52.161 9.69085 51.9986 9.23356 51.9986 8.73748V6.13787C51.9437 6.05963 51.8585 5.95764 51.754 5.85223C51.6514 5.74877 51.5524 5.66428 51.4759 5.60908H24.8719C24.6996 5.60908 24.5282 5.76924 24.5282 5.96467V29.3178C24.5282 29.5133 24.6996 29.6734 24.8719 29.6734H51.8427ZM70.508 22.3717H63.9012C63.7861 22.3717 63.6641 22.3034 63.6129 22.2324L54.0787 8.98779C54.0168 8.88009 53.9986 8.79195 53.9986 8.73748V5.96467C53.9986 5.71965 53.9237 5.51684 53.8712 5.39744C53.8584 5.36839 53.8449 5.33986 53.831 5.31194L55.7651 2.99023H58.1982V7.44342C58.1982 7.92393 58.3926 8.35274 58.6284 8.65013L58.6418 8.66704L70.508 22.3717ZM50.9754 35.6645C50.9754 32.5332 53.4893 30.0098 56.5719 30.0098C59.6544 30.0098 62.1683 32.5332 62.1683 35.6645C62.1683 38.7958 59.6544 41.3192 56.5719 41.3192C53.4893 41.3192 50.9754 38.7958 50.9754 35.6645Z" fill="#98A782"/>
<path fill-rule="evenodd" clip-rule="evenodd" d="M12.0229 35.6645C12.0229 33.3849 13.8569 31.522 16.1379 31.522C18.4188 31.522 20.2529 33.3849 20.2529 35.6645C20.2529 37.944 18.4188 39.807 16.1379 39.807C13.8569 39.807 12.0229 37.944 12.0229 35.6645ZM16.1379 33.522C14.978 33.522 14.0229 34.4729 14.0229 35.6645C14.0229 36.8561 14.978 37.807 16.1379 37.807C17.2977 37.807 18.2529 36.8561 18.2529 35.6645C18.2529 34.4729 17.2977 33.522 16.1379 33.522Z" fill="#98A782"/>
<path d="M7.64784 21.9096C7.09555 21.9096 6.64784 22.3573 6.64784 22.9096C6.64784 23.4619 7.09555 23.9096 7.64784 23.9096H11.0988C11.6511 23.9096 12.0988 23.4619 12.0988 22.9096C12.0988 22.3573 11.6511 21.9096 11.0988 21.9096H7.64784Z" fill="#98A782"/>
<path fill-rule="evenodd" clip-rule="evenodd" d="M16.1379 43.3192C12.7866 43.3192 9.95068 41.1358 8.93837 38.1124H3.76931C2.79791 38.1124 1.88021 37.7252 1.22283 36.9789L0.852688 36.5744L0.842491 36.5625C0.299369 35.9303 -0.00976562 35.1477 -0.00976562 34.3088V18.58L3.67028 9.80201C4.1923 8.5339 5.44327 7.70659 6.7927 7.70659H17.3288C19.2025 7.70659 20.7108 9.24092 20.7108 11.1097V29.5514C22.5487 30.95 23.7343 33.1703 23.7343 35.6645C23.7343 39.8838 20.3416 43.3192 16.1379 43.3192ZM10.5414 35.6645C10.5414 32.5332 13.0553 30.0098 16.1379 30.0098C19.2204 30.0098 21.7343 32.5332 21.7343 35.6645C21.7343 38.7958 19.2204 41.3192 16.1379 41.3192C13.0553 41.3192 10.5414 38.7958 10.5414 35.6645ZM16.1379 28.0098C11.9342 28.0098 8.54137 31.4452 8.54137 35.6645C8.54137 35.8148 8.54568 35.9642 8.55418 36.1124H3.76931C3.33988 36.1124 2.97846 35.9483 2.72021 35.653L2.71283 35.6446L2.35051 35.2486C2.1058 34.9593 1.99023 34.6366 1.99023 34.3088V19.9043H18.7108V28.4597C17.9077 28.1685 17.0415 28.0098 16.1379 28.0098ZM18.7108 17.9043V11.1097C18.7108 10.3289 18.0814 9.70659 17.3288 9.70659H6.7927C6.25009 9.70659 5.73096 10.0483 5.51907 10.5649L5.51613 10.5721L2.44215 17.9043H18.7108Z" fill="#98A782"/>
<path d="M25.8494 34.6644C25.2972 34.6644 24.8494 35.1121 24.8494 35.6644C24.8494 36.2166 25.2972 36.6644 25.8494 36.6644H47.8072C48.3595 36.6644 48.8072 36.2166 48.8072 35.6644C48.8072 35.1121 48.3595 34.6644 47.8072 34.6644H25.8494Z" fill="#98A782"/>
</svg>
