<svg width="52" height="55" viewBox="0 0 52 55" fill="none" xmlns="http://www.w3.org/2000/svg">
<path d="M7 24.0001C7 23.4478 7.44772 23.0001 8 23.0001H32C32.5523 23.0001 33 23.4478 33 24.0001C33 24.5524 32.5523 25.0001 32 25.0001H8C7.44772 25.0001 7 24.5524 7 24.0001Z" fill="#98A782"/>
<path d="M8 17.0001C7.44772 17.0001 7 17.4478 7 18.0001C7 18.5524 7.44772 19.0001 8 19.0001H21C21.5523 19.0001 22 18.5524 22 18.0001C22 17.4478 21.5523 17.0001 21 17.0001H8Z" fill="#98A782"/>
<path d="M7 38.0001C7 37.4478 7.44772 37.0001 8 37.0001H32C32.5523 37.0001 33 37.4478 33 38.0001C33 38.5524 32.5523 39.0001 32 39.0001H8C7.44772 39.0001 7 38.5524 7 38.0001Z" fill="#98A782"/>
<path d="M8 31.0001C7.44772 31.0001 7 31.4478 7 32.0001C7 32.5524 7.44772 33.0001 8 33.0001H21C21.5523 33.0001 22 32.5524 22 32.0001C22 31.4478 21.5523 31.0001 21 31.0001H8Z" fill="#98A782"/>
<path fill-rule="evenodd" clip-rule="evenodd" d="M46.5833 7.45008H45.5V6.35732C45.4963 3.34105 43.0736 0.89729 40.0833 0.893555H5.41667C2.42639 0.89729 0.00370281 3.34105 0 6.35732V42.7196C0.00370281 45.7359 2.42639 48.1797 5.41667 48.1834H6.5V49.2762C6.5037 52.2924 8.92639 54.7362 11.9167 54.7399H46.5833C49.5736 54.7362 51.9963 52.2924 52 49.2762V12.9138C51.9963 9.89757 49.5736 7.45381 46.5833 7.45008ZM36.8333 3.07906V8.09036L35.4326 6.67746C35.0094 6.25114 34.3239 6.25114 33.9007 6.67746L32.5 8.09036V3.07906H36.8333ZM2.16667 42.7196V6.35732C2.16667 4.54692 3.62187 3.07906 5.41667 3.07906H30.3333V10.7283C30.3333 11.1701 30.5973 11.5687 31.002 11.7379C31.4066 11.907 31.8726 11.8131 32.1826 11.5009L34.6667 8.9953L37.1507 11.5009C37.4607 11.8131 37.9267 11.907 38.3314 11.7379C38.736 11.5687 39 11.1701 39 10.7283V3.07906H40.0833C41.8781 3.07906 43.3333 4.54692 43.3333 6.35732V42.7196C43.3333 44.53 41.8781 45.9979 40.0833 45.9979H5.41667C3.62187 45.9979 2.16667 44.53 2.16667 42.7196ZM49.8333 49.2762C49.8333 51.0866 48.3781 52.5544 46.5833 52.5544H11.9167C10.1219 52.5544 8.66667 51.0866 8.66667 49.2762V48.1834H40.0833C43.0736 48.1797 45.4963 45.7359 45.5 42.7196V9.63558H46.5833C48.3781 9.63558 49.8333 11.1034 49.8333 12.9138V49.2762Z" fill="#98A782"/>
</svg>
