<svg width="64" height="67" viewBox="0 0 64 67" fill="none" xmlns="http://www.w3.org/2000/svg">
<g clip-path="url(#clip0)">
<path d="M32.6817 66.7137H31.433C30.8654 66.7137 30.2979 66.3731 29.9573 65.9191L29.8438 65.692C29.6168 65.465 29.6168 65.1245 29.6168 64.8974L29.2763 64.5569C29.0492 64.5569 28.9357 64.4434 28.8222 64.3299C28.5952 64.2164 28.4817 63.9893 28.3681 63.7623V63.6488C28.1411 63.3083 28.1411 62.9677 28.2546 62.6272H27.3465C26.779 62.6272 26.3249 62.2866 26.0979 61.9461H25.5303C25.3033 62.0596 25.0763 62.1731 24.7357 62.1731H23.6006C23.4871 62.1731 23.3736 62.1731 23.26 62.1731L22.579 62.0596C22.1249 61.9461 21.7844 61.7191 21.6708 61.265C21.4438 61.038 21.2168 60.811 21.2168 60.4704L20.9898 59.3353L21.2168 58.8812C21.1033 58.7677 20.9898 58.5407 20.9898 58.4272L20.5357 57.9731H20.4222C19.5141 57.9731 18.833 57.292 18.833 56.3839V55.9299C18.833 55.5893 18.9465 55.2488 19.2871 55.0218L19.4006 54.9083L19.2871 54.7947L19.1736 54.6812H17.9249C17.6979 54.6812 17.3573 54.5677 17.2438 54.4542H16.7898H16.6763H16.3357H15.6546L14.7465 54.5677L14.406 54.2272H14.2925C14.179 54.2272 14.179 54.2272 14.0654 54.2272H13.9519C13.7249 54.3407 13.6114 54.3407 13.3844 54.3407H13.0438C13.0438 54.3407 12.9303 54.3407 12.9303 54.4542V54.5677C12.9303 54.9083 12.8168 55.2488 12.5898 55.4758V56.1569H12.4763V56.2704V56.3839V57.1785H12.0222C11.9087 57.292 11.7952 57.292 11.5681 57.4055L10.8871 57.5191H10.7736H10.5465C10.206 57.6326 9.75193 57.5191 9.5249 57.1785C9.41139 57.4055 9.29788 57.6326 9.07085 57.8596C8.73031 58.0866 8.38977 58.0866 8.04923 57.9731C7.70869 57.8596 7.48166 57.6326 7.36815 57.292L7.14112 56.838L7.25463 56.7245V56.611V54.1137L7.02761 53.6596H6.57355C5.89247 53.6596 5.3249 53.2056 5.09788 52.5245L0.784364 48.892L0.670851 48.665C0.557337 48.3245 0.557337 48.0974 0.557337 47.7569V46.9623V46.8488L0.670851 46.2812C0.670851 46.1677 0.784364 46.0542 0.784364 45.9407C0.557337 45.7137 0.443824 45.4866 0.443824 45.1461L0.216797 44.8056L0.670851 44.3515C0.670851 44.3515 0.670851 44.3515 0.670851 44.238C0.670851 44.1245 0.784364 43.8974 0.897878 43.7839L1.01139 43.6704V43.2164H1.1249C1.01139 43.1028 1.01139 42.8758 1.01139 42.6488C1.01139 42.6488 1.01139 42.6488 1.01139 42.5353C1.01139 42.4218 1.01139 42.3083 1.01139 42.3083V41.8542C1.01139 41.5137 1.1249 41.1731 1.35193 40.9461C1.46545 40.7191 1.57896 40.6055 1.69247 40.492C1.80599 40.265 1.9195 40.1515 2.03301 40.038C2.26004 39.811 2.71409 39.5839 3.05463 39.6974C3.28166 39.4704 3.6222 39.3569 3.96274 39.3569H4.75734C4.87085 39.2434 4.87085 39.2434 4.98436 39.1299C5.09788 39.0164 5.09788 38.9029 5.21139 38.9029C5.43842 38.6758 5.66544 38.5623 6.00599 38.5623L6.1195 38.3353C6.1195 38.1083 6.1195 37.8812 6.23301 37.7677C6.23301 37.5407 6.34653 37.3137 6.57355 37.2001C6.57355 37.2001 6.57355 37.2001 6.68707 37.0866C6.68707 36.9731 6.80058 36.7461 6.91409 36.6326C7.02761 36.4056 7.25463 36.1785 7.59517 36.065L7.93572 35.838L8.38977 35.9515C8.50328 35.9515 8.6168 35.9515 8.73031 35.9515L9.18436 36.065H10.0925C10.3195 36.065 10.66 36.1785 10.7736 36.292H10.8871H11.0006H11.2276L11.3411 36.1785C11.5681 36.065 11.6817 36.065 11.9087 36.065H12.1357V35.9515H13.1573C13.3844 35.9515 13.6114 36.065 13.8384 36.1785H13.9519C14.2925 36.1785 14.633 36.292 14.9736 36.5191C15.0871 36.5191 15.0871 36.5191 15.2006 36.5191H15.3141C15.4276 36.5191 15.5411 36.5191 15.5411 36.5191H15.8817L16.1087 36.6326L16.3357 36.4056V36.292C16.3357 36.1785 16.3357 35.9515 16.4492 35.838C16.4492 35.7245 16.4492 35.7245 16.5627 35.611C16.4492 35.4974 16.3357 35.2704 16.3357 35.0434C16.2222 34.7028 16.2222 34.3623 16.4492 34.0218C16.5627 33.7947 16.7898 33.6812 17.0168 33.5677L17.1303 33.4542C17.1303 33.2272 17.2438 32.8866 17.3573 32.6596L17.4708 32.5461C17.4708 32.2056 17.5844 31.865 17.8114 31.638C17.6979 31.5245 17.5844 31.411 17.5844 31.2974C17.3573 31.1839 17.2438 31.0704 17.1303 30.9569C16.9033 30.7299 16.7898 30.3893 16.9033 30.0488V29.9353L17.0168 29.7083C17.1303 29.4812 17.3573 29.2542 17.5844 29.1407C17.5844 29.0272 17.4708 29.0272 17.4708 28.9137C17.1303 28.6866 17.0168 28.3461 16.9033 27.892V27.3245H16.6763H15.9952L15.3141 26.9839L15.0871 26.1893C14.9736 25.9623 14.9736 25.7353 15.0871 25.5083C14.9736 25.0542 15.0871 24.6001 15.5411 24.2596C15.5411 23.8056 15.6546 23.3515 15.8817 22.8974L15.9952 22.6704C16.1087 22.5569 16.1087 22.4434 16.2222 22.3299C16.2222 21.9893 16.3357 21.7623 16.5627 21.5353L16.4492 21.4218C16.2222 21.1947 16.1087 20.8542 15.9952 20.6272C15.7681 20.5137 15.6546 20.4001 15.5411 20.2866C15.3141 19.9461 15.2006 19.6056 15.3141 19.265V19.1515C15.4276 18.4704 16.1087 18.0164 16.7898 18.0164C17.0168 17.7893 17.4708 17.6758 17.8114 17.6758H18.0384C18.0384 17.5623 18.1519 17.5623 18.1519 17.5623L18.833 16.5407C19.06 16.2001 19.4006 15.9731 19.7411 15.8596L19.8546 15.7461C19.9681 15.6326 20.0817 15.4056 20.1952 15.4056V15.292C20.1952 15.1785 20.1952 15.065 20.1952 14.9515C19.8546 14.7245 19.5141 14.3839 19.4006 14.0434L19.2871 13.9299C18.833 13.3623 18.7195 12.6812 18.833 12.1137C18.833 11.5461 19.1736 10.9785 19.7411 10.638C19.7411 10.5245 19.7411 10.2974 19.7411 10.1839C19.8546 9.72988 20.0817 9.38934 20.5357 9.16231C20.8763 8.93528 21.3303 8.93528 21.7844 9.0488L22.0114 9.16231C22.3519 9.16231 22.579 9.16231 22.9195 9.38934L23.7141 9.84339C23.7141 9.84339 23.8276 9.84339 23.8276 9.9569H23.9411H24.1681C24.1681 9.9569 24.1681 9.9569 24.2817 9.9569C24.3952 9.84339 24.5087 9.61636 24.6222 9.50285C24.6222 9.50285 24.6222 9.50285 24.6222 9.38934L24.8492 8.70825L26.3249 8.2542C26.4384 8.14069 26.4384 8.14069 26.5519 8.02717H26.6654C26.8925 7.80015 27.233 7.80015 27.5736 7.80015L27.9141 7.91366L28.2546 7.23258C28.3681 7.00555 28.4817 6.89204 28.5952 6.77853C28.5952 6.43798 28.7087 6.09744 28.8222 5.7569L29.1627 4.8488C29.2763 4.50826 29.5033 4.28123 29.8438 4.16772V4.0542C29.9573 3.94069 30.0708 3.82717 30.0708 3.71366C30.2979 3.48663 30.6384 3.37312 30.979 3.25961L31.3195 3.14609C31.433 2.91907 31.5465 2.80555 31.66 2.69204C31.66 2.57853 31.7736 2.57853 31.7736 2.46501C31.66 2.3515 31.5465 2.12447 31.433 1.89745C31.3195 1.5569 31.3195 1.10285 31.5465 0.76231C32.0006 0.0812289 32.6817 -0.145798 33.3627 0.0812289C33.8168 0.194742 34.1573 0.535283 34.2708 0.875823L34.8384 1.89745C34.9519 2.01096 35.0654 2.12447 35.179 2.12447L35.406 2.23799C35.633 2.3515 35.7465 2.3515 35.86 2.46501C36.3141 2.80555 36.5411 3.48663 36.4276 4.0542L37.3357 4.50826C37.6763 4.39474 37.9033 4.39474 38.2438 4.50826C38.5844 4.62177 38.8114 4.8488 39.0384 5.18934L39.2654 5.64339L39.379 5.7569C39.7195 5.87042 40.06 6.09744 40.4006 6.43798L41.0817 7.23258L41.5357 7.68663C41.8763 7.91366 42.1033 8.36771 42.1033 8.70825C42.2168 9.16231 42.1033 9.72988 41.8763 10.0704L41.6492 10.411L41.3087 12.1137L41.0817 12.4542L40.8546 13.7028C40.9681 13.8164 41.0817 13.9299 41.0817 14.1569C41.0817 14.1569 41.0817 14.1569 41.1952 14.2704C41.4222 14.4974 41.4222 14.838 41.4222 15.065C41.5357 15.4056 41.5357 15.8596 41.3087 16.2001L41.1952 16.3137C41.1952 16.4272 41.1952 16.5407 41.1952 16.7677C41.3087 16.7677 41.3087 16.7677 41.4222 16.7677L42.1033 16.6542C42.6708 16.5407 43.3519 16.7677 43.6925 17.2218C44.033 17.5623 44.1465 18.0164 44.1465 18.3569V18.5839C44.7141 18.5839 45.1681 18.811 45.5087 19.265H45.7357C46.5303 19.492 47.0979 20.1731 47.0979 20.9677V21.1947C47.4384 21.5353 47.6654 21.9893 47.6654 22.4434C47.6654 23.1245 47.4384 23.8056 46.8708 24.2596L47.4384 26.3029L47.0979 26.7569C46.9844 26.8704 46.8708 26.9839 46.6438 27.0974C46.5303 27.211 46.4168 27.3245 46.3033 27.438C46.0763 27.665 45.8492 27.7785 45.5087 27.892H45.3952C45.1681 28.1191 44.9411 28.1191 44.6006 28.2326C44.4871 28.2326 44.3736 28.3461 44.3736 28.3461C44.26 28.4596 44.033 28.4596 43.9195 28.4596H43.579C43.4654 28.4596 43.4654 28.4596 43.3519 28.4596C43.2384 28.4596 43.2384 28.4596 43.1249 28.4596L42.8979 28.5731L42.4438 28.4596C42.3303 28.4596 42.3303 28.4596 42.2168 28.4596C42.1033 28.6866 41.9898 28.8001 41.7627 28.9137L41.5357 29.0272L41.4222 29.1407L41.6492 29.8218C41.8763 30.2758 41.7627 30.7299 41.5357 31.1839C41.4222 31.411 41.3087 31.5245 41.0817 31.638L41.3087 32.3191C41.4222 32.6596 41.4222 33.1137 41.1952 33.4542C41.0817 33.5677 40.9681 33.6812 40.8546 33.7947C41.0817 33.6812 41.4222 33.6812 41.7627 33.6812V33.5677H42.2168L42.5573 33.2272L43.579 33.9083C43.6925 33.9083 43.6925 33.9083 43.806 33.9083H43.9195C44.6006 33.9083 45.1681 34.4758 45.3952 35.0434C45.5087 35.1569 45.5087 35.1569 45.5087 35.2704L45.8492 35.7245C45.8492 35.838 45.9627 35.838 46.0763 35.838C46.6438 36.065 47.0979 36.6326 47.3249 37.2001L47.5519 37.8812C47.5519 37.9947 47.6654 38.2218 47.779 38.3353L48.233 39.0164C48.46 39.2434 48.5735 39.5839 48.5735 39.9245V40.038C48.6871 40.1515 48.8006 40.3785 48.8006 40.6056L49.0276 41.1731C49.2546 41.0596 49.4817 40.9461 49.8222 40.9461H51.2979L51.6384 41.5137C51.7519 41.7407 51.8654 41.9677 51.7519 42.3083V42.6488C51.979 42.6488 52.0925 42.6488 52.3195 42.5353C52.66 42.3083 53.0006 42.3083 53.4546 42.3083L54.4763 42.1947C54.8168 42.0812 55.2708 42.0812 55.6114 42.4218L55.8384 42.5353C55.9519 42.5353 56.0654 42.5353 56.179 42.5353C56.633 42.5353 56.9735 42.7623 57.2006 43.2164L57.7681 44.3515C58.1087 43.7839 58.6763 43.4434 59.3573 43.3299V42.6488C59.3573 42.3083 59.4708 41.8542 59.8114 41.6272C60.0384 41.5137 60.1519 41.4001 60.379 41.4001C60.606 41.2866 60.833 41.1731 61.06 41.1731H61.1735C61.8546 41.1731 62.4222 41.7407 62.4222 42.4218V42.5353C62.4222 42.5353 62.5357 42.5353 62.5357 42.6488C62.8763 42.8758 63.1033 43.2164 63.1033 43.6704L63.2168 47.7569C63.2168 48.3245 63.2168 48.892 62.9898 49.4596L62.8763 50.0272C62.8763 50.1407 62.8763 50.3677 62.8763 50.4812C62.8763 50.7083 62.8763 50.9353 62.8763 51.1623H63.3303C63.3303 51.7299 62.9898 52.2974 62.6492 52.7515L62.1952 53.2056C61.8546 53.5461 61.4006 53.7731 60.9465 53.7731C60.7195 54.2272 60.4925 54.5677 60.0384 54.7947L59.6979 55.0218C59.6979 55.1353 59.6979 55.2488 59.5844 55.3623V55.7028C59.5844 55.8164 59.4708 56.0434 59.3573 56.1569C59.6979 56.4974 59.9249 56.838 59.9249 57.292C59.9249 57.6326 59.9249 57.9731 59.9249 58.2001V58.4272C60.0384 58.5407 60.0384 58.7677 60.0384 58.8812C60.2654 59.1083 60.379 59.4488 60.379 59.7893C60.379 60.3569 60.1519 60.811 59.8114 61.1515L59.6979 61.265L59.3573 61.7191C59.1303 62.0596 58.6763 62.1731 58.3357 62.1731C57.9952 62.1731 57.6546 61.9461 57.5411 61.7191L57.3141 62.1731C56.86 62.9677 56.179 63.5353 55.2708 63.6488C55.0438 63.6488 54.7033 63.7623 54.4763 63.6488H54.2492C53.2276 63.5353 52.3195 63.0812 51.6384 62.4001L49.0276 59.6758L47.779 60.1299C47.4384 60.3569 46.9844 60.4704 46.5303 60.3569L45.6222 60.2434C44.9411 60.1299 44.26 59.7893 43.9195 59.2218V59.1083C43.579 58.9947 43.2384 58.8812 43.0114 58.6542C42.8979 58.5407 42.7844 58.4272 42.7844 58.3137C42.7844 58.3137 42.6708 58.3137 42.6708 58.2001L42.5573 58.0866C42.2168 58.0866 41.8763 57.9731 41.6492 57.8596L41.4222 57.7461C41.4222 57.7461 41.3087 57.7461 41.1952 57.7461H41.0817L41.3087 58.6542C41.7627 58.8812 42.1033 59.2218 42.2168 59.6758L42.3303 60.0164V60.2434C42.2168 60.9245 41.6492 61.492 40.9681 61.492H40.06C40.06 61.6055 40.06 61.6055 39.9465 61.7191C40.06 61.9461 40.1736 62.1731 40.1736 62.5137C40.1736 63.1947 39.606 63.7623 38.9249 63.7623C38.4708 64.1028 37.9033 64.2164 37.4492 63.9893L37.1087 63.6488L37.2222 64.7839L37.4492 65.1245L37.2222 65.692C37.1087 66.0326 36.7681 66.2596 36.4276 66.2596L35.9736 66.3731H35.7465L34.0438 66.0326C33.7033 66.4866 33.2492 66.7137 32.6817 66.7137ZM31.66 64.6704H32.4546C32.7952 64.1029 33.3627 63.8758 34.0438 63.9893L35.179 64.2164V63.8758L35.0654 63.1947C34.9519 62.8542 35.0654 62.5137 35.2925 62.1731C35.2925 62.0596 35.406 61.9461 35.5195 61.8326C35.5195 61.7191 35.633 61.6055 35.7465 61.492L35.86 61.265L36.4276 61.038C36.7681 60.9245 37.1087 61.038 37.4492 61.1515L37.9033 61.492C37.9033 61.1515 38.0168 60.9245 38.1303 60.6974L38.2438 60.5839C38.3573 59.9028 38.9249 59.4488 39.4925 59.3353L39.0384 57.292C38.9249 56.9515 39.0384 56.4974 39.379 56.2704C39.606 56.0434 39.833 55.9299 40.06 55.9299C40.2871 55.8164 40.5141 55.7028 40.7411 55.7028H41.0817C41.6492 55.7028 42.1033 55.8164 42.5573 56.0434L42.6708 56.1569C42.8979 56.1569 43.1249 56.2704 43.3519 56.2704L43.579 56.3839C43.9195 56.3839 44.26 56.611 44.4871 56.9515C44.6006 57.065 44.6006 57.1785 44.6006 57.292H44.7141C45.0546 57.4056 45.2817 57.6326 45.3952 57.8596L45.6222 57.9731C45.7357 58.0866 45.8492 58.2001 45.9627 58.2001L46.6438 58.3137C46.7573 58.3137 46.7573 58.2001 46.8708 58.2001L48.233 57.6326C48.46 57.5191 48.8006 57.5191 49.0276 57.5191C49.4817 57.5191 49.8222 57.7461 50.1627 58.0866L52.8871 60.9245C53.2276 61.265 53.6817 61.492 54.2492 61.6055H54.4763C54.5898 61.6055 54.7033 61.6055 54.7033 61.6055C54.9303 61.6055 55.1573 61.3785 55.2708 61.1515L55.9519 59.7893C55.7249 59.4488 55.7249 58.9947 55.9519 58.6542C56.179 57.9731 56.9735 57.7461 57.5411 57.8596L57.7681 57.9731H57.8817L57.9952 57.7461L57.6546 57.6326C57.2006 57.4056 56.86 56.838 56.9735 56.2704C56.9735 55.9299 57.2006 55.5893 57.5411 55.3623L57.7681 55.2488V55.1353C57.7681 54.9083 57.7681 54.6812 57.7681 54.4542V54.3407C57.8817 54.0001 57.9952 53.7731 58.3357 53.6596L59.1303 53.2056C59.2438 53.2056 59.2438 53.092 59.2438 53.092V52.9785C59.3573 52.7515 59.3573 52.638 59.4708 52.5245C59.8114 52.0704 60.379 51.8434 60.833 51.9569L61.1735 51.6164C61.2871 51.5028 61.2871 51.3893 61.2871 51.2758L61.4006 50.5947C61.4006 50.4812 61.4006 50.3677 61.4006 50.3677C61.4006 50.0272 61.4006 49.5731 61.5141 49.2326L61.6276 48.665C61.7411 48.3245 61.7411 47.8704 61.7411 47.5299L61.6276 44.5785C61.4006 44.9191 61.06 45.1461 60.7195 45.1461L60.1519 45.2596C60.0384 45.2596 59.9249 45.3731 59.9249 45.4866L59.8114 45.8272C59.8114 46.2812 59.6979 46.6218 59.3573 46.9623C59.0168 47.3028 58.5627 47.4164 58.1087 47.4164H57.6546C57.0871 47.3028 56.5195 46.9623 56.406 46.3947C56.406 46.1677 56.2925 46.0542 56.2925 45.8272V45.2596L56.0654 44.692C55.7249 44.692 55.4979 44.5785 55.2708 44.465L55.0438 44.238L53.9087 44.3515C53.7952 44.3515 53.6817 44.3515 53.5681 44.465C52.8871 44.8055 52.206 44.8055 51.6384 44.692L51.0708 44.5785C50.8438 44.465 50.6168 44.3515 50.3898 44.238C50.2763 44.1245 50.1627 43.8974 50.0492 43.6704C49.8222 43.8974 49.4817 44.011 49.1411 43.8974H48.3465L47.6654 43.1029V42.8758L47.3249 41.8542C47.3249 41.8542 47.3249 41.7407 47.2114 41.7407L46.9844 41.2866C46.8708 41.0596 46.8708 40.9461 46.8708 40.7191V40.6056L46.4168 39.9245C46.1898 39.5839 46.0763 39.2434 45.9627 38.9029L45.7357 38.2218C45.7357 38.2218 45.6222 38.2218 45.5087 38.2218C45.1681 37.9947 44.9411 37.7677 44.7141 37.5407L44.3736 37.0866C44.1465 36.9731 44.033 36.7461 43.9195 36.5191L43.4654 36.7461L42.5573 36.4056H41.9898L41.6492 36.6326L40.9681 37.0866L40.5141 36.6326L40.4006 36.7461H40.2871L40.1736 36.8596L39.833 36.6326L39.7195 36.7461L38.6979 35.9515V35.0434C38.6979 34.9299 38.6979 34.9299 38.6979 34.8164V34.7029C38.6979 34.3623 38.6979 34.1353 38.8114 33.9083L38.9249 33.4542L39.379 33.2272L39.4925 33.1137L39.379 33.0001C39.1519 32.7731 39.0384 32.4326 39.0384 32.2056V32.092C39.0384 31.5245 39.379 31.0704 39.833 30.9569L39.7195 30.7299C39.2654 29.9353 39.606 28.9137 40.4006 28.4596C40.4006 28.4596 40.5141 28.3461 40.6276 28.3461L40.8546 28.2326C40.9681 28.0056 41.0817 27.892 41.3087 27.7785L41.7627 27.438C41.9898 27.211 42.3303 27.211 42.5573 27.211H43.1249H43.2384C43.4654 27.211 43.6925 27.211 43.806 27.3245H43.9195C44.033 27.211 44.1465 27.211 44.26 27.211L44.3736 27.0974H44.4871C44.6006 27.0974 44.6006 26.9839 44.7141 26.9839L45.1681 26.7569L44.9411 26.0758C44.7141 25.2812 44.9411 24.3731 45.6222 23.8056V23.692C45.2817 23.3515 45.1681 23.011 45.0546 22.5569V22.3299H44.8276C44.4871 22.2164 44.1465 21.9893 43.9195 21.7623H43.579C43.3519 21.7623 43.0114 21.7623 42.7844 21.6488C42.5573 21.5353 42.3303 21.3083 42.1033 21.0812L42.2168 19.6056C41.9898 19.265 41.9898 18.9245 41.9898 18.5839H41.8763C41.5357 18.6974 41.0817 18.6974 40.7411 18.5839L39.1519 18.3569L38.3573 17.2218L39.0384 16.5407C38.9249 16.3137 38.9249 15.9731 39.0384 15.7461L39.2654 15.1785C39.2654 15.065 39.1519 14.9515 39.1519 14.9515C38.8114 14.611 38.6979 14.1569 38.8114 13.7028L39.379 11.092L39.7195 10.865L39.833 10.1839C39.833 9.9569 39.9465 9.72988 40.06 9.50285L40.2871 9.16231L39.606 8.59474L38.9249 7.68663C38.9249 7.68663 38.8114 7.68663 38.8114 7.57312C38.3573 7.34609 37.9033 7.00555 37.6763 6.66501C37.4492 6.66501 37.2222 6.66501 37.1087 6.5515L35.0654 5.7569C34.7249 5.64339 34.4979 5.30285 34.2708 4.96231C34.1573 4.62177 34.1573 4.28123 34.2708 4.0542C34.1573 3.94069 34.0438 3.94069 33.9303 3.82717L33.8168 3.94069C33.7033 4.0542 33.4763 4.16772 33.2492 4.28123C33.1357 4.62177 32.7952 4.96231 32.3411 5.07582L31.5465 5.30285L31.433 5.41636C31.3195 5.52988 31.206 5.64339 31.0925 5.7569L30.7519 6.43798C30.7519 6.5515 30.6384 6.66501 30.6384 6.89204V7.45961C30.5249 7.80015 30.2979 8.14069 29.9573 8.2542L29.6168 9.16231C29.3898 9.50285 29.0492 9.84339 28.7087 9.9569C28.4817 10.0704 28.2546 10.0704 28.0276 9.9569H27.9141L27.6871 10.2974H26.5519C26.4384 10.411 26.4384 10.5245 26.3249 10.5245C26.2114 10.638 25.9844 10.7515 25.8708 10.7515C25.7573 10.9785 25.5303 11.2056 25.3033 11.4326C24.9627 11.6596 24.6222 11.6596 24.2817 11.6596H24.1681C23.9411 11.6596 23.6006 11.6596 23.26 11.6596C23.033 11.5461 22.6925 11.5461 22.4654 11.3191L21.8979 10.9785C21.8979 10.9785 21.8979 10.9785 21.7844 10.9785C21.7844 11.2056 21.6708 11.3191 21.5573 11.5461C21.4438 11.6596 21.3303 11.7731 21.1033 11.8866L20.7627 12.1137V12.2272V12.3407C20.8763 12.4542 20.9898 12.5677 20.9898 12.7947C20.9898 12.9083 21.1033 12.9083 21.1033 12.9083L21.5573 13.1353C21.8979 13.3623 22.1249 13.7028 22.2384 14.1569C22.2384 14.3839 22.2384 14.611 22.1249 14.7245C22.3519 14.9515 22.4654 15.4056 22.3519 15.7461C22.2384 16.3137 21.7844 16.7677 21.2168 16.7677V16.8812C20.9898 17.2218 20.6492 17.4488 20.3087 17.5623L19.7411 18.3569C19.7411 18.6974 19.5141 19.038 19.2871 19.265L19.1736 19.3785C19.2871 19.3785 19.5141 19.265 19.6276 19.265C20.1952 19.265 20.6492 19.6056 20.8763 20.1731L20.9898 20.5137C21.2168 21.0812 21.1033 21.7623 20.6492 22.3299V22.5569C19.9681 23.3515 18.9465 23.5785 18.0384 23.3515C17.9249 23.465 17.9249 23.5785 17.8114 23.692L17.6979 23.8056C17.5844 23.9191 17.5844 24.0326 17.5844 24.1461C17.5844 24.3731 17.5844 24.3731 17.5844 24.4866C17.5844 24.6001 17.5844 24.7137 17.4708 24.8272H17.5844L18.1519 25.1677C18.1519 25.1677 18.2654 25.1677 18.2654 25.2812C18.379 25.3947 18.606 25.5083 18.606 25.6218C18.7195 25.8488 18.833 26.0758 18.833 26.3029C18.833 26.4164 18.833 26.5299 18.833 26.6434L19.06 27.438C19.1736 27.5515 19.1736 27.665 19.1736 27.7785L19.2871 28.0056H19.4006V28.1191L19.7411 28.9137L19.6276 29.0272C19.7411 29.1407 19.8546 29.1407 19.8546 29.2542C20.0817 29.4812 20.1952 29.7083 20.0817 30.0488L20.1952 30.3893C20.3087 30.6164 20.3087 30.9569 20.1952 31.1839V31.5245L19.6276 32.4326H19.2871C19.2871 32.5461 19.1736 32.6596 19.06 32.6596C19.06 32.8866 18.9465 33.0001 18.833 33.2272L18.7195 33.3407L18.833 34.0218C18.833 34.4758 18.606 34.9299 18.2654 35.0434C18.2654 35.1569 18.2654 35.1569 18.2654 35.2704C18.2654 35.611 18.2654 35.838 18.1519 36.065V36.8596H18.0384C18.0384 37.0866 17.9249 37.3137 17.6979 37.5407V37.7677L17.2438 38.1083C17.0168 38.4488 16.5627 38.5623 16.2222 38.5623H15.6546C15.5411 38.5623 15.4276 38.5623 15.3141 38.4488C15.2006 38.4488 15.2006 38.4488 15.0871 38.4488H14.9736L14.2925 38.9029L13.9519 38.4488C13.8384 38.4488 13.7249 38.3353 13.6114 38.3353H13.4979H13.3844C13.2709 38.3353 13.0438 38.3353 12.9303 38.3353C12.5898 38.2218 12.3627 38.1083 12.2492 37.8812H11.9087C11.7952 37.9947 11.5681 38.1083 11.3411 38.1083H11.1141C11.0006 38.1083 11.0006 38.1083 10.8871 38.2218C10.7736 38.3353 10.5465 38.3353 10.3195 38.3353H9.18436L9.07085 37.8812H8.6168C8.50328 37.8812 8.27626 37.8812 8.16274 37.7677C8.04923 37.9947 7.93572 38.2218 7.8222 38.3353C7.8222 38.4488 7.8222 38.4488 7.8222 38.5623L8.16274 38.6758C8.16274 38.9028 8.16274 39.1299 7.93572 39.3569V39.4704C7.93572 39.9245 7.70869 40.265 7.48166 40.492L7.36815 40.7191H6.34653C6.1195 41.0596 5.66545 41.2866 5.3249 41.2866H4.53031C4.30328 41.5137 3.96274 41.6272 3.6222 41.6272C3.6222 41.7407 3.50869 41.8542 3.39517 41.8542L3.28166 41.9677V42.0812L3.39517 42.7623V43.6704V44.3515L3.84923 44.9191L3.6222 45.6001V45.7137L3.73572 45.9407L3.05463 46.9623H2.71409L2.60058 47.0758V47.6434L6.57355 50.9353C6.80058 51.0488 6.91409 51.2758 7.02761 51.5028H7.48166C7.70869 51.3893 7.93572 51.2758 8.16274 51.2758H9.07085L9.29788 51.7299C9.5249 51.9569 9.63842 52.2974 9.63842 52.5245C9.63842 52.865 9.5249 53.092 9.29788 53.3191V54.3407L9.07085 54.5677H9.18436C9.29788 54.5677 9.41139 54.5677 9.41139 54.5677H9.63842H9.75193L9.97896 54.7947H10.0925H10.206V53.8866H10.66C10.66 53.8866 10.66 53.7731 10.7736 53.7731V53.4326C10.7736 53.092 10.8871 52.7515 11.2276 52.411C11.4546 52.1839 11.9087 52.0704 12.2492 52.0704C12.3627 52.0704 12.4763 51.9569 12.5898 51.9569H12.9303C13.1573 51.7299 13.3844 51.6164 13.7249 51.7299H13.9519C14.179 51.7299 14.406 51.8434 14.5195 51.9569H15.0871L15.3141 52.1839H15.8817L16.2222 51.9569L16.4492 51.8434L16.7898 52.1839H17.3573C17.5844 52.0704 17.9249 52.2974 18.1519 52.411H19.6276C19.9681 52.411 20.3087 52.5245 20.5357 52.7515C20.6492 52.865 20.7627 53.092 20.8763 53.2056C20.8763 53.2056 20.9898 53.2056 20.9898 53.3191L21.3303 53.6596L21.4438 54.2272V55.1353C21.4438 55.2488 21.4438 55.4758 21.3303 55.5893V55.7028L21.1033 55.9299L21.3303 56.0434C21.7844 56.2704 22.2384 56.7245 22.3519 57.1785V57.292C22.3519 57.292 22.4654 57.292 22.4654 57.4055C22.806 57.6326 22.9195 57.9731 22.9195 58.3137V58.9947C22.9195 59.2218 22.9195 59.4488 22.6925 59.6758C22.806 59.7893 22.806 59.7893 22.9195 59.9028H23.1465H24.1681C24.3952 59.7893 24.6222 59.6758 24.9627 59.6758H26.2114C26.779 59.6758 27.1195 60.0164 27.46 60.3569C27.5736 60.1299 27.6871 59.9028 27.8006 59.7893C28.0276 59.5623 28.3681 59.4488 28.8222 59.4488C29.5033 59.5623 30.0708 60.1299 30.0708 60.811L30.1844 62.5137C30.2979 62.6272 30.4114 62.6272 30.5249 62.7407L30.7519 62.9677L30.8654 63.0812C31.0925 63.1947 31.206 63.4218 31.3195 63.6488L31.5465 64.1029C31.5465 64.3299 31.66 64.5569 31.66 64.6704ZM29.0492 63.9893C29.0492 64.1028 29.0492 64.1028 29.0492 63.9893V63.9893ZM37.9033 62.7407C37.7898 62.8542 37.9033 62.7407 37.9033 62.7407V62.7407ZM38.8114 60.3569C38.6979 60.3569 38.6979 60.3569 38.8114 60.3569C38.6979 60.3569 38.6979 60.3569 38.8114 60.3569ZM7.14112 56.0434C7.02761 56.0434 7.02761 56.0434 7.14112 56.0434V56.0434ZM39.833 56.0434C39.833 56.0434 39.7195 56.0434 39.833 56.0434V56.0434ZM59.4708 54.1137C59.4708 54.2272 59.4708 54.2272 59.4708 54.1137C59.4708 54.2272 59.4708 54.2272 59.4708 54.1137ZM11.4546 53.7731H11.3411H11.4546ZM55.7249 43.5569C55.8384 43.5569 55.8384 43.5569 55.7249 43.5569V43.5569ZM3.05463 43.1029C2.94112 43.1029 2.94112 43.1029 3.05463 43.1029V43.1029ZM55.6114 42.5353C55.6114 42.6488 55.4979 42.6488 55.6114 42.5353C55.4979 42.6488 55.6114 42.6488 55.6114 42.5353ZM50.3898 41.0596L51.0708 41.7407L50.3898 41.0596ZM7.59517 39.9245L7.48166 40.038C7.59517 40.038 7.59517 40.038 7.59517 39.9245ZM7.48166 39.9245C7.48166 40.038 7.48166 39.9245 7.48166 39.9245V39.9245ZM10.206 38.1083H10.3195C10.3195 38.1083 10.3195 38.1083 10.206 38.1083ZM6.23301 37.8812C6.23301 37.8812 6.23301 37.9947 6.23301 37.8812V37.8812ZM9.41139 37.3137V37.4272V37.3137ZM14.5195 36.292C14.5195 36.4056 14.5195 36.292 14.5195 36.292V36.292ZM44.26 34.5893V34.8164C44.26 34.8164 44.26 34.7029 44.26 34.5893ZM41.7627 34.1353L41.8763 34.3623C41.8763 34.2488 41.8763 34.2488 41.7627 34.1353ZM18.833 33.7947C18.7195 33.7947 18.833 33.7947 18.833 33.7947V33.7947ZM43.0114 33.2272C42.8979 33.2272 42.8979 33.2272 42.7844 33.2272H43.0114ZM17.8114 31.0704C17.8114 31.1839 17.8114 31.1839 17.8114 31.0704C17.8114 31.1839 17.8114 31.1839 17.8114 31.0704ZM42.6708 27.438C42.6708 27.5515 42.6708 27.5515 42.6708 27.438C42.6708 27.5515 42.6708 27.5515 42.6708 27.438ZM45.7357 26.0758L45.8492 26.4164L45.7357 26.0758ZM15.7681 26.1893C15.7681 26.1893 15.8817 26.1893 15.7681 26.1893V26.1893ZM42.4438 26.1893C42.3303 26.1893 42.3303 26.1893 42.4438 26.1893V26.1893ZM18.0384 20.0596L18.2654 20.1731H18.379C18.379 20.1731 18.379 20.1731 18.379 20.0596C18.4925 19.8326 18.7195 19.7191 18.833 19.6056C18.606 19.6056 18.379 19.6056 18.2654 19.6056H17.9249C17.9249 19.7191 18.0384 19.9461 18.0384 20.0596ZM39.606 16.3137C39.606 16.3137 39.606 16.4272 39.606 16.3137V16.3137ZM41.1952 11.8866C41.1952 12.0001 41.1952 11.8866 41.1952 11.8866V11.8866ZM36.0871 4.73528C36.0871 4.8488 36.0871 4.73528 36.0871 4.73528V4.73528Z" fill="#98A782"/>
</g>
<defs>
<clipPath id="clip0">
<rect width="63.5676" height="66.6324" fill="white" transform="translate(0.216797 0.0810547)"/>
</clipPath>
</defs>
</svg>
