<svg width="74" height="74" viewBox="0 0 74 74" fill="none" xmlns="http://www.w3.org/2000/svg">
<path d="M39.0405 13.98C39.3057 13.3836 39.5468 12.835 39.7878 12.2863C39.7982 12.2658 39.8074 12.2431 39.817 12.2197C39.852 12.1338 39.8912 12.0375 40.0048 12C43.3075 12.835 44.7057 16.1032 42.9459 18.9898C42.6084 19.5385 42.2709 20.0871 41.9575 20.6358C41.0655 22.1149 41.5477 23.5224 43.1387 24.1904C43.2613 24.2389 43.3777 24.2936 43.5005 24.3513C43.6192 24.4071 43.7439 24.4657 43.8861 24.5243C43.7527 24.8432 43.6194 25.1519 43.4884 25.4552C43.3352 25.8099 43.1853 26.1572 43.0423 26.5044C39.595 25.574 38.2691 22.4489 40.0289 19.4669C40.1977 19.1806 40.3664 18.9004 40.5351 18.6201C40.7039 18.3398 40.8727 18.0594 41.0414 17.7731C41.8852 16.3179 41.4271 14.982 39.8843 14.314C39.6825 14.2596 39.4946 14.1775 39.2676 14.0782C39.1963 14.0471 39.1211 14.0142 39.0405 13.98Z" fill="#98A782"/>
<path fill-rule="evenodd" clip-rule="evenodd" d="M21.459 15.3613C21.8382 14.6697 22.8315 14.669 23.2116 15.3602C25.8661 20.1874 28.4931 24.979 31.1357 29.7992L31.147 29.8198C31.8907 31.1764 32.6356 32.5352 33.3828 33.8977C33.7483 34.5642 33.2661 35.3787 32.506 35.3787H24.5155C23.9633 35.3787 23.5155 35.8264 23.5155 36.3787V40.118C23.5155 40.4433 23.7665 40.5934 23.9977 40.3646C26.2155 38.2414 29.5664 38.1698 31.8325 40.2692C32.2945 40.6978 32.722 41.1436 33.1511 41.5911C33.4384 41.8907 33.7266 42.1912 34.0263 42.4878C34.4006 42.8582 34.9263 42.7455 35.1825 42.2854C35.5831 41.566 35.9802 40.8523 36.3646 40.126C37.112 38.7661 37.8594 37.4003 38.6068 36.0344C39.354 34.6688 40.1013 33.3031 40.8486 31.9434C42.2468 29.3909 44.778 28.2219 47.4057 28.9376C49.0209 29.367 50.2263 30.3451 51.0218 31.8003C52.5406 34.5558 54.0534 37.3173 55.5662 40.0787C57.0789 42.8399 58.5915 45.6011 60.1102 48.3563C60.6526 49.3463 61.195 50.3304 61.7374 51.3144C62.2798 52.2985 62.8222 53.2825 63.3647 54.2726C64.4977 56.3719 64.0396 58.6859 62.1834 60.0934C61.2914 60.7852 60.2548 61.0238 59.1459 61.0238H14.9334C12.9807 61.0238 11.4379 60.3081 10.5459 58.5428C9.70214 56.8967 9.82268 55.2745 11.0039 53.8432C12.0554 52.588 13.2108 51.4357 14.3662 50.2834C14.8797 49.7714 15.3934 49.259 15.8977 48.738C16.7415 47.8672 17.5852 47.0024 18.429 46.1376C19.2727 45.2729 20.1165 44.4081 20.9602 43.5374C21.1289 43.3704 21.2736 43.2034 21.2736 42.9172V35.7127C21.2736 35.5355 21.0819 35.4264 20.9048 35.4264H12.1984C11.4412 35.4264 10.9587 34.6175 11.319 33.9515C14.6916 27.7177 18.0513 21.5764 21.459 15.3613ZM45.6373 58.1334C45.5328 58.4298 45.7414 58.7575 46.0557 58.7575C47.2955 58.7575 48.5353 58.7536 49.7751 58.7497C52.8744 58.7399 55.9743 58.7302 59.0736 58.7813C61.195 58.829 62.2557 56.8967 61.2673 55.1552C58.5773 50.342 55.938 45.5186 53.2967 40.6918C51.8668 38.0787 50.4362 35.4641 48.9968 32.85C48.7557 32.4206 48.4664 32.015 48.0566 31.681C46.4173 30.369 44.0548 30.7745 42.9941 32.683C41.7169 34.9607 40.4643 37.2465 39.2124 39.531C38.314 41.1702 37.4157 42.8095 36.5093 44.4439C36.2979 44.8158 36.4526 44.9838 36.6836 45.2349L36.7021 45.255C37.3289 45.8991 37.9541 46.5447 38.5794 47.1903C40.4553 49.1271 42.3311 51.0639 44.2477 52.9605C45.7775 54.496 46.3365 56.1492 45.6373 58.1334ZM23.4898 57.9626C23.4476 58.3999 23.8235 58.7575 24.2629 58.7575H41.1379C42.0298 58.7575 42.8013 58.5428 43.3316 57.7555C43.9825 56.7774 43.8138 55.7516 42.8495 54.7497C40.8005 52.6505 38.7516 50.5454 36.7026 48.4403C34.6534 46.3349 32.6041 44.2294 30.5548 42.1299C29.0361 40.5793 26.987 40.5554 25.4441 42.0822C25.2181 42.3059 24.9964 42.5382 24.7735 42.7719C24.4735 43.0864 24.1712 43.4033 23.853 43.7044C23.5637 43.9668 23.4914 44.2769 23.4914 44.6586V57.9464L23.4898 57.9626ZM23.2115 20.0325C22.8313 19.3421 21.839 19.3431 21.4596 20.0339L19.9537 22.7753C18.3244 25.7412 16.7111 28.6777 15.0927 31.6325C14.7277 32.2988 15.21 33.1124 15.9696 33.1124H28.6989C29.4586 33.1124 29.9409 32.2988 29.5762 31.6324C27.4616 27.7686 25.3559 23.9256 23.2115 20.0325ZM21.2078 47.0129C21.2165 46.7758 20.936 46.7103 20.7673 46.8772C18.1879 49.5252 15.6084 52.1732 13.0289 54.7974C12.3057 55.5369 11.9923 56.3719 12.4021 57.35C12.8361 58.3758 13.6798 58.7575 14.7646 58.7575C16.6932 58.7336 18.6218 58.7336 20.5504 58.7813C21.0807 58.7813 21.2254 58.6621 21.2254 58.1372C21.2133 56.3122 21.2133 54.4873 21.2133 52.6623C21.2133 50.8373 21.2133 49.0123 21.2012 47.1874C21.2012 47.1494 21.2032 47.1114 21.2051 47.0732C21.2061 47.0532 21.2071 47.0331 21.2078 47.0129Z" fill="#98A782"/>
<path d="M48.6888 12.5221C48.4914 12.9886 48.287 13.4714 48.0566 13.98C48.3218 14.0993 48.5147 14.1947 48.7075 14.2901C50.4432 15.0296 50.8772 16.3179 49.937 17.9401C49.5031 18.6319 49.0691 19.3237 48.6834 20.0394C47.3093 22.6874 48.9968 25.9795 51.9861 26.5043C51.9982 26.4805 52.0162 26.4566 52.0343 26.4328C52.0524 26.4089 52.0705 26.385 52.0825 26.3612C52.1414 26.2253 52.2042 26.0894 52.2678 25.9519C52.3605 25.7515 52.4548 25.5476 52.5406 25.3354C52.7339 24.869 52.8243 24.6783 52.7661 24.5621C52.7082 24.4465 52.5033 24.4046 52.1066 24.238C50.5156 23.5462 50.0575 22.2103 50.9013 20.7312C51.0845 20.4006 51.2821 20.0796 51.4791 19.7596C51.7229 19.3636 51.9657 18.9693 52.179 18.5603C53.6254 15.9123 51.962 12.5725 48.9004 12.0238C48.8302 12.1881 48.7599 12.3541 48.6888 12.5221Z" fill="#98A782"/>
</svg>
