<svg width="74" height="74" viewBox="0 0 74 74" fill="none" xmlns="http://www.w3.org/2000/svg">
<path d="M50.4 18.1C50.5 18.2 50.7 18.3 50.9 18.3C51.1 18.3 51.2 18.2 51.3 18.2H51.5L51.6 17.9C51.7 17.8 51.8 17.6 51.8 17.4C51.8 17.3 51.8 17 51.6 16.7L51.5 16.6C51.4 16.5 51.2 16.4 51 16.4C50.9 16.4 50.6 16.4 50.3 16.6L50.2 16.7C50.1 17 50 17.2 50 17.4C50 17.5 50 17.8 50.2 18.1H50.4Z" fill="#98A782"/>
<path d="M16.5 39.2C16.6 39.3 16.8 39.5 17.1 39.5C17.3 39.5 17.5 39.4 17.6 39.3L17.7 39.2C18 39 18 38.7 18 38.6C18 38.4 17.9 38.2 17.8 38.1L17.7 38C17.5 37.8 17.2 37.8 17 37.8C16.8 37.8 16.6 37.9 16.5 38L16.4 38.1C16.3 38.2 16.2 38.4 16.2 38.5C16.1 38.8 16.3 39 16.5 39.2Z" fill="#98A782"/>
<path d="M32.9 20.2C32.9 22.7 35 24.8 37.5 24.8C40 24.8 42.1 22.7 42.1 20.2C42.1 17.7 40 15.6 37.5 15.6C34.9 15.6 32.9 17.6 32.9 20.2ZM37.5 22.8C36.1 22.8 34.9 21.6 34.9 20.2C34.9 18.8 36.1 17.6 37.5 17.6C38.9 17.6 40.1 18.8 40.1 20.2C40.1 21.6 38.9 22.8 37.5 22.8Z" fill="#98A782"/>
<path d="M65.7 24.3L55.2 18.6L55 18.4H54.8C54.4 18.4 54.2 18.6 54 18.7V18.9C53.8 19.3 53.9 19.8 54.3 20.2L64.2 25.6V63.9H59V28.7C59 28.1 58.6 27.7 58 27.7H17.2C16.6 27.7 16.2 28.1 16.2 28.7V34C16.2 34.6 16.6 35 17.2 35C17.8 35 18.2 34.6 18.2 34V29.7H57V64H52V52.6C52 51.4 51.1 50.5 49.9 50.5H45.3V39.2C45.3 38 44.4 37.1 43.2 37.1H31.9C30.7 37.1 29.8 38 29.8 39.2V50.5H25.2C24 50.5 23.1 51.4 23.1 52.6V63.9H18.1V42.9C18.1 42.3 17.7 41.9 17.1 41.9C16.5 41.9 16.1 42.3 16.1 42.9V63.9H11V25.7L37.5 11.1L46.5 16.1L46.7 16.3H46.9C47.3 16.3 47.5 16.1 47.7 16L47.8 15.9C48 15.5 47.9 15 47.5 14.6L37.9 9.3L37.6 9H37.4C37.1 9 36.9 9.1 36.8 9.2L9.4 24.2L9.3 24.3C9.2 24.5 9 24.7 9 25.1V64.9C9 65.5 9.4 65.9 10 65.9H65C65.6 65.9 66 65.5 66 64.9V25.1C66 24.7 65.8 24.5 65.7 24.3ZM28.6 57H33.1C33.7 57 34.1 56.6 34.1 56V52.5H36.5V63.9H25.1V52.5H27.6V56C27.6 56.6 28 57 28.6 57ZM29.6 55V52.5H32.1V55H29.6ZM35.3 43.5H39.8C40.4 43.5 40.8 43.1 40.8 42.5V39H43.3V50.5H31.8V39H34.3V42.5C34.3 43.1 34.7 43.5 35.3 43.5ZM36.3 41.6V39.1H38.8V41.6H36.3ZM43 55V52.5H45.5V55H43ZM50 63.9H38.5V52.5H41V56C41 56.6 41.4 57 42 57H46.5C47.1 57 47.5 56.6 47.5 56V52.5H50V63.9Z" fill="#98A782"/>
</svg>
