<svg width="74" height="74" viewBox="0 0 74 74" fill="none" xmlns="http://www.w3.org/2000/svg">
<path d="M61 18.8C60.9 17.7 60.1 16.8 59 16.7C58.7 16.7 58.4 16.6 57.9 16.7C57.7 16.7 57.6 16.6 57.5 16.4C57.4 16.1 57.2 15.8 57.1 15.4L57 15.2C56.8 14.7 56.6 14.2 56.4 13.8C56.2 13.2 55.9 13 55.3 13C53 13 48.7 13 42.4 13H23.8C22.1 13 20.4 13 18.6 13C18.1 13 17.8 13.2 17.7 13.6C17.6 13.9 17.5 14.2 17.3 14.5C17.1 14.9 17 15.3 16.8 15.7C16.6 16.4 16.3 16.7 15.6 16.7H15.3C14 16.7 13.1 17.6 13 19C13 19.5 13 20.1 13 20.6C13.1 22 14 22.9 15.4 23C15.5 23 15.6 23 15.8 23H16.3C16.5 27.2 16.7 31.9 16.9 36.2C17.1 40.6 17.3 45.1 17.5 49.1C17.3 49.2 17.2 49.2 17 49.3C15.4 50.2 14.3 51.7 13.8 53.4C13.3 55.2 13.6 57 14.5 58.5C15.8 60.6 17.9 61.8 20.3 61.8C21.6 61.8 22.9 61.4 23.9 60.7C24.2 60.5 24.5 60.4 24.9 60.4C28.5 60.4 35.4 60.4 41.7 60.4H53.3C55.3 60.4 56.4 59.3 56.5 57.3C56.7 51.8 56.9 45.7 57.1 39.7C57.3 34 57.5 28.2 57.7 23C58 23 58.3 23 58.6 23C60 23 61 22 61 20.6C61 20.1 61 19.4 61 18.8ZM20.4 50.5C22.9 50.6 24.9 52.7 24.9 55.2C24.9 57.7 22.7 59.9 20.2 59.9C18.9 59.9 17.8 59.4 16.8 58.5C15.9 57.6 15.4 56.4 15.4 55.2C15.4 52.6 17.5 50.5 20.2 50.5H20.4ZM26.4 58.5C26.3 58.5 26.2 58.5 26.1 58.5C26.1 58.4 26.2 58.3 26.2 58.2C26.2 58.1 26.3 58.1 26.3 58C27.2 56 27.1 54.1 26.2 52.2C25.1 49.9 22.8 48.5 20.2 48.5C19.9 48.5 19.6 48.5 19.3 48.6C19.2 44.7 19 40.4 18.8 36.2V36.1C18.6 31.5 18.4 27 18.2 23H55.6C55.4 28.4 55.2 34.5 55 40.4C54.8 46.1 54.6 51.9 54.4 57.1C54.4 58.2 54.1 58.4 53 58.4H26.4C26.5 58.5 26.4 58.5 26.4 58.5ZM16 21C15 21 15 21 15 20.1C15 19.3 15 19 15.2 18.8C15.3 18.7 15.7 18.7 16.5 18.7H58.1C58.6 18.7 58.9 18.7 59 18.8C59 18.8 59 19.1 59 19.6C59 21 59 21 57.6 21H16ZM19.4 14.5L19.6 15H19.7C21.4 15 23 15 24.7 15H41.2C47.6 15 51.8 15 54.2 15C54.6 15 54.8 15.1 54.9 15.4C55 15.6 55 15.8 55.1 16C55.2 16.2 55.3 16.4 55.3 16.6H18.6C18.7 16.2 18.9 15.9 19 15.6C19.1 15.5 19.1 15.3 19.2 15.2C19.3 15 19.3 15 19.4 15V14.5Z" fill="#98A782"/>
<path d="M30.2 46.4C30.8 46.4 31.3 46.4 31.9 46.4H32.3C32.7 46.4 33.2 46.4 33.6 46.4H34.6L35.1 46.3V45.8C35.1 45.6 35.1 45.4 35.1 45.2L35.6 44.8L34.8 44.5C34.7 44.5 34.6 44.4 34.4 44.4C33.5 44.4 32.4 44.4 31.2 44.4H30.4C30.3 44.4 30.2 44.4 30.2 44.3L32.4 40.5C32.4 40.6 32.5 40.7 32.5 40.8C32.5 40.9 32.5 41 32.6 41L32.7 41.4L33.1 41.3C33.4 41.2 33.8 41.2 34.1 41L34.6 40.9L33.5 36.7L29.3 37.8L29.5 38.6C29.6 38.8 29.6 39 29.7 39.2L29.8 39.6L30.7 39.4C30.7 39.5 30.6 39.6 30.5 39.7L30.3 40C29.9 40.6 29.6 41.3 29.2 41.9L28.4 43.2C28 44 28 44.8 28.3 45.4C28.7 46 29.4 46.4 30.2 46.4Z" fill="#98A782"/>
<path d="M34 36.6L34.4 36.8L36.9 32.5L39.1 36.3C38.9 36.3 38.7 36.2 38.6 36.2H38.4L38.2 36.3C38 36.4 38 36.6 37.8 37.3L37.7 37.9L41.9 39L43 35L42.6 34.8C42.2 34.7 41.9 34.6 41.6 34.5L41.2 34.4L41 34.9C41 35 41 35 40.9 35.1C40.9 35.2 40.9 35.3 40.8 35.3L40 33.9C39.5 33.1 39.1 32.3 38.6 31.5C38.2 30.9 37.6 30.5 36.9 30.5C36.3 30.5 35.8 30.8 35.4 31.3C34.7 32.3 34.1 33.3 33.6 34.4L32.8 35.9L33.2 36.2C33.4 36.3 33.7 36.4 34 36.6Z" fill="#98A782"/>
<path d="M41.8 39.9L41.4 40.2L41.6 40.6C41.9 41.2 42.2 41.7 42.6 42.3C43 42.9 43.4 43.7 43.8 44.4H39.5L39.6 44.3C39.7 44.2 39.7 44.2 39.8 44.1L40.1 43.8L39.8 43.5C39.6 43.3 39.3 43 39.1 42.8L38.7 42.5L35.7 45.5L38.7 48.6L39.2 48.1C39.4 47.9 39.6 47.7 39.8 47.5L40.1 47.2L39.7 46.8C39.6 46.7 39.5 46.7 39.5 46.6H42.2C42.9 46.6 43.4 46.6 43.9 46.6C44.6 46.6 45.3 46.2 45.6 45.6C45.9 45.1 45.9 44.4 45.7 43.9C45.2 42.9 44.6 41.9 44 40.9C43.8 40.6 43.6 40.2 43.4 39.8L43.2 39.4L42.8 39.6C42.3 39.5 42 39.8 41.8 39.9Z" fill="#98A782"/>
</svg>
