<svg width="74" height="74" viewBox="0 0 74 74" fill="none" xmlns="http://www.w3.org/2000/svg">
<path d="M30 28.592C30.4198 28.251 31.0416 28.3087 31.3888 28.7209L38.0764 36.6588C38.4237 37.071 38.3649 37.6815 37.9451 38.0225C37.5254 38.3635 36.9036 38.3058 36.5563 37.8936L29.8687 29.9557C29.5215 29.5436 29.5803 28.933 30 28.592Z" fill="#98A782"/>
<path d="M37.744 28.4509C37.3959 28.0394 36.774 27.9828 36.3549 28.3245C35.9358 28.6663 35.8782 29.277 36.2262 29.6885L42.9138 37.5966C43.2619 38.0081 43.8837 38.0647 44.3029 37.7229C44.722 37.3812 44.7796 36.7705 44.4316 36.359L37.744 28.4509Z" fill="#98A782"/>
<path d="M43.8288 28.5906C44.2493 28.2506 44.8709 28.3096 45.2173 28.7226L51.8747 36.6604C52.2211 37.0734 52.1609 37.6838 51.7404 38.0239C51.3199 38.364 50.6982 38.3049 50.3519 37.892L43.6944 29.9541C43.3481 29.5411 43.4082 28.9307 43.8288 28.5906Z" fill="#98A782"/>
<path fill-rule="evenodd" clip-rule="evenodd" d="M51.7537 50.5856C51.7537 48.3776 53.5628 46.5731 55.8127 46.5731C58.0627 46.5731 59.8718 48.3776 59.8718 50.5856C59.8718 52.7935 58.0627 54.598 55.8127 54.598C53.5628 54.598 51.7537 52.7935 51.7537 50.5856ZM55.8127 48.5103C54.6687 48.5103 53.7265 49.4314 53.7265 50.5856C53.7265 51.7397 54.6687 52.6608 55.8127 52.6608C56.9568 52.6608 57.899 51.7397 57.899 50.5856C57.899 49.4314 56.9568 48.5103 55.8127 48.5103Z" fill="#98A782"/>
<path fill-rule="evenodd" clip-rule="evenodd" d="M53.5246 17.6697C53.8728 17.2673 54.3791 17 54.9692 17H57.4997C58.5647 17 59.3898 17.8296 59.3898 18.8639V23.2174L72.2244 37.7729C73.2421 38.0149 74 38.9285 74 39.9918V45.4528C74 46.0404 73.7438 46.6425 73.3225 47.0598L69.4666 50.8795C69.0538 51.2885 68.4753 51.5542 67.8322 51.5542H63.2426C62.7633 55.1854 59.6263 58 55.8127 58C51.6662 58 48.3195 54.6724 48.3195 50.5856C48.3195 49.1704 48.7208 47.8463 49.4176 46.7199H24.5436C23.2677 46.7199 22.2317 45.6813 22.2317 44.4382V21.8183C22.2317 20.5752 23.2677 19.5366 24.5436 19.5366H50.9626C51.2074 19.5366 51.4091 19.6113 51.5266 19.663C51.6019 19.6961 51.6736 19.7339 51.7402 19.773L53.5185 17.6769L53.5246 17.6697ZM51.1479 44.7826C52.4268 43.7744 54.0473 43.1712 55.8127 43.1712C59.6263 43.1712 62.7633 45.9858 63.2426 49.617H67.8322C67.9121 49.617 67.9963 49.5843 68.0655 49.5158L71.9214 45.696C71.9821 45.6359 72.0272 45.5217 72.0272 45.4528V39.9918C72.0272 39.8025 71.8582 39.6474 71.6881 39.6474H63.0424C62.3125 39.6474 61.5893 39.2958 61.1578 38.7081L51.7085 25.8185L51.6905 25.79C51.4618 25.4274 51.3017 24.9845 51.3017 24.504V21.986C51.2475 21.9102 51.1634 21.8114 51.0603 21.7093C50.9592 21.6091 50.8615 21.5273 50.786 21.4738H24.5436C24.3736 21.4738 24.2045 21.629 24.2045 21.8183V44.4382C24.2045 44.6275 24.3736 44.7826 24.5436 44.7826H51.1479ZM69.5595 37.7102H63.0424C62.929 37.7102 62.8086 37.644 62.7581 37.5752L53.3534 24.7465C53.2924 24.6421 53.2745 24.5568 53.2745 24.504V21.8183C53.2745 21.5809 53.2006 21.3845 53.1488 21.2688C53.1362 21.2407 53.1229 21.2131 53.1091 21.186L55.017 18.9372H57.417V23.2506C57.417 23.716 57.6088 24.1313 57.8414 24.4194L57.8546 24.4358L69.5595 37.7102ZM50.2923 50.5856C50.2923 47.5526 52.7721 45.1084 55.8127 45.1084C58.8534 45.1084 61.3332 47.5526 61.3332 50.5856C61.3332 53.6186 58.8534 56.0628 55.8127 56.0628C52.7721 56.0628 50.2923 53.6186 50.2923 50.5856Z" fill="#98A782"/>
<path fill-rule="evenodd" clip-rule="evenodd" d="M11.8691 50.5856C11.8691 48.3776 13.6783 46.5731 15.9282 46.5731C18.1781 46.5731 19.9873 48.3776 19.9873 50.5856C19.9873 52.7935 18.1781 54.598 15.9282 54.598C13.6783 54.598 11.8691 52.7935 11.8691 50.5856ZM15.9282 48.5103C14.7841 48.5103 13.8419 49.4314 13.8419 50.5856C13.8419 51.7397 14.7841 52.6608 15.9282 52.6608C17.0723 52.6608 18.0145 51.7397 18.0145 50.5856C18.0145 49.4314 17.0723 48.5103 15.9282 48.5103Z" fill="#98A782"/>
<path d="M7.55355 37.2625C7.00877 37.2625 6.56713 37.6962 6.56713 38.2311C6.56713 38.7661 7.00877 39.1997 7.55355 39.1997H10.9576C11.5024 39.1997 11.944 38.7661 11.944 38.2311C11.944 37.6962 11.5024 37.2625 10.9576 37.2625H7.55355Z" fill="#98A782"/>
<path fill-rule="evenodd" clip-rule="evenodd" d="M15.9282 58C12.6225 58 9.82509 55.8851 8.82654 52.9567H3.72772C2.76952 52.9567 1.8643 52.5816 1.21585 51.8587L0.850734 51.4669L0.840675 51.4554C0.304934 50.8431 0 50.0851 0 49.2725V34.0375L3.63004 25.5351C4.14496 24.3068 5.37893 23.5055 6.71003 23.5055H17.1029C18.9512 23.5055 20.439 24.9916 20.439 26.8017V44.6644C22.2519 46.0191 23.4215 48.1697 23.4215 50.5856C23.4215 54.6724 20.0748 58 15.9282 58ZM10.4078 50.5856C10.4078 47.5526 12.8875 45.1084 15.9282 45.1084C18.9689 45.1084 21.4486 47.5526 21.4486 50.5856C21.4486 53.6186 18.9689 56.0628 15.9282 56.0628C12.8875 56.0628 10.4078 53.6186 10.4078 50.5856ZM15.9282 43.1712C11.7816 43.1712 8.43494 46.4988 8.43494 50.5856C8.43494 50.7312 8.43919 50.8759 8.44757 51.0195H3.72772C3.30413 51.0195 2.94761 50.8605 2.69287 50.5745L2.6856 50.5663L2.3282 50.1828C2.08682 49.9025 1.97282 49.59 1.97282 49.2725V35.3202H18.4662V43.607C17.674 43.325 16.8196 43.1712 15.9282 43.1712ZM18.4662 33.383V26.8017C18.4662 26.0454 17.8453 25.4427 17.1029 25.4427H6.71003C6.17479 25.4427 5.66272 25.7737 5.4537 26.2741L5.45081 26.281L2.4186 33.383H18.4662Z" fill="#98A782"/>
<path d="M25.5078 49.6169C24.963 49.6169 24.5214 50.0505 24.5214 50.5855C24.5214 51.1204 24.963 51.5541 25.5078 51.5541H47.1672C47.712 51.5541 48.1536 51.1204 48.1536 50.5855C48.1536 50.0505 47.712 49.6169 47.1672 49.6169H25.5078Z" fill="#98A782"/>
</svg>
