<svg width="74" height="74" viewBox="0 0 74 74" fill="none" xmlns="http://www.w3.org/2000/svg">
<path fill-rule="evenodd" clip-rule="evenodd" d="M57.4183 19.6626V18.8087H58.7087C59.2609 18.8087 59.7087 18.361 59.7087 17.8087C59.7087 17.2564 59.2609 16.8087 58.7087 16.8087H57.4183V12.0675C57.4183 10.6476 56.0464 9.49916 54.6019 10.0257L8.7655 26.0924L8.74137 26.1023C7.96873 26.4193 7.36694 27.1774 7.36694 28.1279V57.5533H6.36633C4.58976 57.5533 3.19141 58.989 3.19141 60.7247C3.19141 62.4692 4.62744 63.8961 6.36633 63.8961H33.8574C34.4097 63.8961 34.8574 63.4484 34.8574 62.8961C34.8574 62.3438 34.4097 61.8961 33.8574 61.8961H6.36633C5.7273 61.8961 5.19141 61.3599 5.19141 60.7247C5.19141 60.0808 5.70698 59.5533 6.36633 59.5533H8.12312C8.20116 59.5728 8.28284 59.5832 8.36694 59.5832C8.45104 59.5832 8.53271 59.5728 8.61075 59.5533H13.1111C13.189 59.5728 13.2706 59.5831 13.3546 59.5831C13.4385 59.5831 13.5201 59.5728 13.598 59.5533H31.1199C31.1978 59.5727 31.2792 59.5831 31.3631 59.5831C31.447 59.5831 31.5285 59.5727 31.6063 59.5533H39.413C39.4911 59.5728 39.5728 59.5832 39.6568 59.5832C39.7409 59.5832 39.8226 59.5728 39.9007 59.5533H47.9386C48.0167 59.5728 48.0983 59.5832 48.1824 59.5832C48.2665 59.5832 48.3482 59.5728 48.4262 59.5533H64.2948C64.3726 59.5727 64.454 59.583 64.5378 59.583C64.6216 59.583 64.703 59.5727 64.7808 59.5533H66.0172C66.6483 59.5533 67.1699 60.0546 67.1921 60.7071C67.1857 61.3454 66.6724 61.8664 66.0172 61.8664H37.3372C36.785 61.8664 36.3372 62.3141 36.3372 62.8664C36.3372 63.4187 36.785 63.8664 37.3372 63.8664H66.0172C67.7938 63.8664 69.1922 62.4307 69.1922 60.695L69.1919 60.6706C69.1499 58.9494 67.7602 57.5533 66.0172 57.5533H65.5378V48.0545C65.5378 47.5022 65.0901 47.0545 64.5378 47.0545C63.9855 47.0545 63.5378 47.5022 63.5378 48.0545V57.5533H57.0703V44.0396C57.0703 43.2707 56.6133 42.6833 56.0961 42.3316C55.574 41.9766 54.9075 41.7905 54.2143 41.7905H41.5128C40.8298 41.7905 40.1665 41.9787 39.646 42.3288C39.1352 42.6725 38.6568 43.2578 38.6568 44.0396V57.5533H32.3631V27.9679H63.538V44.3072C63.538 44.8594 63.9857 45.3072 64.538 45.3072C65.0902 45.3072 65.538 44.8594 65.538 44.3072V25.9679H57.4183V21.6626H58.7087C59.2609 21.6626 59.7087 21.2148 59.7087 20.6626C59.7087 20.1103 59.2609 19.6626 58.7087 19.6626H57.4183ZM55.3168 11.9004C55.3121 11.8996 55.3034 11.8987 55.2857 11.9052L55.2779 11.9081L9.48562 27.9593C9.44699 27.9781 9.41678 28.0049 9.3972 28.0325C9.3773 28.0607 9.36694 28.0909 9.36694 28.1279V57.5533H12.3546V40.6193C12.3546 39.2285 13.4456 38.0727 14.8625 38.0727H25.1861C26.6031 38.0727 27.6941 39.2285 27.6941 40.6193V57.5533H30.3631V25.9679H55.4183V21.6626H47.573C47.0208 21.6626 46.573 21.2148 46.573 20.6626C46.573 20.1103 47.0208 19.6626 47.573 19.6626H55.4183V18.8087H47.573C47.0208 18.8087 46.573 18.361 46.573 17.8087C46.573 17.2564 47.0208 16.8087 47.573 16.8087H55.4183V12.0675C55.4183 11.9882 55.3841 11.9408 55.3528 11.9174C55.3368 11.9055 55.3238 11.9015 55.3168 11.9004ZM47.1824 43.7905H41.5128C41.1808 43.7905 40.9162 43.8848 40.7624 43.9883C40.7006 44.0298 40.6704 44.0613 40.6568 44.0791V57.5533H47.1824V43.7905ZM49.1824 57.5533V43.7905H54.2143C54.5652 43.7905 54.8266 43.8869 54.9715 43.9855C55.0302 44.0254 55.0581 44.0554 55.0703 44.072V57.5533H49.1824ZM14.3546 57.5533H25.6941V40.6193C25.6941 40.2851 25.4511 40.0727 25.1861 40.0727H14.8625C14.5975 40.0727 14.3546 40.2851 14.3546 40.6193V57.5533ZM40.647 44.0955C40.647 44.0955 40.6475 44.093 40.6503 44.0884C40.6487 44.0932 40.647 44.0955 40.647 44.0955ZM55.0786 44.0867C55.0786 44.0867 55.0769 44.0844 55.0753 44.0795C55.0781 44.0841 55.0786 44.0867 55.0786 44.0867Z" fill="#98A782"/>
</svg>
