<svg width="24" height="24" viewBox="0 0 24 24" fill="none" xmlns="http://www.w3.org/2000/svg">
<path fill-rule="evenodd" clip-rule="evenodd" d="M2.29289 2.29289C2.68342 1.90237 3.31658 1.90237 3.70711 2.29289L17.9836 16.5693C18.0386 16.6136 18.0896 16.6643 18.1353 16.7211L21.7071 20.2929C22.0976 20.6834 22.0976 21.3166 21.7071 21.7071C21.3166 22.0976 20.6834 22.0976 20.2929 21.7071L17.2061 18.6203C15.6047 19.5368 13.8653 20.0001 12 20.0001C7.51999 20.0001 3.9072 17.353 1.13177 12.4962C0.956057 12.1887 0.956079 11.8113 1.13182 11.5038C2.30973 9.44312 3.63697 7.77716 5.12712 6.54134L2.29289 3.70711C1.90237 3.31658 1.90237 2.68342 2.29289 2.29289ZM6.54865 7.96286C5.34566 8.92596 4.21221 10.2613 3.15993 12.0002C5.65785 16.1306 8.61281 18.0001 12 18.0001C13.3253 18.0001 14.5639 17.7158 15.7281 17.1423L13.2934 14.7076C12.892 14.8999 12.449 15.0025 11.9954 15.0023C11.1997 15.002 10.4366 14.6857 9.87414 14.1228C9.31166 13.5599 8.99581 12.7966 8.99609 12.0009C8.99625 11.548 9.09878 11.1058 9.29084 10.7051L6.54865 7.96286ZM11.2271 12.6413L11.3571 12.7713C11.3335 12.7517 11.3107 12.731 11.2889 12.7091C11.2671 12.6873 11.2465 12.6647 11.2271 12.6413ZM19.4414 14.0191L11.4306 6.01698C11.6188 6.00504 11.8075 5.99938 11.9965 6.00005L12 6.00006C15.3872 6.00006 18.3422 7.86951 20.8401 12C20.3888 12.7459 19.9223 13.4183 19.4414 14.0191ZM9.08797 4.40362C10.0354 4.1326 11.0164 3.99674 12.0018 4.00006C16.481 4.00076 20.0932 6.64779 22.8682 11.5039C23.0439 11.8114 23.0439 12.1889 22.8682 12.4963C22.0598 13.9105 21.1827 15.1375 20.2314 16.1668C20.0468 16.3665 19.7888 16.4824 19.5169 16.4879C19.245 16.4933 18.9827 16.3877 18.7903 16.1955L8.65628 6.07255C8.40557 5.82212 8.30612 5.45771 8.39486 5.11464C8.4836 4.77157 8.74727 4.50109 9.08797 4.40362Z" fill="#859299"/>
</svg>
